<svg width="170" height="24" viewBox="0 0 170 24" fill="none" xmlns="http://www.w3.org/2000/svg">
<g opacity="0.65">
<mask id="mask0_7249_506" style="mask-type:luminance" maskUnits="userSpaceOnUse" x="0" y="0" width="170" height="24">
<path d="M170 0H0V23.4324H170V0Z" fill="white"/>
</mask>
<g mask="url(#mask0_7249_506)">
<path d="M3.27901 19.7627H0.0690918V22.9726H3.27901V19.7627Z" fill="#7B7B7B"/>
<path d="M72.628 20.5864C72.0279 20.8097 71.3162 20.9353 70.5207 20.9353C69.8229 20.9353 69.3344 20.7818 69.0274 20.4189C68.7064 20.0421 68.5528 19.442 68.5528 18.479V8.98884H72.8374V6.54651H68.5528V2.17822L65.5383 2.93186V6.54651H63.082V9.00279H65.5523V19.0094C65.5523 20.4608 65.9291 21.5773 66.6827 22.317C67.4363 23.0567 68.5808 23.4335 70.0601 23.4335C71.3301 23.4335 72.3768 23.3079 73.2561 23.0427L73.3259 23.0288L72.6978 20.5725L72.628 20.5864Z" fill="white"/>
<path d="M119.073 15.3518C118.655 16.8312 117.817 18.0733 116.575 19.0781C115.319 20.069 113.951 20.5575 112.402 20.5575C109.82 20.5575 107.908 19.748 106.597 18.1291C105.313 16.4962 104.671 14.3749 104.671 11.7232C104.671 9.07152 105.313 6.95018 106.597 5.31731C107.908 3.68443 109.834 2.87497 112.444 2.87497C115.11 2.87497 117.678 4.18685 118.794 6.6571L118.822 6.72688L121.683 5.49874L121.655 5.42896C120.902 3.65652 119.687 2.31673 118.027 1.40957C116.352 0.460554 114.496 0 112.444 0C109.053 0 106.345 1.10254 104.322 3.29366C102.298 5.48478 101.293 8.28997 101.293 11.7092C101.293 15.1983 102.298 18.0035 104.322 20.1946C106.345 22.3578 109.053 23.4324 112.486 23.4324C113.365 23.4324 114.119 23.4045 115.822 22.8742C116.701 22.5811 117.482 22.2182 118.208 21.7577C119.646 20.8087 121.278 18.8129 122.102 16.245L122.13 16.1752L119.129 15.296L119.073 15.3518ZM119.101 15.5472C119.087 15.5891 119.073 15.6309 119.059 15.6728C119.073 15.6449 119.087 15.603 119.101 15.5472ZM118.794 16.3566C118.78 16.3985 118.766 16.4264 118.738 16.4683C118.766 16.4404 118.78 16.3985 118.794 16.3566ZM118.669 16.6218C118.655 16.6637 118.641 16.6916 118.613 16.7335C118.641 16.6916 118.655 16.6497 118.669 16.6218ZM118.403 17.1242C118.39 17.1521 118.362 17.194 118.348 17.2219C118.362 17.1801 118.376 17.1521 118.403 17.1242ZM118.082 17.5987C118.069 17.6267 118.041 17.6546 118.027 17.6825C118.055 17.6546 118.069 17.6267 118.082 17.5987ZM117.915 17.836C117.901 17.8639 117.873 17.8918 117.859 17.9058C117.873 17.8779 117.901 17.85 117.915 17.836ZM117.734 18.0593C117.72 18.0872 117.692 18.1012 117.678 18.1291C117.692 18.1012 117.706 18.0872 117.734 18.0593ZM117.538 18.2826C117.524 18.2966 117.51 18.3245 117.496 18.3384C117.496 18.3245 117.524 18.2966 117.538 18.2826ZM117.315 18.5059C117.301 18.5199 117.287 18.5338 117.273 18.5478C117.301 18.5338 117.315 18.5199 117.315 18.5059ZM117.092 18.7292L117.078 18.7432C117.078 18.7432 117.078 18.7432 117.092 18.7292ZM118.85 6.62919C117.72 4.13103 115.124 2.80519 112.43 2.80519C109.806 2.80519 107.853 3.61465 106.527 5.27544C107.853 3.62861 109.806 2.80519 112.43 2.80519C115.124 2.79124 117.72 4.13103 118.85 6.62919ZM118.822 1.99573C118.836 1.99573 118.836 2.00969 118.85 2.00969C118.85 2.00969 118.836 2.00969 118.822 1.99573ZM121.558 5.415C121.558 5.42895 121.572 5.42895 121.572 5.44291C121.544 5.38709 121.516 5.33126 121.488 5.26148C121.502 5.30335 121.53 5.34522 121.544 5.37313C121.558 5.40104 121.558 5.40104 121.558 5.415ZM121.418 5.09401C121.39 5.05214 121.376 4.99631 121.348 4.95444C121.376 5.01027 121.39 5.05214 121.418 5.09401ZM121.097 4.49389C121.069 4.45202 121.041 4.41015 121.013 4.36828C121.041 4.3962 121.069 4.43807 121.097 4.49389ZM120.734 3.92169C120.706 3.87982 120.678 3.85191 120.65 3.81004C120.678 3.83795 120.706 3.87982 120.734 3.92169ZM120.329 3.3774C120.301 3.34948 120.274 3.30762 120.246 3.2797C120.26 3.30762 120.301 3.34948 120.329 3.3774ZM120.106 3.12618C120.078 3.09827 120.05 3.0564 120.022 3.02849C120.05 3.07036 120.078 3.09827 120.106 3.12618ZM119.883 2.88893C119.855 2.86102 119.827 2.8331 119.799 2.80519C119.813 2.8331 119.841 2.86102 119.883 2.88893ZM119.059 2.17716C119.073 2.19112 119.101 2.20508 119.115 2.21903C119.101 2.20508 119.087 2.19112 119.059 2.17716ZM119.311 2.37255C119.339 2.40046 119.366 2.41442 119.394 2.44233C119.366 2.41442 119.339 2.38651 119.311 2.37255ZM119.548 2.58189C119.576 2.60981 119.604 2.63772 119.632 2.65167C119.604 2.62376 119.576 2.60981 119.548 2.58189ZM118.138 21.7019C117.427 22.1624 116.645 22.5113 115.766 22.8044C116.659 22.5113 117.427 22.1485 118.138 21.7019C118.32 21.5902 118.501 21.4507 118.683 21.2971C118.501 21.4507 118.32 21.5763 118.138 21.7019ZM121.976 16.2869C121.948 16.3566 121.934 16.4264 121.906 16.4962C121.934 16.3985 121.976 16.3148 122.004 16.2171C121.99 16.245 121.99 16.2729 121.976 16.2869ZM119.311 20.7389C119.38 20.6691 119.436 20.6133 119.506 20.5295C119.436 20.5993 119.366 20.6691 119.311 20.7389ZM119.59 20.4318C119.646 20.3621 119.715 20.2923 119.771 20.2225C119.715 20.3062 119.646 20.376 119.59 20.4318ZM120.399 19.427C120.455 19.3572 120.497 19.2874 120.553 19.2177C120.497 19.2874 120.441 19.3572 120.399 19.427ZM120.888 18.6734C120.93 18.6036 120.971 18.5338 121.013 18.4501C120.985 18.5338 120.943 18.6036 120.888 18.6734ZM121.348 17.85C121.39 17.7802 121.418 17.6964 121.46 17.6267C121.418 17.6964 121.376 17.7802 121.348 17.85ZM121.544 17.4173C121.572 17.3336 121.613 17.2638 121.641 17.1801C121.613 17.2638 121.585 17.3336 121.544 17.4173ZM121.739 16.9568C121.767 16.873 121.809 16.8032 121.837 16.7195C121.795 16.8032 121.767 16.887 121.739 16.9568Z" fill="white"/>
<path d="M34.9039 0.291016H31.6521V23.1373H46.7108V20.2204H34.9039V0.291016Z" fill="white"/>
<path d="M77.8469 9.00072H80.7359V23.1383H83.7364V6.54443H77.8469V9.00072Z" fill="white"/>
<path d="M151.02 14.4038C150.602 14.2364 149.262 13.7898 146.959 13.1059C146.15 12.8826 145.312 12.6175 144.433 12.3244C143.945 12.1709 143.582 11.9475 143.344 11.6684C143.107 11.3893 142.996 11.0683 142.996 10.6775C142.996 10.3147 143.093 10.0216 143.275 9.77038C143.456 9.51918 143.735 9.32378 144.126 9.1563C144.768 8.87718 145.591 8.73762 146.624 8.73762C147.573 8.73762 148.369 8.94698 148.983 9.39357C149.597 9.82621 150.015 10.4821 150.211 11.3753L150.225 11.4451L153.002 10.7892L152.988 10.7194C152.667 9.2261 151.955 8.10959 150.867 7.36991C149.778 6.63023 148.327 6.25342 146.498 6.25342C144.768 6.25342 143.261 6.64421 141.991 7.42575C140.707 8.22125 140.079 9.37962 140.079 10.9288C140.079 11.794 140.288 12.5616 140.707 13.2036C141.125 13.8456 141.753 14.362 142.591 14.7527C143.275 15.0458 144.74 15.5343 147.001 16.2181C147.085 16.2321 147.336 16.3019 147.629 16.3856C147.908 16.4693 148.215 16.567 148.355 16.6229C148.536 16.6647 148.801 16.7485 149.052 16.8462C149.318 16.9439 149.555 17.0555 149.694 17.1532C150.281 17.5161 150.727 17.8789 150.727 18.5209C150.727 18.9396 150.63 19.3164 150.42 19.6234C150.225 19.9305 149.918 20.1817 149.499 20.3771C148.704 20.726 147.796 20.9214 146.806 20.9214C145.494 20.9214 144.461 20.6422 143.735 20.1119C143.009 19.5816 142.549 18.7861 142.367 17.7114L142.354 17.6417L139.548 18.0883L139.562 18.158C139.827 19.763 140.539 21.047 141.698 21.9681C142.912 22.9171 144.614 23.4056 146.806 23.4056C148.731 23.4056 150.364 22.945 151.676 22.0239C152.988 21.0749 153.658 19.8467 153.658 18.3255C153.658 17.3765 153.435 16.567 152.988 15.8971C152.542 15.2272 151.886 14.7667 151.02 14.4038Z" fill="white"/>
<path d="M168.312 7.79945C167.209 6.76669 165.576 6.25031 163.511 6.25031C161.138 6.25031 159.268 7.08768 157.872 8.74847H157.816V0.291016H154.816V23.1373H157.816V13.8146C157.816 12.1398 158.333 10.8698 159.24 10.0185C160.147 9.16715 161.459 8.72055 163.064 8.73451C164.39 8.73451 165.381 9.09737 166.023 9.80914C166.679 10.5209 167 11.5955 167 13.047V23.1373H170V12.3212C170 10.3534 169.414 8.8322 168.312 7.79945ZM163.05 8.66473C165.744 8.66473 167.069 10.1301 167.069 13.047C167.069 10.1162 165.744 8.66473 163.05 8.66473Z" fill="white"/>
<path d="M138.291 20.8376C138.124 19.8049 138.054 18.4651 138.054 16.8043V12.2964C138.054 10.3286 137.454 8.82137 136.296 7.80257C135.151 6.78377 133.463 6.25342 131.327 6.25342C129.457 6.25342 127.95 6.61628 126.833 7.32804C125.717 8.05377 124.977 9.12839 124.642 10.5519L124.628 10.6217L127.364 11.4451L127.378 11.3614C127.587 10.4682 127.978 9.79829 128.578 9.36565C129.164 8.91905 129.96 8.69575 130.978 8.69575C132.276 8.70971 133.295 8.98883 133.979 9.65873C134.649 10.3147 135.04 11.3614 135.054 12.9384C134.747 13.0361 134.188 13.1338 133.393 13.2315C132.555 13.3432 131.439 13.4548 130.071 13.5665C127.908 13.7758 126.275 14.3061 125.187 15.1714C124.098 16.0367 123.554 17.2369 123.554 18.7582C123.554 20.2794 124.112 21.4517 125.117 22.2332C126.108 23.0148 127.531 23.4056 129.248 23.4056C132.193 23.4056 134.188 22.5961 135.249 20.9353H135.333C135.403 21.7308 135.598 22.4565 135.947 23.0706L135.975 23.1125H139.115L139.031 22.9869C138.696 22.5961 138.445 21.8704 138.291 20.8376ZM128.369 16.3437C129.178 16.0507 129.541 16.0227 130.406 15.8832C133.03 15.4924 134.593 15.1993 135.109 15.0458V16.0786C135.109 19.1629 133.072 21.2703 129.82 21.2703C128.006 21.2703 126.582 20.391 126.582 18.6744C126.596 17.3207 127.364 16.6787 128.369 16.3437ZM128.327 9.47731C128.285 9.50522 128.257 9.54708 128.229 9.57499C128.257 9.54708 128.285 9.51918 128.327 9.47731ZM138.305 21.3261C138.291 21.2703 138.291 21.2284 138.277 21.1726C138.277 21.2284 138.291 21.2842 138.305 21.3261ZM138.236 20.9632C138.222 20.9074 138.222 20.8516 138.208 20.7958C138.222 20.8655 138.222 20.9074 138.236 20.9632ZM138.082 19.7072C138.082 19.6374 138.068 19.5816 138.068 19.5118C138.068 19.5816 138.082 19.6514 138.082 19.7072ZM138.04 19.2327C138.04 19.1629 138.026 19.0931 138.026 19.0233C138.04 19.0931 138.04 19.1629 138.04 19.2327ZM138.012 18.7302C138.012 18.6605 137.998 18.5907 137.998 18.5209C138.012 18.5907 138.012 18.6465 138.012 18.7302ZM137.998 18.172C137.998 18.1022 137.998 18.0324 137.998 17.9627C137.984 18.0464 137.984 18.1022 137.998 18.172ZM137.984 17.5858C137.984 17.53 137.984 17.4602 137.984 17.4044C137.97 17.4602 137.97 17.53 137.984 17.5858ZM127.364 11.1521C127.378 11.0962 127.392 11.0404 127.406 10.9846C127.392 11.0543 127.378 11.0962 127.364 11.1521ZM128.131 9.68665C128.103 9.72852 128.076 9.75642 128.034 9.79829C128.062 9.75642 128.089 9.71456 128.131 9.68665ZM127.95 9.90994C127.922 9.95181 127.894 9.99369 127.866 10.0356C127.894 9.97973 127.922 9.93786 127.95 9.90994ZM127.643 10.4124C127.615 10.4542 127.601 10.5101 127.573 10.5519C127.601 10.4961 127.615 10.4542 127.643 10.4124ZM127.517 10.6915C127.503 10.7334 127.475 10.7892 127.461 10.845C127.475 10.7892 127.489 10.7334 127.517 10.6915ZM128.424 9.39357C128.466 9.36566 128.494 9.32378 128.536 9.29587C128.508 9.33773 128.466 9.36566 128.424 9.39357ZM128.899 9.08652C128.941 9.05861 128.997 9.0307 129.038 9.01674C128.983 9.0307 128.941 9.05861 128.899 9.08652ZM129.15 8.96092C129.206 8.933 129.248 8.91906 129.304 8.89115C129.262 8.91906 129.206 8.933 129.15 8.96092ZM129.429 8.86322C129.485 8.84927 129.541 8.82136 129.597 8.8074C129.541 8.82136 129.485 8.83531 129.429 8.86322ZM129.722 8.7795C129.792 8.76554 129.848 8.75157 129.918 8.73762C129.848 8.73762 129.792 8.75159 129.722 8.7795ZM130.029 8.70972C130.099 8.69576 130.183 8.68179 130.253 8.66784C130.169 8.68179 130.099 8.69576 130.029 8.70972ZM135.989 23.0567C135.626 22.4426 135.444 21.689 135.375 20.8795C135.444 21.7029 135.64 22.4426 135.989 23.0567ZM138.347 21.5215C138.361 21.5773 138.375 21.6192 138.375 21.661C138.361 21.6192 138.347 21.5773 138.347 21.5215ZM138.598 22.4007C138.612 22.4426 138.626 22.4705 138.64 22.5124C138.626 22.4705 138.612 22.4286 138.598 22.4007ZM138.696 22.638C138.71 22.6659 138.724 22.7078 138.738 22.7357C138.724 22.6938 138.71 22.6659 138.696 22.638Z" fill="white"/>
<path d="M94.4269 20.5864C93.8268 20.8097 93.115 20.9353 92.3195 20.9353C91.6217 20.9353 91.1333 20.7818 90.8262 20.4189C90.5052 20.0421 90.3517 19.442 90.3517 18.479V8.98884H94.6223V6.54651H90.3378V2.17822L87.3372 2.93186V6.54651H84.8669V9.00279H87.3372V19.0094C87.3372 20.4608 87.714 21.5773 88.4676 22.317C89.2352 23.0567 90.3657 23.4335 91.845 23.4335C93.115 23.4335 94.1617 23.3079 95.041 23.0427L95.1108 23.0288L94.4827 20.5725L94.4269 20.5864Z" fill="white"/>
<path d="M83.9037 1.42432H80.5403V4.71796H83.9037V1.42432Z" fill="white"/>
<path d="M12.5179 3.65559V0.0688477H9.28003V3.65559C9.28003 8.45652 13.1738 12.3363 17.9608 12.3363H21.5475V9.09851H17.9608C14.9602 9.09851 12.5179 6.65617 12.5179 3.65559Z" fill="white"/>
<path d="M6.93622 9.09814C3.11223 9.09814 0 12.2104 0 16.0483V16.6484H3.23783V16.0483C3.23783 13.9968 4.89862 12.3499 6.93622 12.3499C8.98778 12.3499 10.6346 14.0107 10.6346 16.0483C10.6346 18.0999 8.97382 19.7467 6.93622 19.7467H6.68501V22.9845H6.93622C10.7742 22.9845 13.8724 19.8723 13.8724 16.0483C13.8864 12.2104 10.7742 9.09814 6.93622 9.09814Z" fill="white"/>
<path d="M55.4888 6.25342C52.9767 6.25342 50.9391 7.07685 49.4318 8.70972C47.9245 10.3426 47.1709 12.3802 47.1709 14.8225C47.1709 17.2649 47.9245 19.3304 49.4318 20.9632C50.9391 22.5961 52.9767 23.4195 55.4888 23.4195C59.0476 23.4195 61.8668 21.3959 62.9135 18.3395L62.9414 18.2697L60.206 17.4882L60.1781 17.5579C59.4384 19.6374 57.7497 20.9772 55.4888 20.9772C53.8978 20.9772 52.6557 20.405 51.7904 19.4141C50.9391 18.4511 50.4366 17.0695 50.3529 15.4505H63.388V14.8225C63.388 12.4081 62.6762 10.3845 61.2248 8.73762C59.7873 7.07683 57.8753 6.25342 55.4888 6.25342ZM55.4888 8.70972C56.7448 8.70972 57.7916 9.14236 58.5731 9.896C59.3407 10.6357 59.8571 11.6963 60.0664 12.9943H50.5204C50.7995 11.6963 51.3578 10.6357 52.1812 9.896C53.0185 9.14236 54.135 8.70972 55.4888 8.70972Z" fill="white"/>
</g>
</g>
</svg>
