<svg width="200" height="49" viewBox="0 0 200 49" fill="none" xmlns="http://www.w3.org/2000/svg">
<g opacity="0.65" clip-path="url(#clip0_7312_154)">
<path d="M-0.000976562 18.5972V24.8955H2.86576V27.6663C2.86576 27.6876 2.91904 27.6663 2.99364 27.613C3.06824 27.5917 3.14284 27.5597 3.19612 27.5597C3.47321 27.5597 3.52649 28.0499 3.52649 28.1991C3.50518 28.1991 3.47321 28.1991 3.45189 28.1778H3.39861C3.24941 28.1778 3.14284 28.2524 3.08955 28.3803C3.01496 28.5295 2.94036 28.6894 2.8551 28.8172C2.90839 29.0517 2.96167 29.2009 2.98298 29.2222C3.0043 29.2755 3.0043 29.2968 3.0043 29.3288C3.0043 29.4567 3.0043 29.5313 2.98298 29.5845C2.96167 29.6591 2.96167 29.7337 2.96167 29.819C2.96167 29.9042 2.96167 29.9682 3.03627 30.1494H2.8551V35.2754C2.87641 35.2541 2.90839 35.2541 2.9297 35.2541C3.0043 35.2541 3.05758 35.2754 3.11087 35.3074C3.13218 35.3606 3.18547 35.382 3.21744 35.382C3.24941 35.382 3.23875 35.3606 3.23875 35.2754C3.31335 35.3287 3.36664 35.4033 3.36664 35.5098C3.36664 35.659 3.26007 35.7443 3.08955 35.7443C2.98298 35.7443 2.90839 35.7443 2.88707 35.723V35.8722H7.16053V35.5951C7.3417 35.5951 7.3417 35.7017 7.3417 35.8722H10.4429V24.8955H13.3416V18.5972H-0.000976562ZM4.48562 25.1832C4.46431 25.1832 4.46431 25.1832 4.43234 25.2045C4.35774 25.0766 4.30445 25.002 4.30445 24.9487V24.8955C4.32577 24.8741 4.35774 24.8209 4.43234 24.7463C4.45365 24.8209 4.48562 24.8741 4.48562 24.8955L4.53891 25.0979C4.51759 25.1193 4.53891 25.1512 4.56022 25.2258C4.52825 25.2045 4.50694 25.1832 4.48562 25.1832ZM4.63482 25.4177V25.439C4.63482 25.439 4.63482 25.439 4.63482 25.4177ZM4.74139 27.1015C4.79468 27.0801 4.81599 27.0269 4.81599 26.9949C4.81599 26.9629 4.81599 26.9416 4.79468 26.9203V26.867H4.81599C4.8373 26.867 4.89059 26.8883 4.94387 26.9416C4.8373 27.0482 4.79468 27.1441 4.79468 27.2187C4.79468 27.24 4.79468 27.272 4.81599 27.272V27.3466C4.70942 27.2933 4.66679 27.24 4.66679 27.2187C4.65613 27.208 4.68811 27.1547 4.74139 27.1015ZM5.01847 29.6591C4.99716 29.6591 4.96519 29.6591 4.94387 29.6378L4.89059 29.6165C4.86927 29.6378 4.8373 29.6911 4.8373 29.7231L4.89059 29.9043L4.81599 30.0534V29.9469C4.79468 29.9256 4.7627 29.8403 4.70942 29.7657C4.70942 29.6591 4.73073 29.6165 4.78402 29.6165H4.89059C4.78402 29.4886 4.74139 29.2861 4.74139 29.0304C4.74139 28.7533 4.81599 28.4975 5.01847 28.4123C5.12504 28.4869 5.22096 28.9238 5.22096 29.2542C5.22096 29.5313 5.14636 29.6591 5.01847 29.6591ZM4.1446 29.4567C4.01671 29.5099 3.94212 29.6059 3.94212 29.7657C3.9208 29.7657 3.88883 29.7657 3.88883 29.7444C3.88883 29.7231 3.88883 29.6698 3.91014 29.6378C3.93146 29.6165 3.93146 29.5632 3.93146 29.5313C3.93146 29.5099 3.91014 29.478 3.85686 29.4567C3.78226 29.4567 3.75029 29.4353 3.75029 29.4034C3.75029 29.3714 3.75029 29.3821 3.7716 29.3821H3.82489C3.8462 29.4034 3.8462 29.4034 3.87817 29.4034C3.89949 29.4247 3.89949 29.4247 3.93146 29.4247C3.91014 29.3501 3.87817 29.2968 3.82489 29.2755C3.75029 29.2542 3.71832 29.1476 3.71832 28.9984C3.95277 28.9984 4.12328 29.0197 4.20854 29.105L4.31511 29.1796C4.32577 29.3075 4.27248 29.4034 4.1446 29.4567ZM4.86927 30.3305C4.86927 30.3092 4.89059 30.2559 4.92256 30.1813C4.94387 30.128 4.94387 30.0748 4.94387 30.0321C4.96519 30.0534 4.96519 30.1067 4.96519 30.1813L4.9119 30.3625C4.89059 30.3518 4.86927 30.3518 4.86927 30.3305ZM4.65613 31.7905C4.63482 31.7692 4.63482 31.7159 4.60285 31.684C4.60285 31.6094 4.62416 31.5774 4.70942 31.5561C4.78402 31.5348 4.81599 31.4815 4.81599 31.4069C4.81599 31.5881 4.81599 31.684 4.99716 31.8651C4.7627 31.8651 4.65613 31.8438 4.65613 31.7905ZM6.71294 32.7603C6.65965 32.6324 6.60637 32.5792 6.58505 32.5792C6.53177 32.5792 6.47848 32.6324 6.45717 32.7284C6.40388 32.8349 6.30797 32.8776 6.18009 32.8776C6.18009 32.7497 6.23337 32.6218 6.36126 32.5152C6.46783 32.4406 6.51045 32.366 6.51045 32.2808H6.53177C6.53177 32.3021 6.53177 32.3021 6.55308 32.3021H6.58505C6.58505 32.3234 6.56374 32.3554 6.53177 32.3767L6.51045 32.398C6.51045 32.4513 6.53177 32.4726 6.61702 32.4726C6.74491 32.4726 6.81951 32.4939 6.87279 32.5792C6.84082 32.6111 6.71294 32.5792 6.71294 32.7603ZM6.25469 34.7106C6.18009 34.7106 6.14812 34.7319 6.14812 34.8171C6.14812 34.8917 6.14812 34.9237 6.16943 34.945L6.19074 34.9663C6.11614 34.8917 6.04155 34.8384 6.00957 34.8171L5.80709 34.6679C5.88169 34.54 5.98826 34.4654 6.06286 34.4335C6.13746 34.4122 6.16943 34.3056 6.16943 34.1031C6.29731 34.231 6.31863 34.3376 6.29731 34.3802C6.276 34.4548 6.29731 34.5827 6.40388 34.7852C6.3506 34.7319 6.29731 34.7106 6.25469 34.7106ZM7.55484 35.0942C7.53353 35.0942 7.50156 35.0729 7.48024 35.0196C7.45893 34.9663 7.42696 34.945 7.37367 34.945C7.35236 34.945 7.35236 34.945 7.32039 34.9663C7.2671 34.8384 7.24579 34.7106 7.24579 34.636C7.24579 34.4548 7.37367 34.3269 7.65075 34.231C7.65075 34.3589 7.62944 34.4868 7.57615 34.5933C7.52287 34.6999 7.50156 34.8278 7.50156 34.977H7.68272C7.62944 35.0409 7.57615 35.0942 7.55484 35.0942Z" fill="white"/>
<path d="M25.0957 18.5972H14.3428V35.8615H22.0265V31.6627H23.0282C23.3373 31.6627 23.4119 31.8651 23.4119 32.2488V35.8615H31.3514V32.0463C31.3514 29.4886 30.0725 28.1991 26.7156 28.0712V27.7942C29.6143 27.6663 31.0743 26.2276 31.0743 23.979V23.3928C31.0636 20.0891 29.0921 18.5972 25.0957 18.5972ZM28.6125 20.5474C28.5912 20.5261 28.5592 20.4941 28.5592 20.4728C28.5805 20.4941 28.6125 20.4941 28.6338 20.4941C28.6338 20.5261 28.6338 20.5474 28.6125 20.5474ZM15.5257 23.4354C15.4724 23.4354 15.3978 23.3822 15.3232 23.2862C15.3232 23.1584 15.3445 23.0838 15.3978 23.0838C15.4191 23.0838 15.4191 23.0838 15.4511 23.1051C15.4724 23.1264 15.5044 23.1264 15.5257 23.1264C15.547 23.1051 15.547 23.0731 15.547 23.0198C15.547 22.9452 15.5257 22.8919 15.4937 22.8387C15.4404 22.8173 15.4191 22.7321 15.4191 22.6575C15.4191 22.5829 15.4404 22.455 15.5257 22.3271C15.579 22.3271 15.6323 22.3271 15.6536 22.3484C15.6749 22.3697 15.7069 22.4017 15.7282 22.4017C15.7495 22.5083 15.8028 22.5509 15.8774 22.5829C15.952 22.6042 15.984 22.6575 15.984 22.7854C15.6962 22.796 15.6536 23.4354 15.5257 23.4354ZM14.7051 23.6166L14.4707 23.0305C14.4707 23.0092 14.492 23.0092 14.5239 23.0092H14.5772C14.5985 23.0305 14.5985 23.0305 14.6305 23.0305C14.6838 22.8813 14.7051 22.8493 14.7051 22.9239V23.6166ZM19.3622 24.0536H19.5114C19.586 24.0536 19.6926 24.0003 19.8205 23.8724C19.8205 24.1495 19.7139 24.2774 19.5114 24.2774C19.4155 24.288 19.3622 24.2134 19.3622 24.0536ZM22.0265 26.5366V23.9044H22.9217C23.252 23.9044 23.4119 23.979 23.4119 24.4159V26.0038C23.4119 26.4088 23.3373 26.5366 23.0282 26.5366H22.0265ZM15.984 31.9184V31.8438C16.0053 31.8438 16.0586 31.8651 16.1332 31.9184C16.2077 31.9397 16.2397 31.9717 16.261 31.9397C16.2397 31.8119 16.2077 31.7586 16.1332 31.7586H16.0266C16.0266 31.684 16.0479 31.6307 16.1012 31.6307H16.2077C16.2291 31.652 16.2291 31.652 16.261 31.652C16.2823 31.652 16.2823 31.6307 16.2823 31.5987L16.2397 31.4069C16.293 31.4602 16.3463 31.4815 16.3889 31.4815C16.4102 31.4815 16.4635 31.4602 16.4955 31.3749C16.5168 31.3216 16.5701 31.2683 16.6447 31.2257C16.7513 31.4069 16.7939 31.5028 16.7726 31.5348C16.7513 31.5881 16.7726 31.6627 16.8791 31.7692C16.7726 31.8758 16.6767 31.9184 16.6021 31.9184C16.5275 31.9184 16.4742 31.8971 16.4529 31.8438V31.7692C16.4315 31.7905 16.4315 31.8225 16.4315 31.8438C16.4315 31.8971 16.4529 31.9504 16.5061 31.9717C16.5275 31.993 16.5594 32.0463 16.5594 32.0783C16.5594 32.0996 16.4848 32.1316 16.325 32.1316C16.4315 32.1529 16.4742 32.2594 16.4742 32.4619V32.4832C16.4529 32.4832 16.3996 32.3767 16.325 32.2062C16.2504 32.025 16.1758 31.9504 16.0692 31.9504C16.0479 31.9291 16.0479 31.9291 16.0159 31.9291H15.984V31.9184ZM28.1969 33.0161C28.069 33.0161 27.9624 32.9415 27.9198 32.7816V32.6324C28.101 32.8136 28.1543 32.8136 28.2502 32.8136H28.3567C28.3567 32.9415 28.3034 33.0161 28.1969 33.0161ZM15.3978 34.6892C15.3232 34.6679 15.2699 34.6146 15.2486 34.5827L15.4511 34.4015V34.3269C15.4298 34.3056 15.4298 34.2736 15.4298 34.2203C15.4298 34.0925 15.4831 34.0179 15.5577 34.0179C15.579 34.0179 15.611 34.0179 15.6323 34.0392C15.6323 33.9859 15.611 33.9646 15.5257 33.9326C15.4511 33.9113 15.4191 33.8793 15.4191 33.8793C15.4937 33.7514 15.547 33.6981 15.5683 33.6981C15.6216 33.6981 15.6749 33.7514 15.7495 33.826C15.8028 33.9326 15.8561 33.9752 15.9307 33.9752C15.952 33.9752 16.0053 33.9539 16.0586 33.8687C16.0586 33.9219 16.0372 33.9752 15.984 34.0179C15.9094 34.0711 15.8774 34.1244 15.8774 34.1457C15.8774 34.1671 15.8987 34.1671 15.984 34.199H16.0586C15.984 34.3802 15.9307 34.4335 15.9094 34.4015C15.888 34.3802 15.888 34.4015 15.888 34.5081V34.7638C15.6216 34.7852 15.4724 34.7638 15.3978 34.6892ZM27.1738 34.913C27.4083 34.636 27.4083 34.5827 27.4083 34.199C27.4829 34.199 27.5361 34.1777 27.5894 34.0925C27.6107 34.0392 27.6427 34.0392 27.6427 34.0711C27.6427 34.2523 27.5894 34.4015 27.5148 34.5081C27.4083 34.636 27.4083 34.7852 27.4083 34.913H27.1738ZM19.6713 34.8171C19.6713 34.7958 19.6713 34.7638 19.6926 34.7638C19.7139 34.7638 19.7992 34.8171 19.8951 34.913C19.8951 35.35 19.8738 35.318 20.1295 35.659H19.8951C19.8951 35.4779 19.8738 35.35 19.7885 35.2221C19.7246 35.0942 19.6713 34.9663 19.6713 34.8171Z" fill="white"/>
<path d="M48.3333 30.7355C48.2587 30.7355 48.1841 30.7568 48.1522 30.8421C48.1308 30.9167 48.0776 30.9486 48.003 30.9486C47.9816 30.9486 47.9284 30.9273 47.8538 30.874L47.7472 30.7675C47.6193 30.6396 47.6726 30.565 47.8538 30.4904C47.9284 30.4691 48.003 30.3625 48.0562 30.1813C47.8538 30.0534 47.7792 29.9788 47.6939 29.9043C47.6726 29.8829 47.6406 29.7977 47.6193 29.6698C47.7685 29.6698 47.8964 29.6911 48.0243 29.7764C48.0243 29.5952 48.0776 29.446 48.1522 29.2648L47.0225 20.1851L46.7881 18.5972H45.3067V18.7037C45.3067 18.757 45.2854 18.7783 45.2321 18.7783H45.1575C44.9231 18.757 44.7952 18.9275 44.7739 19.3645V19.1407C44.6993 19.1407 44.6673 19.162 44.646 19.2472C44.6247 19.3218 44.5181 19.3751 44.337 19.3751L44.7419 18.6078H34.2981L32.124 35.8722H39.829L39.9036 33.4424H41.1825L41.2571 35.8722H48.9727L48.3333 30.7355ZM43.4418 19.4924C43.3672 19.4924 43.3352 19.471 43.3139 19.3858V19.3112C43.3672 19.3112 43.4204 19.2899 43.4418 19.2579C43.4631 19.2366 43.495 19.2366 43.5164 19.2366C43.5377 19.2366 43.591 19.2579 43.6442 19.3112C43.5696 19.4497 43.5164 19.4924 43.4418 19.4924ZM43.8467 19.7481C43.8467 19.6948 43.8467 19.6735 43.8254 19.6416C43.8041 19.5883 43.7508 19.535 43.6442 19.4604C43.7508 19.4391 43.7934 19.4071 43.7721 19.4071H43.8787C43.9 19.4284 43.9 19.4284 43.932 19.4284L43.8467 19.7481ZM34.7776 23.7232C34.7989 23.7232 34.7989 23.7232 34.8309 23.7445C34.8522 23.7658 34.8522 23.7658 34.8842 23.7658C34.9055 23.7445 34.9055 23.7232 34.9055 23.7019C34.9055 23.6273 34.8842 23.574 34.8522 23.5527C34.8309 23.5314 34.7989 23.4781 34.7989 23.4035C34.7989 23.3289 34.8202 23.2543 34.8735 23.1264C34.9268 23.1264 34.9801 23.1264 35.0014 23.1477C35.0227 23.169 35.0227 23.169 35.0547 23.169C35.076 23.2436 35.1293 23.2969 35.2039 23.3182C35.2572 23.3395 35.2785 23.3928 35.2785 23.4994C35.044 23.4994 34.9481 24.0322 34.8735 24.0322C34.8522 24.0322 34.7989 23.979 34.7243 23.9044C34.7243 23.7765 34.7563 23.7232 34.7776 23.7232ZM34.1915 24.1814L34.0103 23.6912C34.0103 23.6699 34.0103 23.6699 34.0316 23.6699H34.0849C34.1062 23.6912 34.1062 23.6912 34.1382 23.6912C34.1595 23.51 34.1915 23.4887 34.1915 23.5846V24.1814ZM38.1559 24.5651H38.2625C38.3371 24.5651 38.4117 24.5118 38.5395 24.4159C38.5395 24.6503 38.4649 24.7463 38.2838 24.7463C38.2092 24.7463 38.1559 24.693 38.1559 24.5651ZM40.0315 29.0197L40.1594 24.8955H40.9267L41.0546 29.0197H40.0315ZM35.8007 31.2257C35.7474 31.2257 35.6941 31.2044 35.6728 31.1511V31.0978C35.6515 31.1191 35.6515 31.1511 35.6515 31.1724C35.6515 31.1937 35.6728 31.247 35.7048 31.279C35.7261 31.3003 35.7581 31.3323 35.7581 31.3536C35.7581 31.3749 35.7048 31.4069 35.5769 31.4069C35.6515 31.4282 35.7048 31.5348 35.7048 31.684V31.7159C35.6835 31.7159 35.6302 31.6413 35.5769 31.4815C35.5023 31.3323 35.4277 31.247 35.3424 31.247C35.3211 31.2257 35.3211 31.2257 35.2892 31.2257V31.1724C35.3105 31.1937 35.3424 31.1937 35.417 31.2257C35.4384 31.247 35.4703 31.247 35.5236 31.247C35.5023 31.1405 35.4703 31.0978 35.417 31.0978H35.3105C35.3105 31.0232 35.3318 30.9913 35.3851 30.9913H35.4597C35.481 31.0126 35.481 31.0126 35.513 31.0126C35.5343 31.0126 35.5343 30.9913 35.5343 30.9593L35.481 30.7781C35.5343 30.8314 35.5875 30.8527 35.6089 30.8527C35.6302 30.8527 35.6835 30.8314 35.7154 30.7781C35.7367 30.7248 35.7687 30.6716 35.8433 30.6289C35.9179 30.7781 35.9712 30.8847 35.9499 30.906C35.9286 30.9273 35.9499 31.0126 36.0245 31.0872C35.9605 31.1724 35.8859 31.2257 35.8007 31.2257ZM45.6691 32.1742C45.5412 32.1742 45.4666 32.1209 45.4133 31.993V31.8438C45.5412 31.9504 45.6158 31.993 45.6904 31.993H45.797C45.797 32.1209 45.7437 32.1742 45.6691 32.1742ZM35.2678 33.1973H35.3424C35.2678 33.3251 35.2359 33.3784 35.2146 33.3465C35.1932 33.3251 35.1932 33.3678 35.1932 33.453V33.6555C35.0121 33.6555 34.8629 33.6342 34.7883 33.5809C34.735 33.5596 34.6817 33.5276 34.6604 33.5063L34.8416 33.3571V33.2825C34.8202 33.2612 34.8202 33.2292 34.8202 33.2079C34.8202 33.08 34.8416 33.0268 34.9268 33.0268C34.9481 33.0268 34.9801 33.0268 35.0014 33.0481C35.0014 32.9948 34.9801 32.9735 34.8948 32.9415C34.8735 32.9202 34.8416 32.9202 34.8202 32.9202C34.8735 32.8136 34.9268 32.771 34.9481 32.771C35.0014 32.771 35.0547 32.7923 35.0973 32.8776C35.1506 32.9522 35.2039 33.0054 35.2465 33.0054C35.2892 33.0054 35.3211 32.9841 35.3531 32.9308C35.3531 32.9522 35.3318 33.0054 35.2785 33.0374C35.2252 33.0907 35.2039 33.144 35.2039 33.1653L35.2678 33.1973ZM38.6248 34.4015C38.6248 34.2736 38.6035 34.1457 38.5182 34.0392C38.4436 33.9326 38.4117 33.8047 38.4117 33.6768C38.4117 33.6022 38.4863 33.6555 38.6141 33.7834C38.6141 34.2203 38.5928 34.1138 38.7953 34.4015H38.6248ZM34.5005 34.7319C34.4792 34.7852 34.4792 34.8384 34.4792 34.8598C34.4579 34.7852 34.4046 34.7106 34.4046 34.6786C34.4046 34.6573 34.4046 34.6573 34.4259 34.6573L34.4472 34.6786C34.4472 34.604 34.4259 34.5507 34.3727 34.5294C34.3194 34.5081 34.2981 34.4761 34.2981 34.4015C34.4259 34.4015 34.5005 34.4761 34.5005 34.604V34.7319ZM44.9444 34.7852L44.8698 34.8598C44.8698 34.7319 44.8165 34.6573 44.7206 34.6573H44.646L44.8272 34.604C44.9551 34.604 45.0297 34.6573 45.0297 34.7319C45.0297 34.7638 44.9977 34.7852 44.9444 34.7852ZM36.8344 35.7336C36.7598 35.7336 36.7065 35.659 36.7065 35.4992C36.7065 35.4246 36.7278 35.35 36.7598 35.2647H36.6319C36.6532 35.2434 36.6319 35.1901 36.6106 35.1155C36.5893 35.0942 36.5893 35.0409 36.5573 34.9663C36.536 34.913 36.4827 34.8598 36.4508 34.8384C36.4721 34.8171 36.5041 34.8171 36.5254 34.8171C36.6532 34.8171 36.7811 35.0196 36.8024 35.2221C36.8557 35.1688 36.9303 35.1475 37.0049 35.1475C37.0049 35.2221 37.0049 35.2541 36.9836 35.2754C36.9623 35.2967 36.909 35.35 36.8024 35.4246C36.8238 35.4992 36.8557 35.5525 36.9303 35.5738C37.0049 35.5951 37.0369 35.6484 37.0369 35.723H36.8344V35.7336ZM38.7527 35.5311C38.7527 35.5311 38.7527 35.5098 38.7314 35.4779L38.806 35.5525C38.806 35.5844 38.774 35.5525 38.7527 35.5311Z" fill="white"/>
<mask id="mask0_7312_154" style="mask-type:luminance" maskUnits="userSpaceOnUse" x="53" y="9" width="21" height="31">
<path d="M73.2992 9.91113H53.1255V39.3245H73.2992V9.91113Z" fill="white"/>
</mask>
<g mask="url(#mask0_7312_154)">
<mask id="mask1_7312_154" style="mask-type:luminance" maskUnits="userSpaceOnUse" x="39" y="-1" width="49" height="50">
<path d="M59.9797 -0.000281941L39.3701 29.7241L67.0802 48.9371L87.6898 19.2127L59.9797 -0.000281941Z" fill="white"/>
</mask>
<g mask="url(#mask1_7312_154)">
<mask id="mask2_7312_154" style="mask-type:luminance" maskUnits="userSpaceOnUse" x="39" y="-1" width="49" height="50">
<path d="M59.9797 -0.000281941L39.3701 29.7241L67.0802 48.9371L87.6898 19.2127L59.9797 -0.000281941Z" fill="white"/>
</mask>
<g mask="url(#mask2_7312_154)">
<path d="M73.1287 15.2079C73.0115 16.1564 73.8428 18.1386 72.3081 17.9894C70.8801 18.0853 63.9744 19.6626 63.0472 20.2913C62.8873 21.0586 63.2284 21.8366 63.1005 23.4032C63.0152 24.3623 62.866 25.6944 62.4504 27.3463C61.6511 27.1012 61.4593 27.1331 60.4256 27.4315C59.8608 27.5594 59.8288 27.6233 59.3279 29.1793L59.3919 37.513L58.4008 37.577L58.3901 39.1862H53.8182L53.8289 36.1703L54.1166 35.9252L54.1593 24.4369L53.9888 24.4476L54.0207 16.0498L53.2534 15.5276L54.1166 14.9522C55.1397 14.1955 53.9355 12.1494 55.4168 12.1494C56.621 12.6183 58.0917 11.8084 58.6778 10.6254C58.8803 9.95403 59.7542 9.65564 59.7435 10.6681C59.8288 11.8936 60.3936 12.1067 61.5019 12.597C62.6209 13.0978 68.4183 10.2951 70.4112 10.018C72.841 10.0606 73.246 13.9824 73.1287 15.2079ZM60.1272 20.8348C59.914 21.6128 59.9886 22.135 60.2977 22.1776C60.9478 22.2522 61.6831 23.5204 61.9815 24.0533C62.0668 25.3108 60.8305 22.3801 59.946 23.5417C59.541 24.4795 59.7435 26.4511 60.2444 26.8454C60.7346 27.229 62.5676 26.1207 62.6742 24.9271C62.93 22.9023 63.4841 19.2576 60.1272 20.8348Z" fill="white"/>
</g>
</g>
</g>
<mask id="mask3_7312_154" style="mask-type:luminance" maskUnits="userSpaceOnUse" x="58" y="10" width="15" height="11">
<path d="M72.1693 10.4868H58.1021V20.7175H72.1693V10.4868Z" fill="white"/>
</mask>
<g mask="url(#mask3_7312_154)">
<mask id="mask4_7312_154" style="mask-type:luminance" maskUnits="userSpaceOnUse" x="39" y="-1" width="49" height="50">
<path d="M59.9797 -0.000281941L39.3701 29.7241L67.0802 48.9371L87.6898 19.2127L59.9797 -0.000281941Z" fill="white"/>
</mask>
<g mask="url(#mask4_7312_154)">
<mask id="mask5_7312_154" style="mask-type:luminance" maskUnits="userSpaceOnUse" x="39" y="-1" width="49" height="50">
<path d="M59.9797 -0.000281941L39.3701 29.7241L67.0802 48.9371L87.6898 19.2127L59.9797 -0.000281941Z" fill="white"/>
</mask>
<g mask="url(#mask5_7312_154)">
<path fill-rule="evenodd" clip-rule="evenodd" d="M58.3579 20.675L72.1374 17.2648C72.1374 17.2648 72.4891 9.4212 69.4625 10.7L59.9351 14.1316C59.0932 15.3039 58.8268 14.8669 58.6989 16.295C58.571 17.7123 57.6652 20.8455 58.3579 20.675Z" fill="white"/>
</g>
</g>
</g>
<mask id="mask6_7312_154" style="mask-type:luminance" maskUnits="userSpaceOnUse" x="59" y="11" width="13" height="9">
<path d="M71.8818 11.0513H59.2319V19.8646H71.8818V11.0513Z" fill="white"/>
</mask>
<g mask="url(#mask6_7312_154)">
<mask id="mask7_7312_154" style="mask-type:luminance" maskUnits="userSpaceOnUse" x="39" y="-1" width="49" height="50">
<path d="M59.9797 -0.000770222L39.3701 29.7236L67.0802 48.9366L87.6898 19.2122L59.9797 -0.000770222Z" fill="white"/>
</mask>
<g mask="url(#mask7_7312_154)">
<mask id="mask8_7312_154" style="mask-type:luminance" maskUnits="userSpaceOnUse" x="39" y="-1" width="49" height="50">
<path d="M59.9797 -0.000770222L39.3701 29.7236L67.0802 48.9366L87.6898 19.2122L59.9797 -0.000770222Z" fill="white"/>
</mask>
<g mask="url(#mask8_7312_154)">
<path fill-rule="evenodd" clip-rule="evenodd" d="M59.7753 19.7687L71.5513 16.6782C72.18 15.8363 71.8177 10.1135 69.4625 11.2751L61.246 14.0672C60.5106 15.0903 59.0186 17.2217 59.3064 17.7759C59.5941 18.33 59.1678 19.9286 59.7753 19.7687Z" fill="white"/>
</g>
</g>
</g>
<mask id="mask9_7312_154" style="mask-type:luminance" maskUnits="userSpaceOnUse" x="54" y="23" width="4" height="14">
<path d="M57.1005 23.7012H54.8306V36.4896H57.1005V23.7012Z" fill="white"/>
</mask>
<g mask="url(#mask9_7312_154)">
<mask id="mask10_7312_154" style="mask-type:luminance" maskUnits="userSpaceOnUse" x="39" y="-1" width="49" height="50">
<path d="M59.9797 -0.000770222L39.3701 29.7236L67.0802 48.9366L87.6898 19.2122L59.9797 -0.000770222Z" fill="white"/>
</mask>
<g mask="url(#mask10_7312_154)">
<mask id="mask11_7312_154" style="mask-type:luminance" maskUnits="userSpaceOnUse" x="39" y="-1" width="49" height="50">
<path d="M59.9797 -0.000770222L39.3701 29.7236L67.0802 48.9366L87.6898 19.2122L59.9797 -0.000770222Z" fill="white"/>
</mask>
<g mask="url(#mask11_7312_154)">
<path fill-rule="evenodd" clip-rule="evenodd" d="M54.9478 36.4683L55.0117 24.2767L57.0259 23.7651L56.9726 36.4257L54.9478 36.4683Z" fill="white"/>
</g>
</g>
</g>
<mask id="mask12_7312_154" style="mask-type:luminance" maskUnits="userSpaceOnUse" x="57" y="11" width="5" height="3">
<path d="M61.2246 11.0513H57.6758V13.8967H61.2246V11.0513Z" fill="white"/>
</mask>
<g mask="url(#mask12_7312_154)">
<mask id="mask13_7312_154" style="mask-type:luminance" maskUnits="userSpaceOnUse" x="39" y="-1" width="49" height="50">
<path d="M59.9797 -0.000770222L39.3701 29.7236L67.0802 48.9366L87.6898 19.2122L59.9797 -0.000770222Z" fill="white"/>
</mask>
<g mask="url(#mask13_7312_154)">
<mask id="mask14_7312_154" style="mask-type:luminance" maskUnits="userSpaceOnUse" x="39" y="-1" width="49" height="50">
<path d="M59.9797 -0.000770222L39.3701 29.7236L67.0802 48.9366L87.6898 19.2122L59.9797 -0.000770222Z" fill="white"/>
</mask>
<g mask="url(#mask14_7312_154)">
<path fill-rule="evenodd" clip-rule="evenodd" d="M58.9016 12.0742C57.6441 12.4152 57.9851 12.2234 57.708 13.8326L57.7187 12.266C58.0597 11.989 58.9975 11.584 59.3066 11.1577C59.2959 11.8291 60.1698 12.1168 61.1076 12.33C60.4255 12.3087 59.2 11.9996 58.9016 12.0742Z" fill="white"/>
</g>
</g>
</g>
<mask id="mask15_7312_154" style="mask-type:luminance" maskUnits="userSpaceOnUse" x="57" y="12" width="4" height="4">
<path d="M60.2336 12.3301H57.8145V15.7403H60.2336V12.3301Z" fill="white"/>
</mask>
<g mask="url(#mask15_7312_154)">
<mask id="mask16_7312_154" style="mask-type:luminance" maskUnits="userSpaceOnUse" x="39" y="-1" width="49" height="50">
<path d="M59.9797 -0.000770222L39.3701 29.7236L67.0802 48.9366L87.6898 19.2122L59.9797 -0.000770222Z" fill="white"/>
</mask>
<g mask="url(#mask16_7312_154)">
<mask id="mask17_7312_154" style="mask-type:luminance" maskUnits="userSpaceOnUse" x="39" y="-1" width="49" height="50">
<path d="M59.9797 -0.000770222L39.3701 29.7236L67.0802 48.9366L87.6898 19.2122L59.9797 -0.000770222Z" fill="white"/>
</mask>
<g mask="url(#mask17_7312_154)">
<path fill-rule="evenodd" clip-rule="evenodd" d="M57.9849 15.655L57.9316 13.108C57.9316 12.6817 57.8997 12.3833 58.3579 12.3833C58.8162 12.3833 59.2744 13.0121 60.2122 13.2252C59.8179 13.6621 57.9849 16.0813 57.9849 15.655Z" fill="white"/>
</g>
</g>
</g>
<mask id="mask18_7312_154" style="mask-type:luminance" maskUnits="userSpaceOnUse" x="57" y="24" width="3" height="13">
<path d="M59.5192 24.2661H57.1001V36.4897H59.5192V24.2661Z" fill="white"/>
</mask>
<g mask="url(#mask18_7312_154)">
<mask id="mask19_7312_154" style="mask-type:luminance" maskUnits="userSpaceOnUse" x="39" y="-1" width="49" height="50">
<path d="M59.9792 -0.000281941L39.3696 29.7241L67.0797 48.9371L87.6893 19.2127L59.9792 -0.000281941Z" fill="white"/>
</mask>
<g mask="url(#mask19_7312_154)">
<mask id="mask20_7312_154" style="mask-type:luminance" maskUnits="userSpaceOnUse" x="39" y="-1" width="49" height="50">
<path d="M59.9792 -0.000281941L39.3696 29.7241L67.0797 48.9371L87.6893 19.2127L59.9792 -0.000281941Z" fill="white"/>
</mask>
<g mask="url(#mask20_7312_154)">
<path fill-rule="evenodd" clip-rule="evenodd" d="M57.1641 36.3512L57.2173 24.3301L59.402 24.3407L59.3594 27.5698C58.7306 27.7616 58.4109 27.8575 58.3576 28.8273L58.4003 36.2979L57.1641 36.3512Z" fill="white"/>
</g>
</g>
</g>
<mask id="mask21_7312_154" style="mask-type:luminance" maskUnits="userSpaceOnUse" x="54" y="16" width="4" height="9">
<path d="M57.1002 16.167H54.9688V24.2663H57.1002V16.167Z" fill="white"/>
</mask>
<g mask="url(#mask21_7312_154)">
<mask id="mask22_7312_154" style="mask-type:luminance" maskUnits="userSpaceOnUse" x="39" y="-1" width="49" height="50">
<path d="M59.9792 -0.000281941L39.3696 29.7241L67.0797 48.9371L87.6893 19.2127L59.9792 -0.000281941Z" fill="white"/>
</mask>
<g mask="url(#mask22_7312_154)">
<mask id="mask23_7312_154" style="mask-type:luminance" maskUnits="userSpaceOnUse" x="39" y="-1" width="49" height="50">
<path d="M59.9792 -0.000281941L39.3696 29.7241L67.0797 48.9371L87.6893 19.2127L59.9792 -0.000281941Z" fill="white"/>
</mask>
<g mask="url(#mask23_7312_154)">
<path fill-rule="evenodd" clip-rule="evenodd" d="M55.0432 17.03L55.0112 24.2554L57.0254 23.7333L57.0574 16.2627L55.0432 17.03Z" fill="white"/>
</g>
</g>
</g>
<mask id="mask24_7312_154" style="mask-type:luminance" maskUnits="userSpaceOnUse" x="54" y="36" width="4" height="4">
<path d="M57.1005 36.3403H54.4043V39.3243H57.1005V36.3403Z" fill="white"/>
</mask>
<g mask="url(#mask24_7312_154)">
<mask id="mask25_7312_154" style="mask-type:luminance" maskUnits="userSpaceOnUse" x="39" y="-1" width="49" height="50">
<path d="M59.9797 -0.000770222L39.3701 29.7236L67.0802 48.9366L87.6898 19.2122L59.9797 -0.000770222Z" fill="white"/>
</mask>
<g mask="url(#mask25_7312_154)">
<mask id="mask26_7312_154" style="mask-type:luminance" maskUnits="userSpaceOnUse" x="39" y="-1" width="49" height="50">
<path d="M59.9797 -0.000770222L39.3701 29.7236L67.0802 48.9366L87.6898 19.2122L59.9797 -0.000770222Z" fill="white"/>
</mask>
<g mask="url(#mask26_7312_154)">
<path fill-rule="evenodd" clip-rule="evenodd" d="M54.5215 39.2069C54.5321 38.2158 54.7027 36.9476 54.9584 36.4574L56.9619 36.436C56.9513 37.214 56.8341 38.1731 56.8554 39.2069H54.5215Z" fill="white"/>
</g>
</g>
</g>
<mask id="mask27_7312_154" style="mask-type:luminance" maskUnits="userSpaceOnUse" x="54" y="39" width="3" height="1">
<path d="M56.2476 39.0474H54.1162V39.8999H56.2476V39.0474Z" fill="white"/>
</mask>
<g mask="url(#mask27_7312_154)">
<mask id="mask28_7312_154" style="mask-type:luminance" maskUnits="userSpaceOnUse" x="39" y="-1" width="49" height="50">
<path d="M59.9792 -0.000281941L39.3696 29.7241L67.0797 48.9371L87.6893 19.2127L59.9792 -0.000281941Z" fill="white"/>
</mask>
<g mask="url(#mask28_7312_154)">
<mask id="mask29_7312_154" style="mask-type:luminance" maskUnits="userSpaceOnUse" x="39" y="-1" width="49" height="50">
<path d="M59.9792 -0.000281941L39.3696 29.7241L67.0797 48.9371L87.6893 19.2127L59.9792 -0.000281941Z" fill="white"/>
</mask>
<g mask="url(#mask29_7312_154)">
<path fill-rule="evenodd" clip-rule="evenodd" d="M54.1802 39.7615V39.186H56.1624L56.1304 39.7722C55.4803 39.9001 54.8089 39.932 54.1802 39.7615Z" fill="white"/>
</g>
</g>
</g>
<mask id="mask30_7312_154" style="mask-type:luminance" maskUnits="userSpaceOnUse" x="57" y="36" width="2" height="4">
<path d="M58.0912 36.2021H57.1001V39.3246H58.0912V36.2021Z" fill="white"/>
</mask>
<g mask="url(#mask30_7312_154)">
<mask id="mask31_7312_154" style="mask-type:luminance" maskUnits="userSpaceOnUse" x="39" y="-1" width="49" height="50">
<path d="M59.9792 -0.000281941L39.3696 29.7241L67.0797 48.9371L87.6893 19.2127L59.9792 -0.000281941Z" fill="white"/>
</mask>
<g mask="url(#mask31_7312_154)">
<mask id="mask32_7312_154" style="mask-type:luminance" maskUnits="userSpaceOnUse" x="39" y="-1" width="49" height="50">
<path d="M59.9792 -0.000281941L39.3696 29.7241L67.0797 48.9371L87.6893 19.2127L59.9792 -0.000281941Z" fill="white"/>
</mask>
<g mask="url(#mask32_7312_154)">
<path fill-rule="evenodd" clip-rule="evenodd" d="M57.1211 39.1861L57.1637 36.362L58.0696 36.3193C58.0589 37.108 58.0589 38.1417 58.0802 39.1754L57.1211 39.1861Z" fill="white"/>
</g>
</g>
</g>
<mask id="mask33_7312_154" style="mask-type:luminance" maskUnits="userSpaceOnUse" x="59" y="23" width="5" height="5">
<path d="M63.0684 23.4136H59.6582V27.6764H63.0684V23.4136Z" fill="white"/>
</mask>
<g mask="url(#mask33_7312_154)">
<mask id="mask34_7312_154" style="mask-type:luminance" maskUnits="userSpaceOnUse" x="39" y="-1" width="49" height="50">
<path d="M59.9797 -0.000281941L39.3701 29.7241L67.0802 48.9371L87.6898 19.2127L59.9797 -0.000281941Z" fill="white"/>
</mask>
<g mask="url(#mask34_7312_154)">
<mask id="mask35_7312_154" style="mask-type:luminance" maskUnits="userSpaceOnUse" x="39" y="-1" width="49" height="50">
<path d="M59.9797 -0.000281941L39.3701 29.7241L67.0802 48.9371L87.6898 19.2127L59.9797 -0.000281941Z" fill="white"/>
</mask>
<g mask="url(#mask35_7312_154)">
<path fill-rule="evenodd" clip-rule="evenodd" d="M59.7437 25.673C59.8502 26.5469 60.1273 27.3568 61.0651 26.824C61.9816 26.2911 62.685 26.1739 63.0154 23.4351C62.7916 24.9377 62.5678 26.419 62.3866 27.3249C61.8005 27.2503 62.1095 27.1863 61.5127 27.197C60.9159 27.2076 60.511 27.4954 59.7437 27.5273V25.673Z" fill="white"/>
</g>
</g>
</g>
<mask id="mask36_7312_154" style="mask-type:luminance" maskUnits="userSpaceOnUse" x="59" y="21" width="3" height="4">
<path d="M61.9385 21.7085H59.8071V24.5539H61.9385V21.7085Z" fill="white"/>
</mask>
<g mask="url(#mask36_7312_154)">
<mask id="mask37_7312_154" style="mask-type:luminance" maskUnits="userSpaceOnUse" x="39" y="-1" width="49" height="50">
<path d="M59.9797 -0.000281941L39.3701 29.7241L67.0802 48.9371L87.6898 19.2127L59.9797 -0.000281941Z" fill="white"/>
</mask>
<g mask="url(#mask37_7312_154)">
<mask id="mask38_7312_154" style="mask-type:luminance" maskUnits="userSpaceOnUse" x="39" y="-1" width="49" height="50">
<path d="M59.9797 -0.000281941L39.3701 29.7241L67.0802 48.9371L87.6898 19.2127L59.9797 -0.000281941Z" fill="white"/>
</mask>
<g mask="url(#mask38_7312_154)">
<path fill-rule="evenodd" clip-rule="evenodd" d="M59.9564 21.8257C60.0949 22.1561 59.9457 21.8683 60.1375 22.156C60.8409 22.8701 60.4572 21.847 61.8746 24.426C61.2778 23.7439 60.7024 23.3816 59.9351 23.4136L59.9564 21.8257Z" fill="white"/>
</g>
</g>
</g>
<mask id="mask39_7312_154" style="mask-type:luminance" maskUnits="userSpaceOnUse" x="53" y="36" width="1" height="4">
<path d="M53.978 36.7666H53.1255V39.1857H53.978V36.7666Z" fill="white"/>
</mask>
<g mask="url(#mask39_7312_154)">
<mask id="mask40_7312_154" style="mask-type:luminance" maskUnits="userSpaceOnUse" x="39" y="-1" width="49" height="50">
<path d="M59.9797 -0.000770222L39.3701 29.7236L67.0802 48.9366L87.6898 19.2122L59.9797 -0.000770222Z" fill="white"/>
</mask>
<g mask="url(#mask40_7312_154)">
<mask id="mask41_7312_154" style="mask-type:luminance" maskUnits="userSpaceOnUse" x="39" y="-1" width="49" height="50">
<path d="M59.9797 -0.000770222L39.3701 29.7236L67.0802 48.9366L87.6898 19.2122L59.9797 -0.000770222Z" fill="white"/>
</mask>
<g mask="url(#mask41_7312_154)">
<path fill-rule="evenodd" clip-rule="evenodd" d="M53.8286 39.1538L53.3916 38.216C53.0826 37.47 53.2744 36.8945 53.8392 36.8306L53.8286 39.1538Z" fill="white"/>
</g>
</g>
</g>
<mask id="mask42_7312_154" style="mask-type:luminance" maskUnits="userSpaceOnUse" x="63" y="17" width="10" height="4">
<path d="M72.734 17.7334H63.2173V20.1525H72.734V17.7334Z" fill="white"/>
</mask>
<g mask="url(#mask42_7312_154)">
<mask id="mask43_7312_154" style="mask-type:luminance" maskUnits="userSpaceOnUse" x="39" y="-1" width="49" height="50">
<path d="M59.9792 -0.000281941L39.3696 29.7241L67.0797 48.9371L87.6893 19.2127L59.9792 -0.000281941Z" fill="white"/>
</mask>
<g mask="url(#mask43_7312_154)">
<mask id="mask44_7312_154" style="mask-type:luminance" maskUnits="userSpaceOnUse" x="39" y="-1" width="49" height="50">
<path d="M59.9792 -0.000281941L39.3696 29.7241L67.0797 48.9371L87.6893 19.2127L59.9792 -0.000281941Z" fill="white"/>
</mask>
<g mask="url(#mask44_7312_154)">
<path fill-rule="evenodd" clip-rule="evenodd" d="M72.414 17.8721C70.1654 18.1278 65.6148 19.2468 63.6966 19.833C62.0341 20.8241 66.2649 19.1616 69.0144 18.6713C71.7746 18.1811 73.2346 18.4369 72.414 17.8721Z" fill="white"/>
</g>
</g>
</g>
<mask id="mask45_7312_154" style="mask-type:luminance" maskUnits="userSpaceOnUse" x="54" y="12" width="4" height="5">
<path d="M57.2387 12.6182H54.9688V16.5932H57.2387V12.6182Z" fill="white"/>
</mask>
<g mask="url(#mask45_7312_154)">
<mask id="mask46_7312_154" style="mask-type:luminance" maskUnits="userSpaceOnUse" x="39" y="-1" width="49" height="50">
<path d="M59.9792 -0.000281941L39.3696 29.7241L67.0797 48.9371L87.6893 19.2127L59.9792 -0.000281941Z" fill="white"/>
</mask>
<g mask="url(#mask46_7312_154)">
<mask id="mask47_7312_154" style="mask-type:luminance" maskUnits="userSpaceOnUse" x="39" y="-1" width="49" height="50">
<path d="M59.9792 -0.000281941L39.3696 29.7241L67.0797 48.9371L87.6893 19.2127L59.9792 -0.000281941Z" fill="white"/>
</mask>
<g mask="url(#mask47_7312_154)">
<path fill-rule="evenodd" clip-rule="evenodd" d="M55.0859 16.3909L55.0752 13.5242C55.0752 13.0979 56.5991 12.7036 57.0467 12.7036C57.164 13.4176 57.0787 15.1121 57.0787 15.5277C56.6737 15.9647 55.0859 16.8066 55.0859 16.3909Z" fill="white"/>
</g>
</g>
</g>
<mask id="mask48_7312_154" style="mask-type:luminance" maskUnits="userSpaceOnUse" x="56" y="20" width="3" height="5">
<path d="M58.3898 20.1421H56.8232V24.1172H58.3898V20.1421Z" fill="white"/>
</mask>
<g mask="url(#mask48_7312_154)">
<mask id="mask49_7312_154" style="mask-type:luminance" maskUnits="userSpaceOnUse" x="39" y="-1" width="49" height="50">
<path d="M59.9797 -0.000281941L39.3701 29.7241L67.0802 48.9371L87.6898 19.2127L59.9797 -0.000281941Z" fill="white"/>
</mask>
<g mask="url(#mask49_7312_154)">
<mask id="mask50_7312_154" style="mask-type:luminance" maskUnits="userSpaceOnUse" x="39" y="-1" width="49" height="50">
<path d="M59.9797 -0.000281941L39.3701 29.7241L67.0802 48.9371L87.6898 19.2127L59.9797 -0.000281941Z" fill="white"/>
</mask>
<g mask="url(#mask50_7312_154)">
<path fill-rule="evenodd" clip-rule="evenodd" d="M56.9302 20.6536C57.0261 20.3872 57.1966 20.3126 57.527 20.2061L58.2623 23.9147C57.9532 24.2237 57.5909 24.0959 57.4524 24.0106L56.9302 20.6536Z" fill="white"/>
</g>
</g>
</g>
<mask id="mask51_7312_154" style="mask-type:luminance" maskUnits="userSpaceOnUse" x="64" y="22" width="14" height="21">
<path d="M77.8493 22.1348H64.0698V42.3085H77.8493V22.1348Z" fill="white"/>
</mask>
<g mask="url(#mask51_7312_154)">
<mask id="mask52_7312_154" style="mask-type:luminance" maskUnits="userSpaceOnUse" x="54" y="15" width="34" height="34">
<path d="M68.7044 15.4015L54.5801 35.7725L73.6373 48.9859L87.7616 28.615L68.7044 15.4015Z" fill="white"/>
</mask>
<g mask="url(#mask52_7312_154)">
<mask id="mask53_7312_154" style="mask-type:luminance" maskUnits="userSpaceOnUse" x="54" y="15" width="34" height="34">
<path d="M68.7044 15.4015L54.5801 35.7725L73.6373 48.9859L87.7616 28.615L68.7044 15.4015Z" fill="white"/>
</mask>
<g mask="url(#mask53_7312_154)">
<path d="M77.7536 25.854C77.679 26.504 78.2545 27.8681 77.1888 27.7616C76.2083 27.8255 71.466 28.9019 70.8372 29.3281C70.72 29.8503 70.9651 30.3938 70.8798 31.4595C70.8265 32.1203 70.72 33.0368 70.4322 34.1664C69.8781 33.9959 69.7502 34.0172 69.0362 34.2197C68.6418 34.305 68.6312 34.3476 68.2795 35.4133L68.3328 41.1254L67.6507 41.1681V42.2764H64.5069L64.5176 40.2089L64.7094 40.0384L64.7201 32.1523L64.6028 32.1629L64.6135 26.4081L64.0913 26.0458L64.6881 25.6515C65.3915 25.1399 64.5602 23.7226 65.5726 23.7332C66.4039 24.0529 67.4056 23.4988 67.8106 22.6888C67.9491 22.2306 68.5459 22.0174 68.5459 22.7208C68.5992 23.5627 68.9935 23.7119 69.7608 24.0529C70.5281 24.394 74.5032 22.4863 75.878 22.2945C77.5511 22.3158 77.8282 25.0121 77.7536 25.854ZM68.8337 29.7011C68.6845 30.234 68.7378 30.5963 68.9509 30.6176C69.3985 30.6709 69.8994 31.5448 70.1125 31.9071C70.1765 32.7704 69.3132 30.7562 68.7058 31.5555C68.4287 32.1949 68.5779 33.5483 68.9189 33.8254C69.26 34.0918 70.5175 33.3352 70.5814 32.5146C70.7519 31.1185 71.1356 28.6141 68.8337 29.7011Z" fill="white"/>
</g>
</g>
</g>
<mask id="mask54_7312_154" style="mask-type:luminance" maskUnits="userSpaceOnUse" x="67" y="22" width="11" height="8">
<path d="M77.1355 22.561H67.3311V29.6693H77.1355V22.561Z" fill="white"/>
</mask>
<g mask="url(#mask54_7312_154)">
<mask id="mask55_7312_154" style="mask-type:luminance" maskUnits="userSpaceOnUse" x="54" y="15" width="34" height="34">
<path d="M68.7044 15.4015L54.5801 35.7725L73.6373 48.9859L87.7616 28.615L68.7044 15.4015Z" fill="white"/>
</mask>
<g mask="url(#mask55_7312_154)">
<mask id="mask56_7312_154" style="mask-type:luminance" maskUnits="userSpaceOnUse" x="54" y="15" width="34" height="34">
<path d="M68.7044 15.4015L54.5801 35.7725L73.6373 48.9859L87.7616 28.615L68.7044 15.4015Z" fill="white"/>
</mask>
<g mask="url(#mask56_7312_154)">
<path fill-rule="evenodd" clip-rule="evenodd" d="M67.6081 29.5843L77.0715 27.2611C77.0715 27.2611 77.3059 21.8793 75.2278 22.7532L68.6844 25.0977C68.1089 25.897 67.9278 25.5986 67.8425 26.5791C67.7572 27.5488 67.1391 29.7016 67.6081 29.5843Z" fill="white"/>
</g>
</g>
</g>
<mask id="mask57_7312_154" style="mask-type:luminance" maskUnits="userSpaceOnUse" x="68" y="22" width="9" height="8">
<path d="M76.9969 22.9873H68.1836V29.0938H76.9969V22.9873Z" fill="white"/>
</mask>
<g mask="url(#mask57_7312_154)">
<mask id="mask58_7312_154" style="mask-type:luminance" maskUnits="userSpaceOnUse" x="54" y="15" width="34" height="34">
<path d="M68.7044 15.4015L54.5801 35.7725L73.6373 48.9859L87.7616 28.615L68.7044 15.4015Z" fill="white"/>
</mask>
<g mask="url(#mask58_7312_154)">
<mask id="mask59_7312_154" style="mask-type:luminance" maskUnits="userSpaceOnUse" x="54" y="15" width="34" height="34">
<path d="M68.7044 15.4015L54.5801 35.7725L73.6373 48.9859L87.7616 28.615L68.7044 15.4015Z" fill="white"/>
</mask>
<g mask="url(#mask59_7312_154)">
<path fill-rule="evenodd" clip-rule="evenodd" d="M68.5888 28.966L76.6668 26.8559C77.0931 26.2804 76.848 22.348 75.2281 23.1473L69.5905 25.0549C69.079 25.7582 68.0666 27.2183 68.2691 27.5913C68.4609 27.9749 68.1625 29.0726 68.5888 28.966Z" fill="white"/>
</g>
</g>
</g>
<mask id="mask60_7312_154" style="mask-type:luminance" maskUnits="userSpaceOnUse" x="65" y="31" width="2" height="10">
<path d="M66.7663 31.6514H65.1997V40.4647H66.7663V31.6514Z" fill="white"/>
</mask>
<g mask="url(#mask60_7312_154)">
<mask id="mask61_7312_154" style="mask-type:luminance" maskUnits="userSpaceOnUse" x="54" y="15" width="34" height="34">
<path d="M68.7044 15.4015L54.5801 35.7725L73.6373 48.9859L87.7616 28.615L68.7044 15.4015Z" fill="white"/>
</mask>
<g mask="url(#mask61_7312_154)">
<mask id="mask62_7312_154" style="mask-type:luminance" maskUnits="userSpaceOnUse" x="54" y="15" width="34" height="34">
<path d="M68.7044 15.4015L54.5801 35.7725L73.6373 48.9859L87.7616 28.615L68.7044 15.4015Z" fill="white"/>
</mask>
<g mask="url(#mask62_7312_154)">
<path fill-rule="evenodd" clip-rule="evenodd" d="M65.2852 40.4221L65.3171 32.0564L66.7025 31.7153L66.6812 40.4008L65.2852 40.4221Z" fill="white"/>
</g>
</g>
</g>
<mask id="mask63_7312_154" style="mask-type:luminance" maskUnits="userSpaceOnUse" x="67" y="22" width="3" height="3">
<path d="M69.6119 22.9873H67.0542V24.9802H69.6119V22.9873Z" fill="white"/>
</mask>
<g mask="url(#mask63_7312_154)">
<mask id="mask64_7312_154" style="mask-type:luminance" maskUnits="userSpaceOnUse" x="54" y="15" width="34" height="34">
<path d="M68.7044 15.4015L54.5801 35.7725L73.6373 48.9859L87.7616 28.615L68.7044 15.4015Z" fill="white"/>
</mask>
<g mask="url(#mask64_7312_154)">
<mask id="mask65_7312_154" style="mask-type:luminance" maskUnits="userSpaceOnUse" x="54" y="15" width="34" height="34">
<path d="M68.7044 15.4015L54.5801 35.7725L73.6373 48.9859L87.7616 28.615L68.7044 15.4015Z" fill="white"/>
</mask>
<g mask="url(#mask65_7312_154)">
<path fill-rule="evenodd" clip-rule="evenodd" d="M67.9812 23.6908C67.118 23.9252 67.3525 23.7867 67.1606 24.895L67.1713 23.8187C67.4058 23.6268 68.0452 23.3498 68.2583 23.062C68.2477 23.5203 68.8551 23.7227 69.4945 23.8719C69.0256 23.8506 68.1837 23.6375 67.9812 23.6908Z" fill="white"/>
</g>
</g>
</g>
<mask id="mask66_7312_154" style="mask-type:luminance" maskUnits="userSpaceOnUse" x="67" y="23" width="2" height="4">
<path d="M68.8975 23.8398H67.1924V26.259H68.8975V23.8398Z" fill="white"/>
</mask>
<g mask="url(#mask66_7312_154)">
<mask id="mask67_7312_154" style="mask-type:luminance" maskUnits="userSpaceOnUse" x="54" y="15" width="34" height="34">
<path d="M68.7044 15.4015L54.5801 35.7725L73.6373 48.9859L87.7616 28.615L68.7044 15.4015Z" fill="white"/>
</mask>
<g mask="url(#mask67_7312_154)">
<mask id="mask68_7312_154" style="mask-type:luminance" maskUnits="userSpaceOnUse" x="54" y="15" width="34" height="34">
<path d="M68.7044 15.4015L54.5801 35.7725L73.6373 48.9859L87.7616 28.615L68.7044 15.4015Z" fill="white"/>
</mask>
<g mask="url(#mask68_7312_154)">
<path fill-rule="evenodd" clip-rule="evenodd" d="M67.3525 26.1418L67.3099 24.394C67.3099 24.1063 67.2886 23.9038 67.5976 23.9038C67.9067 23.9038 68.2264 24.3407 68.8765 24.4793C68.61 24.7777 67.3525 26.4295 67.3525 26.1418Z" fill="white"/>
</g>
</g>
</g>
<mask id="mask69_7312_154" style="mask-type:luminance" maskUnits="userSpaceOnUse" x="66" y="32" width="3" height="9">
<path d="M68.4712 32.0776H66.7661V40.4647H68.4712V32.0776Z" fill="white"/>
</mask>
<g mask="url(#mask69_7312_154)">
<mask id="mask70_7312_154" style="mask-type:luminance" maskUnits="userSpaceOnUse" x="54" y="15" width="34" height="34">
<path d="M68.7044 15.4015L54.5801 35.7725L73.6373 48.9859L87.7616 28.615L68.7044 15.4015Z" fill="white"/>
</mask>
<g mask="url(#mask70_7312_154)">
<mask id="mask71_7312_154" style="mask-type:luminance" maskUnits="userSpaceOnUse" x="54" y="15" width="34" height="34">
<path d="M68.7044 15.4015L54.5801 35.7725L73.6373 48.9859L87.7616 28.615L68.7044 15.4015Z" fill="white"/>
</mask>
<g mask="url(#mask71_7312_154)">
<path fill-rule="evenodd" clip-rule="evenodd" d="M66.8091 40.3369L66.8304 32.0884L68.333 32.099L68.3011 34.3157C67.8641 34.4436 67.651 34.5075 67.619 35.1789L67.651 40.3049L66.8091 40.3369Z" fill="white"/>
</g>
</g>
</g>
<mask id="mask72_7312_154" style="mask-type:luminance" maskUnits="userSpaceOnUse" x="65" y="26" width="2" height="7">
<path d="M66.7663 26.5361H65.1997V32.0778H66.7663V26.5361Z" fill="white"/>
</mask>
<g mask="url(#mask72_7312_154)">
<mask id="mask73_7312_154" style="mask-type:luminance" maskUnits="userSpaceOnUse" x="54" y="15" width="34" height="34">
<path d="M68.7044 15.4015L54.5801 35.7725L73.6373 48.9859L87.7616 28.615L68.7044 15.4015Z" fill="white"/>
</mask>
<g mask="url(#mask73_7312_154)">
<mask id="mask74_7312_154" style="mask-type:luminance" maskUnits="userSpaceOnUse" x="54" y="15" width="34" height="34">
<path d="M68.7044 15.4015L54.5801 35.7725L73.6373 48.9859L87.7616 28.615L68.7044 15.4015Z" fill="white"/>
</mask>
<g mask="url(#mask74_7312_154)">
<path fill-rule="evenodd" clip-rule="evenodd" d="M65.3275 27.0798L65.3169 32.0353L66.7023 31.6836L66.713 26.5576L65.3275 27.0798Z" fill="white"/>
</g>
</g>
</g>
<mask id="mask75_7312_154" style="mask-type:luminance" maskUnits="userSpaceOnUse" x="64" y="40" width="3" height="3">
<path d="M66.766 40.3262H64.9224V42.319H66.766V40.3262Z" fill="white"/>
</mask>
<g mask="url(#mask75_7312_154)">
<mask id="mask76_7312_154" style="mask-type:luminance" maskUnits="userSpaceOnUse" x="54" y="15" width="34" height="34">
<path d="M68.7039 15.4015L54.5796 35.7725L73.6368 48.9859L87.7611 28.615L68.7039 15.4015Z" fill="white"/>
</mask>
<g mask="url(#mask76_7312_154)">
<mask id="mask77_7312_154" style="mask-type:luminance" maskUnits="userSpaceOnUse" x="54" y="15" width="34" height="34">
<path d="M68.7039 15.4015L54.5796 35.7725L73.6368 48.9859L87.7611 28.615L68.7039 15.4015Z" fill="white"/>
</mask>
<g mask="url(#mask77_7312_154)">
<path fill-rule="evenodd" clip-rule="evenodd" d="M64.9966 42.2871C65.0072 41.605 65.1138 40.7312 65.295 40.4008L66.6697 40.3901C66.6591 40.923 66.5845 41.5837 66.5951 42.2871H64.9966Z" fill="white"/>
</g>
</g>
</g>
<mask id="mask78_7312_154" style="mask-type:luminance" maskUnits="userSpaceOnUse" x="64" y="42" width="3" height="1">
<path d="M66.2013 42.1699H64.6348V42.8839H66.2013V42.1699Z" fill="white"/>
</mask>
<g mask="url(#mask78_7312_154)">
<mask id="mask79_7312_154" style="mask-type:luminance" maskUnits="userSpaceOnUse" x="54" y="15" width="34" height="34">
<path d="M68.7044 15.4015L54.5801 35.7725L73.6373 48.9859L87.7616 28.615L68.7044 15.4015Z" fill="white"/>
</mask>
<g mask="url(#mask79_7312_154)">
<mask id="mask80_7312_154" style="mask-type:luminance" maskUnits="userSpaceOnUse" x="54" y="15" width="34" height="34">
<path d="M68.7044 15.4015L54.5801 35.7725L73.6373 48.9859L87.7616 28.615L68.7044 15.4015Z" fill="white"/>
</mask>
<g mask="url(#mask80_7312_154)">
<path fill-rule="evenodd" clip-rule="evenodd" d="M64.7627 42.6707V42.2764H66.1268L66.1055 42.6813C65.6579 42.7772 65.1996 42.7986 64.7627 42.6707Z" fill="white"/>
</g>
</g>
</g>
<mask id="mask81_7312_154" style="mask-type:luminance" maskUnits="userSpaceOnUse" x="66" y="40" width="2" height="3">
<path d="M67.4801 40.1772H66.7661V42.3086H67.4801V40.1772Z" fill="white"/>
</mask>
<g mask="url(#mask81_7312_154)">
<mask id="mask82_7312_154" style="mask-type:luminance" maskUnits="userSpaceOnUse" x="54" y="15" width="34" height="34">
<path d="M68.7044 15.4015L54.5801 35.7725L73.6373 48.9859L87.7616 28.615L68.7044 15.4015Z" fill="white"/>
</mask>
<g mask="url(#mask82_7312_154)">
<mask id="mask83_7312_154" style="mask-type:luminance" maskUnits="userSpaceOnUse" x="54" y="15" width="34" height="34">
<path d="M68.7044 15.4015L54.5801 35.7725L73.6373 48.9859L87.7616 28.615L68.7044 15.4015Z" fill="white"/>
</mask>
<g mask="url(#mask83_7312_154)">
<path fill-rule="evenodd" clip-rule="evenodd" d="M66.7876 42.2875L66.8089 40.3479L67.427 40.3159C67.4164 40.8488 67.4164 41.5734 67.4377 42.2768L66.7876 42.2875Z" fill="white"/>
</g>
</g>
</g>
<mask id="mask84_7312_154" style="mask-type:luminance" maskUnits="userSpaceOnUse" x="68" y="31" width="3" height="4">
<path d="M70.8903 31.3745H68.4712V34.3585H70.8903V31.3745Z" fill="white"/>
</mask>
<g mask="url(#mask84_7312_154)">
<mask id="mask85_7312_154" style="mask-type:luminance" maskUnits="userSpaceOnUse" x="54" y="15" width="34" height="34">
<path d="M68.7044 15.4015L54.5801 35.7725L73.6373 48.9859L87.7616 28.615L68.7044 15.4015Z" fill="white"/>
</mask>
<g mask="url(#mask85_7312_154)">
<mask id="mask86_7312_154" style="mask-type:luminance" maskUnits="userSpaceOnUse" x="54" y="15" width="34" height="34">
<path d="M68.7044 15.4015L54.5801 35.7725L73.6373 48.9859L87.7616 28.615L68.7044 15.4015Z" fill="white"/>
</mask>
<g mask="url(#mask86_7312_154)">
<path fill-rule="evenodd" clip-rule="evenodd" d="M68.5674 33.0156C68.642 33.6124 68.8338 34.1772 69.4732 33.8042C70.102 33.4418 70.5816 33.3566 70.8054 31.481C70.6562 32.504 70.507 33.5271 70.3791 34.1452C69.9741 34.0919 70.1872 34.0493 69.7823 34.06C69.3773 34.0706 69.1002 34.2624 68.5674 34.2838V33.0156Z" fill="white"/>
</g>
</g>
</g>
<mask id="mask87_7312_154" style="mask-type:luminance" maskUnits="userSpaceOnUse" x="68" y="30" width="3" height="3">
<path d="M70.0272 30.2339H68.6099V32.2267H70.0272V30.2339Z" fill="white"/>
</mask>
<g mask="url(#mask87_7312_154)">
<mask id="mask88_7312_154" style="mask-type:luminance" maskUnits="userSpaceOnUse" x="54" y="15" width="34" height="34">
<path d="M68.7044 15.401L54.5801 35.772L73.6373 48.9854L87.7616 28.6145L68.7044 15.401Z" fill="white"/>
</mask>
<g mask="url(#mask88_7312_154)">
<mask id="mask89_7312_154" style="mask-type:luminance" maskUnits="userSpaceOnUse" x="54" y="15" width="34" height="34">
<path d="M68.7044 15.401L54.5801 35.772L73.6373 48.9854L87.7616 28.6145L68.7044 15.401Z" fill="white"/>
</mask>
<g mask="url(#mask89_7312_154)">
<path fill-rule="evenodd" clip-rule="evenodd" d="M68.7167 30.3721C68.8126 30.5959 68.7167 30.404 68.8446 30.5959C69.3242 31.0861 69.0684 30.3827 70.0382 32.1624C69.6332 31.6935 69.2282 31.4378 68.7061 31.4697L68.7167 30.3721Z" fill="white"/>
</g>
</g>
</g>
<mask id="mask90_7312_154" style="mask-type:luminance" maskUnits="userSpaceOnUse" x="64" y="40" width="1" height="3">
<path d="M64.6346 40.6035H64.0698V42.3086H64.6346V40.6035Z" fill="white"/>
</mask>
<g mask="url(#mask90_7312_154)">
<mask id="mask91_7312_154" style="mask-type:luminance" maskUnits="userSpaceOnUse" x="54" y="15" width="34" height="34">
<path d="M68.7044 15.4015L54.5801 35.7725L73.6373 48.9859L87.7616 28.615L68.7044 15.4015Z" fill="white"/>
</mask>
<g mask="url(#mask91_7312_154)">
<mask id="mask92_7312_154" style="mask-type:luminance" maskUnits="userSpaceOnUse" x="54" y="15" width="34" height="34">
<path d="M68.7044 15.4015L54.5801 35.7725L73.6373 48.9859L87.7616 28.615L68.7044 15.4015Z" fill="white"/>
</mask>
<g mask="url(#mask92_7312_154)">
<path fill-rule="evenodd" clip-rule="evenodd" d="M64.5281 42.2553L64.2298 41.6052C64.0166 41.0937 64.1445 40.6994 64.5388 40.6567L64.5281 42.2553Z" fill="white"/>
</g>
</g>
</g>
<mask id="mask93_7312_154" style="mask-type:luminance" maskUnits="userSpaceOnUse" x="70" y="27" width="8" height="3">
<path d="M77.5726 27.5376H70.8906V29.2427H77.5726V27.5376Z" fill="white"/>
</mask>
<g mask="url(#mask93_7312_154)">
<mask id="mask94_7312_154" style="mask-type:luminance" maskUnits="userSpaceOnUse" x="54" y="15" width="34" height="34">
<path d="M68.7044 15.401L54.5801 35.772L73.6373 48.9854L87.7616 28.6145L68.7044 15.401Z" fill="white"/>
</mask>
<g mask="url(#mask94_7312_154)">
<mask id="mask95_7312_154" style="mask-type:luminance" maskUnits="userSpaceOnUse" x="54" y="15" width="34" height="34">
<path d="M68.7044 15.401L54.5801 35.772L73.6373 48.9854L87.7616 28.6145L68.7044 15.401Z" fill="white"/>
</mask>
<g mask="url(#mask95_7312_154)">
<path fill-rule="evenodd" clip-rule="evenodd" d="M77.2633 27.6758C75.718 27.8463 72.5955 28.6136 71.274 29.0079C70.1337 29.69 73.0324 28.5497 74.9294 28.2193C76.8263 27.8889 77.8281 28.0701 77.2633 27.6758Z" fill="white"/>
</g>
</g>
</g>
<mask id="mask96_7312_154" style="mask-type:luminance" maskUnits="userSpaceOnUse" x="65" y="23" width="2" height="4">
<path d="M66.766 23.9785H65.3486V26.8239H66.766V23.9785Z" fill="white"/>
</mask>
<g mask="url(#mask96_7312_154)">
<mask id="mask97_7312_154" style="mask-type:luminance" maskUnits="userSpaceOnUse" x="54" y="15" width="34" height="34">
<path d="M68.7039 15.4015L54.5796 35.7725L73.6368 48.9859L87.7611 28.615L68.7039 15.4015Z" fill="white"/>
</mask>
<g mask="url(#mask97_7312_154)">
<mask id="mask98_7312_154" style="mask-type:luminance" maskUnits="userSpaceOnUse" x="54" y="15" width="34" height="34">
<path d="M68.7039 15.4015L54.5796 35.7725L73.6368 48.9859L87.7611 28.615L68.7039 15.4015Z" fill="white"/>
</mask>
<g mask="url(#mask98_7312_154)">
<path fill-rule="evenodd" clip-rule="evenodd" d="M65.3593 26.6428L65.3486 24.6713C65.3486 24.3835 66.393 24.1064 66.7021 24.1064C66.7873 24.5967 66.7234 25.7583 66.7234 26.046C66.457 26.3551 65.3593 26.9306 65.3593 26.6428Z" fill="white"/>
</g>
</g>
</g>
<mask id="mask99_7312_154" style="mask-type:luminance" maskUnits="userSpaceOnUse" x="66" y="29" width="2" height="4">
<path d="M67.619 29.2432H66.6279V32.0886H67.619V29.2432Z" fill="white"/>
</mask>
<g mask="url(#mask99_7312_154)">
<mask id="mask100_7312_154" style="mask-type:luminance" maskUnits="userSpaceOnUse" x="54" y="15" width="34" height="34">
<path d="M68.7044 15.4015L54.5801 35.7725L73.6373 48.9859L87.7616 28.615L68.7044 15.4015Z" fill="white"/>
</mask>
<g mask="url(#mask100_7312_154)">
<mask id="mask101_7312_154" style="mask-type:luminance" maskUnits="userSpaceOnUse" x="54" y="15" width="34" height="34">
<path d="M68.7044 15.4015L54.5801 35.7725L73.6373 48.9859L87.7616 28.615L68.7044 15.4015Z" fill="white"/>
</mask>
<g mask="url(#mask101_7312_154)">
<path fill-rule="evenodd" clip-rule="evenodd" d="M66.6279 29.5626C66.6919 29.3814 66.8091 29.3281 67.0435 29.2642L67.5551 31.8112C67.342 32.0243 67.0968 31.9391 67.0009 31.8751L66.6279 29.5626Z" fill="white"/>
</g>
</g>
</g>
<path d="M175.286 23.7012C175.286 27.8254 175.286 31.939 175.286 36.0633C175.095 36.042 174.892 36.01 174.7 35.9887C174.381 35.9354 174.082 35.8715 173.794 35.7969C173.816 31.8005 173.869 27.7721 173.89 23.7758V23.7545C173.89 23.7545 173.89 23.7331 173.912 23.7331C173.912 23.7331 173.912 23.7331 173.933 23.7331C174.381 23.7012 174.818 23.7012 175.286 23.7012Z" fill="white"/>
<mask id="mask102_7312_154" style="mask-type:luminance" maskUnits="userSpaceOnUse" x="176" y="23" width="6" height="14">
<path d="M181.286 23.5522H176.32V36.2341H181.286V23.5522Z" fill="white"/>
</mask>
<g mask="url(#mask102_7312_154)">
<path d="M176.384 36.1594C176.363 32.0138 176.331 27.8469 176.331 23.7014C177.919 23.7014 179.539 23.6801 181.105 23.7014C181.105 23.7014 181.105 23.7014 181.127 23.7014L181.148 23.7227V23.744C181.201 27.7404 181.223 31.7368 181.276 35.7651C180.807 35.9356 180.338 36.0315 179.859 36.1061C179.272 36.202 178.708 36.202 178.121 36.202C177.535 36.202 176.97 36.2127 176.384 36.1594Z" fill="white"/>
</g>
<mask id="mask103_7312_154" style="mask-type:luminance" maskUnits="userSpaceOnUse" x="173" y="35" width="9" height="2">
<path d="M181.287 35.9141H173.763V36.9052H181.287V35.9141Z" fill="white"/>
</mask>
<g mask="url(#mask103_7312_154)">
<path d="M173.837 35.9355C173.987 36.1274 174.104 36.3299 174.253 36.5004C175.01 36.6283 175.766 36.6922 176.534 36.7455C177.461 36.7988 178.367 36.8201 179.304 36.7455C179.795 36.6922 180.285 36.6283 180.775 36.5004C180.924 36.3085 181.042 36.1274 181.191 35.9355C180.924 36.0315 180.679 36.1061 180.402 36.1593C180.253 36.1807 180.114 36.2126 179.965 36.2339C179.795 36.2553 179.624 36.2766 179.454 36.3085C179.283 36.3299 179.091 36.3299 178.91 36.3299C178.74 36.3299 178.548 36.3299 178.367 36.3299C178.271 36.3299 178.175 36.3299 178.068 36.3299C177.951 36.3299 177.823 36.3299 177.674 36.3299C177.429 36.3299 177.162 36.3085 176.917 36.3085C176.672 36.3085 176.406 36.2872 176.161 36.2659C176.043 36.2659 175.916 36.2446 175.798 36.2446C175.724 36.2446 175.649 36.2233 175.606 36.2233C175.383 36.202 175.191 36.17 174.967 36.1487C174.871 36.1274 174.743 36.1274 174.647 36.0954C174.551 36.0741 174.456 36.0741 174.349 36.0528C174.157 36.0101 174.008 35.9888 173.837 35.9355Z" fill="white"/>
</g>
<mask id="mask104_7312_154" style="mask-type:luminance" maskUnits="userSpaceOnUse" x="173" y="37" width="9" height="2">
<path d="M181.287 37.1929H173.763V38.0454H181.287V37.1929Z" fill="white"/>
</mask>
<g mask="url(#mask104_7312_154)">
<path d="M173.891 37.4805C173.869 37.4805 173.837 37.5019 173.816 37.5019C173.816 37.5019 173.795 37.5019 173.795 37.5232H173.773C173.773 37.5232 173.773 37.5232 173.773 37.5445C173.997 37.6617 174.114 37.715 174.264 37.7683C174.807 37.9388 175.468 37.9921 176.097 38.0134C176.949 38.0347 177.759 38.0347 178.59 37.9921C179.326 37.9708 180.082 37.9175 180.839 37.7257C180.956 37.7043 181.084 37.6511 181.18 37.6297C181.201 37.6297 181.201 37.6297 181.233 37.6084C181.233 37.6084 181.255 37.6084 181.255 37.5871V37.5658C181.255 37.5445 181.201 37.5125 181.127 37.4379C181.01 37.3633 180.882 37.3207 180.764 37.2461C178.59 37.683 176.427 37.683 174.253 37.2887C174.136 37.3633 174.008 37.4166 173.891 37.4805Z" fill="white"/>
</g>
<mask id="mask105_7312_154" style="mask-type:luminance" maskUnits="userSpaceOnUse" x="173" y="37" width="9" height="2">
<path d="M181.286 37.6191H173.741V38.8767H181.286V37.6191Z" fill="white"/>
</mask>
<g mask="url(#mask105_7312_154)">
<path d="M176.48 38.1521C176.48 38.3439 176.48 38.5251 176.459 38.7169C176.288 38.7169 176.118 38.7169 175.915 38.7169C175.649 38.7169 175.404 38.6636 175.137 38.621C175.084 38.621 175.063 38.5997 175.009 38.5997C175.009 38.5784 175.009 38.5571 175.009 38.5571C175.009 38.4079 175.009 38.2374 175.009 38.0882C174.913 38.0882 174.839 38.0668 174.743 38.0349C174.615 38.0136 174.519 37.9922 174.402 37.9603C174.381 37.939 174.306 37.907 174.21 37.8857C174.189 37.8857 174.167 37.8644 174.136 37.8644C174.061 37.843 174.008 37.8217 173.965 37.7898C173.89 37.7365 173.816 37.7152 173.741 37.6938C173.741 37.843 173.741 38.0136 173.741 38.1628C173.763 38.216 173.794 38.2587 173.816 38.312C173.837 38.3652 173.912 38.4079 173.965 38.4612C174.061 38.5357 174.189 38.589 174.306 38.6103C174.626 38.7382 174.988 38.8022 175.34 38.8341C175.457 38.8341 175.585 38.8555 175.702 38.8555C176.363 38.8768 177.024 38.9087 177.684 38.9087C178.27 38.9087 178.857 38.8874 179.453 38.8555C179.528 38.8555 179.603 38.8555 179.677 38.8341C180.018 38.8128 180.391 38.7382 180.732 38.6103C180.86 38.5677 180.956 38.5357 181.052 38.4612C181.127 38.4185 181.169 38.3652 181.222 38.2906C181.244 38.248 181.276 38.216 181.276 38.1734C181.276 38.0242 181.276 37.875 181.254 37.7578H181.233C181.233 37.7578 181.233 37.7578 181.212 37.7578C181.19 37.7578 181.158 37.7791 181.116 37.7791C181.02 37.8004 180.945 37.8324 180.849 37.8537C180.604 37.9496 180.338 38.0029 180.039 38.0242C179.773 38.0668 179.475 38.0988 179.187 38.0988C179.038 38.0988 178.921 38.1201 178.771 38.1201C178.622 38.1201 178.473 38.1414 178.334 38.1414C178.015 38.1414 177.716 38.1628 177.407 38.1628C177.066 38.1521 176.778 38.1521 176.48 38.1521Z" fill="white"/>
</g>
<path d="M176.533 36.8945C176.533 37.0437 176.533 37.2142 176.533 37.3634C177.951 37.438 179.379 37.3634 180.796 37.1183C180.796 36.9691 180.796 36.7986 180.796 36.6494C180.434 36.724 180.061 36.7986 179.698 36.8412C179.602 36.8626 179.507 36.8626 179.432 36.8626C179.283 36.8839 179.134 36.8839 178.995 36.9052C178.654 36.9265 178.313 36.9265 177.961 36.9265C177.62 36.9265 177.279 36.9265 176.928 36.9052C176.757 36.9158 176.629 36.9158 176.533 36.8945Z" fill="white"/>
<path d="M175.457 36.8201C175.063 36.7668 174.647 36.7242 174.253 36.6709C174.253 36.8201 174.253 36.9906 174.253 37.1398C174.647 37.2144 175.063 37.257 175.457 37.3103C175.457 37.1398 175.457 36.9693 175.457 36.8201Z" fill="white"/>
<path d="M177.706 15.6233C178.047 15.6765 178.42 15.7938 178.707 15.9962C179.176 16.316 179.464 16.8275 179.709 17.3497C180.029 18.0424 180.274 18.7458 180.498 19.4065C180.594 19.7049 180.69 20.0246 180.764 20.291C180.818 20.4189 180.839 20.5574 180.86 20.7386C180.881 21.6764 180.903 22.6249 180.935 23.5627C179.421 23.5627 177.844 23.584 176.331 23.584C176.331 23.5627 176.331 23.5094 176.331 23.4881C176.214 22.1667 176.182 20.8132 176.256 19.4917C176.278 19.1507 176.299 18.7777 176.331 18.4367C176.235 18.7351 176.16 19.0228 176.064 19.3212C175.873 20.1312 175.702 20.9624 175.553 21.7937C175.457 22.3798 175.361 22.9979 175.287 23.6053C174.892 23.6053 174.477 23.584 174.114 23.584C174.136 22.6569 174.168 21.6977 174.189 20.7599C174.21 20.5894 174.231 20.4615 174.285 20.323C174.359 20.0566 174.455 19.7369 174.551 19.4385C174.775 18.7777 174.988 18.0637 175.34 17.3817C175.585 16.8701 175.883 16.3266 176.342 16.0282C176.64 15.8364 176.981 15.7085 177.343 15.6552C177.418 15.6552 177.493 15.6339 177.535 15.6339C177.588 15.6019 177.663 15.6019 177.706 15.6233Z" fill="white"/>
<path d="M85.6301 29.8467C85.6833 29.8254 85.7366 29.7721 85.8112 29.7401L85.9924 29.6655C86.1203 29.6123 86.2269 29.559 86.3015 29.4844C86.376 29.4311 86.408 29.3778 86.408 29.3565V18.5503H78.7883V33.9497C78.7883 33.7685 78.8948 33.6619 79.1186 33.5873C79.2465 33.534 79.3211 33.5127 79.3211 33.4808C79.3211 33.63 79.2678 33.7365 79.1719 33.7685L78.9907 33.8431C78.9161 33.8644 78.8629 33.9177 78.7883 33.9497V35.8466H86.408V30.1877C86.2801 30.1877 86.1523 30.2091 85.9711 30.241C85.9498 30.2623 85.8965 30.2623 85.8219 30.2623C85.694 30.2623 85.5874 30.241 85.4595 30.1558C85.4382 30.1345 85.4809 30.1345 85.5874 30.1345C85.662 30.1131 85.7153 30.0599 85.7153 30.0066H85.4489C85.4489 29.9746 85.5022 29.932 85.6301 29.8467ZM84.2127 19.0405C84.3938 19.0405 84.575 19.275 84.575 19.4775C84.575 19.5521 84.575 19.6053 84.5537 19.6267C84.266 19.6267 84.0635 19.3389 84.0635 19.1364C84.1381 19.0725 84.1914 19.0405 84.2127 19.0405ZM80.9303 22.3016C80.909 22.3016 80.8557 22.3016 80.8238 22.3229C80.8024 22.3442 80.8024 22.3442 80.7705 22.3442C80.7492 22.3442 80.7172 22.3442 80.6959 22.3655C80.6746 22.3868 80.6426 22.3868 80.6213 22.3868C80.6 22.3868 80.568 22.3868 80.5467 22.4081C80.6213 22.3335 80.6959 22.2802 80.7811 22.2589C80.877 22.2802 80.9303 22.2802 80.9303 22.3016ZM84.98 29.495C84.9054 29.4204 84.8308 29.3885 84.7455 29.3885C84.7242 29.4098 84.6709 29.4098 84.639 29.3885V29.2819C84.5644 29.3032 84.5111 29.3565 84.4578 29.3885L84.3086 29.495C84.1807 29.5696 84.0528 29.6016 83.9249 29.6016C83.9995 29.5483 84.0315 29.495 84.0315 29.4737C84.0315 29.4204 84.0102 29.3672 83.9249 29.2926C83.8184 29.218 83.7438 29.1647 83.6905 29.1114C83.7651 29.0368 83.8397 28.9835 83.8717 28.9835H83.9463C83.9676 29.0048 83.9995 29.0048 84.0209 29.0048C84.0422 29.0048 84.0955 29.0048 84.1274 28.9835L84.1807 28.9622H83.9249C83.9249 28.8876 83.9782 28.8556 84.0741 28.8343C84.1487 28.813 84.2233 28.813 84.2553 28.813H84.1807C84.2873 28.7917 84.3299 28.7597 84.3086 28.7597C84.3299 28.7597 84.3832 28.781 84.4152 28.813C84.4365 28.8343 84.4898 28.8663 84.5217 28.8663C84.5217 28.8663 84.543 28.845 84.6283 28.813C84.6496 28.7597 84.6496 28.7597 84.6496 28.813C84.6496 28.8343 84.6496 28.8663 84.6709 28.8876C84.9267 28.9409 85.0013 28.9622 84.8734 28.9622C84.7988 28.9622 84.7668 28.9835 84.7668 29.0155C84.7668 29.0368 84.7882 29.0901 84.8201 29.122C84.8414 29.1966 84.8734 29.2499 84.8734 29.3032L84.98 29.2499C85.0333 29.2499 85.0333 29.2712 85.0013 29.3032C84.98 29.3245 84.98 29.3565 85.0226 29.3565C85.0439 29.3352 85.0759 29.3352 85.0972 29.3352C85.0759 29.3565 85.0439 29.3885 85.0439 29.4098C85.0439 29.4844 85.0972 29.5377 85.1931 29.559C85.2677 29.5803 85.321 29.6123 85.3423 29.6123C85.1931 29.591 85.0652 29.5696 84.98 29.495ZM84.6496 28.8023H84.6283V28.8236L84.6496 28.8023ZM84.6283 28.8236L84.4258 28.9515C84.5217 28.9515 84.5963 28.8982 84.6283 28.8236ZM84.2873 29.0794C84.266 29.1007 84.266 29.1007 84.234 29.1007H84.1807C84.1807 29.154 84.202 29.1753 84.2553 29.1753C84.3832 29.1753 84.5111 29.1966 84.639 29.2819C84.6176 29.2073 84.5857 29.2073 84.5644 29.1327C84.4684 29.1007 84.3938 29.0794 84.2873 29.0794ZM85.1398 29.7508C85.1398 29.7295 85.1398 29.6975 85.1612 29.6762C85.1825 29.6549 85.2357 29.6549 85.2677 29.6549C85.289 29.6549 85.321 29.6549 85.3423 29.6336L85.321 29.6549C85.2997 29.6762 85.2677 29.7082 85.2677 29.7295C85.2677 29.7508 85.289 29.7508 85.3743 29.7508H85.1398ZM84.266 30.3156V30.3689C84.266 30.3689 84.266 30.3476 84.2446 30.3156C84.2233 30.2943 84.17 30.2623 84.1381 30.2623C84.0635 30.2837 84.0315 30.3156 84.0102 30.3156L84.3192 30.1877C84.3406 30.1664 84.4258 30.1664 84.5004 30.1664V30.3156H84.4471C84.4258 30.3156 84.3938 30.2943 84.3938 30.2623C84.3938 30.241 84.4152 30.2091 84.5004 30.1558C84.3938 30.1558 84.266 30.2091 84.266 30.3156ZM83.8077 31.0829C83.7864 31.0829 83.7864 31.0296 83.7864 30.955L83.5519 31.1042V30.9231C83.5306 30.9018 83.5306 30.8698 83.5306 30.8165V30.7632L83.5093 30.7845V30.7526C83.5306 30.7739 83.5306 30.7739 83.5626 30.7739H83.6692C83.7757 30.7739 83.8184 30.7526 83.8503 30.6993L83.7971 30.4968C83.9249 30.5714 83.9463 30.646 83.9249 30.7526C83.8717 30.8272 83.9036 30.955 84.0315 31.1149C83.8823 31.1042 83.829 31.1042 83.8077 31.0829ZM80.2909 31.4453C80.3122 31.424 80.3442 31.392 80.3442 31.3707C80.3442 31.3174 80.2909 31.2641 80.2163 31.2428C80.1097 31.2215 80.0671 31.1682 80.0671 31.1149H80.3016C80.4081 31.1149 80.504 31.1362 80.5893 31.2215C80.6639 31.2961 80.7705 31.328 80.8664 31.328H80.9729L80.7918 31.4559C80.7172 31.4026 80.6639 31.3813 80.6106 31.3813C80.536 31.3813 80.504 31.3813 80.4827 31.4026C80.4401 31.4133 80.3655 31.4453 80.2909 31.4453ZM81.7509 31.3387C81.7509 31.4453 81.7296 31.5199 81.6763 31.5412C81.655 31.5625 81.6017 31.6158 81.5271 31.6478C81.4738 31.6691 81.4205 31.6691 81.3459 31.6691C81.2927 31.6904 81.2713 31.7224 81.2713 31.7437C81.1967 31.7437 81.1435 31.7437 81.1435 31.7224C81.1435 31.701 81.1648 31.6691 81.1967 31.6478C81.2181 31.6264 81.2181 31.6264 81.25 31.6264L81.2713 31.6051C81.2713 31.5518 81.25 31.5305 81.1967 31.5305H81.0902C81.0369 31.5305 81.0156 31.5092 81.0156 31.4559H81.2713C81.2713 31.4559 81.3246 31.4346 81.4205 31.4026C81.4738 31.3494 81.5271 31.328 81.5697 31.2961C81.5911 31.2748 81.6443 31.2428 81.6763 31.2215L81.7509 31.1149V31.3387ZM80.0351 31.4133C80.0138 31.4346 79.9286 31.4346 79.8007 31.4346C79.8007 31.36 79.8007 31.328 79.822 31.36C79.8433 31.3813 79.9286 31.36 80.0564 31.2534C80.0564 31.3387 80.0564 31.392 80.0351 31.4133ZM84.1381 32.7028C84.2127 32.6815 84.266 32.6282 84.3192 32.5962L84.4684 32.5216C84.575 32.5003 84.6176 32.447 84.6176 32.3937C84.639 32.4151 84.6709 32.447 84.6709 32.4683C84.6709 32.5216 84.6496 32.5749 84.6176 32.5962C84.5644 32.6175 84.543 32.6495 84.543 32.6708C84.543 32.6921 84.5644 32.6921 84.6176 32.6921C84.543 32.7454 84.4898 32.7667 84.4365 32.7667C84.3832 32.7667 84.3299 32.7454 84.3086 32.7135C84.2873 32.7028 84.2446 32.7028 84.1381 32.7028ZM81.0049 33.4701C80.9836 33.4488 80.9516 33.4488 80.9516 33.4168L80.8983 33.3635L80.8451 33.3102H80.5147L80.6959 33.2356L80.8451 33.1824C80.8664 33.161 80.8983 33.161 80.9729 33.161H80.9943V33.4701H81.0049ZM79.2359 33.4701H79.0867C78.9801 33.4701 78.9375 33.4488 78.9375 33.3955L78.9907 33.3422L79.0121 33.3209C79.2145 33.3955 79.3211 33.4488 79.3211 33.5021C79.3105 33.4701 79.2891 33.4701 79.2359 33.4701ZM84.6496 34.1628C84.6283 34.1415 84.6283 34.0562 84.6283 33.9603C84.6283 33.9816 84.6283 34.0136 84.607 34.0349C84.5857 34.0882 84.5004 34.1095 84.3725 34.1095C84.3725 34.0349 84.4258 33.9816 84.5217 33.9816C84.543 34.003 84.575 34.003 84.5963 34.003C84.6176 33.9816 84.6176 33.9816 84.6176 33.9497L84.7242 34.0562C84.7988 34.1308 84.8521 34.2054 84.8521 34.2587C84.7242 34.2694 84.6816 34.2374 84.6496 34.1628ZM78.4899 34.9301C78.4686 34.9088 78.4153 34.9088 78.362 34.9088C78.4899 34.9088 78.5432 34.8875 78.5432 34.8342C78.5432 34.7809 78.4899 34.7596 78.362 34.7596C78.362 34.8342 78.362 34.8875 78.3407 34.8875C78.3194 34.9088 78.2661 34.9088 78.1382 34.9088C78.2661 34.9834 78.3407 35.0367 78.3726 35.0367C78.394 35.058 78.4792 35.058 78.6284 35.058C78.6177 35.0367 78.5645 34.9834 78.4899 34.9301Z" fill="white"/>
<path d="M87.0628 26.9799C87.0628 27.1078 87.1161 27.1824 87.212 27.2677C87.2866 27.3423 87.3931 27.3742 87.5743 27.3742V29.3032L87.5956 29.8893C87.6169 29.8893 87.6702 29.9106 87.7448 29.9426C87.7981 29.9639 87.8514 30.0172 87.926 30.0491C87.9793 30.1237 88.0539 30.177 88.1285 30.1983C88.2031 30.2197 88.235 30.2516 88.235 30.2729V30.3795C88.2137 30.4328 88.2137 30.4861 88.2137 30.5074C88.235 30.582 88.2883 30.6566 88.3203 30.7419C88.3416 30.8165 88.3736 30.8697 88.3736 30.9443C88.3736 31.0722 88.3203 31.1788 88.2457 31.2534C88.4269 31.328 88.5015 31.4346 88.5015 31.6157C88.5015 31.7223 88.4482 31.7969 88.3736 31.8502C88.4802 31.8715 88.5228 31.9568 88.5228 32.0846C88.5228 32.1592 88.4695 32.1912 88.3736 32.1912C88.3523 32.1912 88.3523 32.1912 88.3203 32.1699L88.2457 32.1166C88.1178 32.0953 88.0645 32.042 88.0645 31.9141C88.0645 31.8928 88.0858 31.8608 88.1391 31.8608H88.2137C88.1072 31.8076 88.0326 31.7862 87.9793 31.7862C87.9047 31.7862 87.8514 31.7116 87.8301 31.5838C87.8514 31.7649 87.9047 31.9461 87.9366 32.1273L88.0112 32.6175L87.958 32.5962C88.0645 32.9798 88.2137 33.4168 88.4162 33.7471C88.4908 33.875 89.3114 35.1539 89.5459 35.1539L89.7803 35.2285L89.759 35.335C89.759 35.4629 89.9615 35.772 90.1426 35.772C90.2172 35.772 90.2918 35.7506 90.3451 35.6654C90.3451 35.6441 90.3451 35.6121 90.3238 35.5908C90.3025 35.5695 90.3025 35.5375 90.3025 35.5162C90.8886 35.7187 91.6879 35.8998 91.997 35.9318C92.0716 36.113 92.1781 36.2196 92.3273 36.2196C92.4552 36.2196 92.5298 36.145 92.5831 36.0171L95.1728 36.1982C95.1728 36.2196 95.1728 36.2196 95.1514 36.2196V36.2942C95.1728 36.2942 95.2793 36.2942 95.3006 36.2196V36.1982C97.4853 36.1236 99.2011 36.049 100.512 35.9638C101.823 35.8572 102.793 35.708 103.485 35.5269V29.8467H96.3024C95.3539 29.8467 95.3006 29.6442 95.3006 29.2072V24.8166C95.3006 24.6354 95.322 24.5288 95.3752 24.4862V24.4329C95.4285 24.3796 95.4498 24.3263 95.4498 24.305V24.1558L95.4285 24.0493C95.4285 23.996 95.4285 23.9427 95.4498 23.9214C95.5244 23.996 95.631 24.0493 95.7589 24.1239L95.9401 24.1985C95.9933 24.2517 96.0466 24.2731 96.0893 24.305L96.1639 24.3583H96.6754V28.4399H103.602V19.2003C101.801 18.6355 97.5493 18.1772 95.6417 18.1772C92.9668 18.1772 91.1018 18.4543 89.8443 19.2003L89.7697 19.2216C87.8407 20.2767 87.5637 22.8663 87.5637 24.9444V26.5643H87.4891C87.4677 26.5643 87.4358 26.5643 87.4358 26.543L87.4145 26.5643L87.5637 26.6709V26.7774C87.3718 26.7668 87.1907 26.8414 87.0628 26.9799ZM87.862 19.5094C87.8088 19.5094 87.7874 19.5307 87.7555 19.6159C87.7555 19.8184 87.8301 19.925 87.9899 19.925C88.0432 19.9037 88.0645 19.8504 88.0645 19.8184C88.0645 19.7438 88.0432 19.6905 87.9899 19.6159C87.9899 19.5307 87.9366 19.5094 87.862 19.5094ZM89.6311 21.2038C89.4499 21.2038 89.2475 20.8948 89.2475 20.7136C89.2475 20.639 89.2688 20.607 89.3221 20.607C89.4499 20.607 89.5245 20.6603 89.5778 20.7882C89.5991 20.9161 89.6844 21.0227 89.759 21.0973C89.7377 21.1719 89.7057 21.2038 89.6311 21.2038ZM87.6276 20.7136C87.6063 20.7136 87.5743 20.7349 87.553 20.7669C87.5743 20.7882 87.6063 20.8415 87.6063 20.8735C87.6063 20.8735 87.6596 20.8948 87.7555 20.9268C87.7555 20.9054 87.7342 20.8735 87.7022 20.7989C87.7022 20.7349 87.6809 20.7136 87.6276 20.7136ZM100.928 20.9907C101.002 20.9161 101.055 20.8841 101.13 20.8841C101.258 20.8841 101.407 21.0653 101.407 21.2997C101.407 21.353 101.386 21.4063 101.354 21.4809L101.333 21.5129C101.055 21.5129 100.928 21.3317 100.928 20.9907ZM89.2475 21.8113C89.3007 21.8326 89.354 21.8646 89.3753 21.8859C89.3967 21.9072 89.4286 21.9392 89.4286 21.9925L89.354 22.0457C89.2794 21.9711 89.2475 21.9179 89.2475 21.8965V21.8113ZM89.6524 22.0244C89.6524 22.0031 89.6524 22.0031 89.6737 21.9711C89.6951 21.9925 89.7483 21.9925 89.8016 21.9925C89.8229 22.0138 89.8762 22.0457 89.9082 22.1203C89.8869 22.1417 89.8869 22.1417 89.8869 22.1736L89.8336 22.2269L89.8123 22.2482C89.7057 22.1203 89.6524 22.0457 89.6524 22.0244ZM100.928 23.1221L100.672 23.0155C100.672 23.0368 100.65 22.9942 100.597 22.8876C100.618 22.8663 100.672 22.8344 100.725 22.8344C100.853 22.845 100.928 23.1008 100.928 23.1221ZM89.8869 23.6336L89.8123 23.7615C89.8123 23.7402 89.8123 23.6336 89.8869 23.6336ZM90.1746 24.3796C90.1746 24.2731 90.1959 24.2304 90.2279 24.2304C90.2492 24.2304 90.2492 24.2304 90.2812 24.2517C90.3025 24.2731 90.3025 24.2731 90.3345 24.2731C90.3558 24.2517 90.3558 24.2198 90.3558 24.1985C90.3558 24.1239 90.3345 24.0706 90.3025 24.0493C90.2812 24.0279 90.2492 23.9747 90.2492 23.9001C90.2492 23.8255 90.2705 23.7509 90.3238 23.6443C90.3771 23.6443 90.3984 23.6443 90.4304 23.6656C90.4517 23.6869 90.4517 23.6869 90.4837 23.6869C90.505 23.7615 90.5583 23.7935 90.6329 23.8148C90.6862 23.8361 90.7075 23.8894 90.7075 23.996C90.4517 23.996 90.473 24.5075 90.3238 24.5075C90.3025 24.5075 90.2492 24.4542 90.1746 24.3796ZM102.952 24.5075C103.027 24.5821 103.102 24.6141 103.187 24.6354C103.24 24.6567 103.261 24.71 103.261 24.8166L103.134 24.8698C103.006 24.7633 102.952 24.6887 102.952 24.6354V24.5075ZM86.9136 25.1256V25.2322C86.9349 25.2535 86.9669 25.3388 86.9882 25.4134C87.0415 25.5412 87.1161 25.6158 87.2226 25.6158C87.3292 25.6158 87.4038 25.5945 87.4571 25.5412C87.4571 25.4666 87.4038 25.392 87.3292 25.2855C87.2546 25.1576 87.148 25.1043 87.0521 25.1043C86.9882 25.1043 86.9349 25.1043 86.9136 25.1256ZM86.9882 26.6176C86.9882 26.6922 87.0415 26.7455 87.1374 26.7455C87.1374 26.6922 87.1374 26.6389 87.1161 26.6176C87.0947 26.5963 87.0628 26.5643 87.0628 26.543C87.0095 26.543 86.9882 26.5643 86.9882 26.6176ZM89.2475 31.0296C89.2475 30.9763 89.2475 30.923 89.2688 30.8804C89.5565 30.8804 89.759 31.1681 89.759 31.3386C89.7057 31.4132 89.6524 31.4452 89.6098 31.4452C89.4286 31.4452 89.2475 31.2321 89.2475 31.0296ZM90.068 31.669C90.068 31.6157 90.0148 31.5411 89.9188 31.4665C89.8123 31.3919 89.7697 31.2854 89.7697 31.2108C89.7697 31.1894 89.7697 31.1894 89.791 31.1575V31.1362C89.8656 31.3386 90.3345 31.9035 90.4837 31.9035L90.4624 31.8822C90.4624 31.8608 90.537 31.8289 90.6968 31.8289C90.846 31.8289 90.9526 31.8076 91.0059 31.7756C91.2936 31.9568 91.4428 32.1912 91.4428 32.447C91.4428 32.6495 91.3682 32.8093 91.187 32.9372C91.2083 33.0118 91.2403 33.0651 91.2616 33.0864V33.161C91.3682 33.1397 91.4108 33.1077 91.4108 33.1077C91.7199 33.1077 92.0289 33.5979 92.0289 33.9283C92.0076 33.907 91.9757 33.907 91.9543 33.907L91.933 33.8857H91.9117C91.8584 33.907 91.8371 33.939 91.8371 34.0136C91.8371 34.0882 91.8584 34.1628 91.9117 34.1947C91.9117 34.1947 91.8904 34.216 91.8051 34.248H91.7519C91.8051 34.3546 91.8265 34.4505 91.8265 34.5357C91.8265 34.6636 91.7732 34.7382 91.6986 34.7915H91.5707C91.5174 34.8128 91.4641 34.8128 91.4428 34.8128C91.3895 34.7915 91.3149 34.7382 91.2403 34.6636H91.2616C91.2616 34.5571 91.2616 34.5144 91.2829 34.5144C91.2297 34.4612 91.1764 34.4398 91.1337 34.4398H91.0272C91.0272 34.5144 91.0485 34.5677 91.1337 34.6423C91.0591 34.6956 91.0059 34.7169 90.9313 34.7169C90.5156 34.7169 90.1853 34.0988 90.1853 33.7152C90.1853 33.6938 90.2386 33.6406 90.3132 33.566L90.441 33.4381C90.4624 33.4381 90.4943 33.4594 90.5689 33.4914C90.6222 33.5127 90.6755 33.5446 90.6968 33.5446C90.7501 33.5446 90.7714 33.5233 90.8034 33.4381C90.878 33.5127 90.9313 33.5873 90.9313 33.6406C90.9313 33.7152 90.9846 33.7898 91.0805 33.8963H91.187C91.2936 33.8963 91.3362 33.875 91.3362 33.843V33.8217C91.3149 33.843 91.2829 33.843 91.2616 33.843C91.187 33.843 91.1551 33.8217 91.1551 33.7898C91.1551 33.7684 91.1764 33.7365 91.2083 33.7152C91.2297 33.7152 91.2297 33.6938 91.2297 33.6619V33.6086C91.2083 33.5873 91.2083 33.5873 91.2083 33.5553H91.2616C91.2616 33.5766 91.2616 33.5766 91.2829 33.5766C91.3362 33.5766 91.3895 33.5553 91.4321 33.502C91.4321 33.3954 91.3789 33.3528 91.251 33.3528C91.2297 33.3741 91.2297 33.3741 91.1977 33.3741C91.1977 33.3209 91.1977 33.2995 91.219 33.2676C91.2403 33.2463 91.2403 33.2463 91.219 33.2463C91.1977 33.2676 91.1657 33.2995 91.1124 33.3209C91.0911 33.2995 91.0911 33.2995 91.0591 33.2995V33.3209L90.878 33.0331C90.8034 32.9798 90.7714 32.9052 90.7714 32.7773C90.4091 32.7241 90.4091 31.8502 90.0254 31.7223C90.068 31.701 90.068 31.701 90.068 31.669ZM87.862 33.4168C87.8834 33.4168 87.9153 33.4381 87.9153 33.4914H87.9686L87.9899 33.566C88.0112 33.566 88.0432 33.5446 88.0432 33.5127C88.0432 33.4381 87.9899 33.3848 87.9153 33.3848C87.8834 33.3954 87.862 33.3954 87.862 33.4168ZM87.7555 33.9283C87.7555 34.0029 87.7555 34.0349 87.7768 34.0562C87.7981 34.0562 87.8301 34.0562 87.8301 34.0775C87.8301 34.0988 87.8301 34.0988 87.8514 34.1308C87.8301 34.1521 87.7981 34.1841 87.7768 34.1841H87.7555C87.7555 34.3652 87.7555 34.4718 87.7768 34.5144C87.8301 34.589 87.8514 34.6636 87.8514 34.7489H88.2137C88.235 34.7276 88.3416 34.6743 88.5015 34.5997C88.4269 34.4931 88.3523 34.3652 88.2457 34.2906C88.1178 34.1841 88.0112 34.1414 87.9153 34.1414H87.9686V34.0562L87.9899 34.0349C87.9153 33.9816 87.862 33.9603 87.862 33.9283H87.7555ZM87.862 35.4203H87.8407C87.8407 35.4736 87.862 35.4949 87.9153 35.4949L87.9899 35.5695C87.9899 35.4736 87.9366 35.4203 87.862 35.4203Z" fill="white"/>
<path d="M125.141 18.5503H112.928V35.8466H120.143V25.1044H120.601L121.933 35.8573H130.043L131.354 25.1044H131.844V35.8573H139.059V18.5503H126.836L126.164 28.813H125.727L125.141 18.5503ZM116.317 19.4561C116.243 19.4561 116.189 19.4029 116.115 19.275C116.168 19.2217 116.221 19.2004 116.243 19.2004C116.264 19.2004 116.317 19.2004 116.349 19.2217C116.37 19.243 116.402 19.275 116.456 19.275C116.445 19.4029 116.392 19.4561 116.317 19.4561ZM115.902 19.7119L115.827 19.4029C115.848 19.4029 115.88 19.4029 115.902 19.3815H115.976C115.955 19.3815 115.997 19.4029 116.104 19.4348C115.997 19.5094 115.955 19.5627 115.923 19.616C115.902 19.6373 115.902 19.6693 115.902 19.6906V19.7119ZM115.848 21.2039C115.667 21.2039 115.465 20.8948 115.465 20.7137C115.465 20.6391 115.486 20.6071 115.539 20.6071C115.667 20.6071 115.742 20.6604 115.795 20.7883C115.816 20.9161 115.902 21.0227 115.976 21.0973C115.955 21.1719 115.933 21.2039 115.848 21.2039ZM127.145 20.9907C127.219 20.9161 127.273 20.8842 127.347 20.8842C127.475 20.8842 127.635 21.0653 127.635 21.2998C127.635 21.3531 127.614 21.4064 127.582 21.481L127.56 21.5023C127.273 21.5129 127.145 21.3318 127.145 20.9907ZM115.571 22.0458C115.497 21.9712 115.465 21.9179 115.465 21.8966V21.8113C115.518 21.8327 115.571 21.8646 115.592 21.8859C115.614 21.9072 115.646 21.9392 115.646 21.9925L115.571 22.0458ZM115.88 22.0245C115.88 22.0032 115.88 22.0032 115.902 21.9712C115.923 21.9925 115.976 21.9925 116.029 21.9925C116.051 22.0138 116.104 22.0458 116.136 22.1204C116.115 22.1417 116.115 22.1417 116.115 22.1737L116.061 22.227L116.04 22.2483C115.933 22.1204 115.88 22.0458 115.88 22.0245ZM129.169 22.7705C129.169 22.6426 129.223 22.5893 129.297 22.5893C129.479 22.5893 129.606 22.6959 129.681 22.877C129.756 23.0582 129.862 23.2394 129.99 23.3673C129.969 23.4951 129.915 23.5484 129.788 23.5484C129.511 23.5378 129.169 22.9943 129.169 22.7705ZM126.814 22.8984C126.836 22.877 126.889 22.8451 126.942 22.8451C127.07 22.8451 127.145 23.1008 127.145 23.1221L126.889 23.0156C126.889 23.0475 126.868 22.9943 126.814 22.8984ZM116.029 23.7616C116.029 23.7403 116.029 23.6337 116.104 23.6337L116.029 23.7616ZM116.392 24.3797C116.392 24.2731 116.413 24.2305 116.445 24.2305C116.466 24.2305 116.466 24.2305 116.498 24.2518C116.52 24.2731 116.52 24.2731 116.552 24.2731C116.573 24.2518 116.573 24.2198 116.573 24.1985C116.573 24.1239 116.552 24.0706 116.52 24.0493C116.498 24.028 116.466 23.9747 116.466 23.9001C116.466 23.8255 116.488 23.7509 116.541 23.6443C116.594 23.6443 116.616 23.6443 116.648 23.6657C116.669 23.687 116.669 23.687 116.701 23.687C116.722 23.7616 116.775 23.7935 116.85 23.8149C116.903 23.8362 116.925 23.8895 116.925 23.996C116.669 23.996 116.69 24.5076 116.541 24.5076C116.52 24.5076 116.466 24.4543 116.392 24.3797ZM121.219 24.3797C121.347 24.4862 121.422 24.5289 121.507 24.5289H121.614C121.614 24.6568 121.56 24.71 121.486 24.71C121.294 24.7207 121.219 24.6141 121.219 24.3797ZM129.169 24.5076C129.244 24.5822 129.319 24.6141 129.404 24.6354C129.457 24.6568 129.479 24.71 129.479 24.8166L129.351 24.8699C129.223 24.7633 129.169 24.6887 129.169 24.6354V24.5076ZM130.022 25.1044C129.894 24.9552 129.841 24.8699 129.841 24.8486C129.841 24.8273 129.862 24.7953 129.894 24.774C129.915 24.7953 129.969 24.8273 130.043 24.8273C130.118 24.8486 130.171 24.9019 130.246 25.0298C130.225 25.0511 130.193 25.083 130.193 25.1044L130.086 25.2109C130.065 25.1896 130.065 25.1896 130.065 25.1576L130.022 25.1044ZM113.898 27.9711C113.877 27.9711 113.845 27.9924 113.791 28.0457C113.791 27.9178 113.791 27.9391 113.919 27.7579L113.973 27.9071C113.951 27.9498 113.93 27.9711 113.898 27.9711ZM113.514 28.9302C113.514 28.6958 113.621 28.5998 113.802 28.5998H113.823C113.845 28.6212 113.845 28.6212 113.845 28.6531C113.791 28.7064 113.738 28.781 113.717 28.8556C113.696 28.9302 113.642 28.9835 113.589 28.9835C113.546 28.9728 113.514 28.9515 113.514 28.9302ZM117.852 29.5164C117.873 29.4418 117.852 29.4098 117.745 29.3885C117.82 29.3672 117.873 29.3139 117.926 29.186C117.948 29.1327 117.98 29.0794 118.001 29.0368L118.076 28.9302C118.054 28.9835 118.022 29.0794 117.948 29.218C117.894 29.3245 117.873 29.4204 117.873 29.527L117.948 29.6016C117.884 29.5909 117.83 29.5696 117.852 29.5164ZM118.289 29.5164C118.289 29.3885 118.363 29.3139 118.491 29.2819V29.3032C118.491 29.3245 118.47 29.3778 118.417 29.4098C118.395 29.4418 118.342 29.4631 118.289 29.5164Z" fill="white"/>
<path d="M156.206 30.7207C156.131 30.7207 156.057 30.742 156.025 30.8272C156.004 30.9018 155.95 30.9338 155.876 30.9338C155.854 30.9338 155.801 30.9125 155.726 30.8592L155.62 30.7526C155.492 30.6248 155.545 30.5502 155.726 30.4649C155.801 30.4436 155.876 30.337 155.929 30.1559C155.726 30.028 155.641 29.9534 155.567 29.8681C155.545 29.8468 155.513 29.7615 155.492 29.6337C155.641 29.6337 155.78 29.655 155.908 29.7402C155.908 29.5591 155.961 29.4099 156.036 29.2287L154.895 20.1489L154.661 18.561H153.169V18.6676C153.169 18.7209 153.147 18.7422 153.094 18.7422H153.02C152.785 18.7209 152.657 18.8914 152.636 19.3283V19.0939C152.561 19.0939 152.529 19.1152 152.508 19.2005C152.487 19.2751 152.38 19.3283 152.199 19.3283L152.615 18.561H142.139L139.954 35.8574H147.68L147.755 33.4169H149.034L149.108 35.8574H156.835L156.206 30.7207ZM151.304 19.4562C151.229 19.4562 151.197 19.4349 151.176 19.3497V19.2751C151.229 19.2751 151.282 19.2537 151.304 19.2218C151.325 19.2005 151.357 19.2005 151.378 19.2005C151.4 19.2005 151.453 19.2218 151.506 19.2751C151.432 19.4029 151.378 19.4562 151.304 19.4562ZM151.709 19.712C151.709 19.6587 151.709 19.6374 151.687 19.6054C151.666 19.5521 151.613 19.4989 151.506 19.4243C151.613 19.4029 151.655 19.371 151.634 19.371H151.741C151.762 19.3923 151.762 19.3923 151.794 19.3923L151.709 19.712ZM142.629 23.6871C142.65 23.6871 142.65 23.6871 142.682 23.7084C142.704 23.7297 142.704 23.7297 142.736 23.7297C142.757 23.7084 142.757 23.6764 142.757 23.6551C142.757 23.5805 142.736 23.5272 142.704 23.5059C142.682 23.4846 142.65 23.4313 142.65 23.3567C142.65 23.2821 142.672 23.2075 142.725 23.0689C142.778 23.0689 142.831 23.0689 142.853 23.0903C142.874 23.1116 142.874 23.1116 142.906 23.1116C142.927 23.1862 142.981 23.2395 143.055 23.2608C143.109 23.2821 143.13 23.3354 143.13 23.4419C142.895 23.4419 142.8 23.9855 142.714 23.9855C142.693 23.9855 142.64 23.9322 142.565 23.8576C142.576 23.7403 142.597 23.6871 142.629 23.6871ZM142.032 24.156L141.851 23.6657C141.851 23.6444 141.851 23.6444 141.872 23.6444H141.926C141.947 23.6657 141.947 23.6657 141.979 23.6657C142 23.4846 142.032 23.4633 142.032 23.5592V24.156ZM146.018 24.5396H146.125C146.199 24.5396 146.274 24.4863 146.402 24.3904C146.402 24.6249 146.327 24.7208 146.146 24.7208C146.061 24.7208 146.018 24.6675 146.018 24.5396ZM147.883 29.0049L148.011 24.87H148.778L148.906 29.0049H147.883ZM143.652 31.2109C143.599 31.2109 143.546 31.1896 143.524 31.1363V31.083C143.503 31.1043 143.503 31.1363 143.503 31.1576C143.503 31.1789 143.524 31.2322 143.556 31.2642C143.577 31.2855 143.609 31.3175 143.609 31.3388C143.609 31.3601 143.556 31.3921 143.428 31.3921C143.503 31.4134 143.556 31.52 143.556 31.6798V31.7011C143.535 31.7011 143.482 31.6265 143.428 31.4667C143.354 31.3175 143.279 31.2322 143.194 31.2322C143.173 31.2109 143.173 31.2109 143.141 31.2109V31.1576C143.162 31.1789 143.194 31.1789 143.268 31.2109C143.29 31.2322 143.322 31.2322 143.375 31.2322C143.354 31.1256 143.322 31.083 143.268 31.083H143.162C143.162 31.0084 143.183 30.9764 143.236 30.9764H143.311C143.332 30.9978 143.332 30.9978 143.364 30.9978C143.386 30.9978 143.386 30.9764 143.386 30.9445L143.332 30.7633C143.386 30.8166 143.439 30.8379 143.46 30.8379C143.482 30.8379 143.535 30.8166 143.567 30.7633C143.588 30.71 143.62 30.6567 143.695 30.6141C143.769 30.7633 143.823 30.8699 143.801 30.8912C143.78 30.9125 143.801 30.9978 143.876 31.0724C143.801 31.1576 143.727 31.2109 143.652 31.2109ZM153.531 32.1594C153.403 32.1594 153.329 32.1061 153.275 31.9782V31.829C153.403 31.9356 153.478 31.9782 153.552 31.9782H153.659C153.659 32.1061 153.616 32.1594 153.531 32.1594ZM143.109 33.1824H143.183C143.109 33.3103 143.077 33.3636 143.055 33.3316C143.034 33.3103 143.034 33.353 143.034 33.4382V33.6407C142.853 33.6407 142.704 33.6194 142.618 33.5661C142.565 33.5448 142.512 33.5128 142.49 33.4915L142.672 33.3423V33.2677C142.65 33.2464 142.65 33.2144 142.65 33.1931C142.65 33.0652 142.672 33.0119 142.757 33.0119C142.778 33.0119 142.81 33.0119 142.831 33.0332C142.831 32.98 142.81 32.9586 142.725 32.9267C142.704 32.9054 142.672 32.9054 142.65 32.9054C142.704 32.7988 142.757 32.7562 142.778 32.7562C142.831 32.7562 142.885 32.7775 142.927 32.8627C142.981 32.9373 143.034 32.9906 143.077 32.9906C143.13 32.9906 143.151 32.9693 143.183 32.916C143.183 32.9373 143.162 32.9906 143.109 33.0226C143.055 33.0759 143.034 33.1292 143.034 33.1505L143.109 33.1824ZM146.476 34.3973C146.476 34.2695 146.455 34.1416 146.37 34.035C146.295 33.9284 146.263 33.8006 146.263 33.6727C146.263 33.5981 146.338 33.6514 146.466 33.7792C146.466 34.2162 146.444 34.1096 146.647 34.3973H146.476ZM142.341 34.7277C142.32 34.781 142.32 34.8343 142.32 34.8556C142.299 34.781 142.245 34.7064 142.245 34.6744C142.245 34.6531 142.245 34.6531 142.267 34.6531L142.288 34.6744C142.288 34.5998 142.267 34.5465 142.213 34.5252C142.16 34.5039 142.139 34.4719 142.139 34.3973C142.267 34.3973 142.341 34.4719 142.341 34.5998V34.7277ZM152.817 34.781L152.743 34.8556C152.743 34.7277 152.689 34.6531 152.593 34.6531H152.519L152.7 34.5998C152.828 34.5998 152.902 34.6531 152.902 34.7277C152.892 34.749 152.87 34.781 152.817 34.781ZM144.675 35.7295C144.601 35.7295 144.547 35.6549 144.547 35.495C144.547 35.4204 144.569 35.3458 144.601 35.2606H144.473C144.494 35.2392 144.473 35.186 144.451 35.1114C144.43 35.09 144.43 35.0368 144.398 34.9622C144.377 34.9089 144.323 34.8556 144.292 34.8343C144.313 34.813 144.345 34.813 144.366 34.813C144.494 34.813 144.622 35.0155 144.643 35.2286C144.696 35.1753 144.771 35.154 144.846 35.154C144.846 35.2286 144.846 35.2606 144.824 35.2819C144.803 35.3032 144.75 35.3565 144.643 35.4311C144.664 35.5057 144.696 35.559 144.771 35.5803C144.846 35.6016 144.878 35.6549 144.878 35.7295H144.675ZM146.604 35.527C146.604 35.527 146.604 35.5057 146.583 35.4737L146.657 35.5483C146.657 35.5696 146.625 35.5483 146.604 35.527Z" fill="white"/>
<path d="M171.405 24.5929V18.561H163.53C163.53 18.5823 163.423 18.6676 163.242 18.7422L162.784 18.9767C162.73 18.998 162.656 18.998 162.528 18.998C162.293 18.998 162.165 18.9447 162.165 18.8488C162.165 18.7422 162.187 18.6463 162.272 18.561H160.503C160.268 18.7635 159.576 19.1259 158.958 19.1259C158.904 19.1259 158.851 19.1045 158.83 19.0726C158.702 19.1259 158.649 19.1472 158.627 19.1791C158.606 19.2005 158.574 19.2537 158.499 19.2857C158.499 19.1578 158.734 18.8701 159.011 18.5717H157.753V35.868H165.458V32.7775H165.256C165.331 32.7029 165.384 32.6709 165.458 32.6709V30.8272H169.924C169.924 30.678 169.977 30.5715 170.105 30.4969C170.467 30.5715 170.233 30.8592 170.723 30.8592C170.744 30.8592 170.798 30.8592 170.851 30.8379H170.957V25.7439H166.695C166.545 25.8717 166.418 25.925 166.29 25.925C166.055 25.925 165.831 25.9037 165.704 25.7225H165.597C165.597 25.7439 165.576 25.7439 165.544 25.7439H165.469V24.5929H171.405ZM164.393 20.5326C164.371 20.5326 164.371 20.5326 164.371 20.5113C164.371 20.49 164.393 20.4047 164.478 20.3301C164.553 20.2555 164.585 20.1809 164.585 20.1489C164.606 20.1702 164.606 20.2022 164.606 20.2235C164.606 20.2448 164.553 20.3301 164.478 20.458L164.393 20.5326ZM163.029 24.1773C162.922 24.3052 162.879 24.4117 162.879 24.4863L162.901 24.5076C162.879 24.5609 162.847 24.5822 162.826 24.5822C162.805 24.5822 162.752 24.5609 162.72 24.529C162.698 24.5076 162.645 24.5076 162.613 24.5076C162.613 24.4863 162.634 24.4863 162.666 24.4863H162.72C162.794 24.3584 162.847 24.2306 162.869 24.156C162.89 24.0814 162.975 24.0494 163.071 24.0494C163.071 24.0281 163.071 23.9961 163.093 23.9961C163.114 23.9961 163.114 24.0494 163.029 24.1773ZM161.984 25.4135L161.878 25.4348H161.824C161.824 25.3602 161.846 25.3069 161.931 25.2856C162.006 25.2856 162.038 25.2856 162.059 25.2643C162.08 25.2856 162.08 25.2856 162.112 25.2856C162.112 25.3282 162.059 25.3815 161.984 25.4135ZM162.752 25.8504C162.698 25.9037 162.677 25.957 162.677 25.9783C162.602 25.9996 162.549 26.0529 162.496 26.1275C162.496 26.0209 162.517 25.8504 162.805 25.7439C162.805 25.7652 162.773 25.8185 162.752 25.8504ZM162.698 26.0209C162.677 26.0209 162.677 26.0209 162.677 25.9996H162.73L162.698 26.0209ZM165.267 26.2021L165.192 26.2234C165.267 26.2021 165.299 26.1488 165.299 26.1169C165.277 26.0955 165.299 26.0423 165.32 25.989C165.373 25.989 165.394 26.0103 165.394 26.0636C165.394 26.1062 165.341 26.1488 165.267 26.2021ZM170.297 27.7687C170.318 27.7687 170.35 27.7687 170.35 27.79C170.35 27.8113 170.329 27.8433 170.243 27.8646L170.169 27.8859C170.169 27.822 170.222 27.7687 170.297 27.7687ZM167.27 28.5893C167.323 28.5893 167.345 28.6106 167.345 28.6426C167.345 28.7172 167.291 28.8237 167.217 28.8983C167.164 28.9729 167.11 29.0262 167.089 29.0795C167.036 29.1328 167.014 29.1861 167.014 29.2074C167.036 29.2287 167.068 29.2607 167.142 29.2607L167.089 29.314C167.036 29.314 167.014 29.2926 167.014 29.2074V29.1328C166.833 29.2607 166.684 29.4205 166.599 29.5697C166.599 29.282 166.673 28.8983 167.27 28.5893ZM159.235 28.6958C159.565 28.6958 159.746 28.8024 159.746 29.0049C159.746 29.0795 159.693 29.1328 159.618 29.2074C159.618 29.1541 159.597 29.1328 159.565 29.1328C159.544 29.1328 159.491 29.1541 159.459 29.2074C159.437 29.2607 159.384 29.314 159.352 29.3353C159.352 28.9516 159.331 28.8237 158.936 28.8237H158.808C159 28.7491 159.128 28.6958 159.235 28.6958ZM164.648 29.2607C164.627 29.282 164.627 29.314 164.627 29.3353C164.553 29.314 164.499 29.282 164.499 29.2074V29.0262C164.606 29.0475 164.648 29.1008 164.648 29.2074V29.2607ZM159.384 31.4667C159.384 31.5946 159.277 31.6692 159.054 31.7011C159.054 31.6478 159.075 31.5946 159.128 31.5519L159.203 31.4773C159.224 31.456 159.224 31.424 159.224 31.3708C159.331 31.3601 159.384 31.3921 159.384 31.4667ZM160.386 31.829H160.258C160.258 31.5946 160.386 31.4667 160.641 31.4667C160.791 31.4667 160.876 31.4667 160.876 31.4454C160.897 31.4667 160.929 31.4667 160.951 31.4667C160.951 31.6478 160.769 31.7757 160.386 31.829ZM166.343 31.7011C166.343 31.7224 166.343 31.7224 166.364 31.7544C166.386 31.7757 166.386 31.7757 166.386 31.8077C166.386 31.829 166.364 31.861 166.332 31.861C166.311 31.7864 166.279 31.7544 166.258 31.7331L166.236 31.7118C166.215 31.7118 166.215 31.7331 166.215 31.7651C166.236 31.7864 166.268 31.8397 166.268 31.8716C166.268 31.8929 166.247 31.9462 166.215 31.9995C166.194 32.0741 166.162 32.1274 166.14 32.1487C166.268 32.0421 166.45 31.8929 166.45 31.7864C166.45 31.7224 166.418 31.7011 166.343 31.7011ZM158.904 32.1061L158.702 32.1807C158.702 32.1061 158.776 32.0528 158.958 31.9782C158.979 31.9569 159.032 31.9249 159.086 31.9036C159.107 31.8823 159.16 31.8823 159.192 31.8823C159.213 31.8823 159.245 31.8823 159.245 31.9036C159.245 31.9249 159.192 31.9782 159.064 32.0315L158.904 32.1061ZM159.618 32.0315C159.618 32.0848 159.565 32.1381 159.491 32.1594L159.416 32.1807C159.416 32.1594 159.437 32.1061 159.469 32.0741C159.491 32.0528 159.522 32.0208 159.522 31.9675C159.597 31.9782 159.618 32.0102 159.618 32.0315ZM159.416 32.3938C159.341 32.4471 159.267 32.4684 159.181 32.5004C159.181 32.4791 159.235 32.4258 159.331 32.3725C159.405 32.3192 159.459 32.2979 159.48 32.2979C159.501 32.2979 159.501 32.2979 159.501 32.3192C159.512 32.3405 159.491 32.3619 159.416 32.3938ZM159.544 33.1398V32.9586C159.65 32.98 159.693 33.0332 159.693 33.1398V33.1931C159.672 33.2144 159.672 33.2464 159.672 33.2677C159.597 33.2357 159.544 33.1824 159.544 33.1398ZM167.835 33.4489H167.76C167.739 33.4702 167.707 33.4702 167.686 33.4702C167.632 33.4702 167.611 33.4489 167.611 33.3956L167.686 33.321L167.664 33.2997C167.59 33.353 167.515 33.4062 167.483 33.4808C167.462 33.5554 167.377 33.63 167.281 33.7153C167.483 33.6407 167.611 33.5874 167.792 33.5874L168.027 33.6407C168.005 33.6194 167.973 33.5874 167.952 33.5341C167.91 33.4702 167.888 33.4489 167.835 33.4489ZM159.895 33.9071C159.949 33.9071 159.97 33.9071 160.002 33.8858C160.023 33.9071 160.023 33.9071 160.055 33.9071C160.055 33.9284 160.002 33.9817 159.906 34.0137L159.8 34.035C159.8 33.9604 159.821 33.9071 159.895 33.9071ZM159.672 34.6531C159.672 34.5252 159.746 34.4506 159.874 34.4506C159.981 34.4506 160.023 34.4293 160.002 34.3973C160.023 34.4187 160.055 34.4506 160.077 34.4506C160.077 34.5252 159.949 34.5998 159.672 34.6531Z" fill="white"/>
<path d="M199.357 30.8329C199.282 30.8329 199.208 30.8542 199.176 30.9395C199.154 31.0141 199.101 31.046 199.027 31.046C199.005 31.046 198.952 31.0247 198.877 30.9714L198.771 30.8649C198.643 30.737 198.696 30.6624 198.877 30.5771C198.952 30.5558 199.027 30.4492 199.08 30.2681C198.877 30.1402 198.792 30.0656 198.717 29.9803C198.696 29.959 198.664 29.8738 198.643 29.7459C198.792 29.7459 198.931 29.7672 199.059 29.8525C199.059 29.6713 199.112 29.5221 199.186 29.3409L198.046 20.2505L197.812 18.6626H196.32V18.7692C196.32 18.8225 196.298 18.8438 196.245 18.8438H196.17C195.936 18.8225 195.808 18.993 195.787 19.4299V19.1954C195.712 19.1954 195.68 19.2168 195.659 19.302C195.638 19.3766 195.531 19.4299 195.35 19.4299L195.766 18.6626H185.29L183.105 35.9589H190.831L190.906 33.5185H192.185L192.259 35.9589H199.986L199.357 30.8329ZM194.455 19.5578C194.38 19.5578 194.348 19.5365 194.327 19.4512V19.3766C194.38 19.3766 194.433 19.3553 194.455 19.3233C194.476 19.302 194.508 19.302 194.529 19.302C194.551 19.302 194.604 19.3233 194.657 19.3766C194.583 19.5152 194.529 19.5578 194.455 19.5578ZM194.87 19.8136C194.87 19.7603 194.87 19.739 194.849 19.707C194.828 19.6537 194.774 19.6004 194.668 19.5258C194.774 19.5045 194.817 19.4725 194.796 19.4725H194.902C194.924 19.4938 194.924 19.4938 194.956 19.4938L194.87 19.8136ZM185.78 23.7993C185.801 23.7993 185.801 23.7993 185.833 23.8206C185.854 23.8419 185.854 23.8419 185.886 23.8419C185.908 23.8206 185.908 23.7886 185.908 23.7673C185.908 23.6927 185.886 23.6394 185.854 23.6181C185.833 23.5968 185.801 23.5435 185.801 23.4689C185.801 23.3943 185.823 23.3197 185.876 23.1812C185.929 23.1812 185.982 23.1812 186.004 23.2025C186.025 23.2238 186.025 23.2238 186.057 23.2238C186.078 23.2984 186.132 23.3517 186.206 23.373C186.259 23.3943 186.281 23.4476 186.281 23.5542C186.046 23.5542 185.95 24.0977 185.865 24.0977C185.844 24.0977 185.791 24.0444 185.716 23.9698C185.727 23.8526 185.759 23.7993 185.78 23.7993ZM185.194 24.2575L185.013 23.7673C185.013 23.746 185.013 23.746 185.034 23.746H185.087C185.108 23.7673 185.108 23.7673 185.14 23.7673C185.162 23.5861 185.194 23.5648 185.194 23.6607V24.2575ZM189.169 24.6412H189.275C189.35 24.6412 189.425 24.5879 189.552 24.492C189.552 24.7264 189.478 24.8223 189.297 24.8223C189.222 24.8223 189.169 24.7691 189.169 24.6412ZM191.044 29.1065L191.172 24.9715H191.94L192.068 29.1065H191.044ZM186.803 31.3125C186.75 31.3125 186.696 31.2911 186.675 31.2379V31.1846C186.654 31.2059 186.654 31.2379 186.654 31.2592C186.654 31.2805 186.675 31.3338 186.707 31.3657C186.728 31.3871 186.76 31.419 186.76 31.4403C186.76 31.4617 186.707 31.4936 186.579 31.4936C186.654 31.5149 186.707 31.6215 186.707 31.7814V31.8027C186.686 31.8027 186.632 31.7281 186.579 31.5682C186.505 31.419 186.43 31.3338 186.345 31.3338C186.323 31.3125 186.323 31.3125 186.291 31.3125V31.2592C186.313 31.2805 186.345 31.2805 186.419 31.3125C186.441 31.3338 186.473 31.3338 186.526 31.3338C186.505 31.2272 186.473 31.1846 186.419 31.1846H186.313C186.313 31.11 186.334 31.078 186.387 31.078H186.462C186.483 31.0993 186.483 31.0993 186.515 31.0993C186.547 31.0993 186.537 31.078 186.537 31.046L186.483 30.8649C186.537 30.9182 186.59 30.9395 186.611 30.9395C186.632 30.9395 186.686 30.9182 186.718 30.8649C186.739 30.8116 186.771 30.7583 186.846 30.7157C186.92 30.8649 186.973 30.9714 186.952 30.9928C186.931 31.0141 186.952 31.0993 187.027 31.1739C186.963 31.2698 186.888 31.3125 186.803 31.3125ZM196.693 32.2716C196.565 32.2716 196.49 32.2183 196.437 32.0904V31.9412C196.565 32.0478 196.639 32.0904 196.714 32.0904H196.821C196.821 32.2183 196.767 32.2716 196.693 32.2716ZM186.27 33.2947H186.345C186.27 33.4225 186.238 33.4758 186.217 33.4439C186.196 33.4225 186.196 33.4652 186.196 33.5504V33.7529C186.014 33.7529 185.865 33.7316 185.78 33.6783C185.727 33.657 185.673 33.625 185.652 33.6037L185.833 33.4545V33.3799C185.812 33.3586 185.812 33.3266 185.812 33.3053C185.812 33.1774 185.833 33.1242 185.918 33.1242C185.94 33.1242 185.972 33.1242 185.993 33.1455C185.993 33.0922 185.972 33.0709 185.886 33.0389C185.865 33.0176 185.833 33.0176 185.812 33.0176C185.865 32.911 185.918 32.8684 185.94 32.8684C185.993 32.8684 186.046 32.8897 186.089 32.975C186.142 33.0496 186.196 33.1028 186.238 33.1028C186.291 33.1028 186.313 33.0815 186.345 33.0282C186.345 33.0496 186.323 33.1028 186.27 33.1348C186.217 33.1881 186.196 33.2414 186.196 33.2627L186.27 33.2947ZM189.627 34.4989C189.627 34.371 189.606 34.2431 189.52 34.1366C189.446 34.03 189.414 33.9021 189.414 33.7742C189.414 33.6996 189.489 33.7529 189.616 33.8808C189.616 34.3177 189.595 34.2112 189.798 34.4989H189.627ZM185.492 34.8293C185.471 34.8826 185.471 34.9358 185.471 34.9572C185.45 34.8826 185.396 34.808 185.396 34.776C185.396 34.7547 185.396 34.7547 185.418 34.7547L185.439 34.776C185.439 34.7014 185.418 34.6481 185.364 34.6268C185.311 34.6055 185.29 34.5735 185.29 34.4989C185.418 34.4989 185.492 34.5735 185.492 34.7014V34.8293ZM195.968 34.8826L195.893 34.9572C195.893 34.8293 195.84 34.7547 195.744 34.7547H195.67L195.851 34.7014C195.979 34.7014 196.053 34.7547 196.053 34.8293C196.043 34.8612 196.021 34.8826 195.968 34.8826ZM187.837 35.831C187.762 35.831 187.709 35.7564 187.709 35.5966C187.709 35.522 187.73 35.4474 187.762 35.3621H187.634C187.656 35.3408 187.634 35.2875 187.613 35.2129C187.592 35.1916 187.592 35.1383 187.56 35.0637C187.538 35.0104 187.485 34.9572 187.453 34.9358C187.474 34.9145 187.506 34.9145 187.528 34.9145C187.656 34.9145 187.783 35.117 187.805 35.3302C187.858 35.2769 187.933 35.2556 188.007 35.2556C188.007 35.3302 188.007 35.3621 187.986 35.3834C187.965 35.4048 187.911 35.458 187.805 35.5326C187.826 35.6072 187.858 35.6605 187.933 35.6818C188.007 35.7031 188.039 35.7564 188.039 35.831H187.837ZM189.755 35.6285C189.755 35.6285 189.755 35.6072 189.734 35.5753L189.808 35.6499C189.808 35.6818 189.787 35.6605 189.755 35.6285Z" fill="white"/>
</g>
<defs>
<clipPath id="clip0_7312_154">
<rect width="200" height="48.9796" fill="white"/>
</clipPath>
</defs>
</svg>
