<svg width="100" height="34" viewBox="0 0 100 34" fill="none" xmlns="http://www.w3.org/2000/svg">
<path fill-rule="evenodd" clip-rule="evenodd" d="M78.6549 5.90502L77.7799 10.685H83.2299L80.4499 26.115H86.5599L89.3499 10.685H94.8399L95.7149 5.90502H78.6549ZM44.8899 21.335L45.5299 17.81L49.5349 17.82H50.4849C54.0049 17.825 53.0449 21.335 49.9049 21.335H44.8899ZM56.6649 15.455C57.9149 14.63 58.6049 13.36 58.8599 11.965C59.4599 8.65002 57.2649 5.90502 52.3299 5.90502L41.6449 5.92002L38.6899 22.065L41.3199 26.12H48.9249C53.9099 26.12 57.6099 23.795 58.3399 19.755C58.9099 16.425 56.6749 15.48 56.6649 15.455ZM50.6949 13.91H46.2649L46.8549 10.675L50.3599 10.68H51.2299C54.4549 10.69 53.5749 13.91 50.6949 13.91ZM65.6599 18.29L65.0949 21.33H75.0249L74.1549 26.11H58.1349L61.8099 5.90002H77.2299L76.3599 10.68H67.0449L66.5299 13.505H74.6049L73.7349 18.285H65.6599V18.29Z" fill="#0BBBEF"/>
<path fill-rule="evenodd" clip-rule="evenodd" d="M28.375 7.93999C27.11 6.33499 24.985 5.87498 23.095 5.90498H17.68L22.69 13.645L28.375 7.93999ZM13.8 24.465L32.295 5.90998H41.145L32.37 14.715L39.765 26.11L35.24 26.12C30.91 26.12 30.05 24.735 29.305 23.825L26.93 20.165L21.005 26.115L7.335 26.135C7.965 22.57 8.625 19.005 9.27 15.445L9.85 13.735L5.625 15.735L5.66 10.52L12.72 5.90998H17.225L13.8 24.465Z" fill="#FEFEFE"/>
</svg>
