<svg width="16" height="16" viewBox="0 0 16 16" fill="none" xmlns="http://www.w3.org/2000/svg">
<path d="M0.5 0.5H14.9335V14.9335H0.5V0.5Z" fill="#A6A5A5" stroke-linecap="round"/>
<path opacity="0.5" d="M15.4335 14.0444H0V15.4334H15.4335V14.0444Z" fill="black"/>
<path d="M6.36144 10.3421C5.9741 10.3421 5.62877 10.2441 5.32544 10.0481C5.02677 9.84747 4.7911 9.55813 4.61844 9.18013C4.44577 8.80213 4.35944 8.35413 4.35944 7.83613C4.35944 7.31813 4.44577 6.87013 4.61844 6.49213C4.7911 6.11413 5.02677 5.82713 5.32544 5.63113C5.62877 5.43047 5.9741 5.33013 6.36144 5.33013C6.7441 5.33013 7.08477 5.43047 7.38344 5.63113C7.68677 5.82713 7.92477 6.11413 8.09744 6.49213C8.2701 6.87013 8.35644 7.31813 8.35644 7.83613C8.35644 8.35413 8.2701 8.80213 8.09744 9.18013C7.92477 9.55813 7.68677 9.84747 7.38344 10.0481C7.08477 10.2441 6.7441 10.3421 6.36144 10.3421ZM6.36144 9.71913C6.75344 9.71913 7.0661 9.55813 7.29944 9.23613C7.53744 8.91413 7.65644 8.44747 7.65644 7.83613C7.65644 7.2248 7.53744 6.75813 7.29944 6.43613C7.0661 6.11413 6.75344 5.95313 6.36144 5.95313C5.96477 5.95313 5.64744 6.11413 5.40944 6.43613C5.1761 6.75813 5.05944 7.2248 5.05944 7.83613C5.05944 8.44747 5.1761 8.91413 5.40944 9.23613C5.64744 9.55813 5.96477 9.71913 6.36144 9.71913ZM10.5269 5.38613V10.2861H9.83388V5.99513H8.72788V5.38613H10.5269Z" fill="black"/>
</svg>
