<svg width="18" height="18" viewBox="0 0 18 18" fill="none" xmlns="http://www.w3.org/2000/svg">
<path d="M1 0.5C0.723858 0.5 0.5 0.723858 0.5 1V16.4335C0.5 16.7096 0.723858 16.9335 1 16.9335H16.4335C16.7096 16.9335 16.9335 16.7096 16.9335 16.4335V1C16.9335 0.723858 16.7096 0.5 16.4335 0.5H1Z" fill="#A6A5A5"/>
<path opacity="0.5" d="M16.4335 15.0444H1V16.4334H16.4335V15.0444Z" fill="black"/>
<path d="M7.36144 11.3421C6.9741 11.3421 6.62877 11.2441 6.32544 11.0481C6.02677 10.8475 5.7911 10.5581 5.61844 10.1801C5.44577 9.80213 5.35944 9.35413 5.35944 8.83613C5.35944 8.31813 5.44577 7.87013 5.61844 7.49213C5.7911 7.11413 6.02677 6.82713 6.32544 6.63113C6.62877 6.43047 6.9741 6.33013 7.36144 6.33013C7.7441 6.33013 8.08477 6.43047 8.38344 6.63113C8.68677 6.82713 8.92477 7.11413 9.09744 7.49213C9.2701 7.87013 9.35644 8.31813 9.35644 8.83613C9.35644 9.35413 9.2701 9.80213 9.09744 10.1801C8.92477 10.5581 8.68677 10.8475 8.38344 11.0481C8.08477 11.2441 7.7441 11.3421 7.36144 11.3421ZM7.36144 10.7191C7.75344 10.7191 8.0661 10.5581 8.29944 10.2361C8.53744 9.91413 8.65644 9.44747 8.65644 8.83613C8.65644 8.2248 8.53744 7.75813 8.29944 7.43613C8.0661 7.11413 7.75344 6.95313 7.36144 6.95313C6.96477 6.95313 6.64744 7.11413 6.40944 7.43613C6.1761 7.75813 6.05944 8.2248 6.05944 8.83613C6.05944 9.44747 6.1761 9.91413 6.40944 10.2361C6.64744 10.5581 6.96477 10.7191 7.36144 10.7191ZM11.5269 6.38613V11.2861H10.8339V6.99513H9.72788V6.38613H11.5269Z" fill="black"/>
</svg>
