<svg width="15" height="15" viewBox="0 0 15 15" fill="none" xmlns="http://www.w3.org/2000/svg">
<path d="M14.8171 13.7168L8.47561 7.43243L14.8171 1.1481C15.061 0.906394 15.061 0.422984 14.8171 0.181279C14.5732 -0.0604263 14.0854 -0.0604263 13.8415 0.181279L7.5 6.46561L1.15854 0.181279C0.914634 -0.0604263 0.426829 -0.0604263 0.182927 0.181279C-0.0609756 0.422984 -0.0609756 0.906394 0.182927 1.1481L6.52439 7.43243L0.182927 13.7168C-0.0609756 13.9585 -0.0609756 14.4419 0.182927 14.6836C0.426829 14.9253 0.914634 14.9253 1.15854 14.6836L7.5 8.39925L13.8415 14.6836C14.0854 14.9253 14.5732 14.9253 14.8171 14.6836C15.061 14.4419 15.061 13.9585 14.8171 13.7168Z" fill="white"/>
</svg>
