<svg width="92" height="41" viewBox="0 0 92 41" fill="none" xmlns="http://www.w3.org/2000/svg">
<path d="M0 0.294968H17.3835C26.1564 0.294968 31.0303 4.9917 31.0303 11.7305C31.0303 14.6348 29.6145 17.9247 25.8779 19.6265V19.8534C29.6145 21.192 31.6801 25.4123 31.6801 28.6796C31.6801 35.9402 25.7386 40.6824 18.7992 40.6824H0V0.294968ZM16.1302 16.3592C19.9364 16.3592 21.3522 14.3398 21.3522 12.1162C21.3522 9.91533 19.9364 8.28169 16.1302 8.28169H9.1443V16.3365H16.1302V16.3592ZM16.8961 32.6503C20.7487 32.6503 22.3037 30.5628 22.3037 28.2485C22.3037 25.9795 20.7719 23.7333 16.8961 23.7333H9.1443V32.6729H16.8961V32.6503Z" fill="#FF3300"/>
<path d="M34.3955 0.294968H43.5398V40.6597H34.3955V0.294968Z" fill="#FF3300"/>
<path d="M46.8587 15.7239C46.8587 7.3741 52.0807 0 62.8264 0C70.6478 0 76.1715 4.10681 78.1906 10.2557L69.5337 13.2734C68.8839 10.4826 66.5166 8.34975 62.7799 8.34975C58.2078 8.34975 56.0726 11.5944 56.0726 14.907V25.8661C56.0726 29.3376 58.2078 32.7183 62.8264 32.7183C66.7487 32.7183 69.9515 29.5872 69.9515 25.9341V25.6392H61.5035V18.2197H78.9333V26.2745C78.9333 34.7377 71.6922 41 62.8032 41C52.0574 41 46.8354 34.4427 46.8354 25.2308V15.7239H46.8587Z" fill="#FF3300"/>
<path d="M86.7316 40.6597C89.6412 40.6597 92 38.3537 92 35.5091C92 32.6646 89.6412 30.3586 86.7316 30.3586C83.8219 30.3586 81.4631 32.6646 81.4631 35.5091C81.4631 38.3537 83.8219 40.6597 86.7316 40.6597Z" fill="#FF3300"/>
</svg>
