<svg width="140" height="47" viewBox="0 0 140 47" fill="none" xmlns="http://www.w3.org/2000/svg">
<g opacity="0.65" clip-path="url(#clip0_6667_248)">
<mask id="mask0_6667_248" style="mask-type:luminance" maskUnits="userSpaceOnUse" x="0" y="0" width="140" height="47">
<path d="M140 0H0V46.9136H140V0Z" fill="white"/>
</mask>
<g mask="url(#mask0_6667_248)">
<path d="M122.963 24.5742C122.981 24.1275 122.949 23.7133 122.716 23.3331C122.483 22.9529 122.133 22.7717 121.728 22.5884C121.424 22.4376 121.08 22.333 120.741 22.3402H101.235C100.678 22.3351 100.172 22.468 99.753 22.8366C99.334 23.2053 99.0822 23.7699 99.0123 24.326C99.0076 24.3455 99.0217 24.3083 99.0123 24.326V44.9283C99.0493 45.0774 98.9646 45.0298 99.0123 45.1765C99.1515 45.6184 99.6375 46.132 99.9999 46.4174C100.362 46.7031 100.775 46.8846 101.235 46.914C101.191 46.9049 101.279 46.9175 101.235 46.914H120.741C120.936 46.8819 121.044 46.9646 121.235 46.914C121.712 46.7834 122.166 46.3145 122.469 45.9212C122.773 45.5276 122.955 45.1782 122.963 44.6799C122.963 38.0614 122.965 31.1999 122.963 24.5742ZM119.506 43.9352C119.163 44.1839 118.694 44.4323 118.272 44.4318C117.727 44.4318 117.335 44.4318 116.79 44.4318H103.704C103.275 44.451 102.835 44.1621 102.469 43.9352C102.103 43.7086 101.904 43.3372 101.728 42.9424C101.583 42.6291 101.47 42.2952 101.481 41.9495V27.3046C101.481 27.2058 101.468 26.9068 101.481 26.8081C101.529 26.3246 101.891 25.9199 102.222 25.5671C102.554 25.2142 102.98 25.1451 103.457 25.0705C103.594 25.0523 103.566 24.8219 103.704 24.8224C108.519 24.8224 113.456 24.8224 118.272 24.8224C118.759 24.8108 119.114 25.0261 119.506 25.3189C119.898 25.6115 120.363 26.0863 120.494 26.5599C120.549 26.7787 120.495 27.0789 120.494 27.3046C120.494 29.7935 120.494 32.2481 120.494 34.7513V41.9495C120.51 42.3251 120.415 42.855 120.247 43.1908C120.079 43.5263 119.815 43.7249 119.506 43.9352Z" fill="white"/>
<path d="M119.506 27.3046C119.516 27.1238 119.57 26.729 119.506 26.5599C119.442 26.391 119.386 26.4396 119.259 26.3117C119.133 26.1836 118.933 25.8801 118.766 25.8152C118.598 25.7505 118.451 25.8056 118.272 25.8152H103.704C103.615 25.8117 103.544 25.8011 103.457 25.8152C103.144 25.8619 102.917 26.0653 102.716 26.3117C102.515 26.5582 102.454 26.9861 102.469 27.3046V42.1977C102.46 42.3774 102.406 42.5263 102.469 42.6942C102.533 42.8621 102.59 42.8149 102.716 42.9423C102.842 43.0698 103.044 43.374 103.21 43.4389C103.376 43.5038 103.526 43.4478 103.704 43.4389H118.272C118.397 43.4404 118.396 43.467 118.519 43.4389C118.804 43.3665 119.084 43.1806 119.259 42.9423C119.435 42.7043 119.52 42.4942 119.506 42.1977V27.3046ZM116.543 31.0278H108.642V34.2547H114.568V36.4888H108.642V41.2048H106.173V28.794H116.543V31.0278Z" fill="white"/>
<path d="M71.358 8.43936C71.358 12.2384 68.6153 13.9002 64.6913 13.9002H61.2346V19.6093H57.2839V2.97852H64.6913C68.6074 2.97852 71.358 4.65916 71.358 8.43936ZM67.4074 8.43936C67.4074 6.90523 66.2704 6.20538 64.6913 6.20538H61.2346V10.6733H64.6913C66.2467 10.6733 67.4074 9.99496 67.4074 8.43936Z" fill="white"/>
<path d="M85.6791 19.6093L81.9754 13.652H78.7656V19.6093H74.8149V2.97852H81.9754C85.8979 2.97852 88.8678 4.46736 88.889 8.19113C88.889 10.5689 87.6436 12.1282 85.9261 12.9073L90.1236 19.6093H85.6791ZM78.7656 10.4251H81.9754C83.5411 10.4251 84.6915 9.97076 84.6915 8.43936C84.6915 6.96973 83.5626 6.20538 81.9754 6.20538H78.7656V10.4251Z" fill="white"/>
<path d="M106.173 16.3824V19.6093H92.8396V2.97852H105.926V6.20538H96.7902V9.18402H105.679V12.4109H96.7902V16.3824H106.173Z" fill="white"/>
<path d="M122.963 15.1415C122.963 18.975 119.771 20.1059 115.556 20.1059C112.929 20.1059 110.578 19.3265 109.383 18.6166V15.1415C111.079 16.3148 113.557 16.6308 115.556 16.6308C118.182 16.6308 119.012 16.3175 119.012 15.1415C119.012 13.8797 117.147 13.3317 115.062 12.6593C112.215 11.7056 109.383 10.8462 109.383 7.44667C109.383 3.98817 112.98 2.73047 116.543 2.73047C118.781 2.73047 121.101 3.15183 122.469 3.97158V7.69486C121.211 6.71975 118.999 6.20555 116.543 6.20555C114.608 6.20555 113.333 6.42867 113.333 7.44667C113.333 8.55573 114.66 8.74662 116.79 9.43242C119.808 10.3968 122.963 11.3749 122.963 15.1415Z" fill="white"/>
<path d="M140 15.1415C140 18.975 136.809 20.1059 132.593 20.1059C129.966 20.1059 127.615 19.3265 126.42 18.6166V15.1415C128.114 16.3148 130.594 16.6308 132.593 16.6308C135.219 16.6308 136.05 16.3175 136.05 15.1415C136.05 13.8797 134.185 13.3317 132.099 12.6593C129.252 11.7056 126.42 10.8462 126.42 7.44667C126.42 3.98817 130.016 2.73047 133.58 2.73047C135.818 2.73047 138.138 3.15183 139.506 3.97158V7.69486C138.246 6.71975 136.036 6.20555 133.58 6.20555C131.647 6.20555 130.371 6.42867 130.371 7.44667C130.371 8.55573 131.697 8.74662 133.827 9.43242C136.848 10.3968 140 11.3749 140 15.1415Z" fill="white"/>
<path d="M90.8641 39.9635H81.7283L80.2468 43.1904H76.0493L83.4567 26.5596H89.1357L96.5431 43.1904H92.3456L90.8641 39.9635ZM82.9629 36.7366H89.6296L86.1728 28.7936L82.9629 36.7366Z" fill="white"/>
<path d="M130.617 29.7865V32.765H138.272V35.9919H130.617V43.1904H126.667V26.5596H139.753V29.7865H130.617Z" fill="white"/>
<path d="M38.2717 29.29L37.0371 26.5597L37.7778 25.5668H38.2717L39.7531 25.815H40.0001L41.2346 26.808L40.7408 27.3043L39.7531 29.29L41.4815 42.9421H62.7161C62.6001 42.4322 62.5749 41.9653 62.4692 41.453C62.2608 40.4145 61.9554 39.2619 61.7284 38.2261C61.5018 37.1903 61.067 36.2885 60.9877 35.2473C60.8717 33.7419 60.0233 32.5866 59.5062 31.2759C59.1512 30.3253 58.768 29.2816 58.5186 28.2972C58.3756 27.6747 58.064 27.1503 57.5309 26.808C55.9588 25.8438 54.1509 25.1735 52.3457 24.8221C50.6922 24.4858 49.2818 23.8 47.6544 23.3328C47.1717 23.194 46.6608 23.2074 46.1729 23.0846C45.685 22.9618 45.3119 22.5402 45.1852 22.0917C45.0245 21.5258 44.9341 20.8801 44.6914 20.3542C44.4196 19.7083 44.4035 19.0692 44.4445 18.3684L44.1976 19.1131C44.1556 19.2088 43.9613 19.5054 43.9507 19.6096C43.9344 19.7789 43.8015 19.9675 43.7038 20.106L43.4568 20.3542L43.2099 21.0989C43.1351 21.2138 42.8324 21.2757 42.7161 21.3471L41.9754 21.8435H41.7284L40.4939 23.0846L39.5062 23.5811C39.4168 23.6459 39.3652 23.7988 39.2593 23.8293C39.1964 23.8466 39.0776 23.8254 39.0124 23.8293H38.7655C38.5457 23.8457 38.2038 23.7113 38.0247 23.5811H37.7778C37.6808 23.5099 37.6467 23.3641 37.5309 23.3328L36.7902 23.0846C36.6845 23.056 36.6331 23.1479 36.5433 23.0846L35.5556 22.34C35.5114 22.3089 35.3472 22.3782 35.3087 22.34L34.321 21.0989L33.8272 20.6024C33.8178 20.5904 33.8354 20.6153 33.8272 20.6024C33.8272 20.6718 33.8272 20.7839 33.8272 20.8506C33.7825 21.3845 33.6675 21.8221 33.5803 22.34C33.4934 22.8578 33.267 23.0339 32.8396 22.8364C32.0299 22.468 31.3638 22.7509 30.6173 23.0846C30.0983 23.3334 29.4605 23.5242 28.8889 23.5811C27.3065 23.6905 25.7724 23.7545 24.1977 23.8293C22.929 23.8907 21.9125 24.3869 21.2347 25.5668C21.1467 25.7513 20.8785 25.9132 20.7409 26.0634C20.5351 26.2476 20.2375 26.5436 20.0001 26.5597C18.8106 26.6424 17.8479 27.0987 16.7903 27.5525C16.23 27.752 15.6433 27.9266 15.0619 28.049V27.8009C15.8004 26.9999 16.3979 26.1061 17.2841 25.5668C18.1703 25.0275 18.6933 24.2778 19.0125 23.3328C19.0726 23.137 19.1531 23.0111 19.2594 22.8364C19.8106 21.9928 20.1918 21.0535 21.4816 21.0989C22.6369 21.1389 24.3987 20.0502 24.6914 18.6167C24.8181 17.9733 25.4065 17.5384 25.926 17.1274C26.5487 16.6394 27.1425 15.9953 27.6544 15.3898C27.8655 15.1416 27.8038 14.752 27.9013 14.3969C27.9541 14.2074 28.0136 13.9699 28.1482 13.9005C29.2299 13.2898 30.145 12.4388 30.8643 11.4183C30.9287 11.3616 31.0277 11.4356 31.1112 11.4183C31.1949 11.401 31.2768 11.3918 31.3581 11.4183C31.7961 11.7119 31.643 12.2136 31.3581 12.6594C31.1754 12.934 31.0998 13.3213 31.1112 13.6523C31.1956 14.6266 31.4522 15.6619 31.605 16.6309C31.6403 16.8961 31.6847 17.1682 31.8519 17.3756C32.0191 17.5829 32.3433 17.7837 32.5926 17.872C32.7788 17.9327 32.9729 17.9591 33.0865 18.1202C33.3882 18.6756 33.602 19.2665 33.8272 19.8578C33.8141 19.8177 33.843 19.8978 33.8272 19.8578L34.0741 20.106C34.0499 20.0796 34.0956 20.1348 34.0741 20.106L34.568 20.8506C34.5413 20.828 34.5922 20.876 34.568 20.8506L35.0618 21.3471C35.0919 21.3726 35.2825 21.3175 35.3087 21.3471L35.8025 21.8435C35.8973 21.9478 35.9201 22.0378 36.0494 22.0917L37.0371 22.5882C36.9897 22.5759 37.0828 22.6061 37.0371 22.5882L38.2717 22.8364C38.3581 22.8565 38.4299 22.8388 38.5186 22.8364H39.2593C39.3801 22.8314 39.642 22.8843 39.7531 22.8364L40.4939 22.34C40.6008 22.2912 40.9045 22.4236 40.9877 22.34L42.963 20.106L43.7038 19.1131C43.7272 19.0849 43.9302 19.1436 43.9507 19.1131L44.4445 18.1202C44.4445 17.9307 44.4393 17.8133 44.4445 17.6238C44.4699 17.5066 44.6163 17.2201 44.6914 17.1274C44.7667 17.0346 44.8297 17.1755 44.9383 17.1274C45.3801 17.0082 45.8719 16.7307 46.1729 16.3827C46.4741 16.0347 46.6084 15.6003 46.6667 15.1416C46.804 14.2927 47.007 13.2414 46.6667 12.4112C46.5331 12.086 46.2257 11.8456 45.926 11.6665C45.483 11.4289 45.4126 11.2929 45.6791 10.9218C45.8689 10.6549 45.7415 7.54301 45.926 6.7021H46.1729C46.2566 6.66434 46.3786 6.53654 46.4198 6.45387C46.4613 6.37123 46.4393 6.29617 46.4198 6.20568L46.1729 5.95745C46.1546 5.89019 46.1546 5.77647 46.1729 5.70923L46.4198 5.46101C46.4302 5.43543 46.4178 5.24029 46.4198 5.21279V4.2199C46.4277 4.17489 46.4277 4.26493 46.4198 4.2199C46.3672 4.00901 46.4331 3.29644 46.4198 3.22703C46.242 2.92064 45.8877 2.51997 45.6791 2.23414C45.6361 2.174 45.4998 2.26305 45.4322 2.23414V1.98592C45.3926 1.96893 45.2173 2.01489 45.1852 1.98592L44.4445 1.24126C44.3909 1.19305 44.5151 1.25416 44.4445 1.24126L42.2223 0.744824L40.9877 0.496604C40.9697 0.492868 41.0047 0.503525 40.9877 0.496604H40.4939C40.4744 0.488843 40.2677 0.251263 40.247 0.248384L38.7655 0.000164232H37.0371C36.9996 -0.00396099 37.0749 -0.00396099 37.0371 0.000164232L35.5556 0.248384C35.5201 0.257757 35.3415 0.479367 35.3087 0.496604L33.8272 1.24126C33.7766 1.27086 33.6149 1.44163 33.5803 1.48949L33.0865 1.98592C33.0751 2.00312 33.0961 2.21577 33.0865 2.23414L32.8396 2.73059V2.97881L32.0988 3.97168C32.0902 3.98259 32.106 3.9595 32.0988 3.97168L30.8643 5.70923C30.8514 5.73271 30.883 5.93842 30.8643 5.95745C30.6583 6.16923 30.2949 6.21251 30.1235 6.45387C30.1235 6.53664 29.9188 7.09711 29.8766 7.19854C29.8344 7.3 29.3961 8.35955 29.3828 8.43965C29.3144 8.67627 29.4215 8.94089 29.3828 9.18429C29.3168 9.64345 29.2193 9.93163 29.3828 9.92896C29.7314 9.82713 30.047 9.84706 30.3704 9.68074C30.5129 9.9477 30.4294 9.94493 30.1235 10.1772C28.4961 11.4052 26.5904 12.2536 24.6914 12.9076C24.2304 13.0632 23.9425 13.1343 23.4569 13.1558C23.1941 13.1695 22.9416 13.2667 22.7162 13.404C22.4907 13.5414 22.1103 13.6718 21.9754 13.9005C21.9411 13.9512 22.0229 14.1113 21.9754 14.1487C20.145 15.6116 18.9804 17.8959 16.5433 18.6167C16.2268 18.7519 15.8522 18.9373 15.5557 19.1131C15.4041 19.2101 15.2405 19.1287 15.0619 19.1131C14.4526 18.9076 14.1939 19.5294 13.8273 19.8578C13.1155 20.4438 12.3779 20.8466 11.6051 21.3471C11.5312 21.3978 11.4716 21.3871 11.3582 21.3471C10.8306 21.1976 10.5472 21.3123 10.3705 21.8435C10.3289 21.972 10.2115 22.2381 10.1236 22.34C10.0357 22.4418 9.99692 22.5293 9.87667 22.5882C8.23346 23.1221 6.91191 24.2749 5.43223 25.0703C5.36035 25.1068 5.48312 25.2557 5.43223 25.3187C5.38131 25.3816 5.2064 25.4883 5.18531 25.5668C5.1141 26.5384 4.35793 27.0853 3.70383 27.5525C2.50005 28.393 1.74799 29.3935 1.23469 30.7794C0.941921 31.5483 0.242779 32.234 0.000122674 33.0135C-0.15246 33.6125 0.0441525 34.4155 0.247037 34.9992C0.449921 35.5829 0.745057 36.1179 1.23469 36.4885C2.97275 37.6898 4.84334 38.3396 6.91371 38.7224C9.45894 39.2083 12.2222 39.5952 14.8149 39.4671C16.7536 39.3683 18.6107 39.8809 20.494 40.2117C20.8014 40.2967 21.047 40.4475 21.2347 40.7083C21.7622 41.4396 22.2625 42.1708 22.7162 42.9421H37.284L38.2717 29.29ZM32.3457 14.6451L32.8396 14.3969V14.1487L32.5926 13.6523L32.3457 12.6594L32.0988 11.9147V11.4183L32.3457 10.9218L32.5926 10.6736L32.8396 10.4254H33.3334L34.321 10.6736L35.8025 10.9218H37.0371L38.2717 9.68074L39.5062 8.9361L40.0001 8.19143H40.7408L40.0001 8.9361L38.2717 10.4254L37.284 11.4183V11.9147V12.1629L37.0371 12.6594L36.7902 13.1558L36.2963 13.6523L35.5556 13.9005L35.0618 14.3969H34.568L33.8272 14.6451H33.5803H33.3334L33.0865 14.3969L32.5926 15.1416L32.0988 15.638C32.0475 15.5351 32.1615 15.486 32.0988 15.3898C32.0857 15.3711 32.1094 15.1603 32.0988 15.1416C32.0884 15.1229 31.8677 15.171 31.8519 15.1416L32.3457 14.6451Z" fill="white"/>
</g>
</g>
<defs>
<clipPath id="clip0_6667_248">
<rect width="140" height="46.9136" fill="white"/>
</clipPath>
</defs>
</svg>
