<svg width="150" height="27" viewBox="0 0 150 27" fill="none" xmlns="http://www.w3.org/2000/svg">
<g opacity="0.65" clip-path="url(#clip0_6734_650)">
<path d="M96.1025 18.3415C95.6799 20.5954 94.4966 22.5113 92.6089 24.089C90.7213 25.6668 88.6364 26.4838 86.4106 26.4838H69.9568L75.1127 0H91.5665C93.8204 0 95.5672 0.788881 96.8632 2.39482C98.1593 4.00075 98.5537 5.88843 98.1311 8.14237C97.8212 9.74831 96.7505 11.4669 94.9474 13.2419C96.018 15.0451 96.4406 16.7355 96.1025 18.3415ZM90.0732 18.3415C90.1859 17.7498 90.0732 17.2708 89.7633 16.8764C89.4252 16.482 88.9744 16.2566 88.4109 16.2566H81.311L82.5789 10.1991H89.5661C90.1578 10.1991 90.6649 10.0019 91.172 9.57926C91.651 9.18482 91.9609 8.67769 92.0736 8.1142C92.1863 7.52254 92.0736 7.04358 91.7637 6.64914C91.4256 6.2547 90.9748 6.05748 90.4113 6.05748H80.015L77.2258 20.4264H87.6221C88.2137 20.4264 88.7209 20.2292 89.228 19.8065C89.6506 19.4121 89.9605 18.9331 90.0732 18.3415Z" fill="#A2A2A2"/>
<path d="M118.755 26.4838H96.0461L101.202 0H123.911L122.727 6.05748H106.076L105.259 10.2273H118.135L116.951 16.2847H104.076L103.259 20.4545H119.91L118.755 26.4838Z" fill="#A2A2A2"/>
<path d="M148.817 6.05748H139.547L135.575 26.4838H129.517L133.49 6.05748H124.22L125.404 0H150L148.817 6.05748Z" fill="#A2A2A2"/>
<path d="M28.3715 26.4838H22.314L24.6525 14.4816L16.0875 26.4838H12.284L8.39594 14.4816L6.05748 26.4838H0L5.1559 0H11.2134L16.1721 16.2847L27.4699 0H33.5274L28.3715 26.4838Z" fill="white"/>
<path d="M52.6013 26.4838H29.8928L35.0487 0H57.7572L56.5739 6.05748H39.9229L39.1058 10.2273H51.9815L50.7982 16.2847H37.9225L37.1054 20.4545H53.7565L52.6013 26.4838Z" fill="white"/>
<path d="M73.4505 26.4838H54.0947L59.2506 0H65.3081L61.3355 20.4264H74.6338L73.4505 26.4838Z" fill="white"/>
</g>
<defs>
<clipPath id="clip0_6734_650">
<rect width="150" height="26.4838" fill="white"/>
</clipPath>
</defs>
</svg>
