<svg width="216" height="22" viewBox="0 0 216 22" fill="none" xmlns="http://www.w3.org/2000/svg">
<g opacity="0.65" clip-path="url(#clip0_6685_302)">
<path d="M110.16 16.7197C110.86 17.6197 110.66 18.8197 109.86 19.5197C108.56 20.5197 106.96 21.0197 105.24 21.0197C103.52 21.0197 102.04 20.5197 100.62 19.5197C99.7201 18.9197 99.5201 17.5197 100.32 16.7197C101.02 15.8197 102.22 15.6197 103.12 16.3197C103.72 16.8197 104.42 17.0197 105.32 17.0197C106.22 17.0197 106.82 16.8197 107.52 16.3197C108.26 15.7197 109.46 15.8197 110.16 16.7197ZM102.54 11.2997C103.24 10.4997 104.14 10.0997 105.24 10.0997C106.04 10.0997 106.74 10.2997 107.44 10.8997C108.24 11.4997 109.64 11.3997 110.24 10.4997C110.84 9.5997 110.74 8.3997 109.94 7.6997C108.64 6.6997 107.04 6.0997 105.32 6.0997C103.12 6.0997 101.12 6.9997 99.7 8.5997L92.88 15.8197L92.78 15.9197C92.18 16.7197 91.18 17.1197 90.18 17.1197C88.28 17.1197 86.68 15.5197 86.68 13.6197C86.68 11.7197 88.2 10.0997 90.2 10.0997C91 10.0997 91.7 10.2997 92.4 10.8997C93.3 11.4997 94.6 11.3997 95.2 10.4997C95.9 9.5997 95.7 8.3997 94.9 7.6997C93.6 6.6997 92 6.0997 90.28 6.0997C86.2 6.0797 82.8 9.3997 82.8 13.5997C82.8 17.6997 86.1 21.1197 90.3201 21.1197C92.5201 21.1197 94.5201 20.2197 95.9401 18.6197L102.54 11.2997Z" fill="#303030"/>
<path d="M144.14 10.1999C143.54 11.0999 142.24 11.2999 141.34 10.6999C140.74 10.2999 140.04 10.0999 139.34 10.0999C137.44 10.0999 135.84 11.6999 135.84 13.5999V19.1199C135.84 20.2199 134.94 21.1199 133.84 21.1199C132.74 21.1199 131.84 20.2199 131.84 19.1199V13.5999C131.84 9.49988 135.24 6.07988 139.36 6.07988C140.96 6.07988 142.46 6.47988 143.66 7.37988C144.54 8.09988 144.74 9.29988 144.14 10.1999ZM127.8 8.09988V19.1199C127.8 20.2199 126.9 21.1199 125.8 21.1199C125 21.1199 124.4 20.7199 124 20.1199C122.9 20.7199 121.6 21.1199 120.2 21.1199C116.1 21.1199 112.68 17.8199 112.68 13.5999C112.68 9.49988 115.98 6.07988 120.2 6.07988C121.5 6.07988 122.9 6.47988 124 7.07988C124.3 6.47988 125 6.07988 125.8 6.07988C126.9 6.07988 127.8 6.99988 127.8 8.09988ZM123.78 13.5999C123.78 11.6999 122.18 10.0999 120.28 10.0999C118.38 10.0999 116.78 11.6999 116.78 13.5999C116.78 15.4999 118.38 17.0999 120.28 17.0999C122.18 17.1199 123.78 15.5199 123.78 13.5999ZM161.88 2.07988V19.1199C161.88 20.2199 160.98 21.1199 159.88 21.1199C159.08 21.1199 158.48 20.7199 158.08 20.1199C156.98 20.7199 155.68 21.1199 154.28 21.1199C150.18 21.1199 146.76 17.8199 146.76 13.5999C146.76 9.49988 150.16 6.07988 154.28 6.07988C155.48 6.07988 156.68 6.37988 157.78 6.87988V2.07988C157.78 0.979883 158.68 0.0798828 159.78 0.0798828C160.88 0.0798828 161.88 0.979883 161.88 2.07988ZM157.86 13.5999C157.86 11.6999 156.26 10.0999 154.36 10.0999C152.46 10.0999 150.86 11.6999 150.86 13.5999C150.86 15.4999 152.46 17.0999 154.36 17.0999C156.26 17.1199 157.86 15.5199 157.86 13.5999ZM167.88 6.07988C166.78 6.07988 165.88 6.97988 165.88 8.07988V19.0999C165.88 20.1999 166.78 21.0999 167.88 21.0999C168.98 21.0999 169.88 20.1999 169.88 19.0999V8.09988C169.9 6.99988 169 6.07988 167.88 6.07988ZM169 0.379883C168.9 0.279883 168.8 0.179883 168.6 0.179883C168.4 0.179883 168.4 0.0798828 168.3 0.0798828C168.1 -0.0201172 167.7 -0.0201172 167.5 0.0798828C167.4 0.179883 167.3 0.179883 167.1 0.179883C167 0.179883 166.9 0.279883 166.7 0.379883C166.6 0.479883 166.5 0.579883 166.4 0.579883C166.1 0.979883 165.9 1.47988 165.9 1.97988C165.9 2.07988 165.9 2.27988 166 2.37988C166 2.57988 166.1 2.57988 166.1 2.77988C166.2 2.87988 166.2 2.97988 166.3 3.07988C166.4 3.17988 166.4 3.27988 166.5 3.37988C166.6 3.47988 166.7 3.57988 166.8 3.57988C166.9 3.57988 167 3.77988 167.2 3.77988C167.3 3.77988 167.4 3.87988 167.6 3.87988C167.8 3.87988 167.8 3.87988 168 3.87988C168.2 3.87988 168.2 3.87988 168.4 3.87988C168.6 3.87988 168.6 3.87988 168.8 3.77988C168.9 3.77988 169 3.67988 169.2 3.57988C169.3 3.57988 169.4 3.37988 169.5 3.37988C169.8 2.97988 170 2.37988 170 1.87988C170 1.37988 169.8 0.879883 169.4 0.479883C169.2 0.579883 169.1 0.479883 169 0.379883ZM214 0.0798828C212.9 0.0798828 212 0.979883 212 2.07988V19.1199C212 20.2199 212.9 21.1199 214 21.1199C215.1 21.1199 216 20.2199 216 19.1199V2.07988C216 0.979883 215.1 0.0798828 214 0.0798828ZM181.42 6.07988C177.32 6.07988 173.9 9.37988 173.9 13.5999V19.1199C173.9 20.2199 174.8 21.1199 175.9 21.1199C177 21.1199 177.9 20.2199 177.9 19.1199V13.5999C177.9 11.6999 179.5 10.0999 181.4 10.0999C183.3 10.0999 184.9 11.6999 184.9 13.5999V19.1199C184.9 20.2199 185.8 21.1199 186.9 21.1199C188 21.1199 188.9 20.2199 188.9 19.1199V13.5999C188.94 9.49988 185.52 6.07988 181.42 6.07988ZM207.98 8.09988V19.1199C207.98 20.2199 207.08 21.1199 205.98 21.1199C205.18 21.1199 204.58 20.7199 204.18 20.1199C203.08 20.7199 201.78 21.1199 200.38 21.1199C196.28 21.1199 192.86 17.8199 192.86 13.5999C192.86 9.49988 196.26 6.07988 200.38 6.07988C201.78 6.07988 202.98 6.47988 204.18 7.07988C204.58 6.47988 205.18 6.07988 205.98 6.07988C207.08 6.07988 207.98 6.99988 207.98 8.09988ZM203.98 13.5999C203.98 11.6999 202.38 10.0999 200.48 10.0999C198.58 10.0999 196.98 11.6999 196.98 13.5999C196.98 15.4999 198.58 17.0999 200.48 17.0999C202.38 17.0999 203.98 15.5199 203.98 13.5999ZM76.68 6.07988C75.58 6.07988 74.68 6.97988 74.68 8.07988V19.0999C74.68 20.1999 75.58 21.0999 76.68 21.0999C77.78 21.0999 78.68 20.1999 78.68 19.0999V8.09988C78.68 6.99988 77.78 6.07988 76.68 6.07988ZM78.48 1.27988C78.38 1.17988 78.38 1.07988 78.28 0.879883C78.18 0.779883 78.08 0.679883 78.08 0.579883C78.08 0.479883 77.88 0.379883 77.78 0.379883C77.68 0.279883 77.58 0.179883 77.48 0.179883C77.38 0.179883 77.28 0.0798828 77.08 0.0798828C76.38 -0.120117 75.78 0.179883 75.28 0.679883C75.18 0.779883 75.08 0.879883 75.08 0.979883C75.08 1.07988 74.88 1.27988 74.88 1.27988C74.78 1.37988 74.78 1.47988 74.78 1.67988C74.78 1.87988 74.58 1.97988 74.58 2.07988C74.58 2.17988 74.58 2.27988 74.68 2.47988C74.78 2.67988 74.78 2.67988 74.78 2.87988C74.88 2.97988 74.88 3.07988 74.98 3.17988C75.08 3.27988 75.18 3.37988 75.18 3.47988C75.58 3.77988 76.08 4.07988 76.58 4.07988C76.78 4.07988 76.78 4.07988 76.98 3.97988C77.18 3.97988 77.18 3.97988 77.38 3.87988C77.48 3.87988 77.58 3.77988 77.68 3.67988C77.78 3.67988 77.88 3.47988 77.98 3.47988C78.08 3.37988 78.18 3.27988 78.18 3.17988C78.18 3.07988 78.38 2.97988 78.38 2.87988C78.48 2.77988 78.48 2.67988 78.48 2.47988C78.48 2.27988 78.58 2.27988 78.58 2.07988C78.58 1.87988 78.58 1.87988 78.48 1.67988C78.58 1.57988 78.58 1.37988 78.48 1.27988ZM68.66 4.07988C69.76 4.07988 70.66 3.17988 70.66 2.07988C70.66 0.979883 69.76 0.0798828 68.66 0.0798828C64.56 0.0798828 61.14 3.37988 61.14 7.59988V19.1199C61.14 20.2199 62.04 21.1199 63.14 21.1199C64.24 21.1199 65.14 20.2199 65.14 19.1199V14.0999H68.64C69.74 14.0999 70.64 13.1999 70.64 12.0999C70.64 10.9999 69.74 10.0999 68.64 10.0999H65.14V7.59988C65.16 5.67988 66.76 4.07988 68.66 4.07988ZM55.12 4.07988C56.22 4.07988 57.12 3.17988 57.12 2.07988C57.12 0.979883 56.22 0.0798828 55.12 0.0798828C51.02 0.0798828 47.6 3.37988 47.6 7.59988V19.1199C47.6 20.2199 48.5 21.1199 49.6 21.1199C50.7 21.1199 51.6 20.2199 51.6 19.1199V14.0999H55.1C56.2 14.0999 57.1 13.1999 57.1 12.0999C57.1 10.9999 56.2 10.0999 55.1 10.0999H51.6V7.59988C51.62 5.67988 53.12 4.07988 55.12 4.07988ZM43.6 8.09988V19.1199C43.6 20.2199 42.7 21.1199 41.6 21.1199C40.8 21.1199 40.2 20.7199 39.8 20.1199C38.7 20.7199 37.4 21.1199 36 21.1199C31.9 21.1199 28.48 17.8199 28.48 13.5999C28.58 9.49988 31.98 6.07988 36.1 6.07988C37.4 6.07988 38.8 6.47988 39.9 7.07988C40.2 6.47988 40.9 6.07988 41.7 6.07988C42.7 6.07988 43.6 6.99988 43.6 8.09988ZM39.6 13.5999C39.6 11.6999 38.1 10.0999 36.1 10.0999C34.1 10.0999 32.6 11.6999 32.6 13.5999C32.6 15.4999 34.1 17.0999 36.1 17.0999C38.1 17.0999 39.6 15.5199 39.6 13.5999ZM25.36 7.39988C24.06 6.49988 22.56 6.09988 21.06 6.09988C16.94 6.07988 13.54 9.39988 13.54 13.5999V19.1199C13.54 20.2199 14.44 21.1199 15.54 21.1199C16.64 21.1199 17.54 20.2199 17.54 19.1199V13.5999C17.54 11.6999 19.04 10.0999 21.04 10.0999C21.84 10.0999 22.44 10.2999 23.04 10.6999C23.94 11.2999 25.14 11.0999 25.84 10.1999C26.54 9.29988 26.26 8.09988 25.36 7.39988ZM7.52 10.0999C8.62 10.0999 9.52 9.19988 9.52 8.09988C9.52 6.99988 8.62 6.09988 7.52 6.09988H4V2.09988C4 0.999883 3.1 0.0998828 2 0.0998828C0.9 0.0998828 0 0.979883 0 2.07988V13.5999C0 17.6999 3.3 21.1199 7.52 21.1199C8.62 21.1199 9.52 20.2199 9.52 19.1199C9.52 18.0199 8.62 17.1199 7.52 17.1199C5.62 17.1199 4.02 15.5199 4.02 13.6199V10.0999H7.52Z" fill="white"/>
</g>
<defs>
<clipPath id="clip0_6685_302">
<rect width="216" height="21.12" fill="white"/>
</clipPath>
</defs>
</svg>
