<svg width="216" height="22" viewBox="0 0 216 22" fill="none" xmlns="http://www.w3.org/2000/svg">
<g opacity="0.65" clip-path="url(#clip0_6641_899)">
<path d="M109.9 16.6C110.6 17.5 110.4 18.7 109.6 19.4C108.3 20.4 106.7 20.9 105 20.9C103.3 20.9 101.8 20.4 100.4 19.4C99.5001 18.8 99.3001 17.4 100.1 16.6C100.8 15.7 102 15.5 102.9 16.2C103.5 16.7 104.2 16.9 105.1 16.9C106 16.9 106.6 16.7 107.3 16.2C108 15.6 109.2 15.7 109.9 16.6ZM102.3 11.2C103 10.4 103.9 10 105 10C105.8 10 106.5 10.2 107.2 10.8C108 11.4 109.4 11.3 110 10.4C110.6 9.5 110.5 8.3 109.7 7.6C108.4 6.6 106.8 6 105.1 6C102.9 6 100.9 6.9 99.5001 8.5L92.7001 15.7L92.6001 15.8C92.0001 16.6 91.0001 17 90.0001 17C88.1001 17 86.5001 15.4 86.5001 13.5C86.5001 11.6 88.0001 10 90.0001 10C90.8001 10 91.5001 10.2 92.2001 10.8C93.1001 11.4 94.4001 11.3 95.0001 10.4C95.7001 9.5 95.5001 8.3 94.7001 7.6C93.4001 6.6 91.8001 6 90.1001 6C86.0001 6 82.6001 9.3 82.6001 13.5C82.6001 17.6 85.9001 21 90.1001 21C92.3001 21 94.3001 20.1 95.7001 18.5L102.3 11.2Z" fill="white"/>
<path d="M143.8 10.0998C143.2 10.9998 141.9 11.1998 141 10.5998C140.4 10.1998 139.7 9.9998 139 9.9998C137.1 9.9998 135.5 11.5998 135.5 13.4998V18.9998C135.5 20.0998 134.6 20.9998 133.5 20.9998C132.4 20.9998 131.5 20.0998 131.5 18.9998V13.4998C131.5 9.39981 134.9 5.9998 139 5.9998C140.6 5.9998 142.1 6.3998 143.3 7.2998C144.2 7.9998 144.4 9.19981 143.8 10.0998ZM127.5 7.9998V18.9998C127.5 20.0998 126.6 20.9998 125.5 20.9998C124.7 20.9998 124.1 20.5998 123.7 19.9998C122.6 20.5998 121.3 20.9998 119.9 20.9998C115.8 20.9998 112.4 17.6998 112.4 13.4998C112.4 9.39981 115.7 5.9998 119.9 5.9998C121.2 5.9998 122.6 6.3998 123.7 6.9998C124 6.3998 124.7 5.9998 125.5 5.9998C126.6 5.9998 127.5 6.8998 127.5 7.9998ZM123.5 13.4998C123.5 11.5998 121.9 9.9998 120 9.9998C118.1 9.9998 116.5 11.5998 116.5 13.4998C116.5 15.3998 118.1 16.9998 120 16.9998C121.9 16.9998 123.5 15.3998 123.5 13.4998ZM161.5 1.9998V18.9998C161.5 20.0998 160.6 20.9998 159.5 20.9998C158.7 20.9998 158.1 20.5998 157.7 19.9998C156.6 20.5998 155.3 20.9998 153.9 20.9998C149.8 20.9998 146.4 17.6998 146.4 13.4998C146.4 9.39981 149.8 5.9998 153.9 5.9998C155.1 5.9998 156.3 6.2998 157.4 6.7998V1.9998C157.4 0.899805 158.3 -0.00019531 159.4 -0.00019531C160.5 -0.00019531 161.5 0.899805 161.5 1.9998ZM157.5 13.4998C157.5 11.5998 155.9 9.9998 154 9.9998C152.1 9.9998 150.5 11.5998 150.5 13.4998C150.5 15.3998 152.1 16.9998 154 16.9998C155.9 16.9998 157.5 15.3998 157.5 13.4998ZM167.5 5.9998C166.4 5.9998 165.5 6.8998 165.5 7.9998V18.9998C165.5 20.0998 166.4 20.9998 167.5 20.9998C168.6 20.9998 169.5 20.0998 169.5 18.9998V7.9998C169.5 6.8998 168.6 5.9998 167.5 5.9998ZM168.6 0.299805C168.5 0.199805 168.4 0.0998047 168.2 0.0998047C168 0.0998047 168 -0.00019531 167.9 -0.00019531C167.7 -0.100195 167.3 -0.100195 167.1 -0.00019531C167 0.0998047 166.9 0.0998047 166.7 0.0998047C166.6 0.0998047 166.5 0.199805 166.3 0.299805C166.2 0.399805 166.1 0.499805 166 0.499805C165.7 0.899805 165.5 1.3998 165.5 1.8998C165.5 1.9998 165.5 2.1998 165.6 2.2998C165.6 2.4998 165.7 2.4998 165.7 2.6998C165.8 2.7998 165.8 2.8998 165.9 2.9998C166 3.0998 166 3.1998 166.1 3.2998C166.2 3.3998 166.3 3.4998 166.4 3.4998C166.5 3.4998 166.6 3.6998 166.8 3.6998C166.9 3.6998 167 3.7998 167.2 3.7998H168C168.133 3.7998 168.267 3.76647 168.4 3.6998C168.5 3.6998 168.6 3.5998 168.8 3.4998C168.9 3.4998 169 3.2998 169.1 3.2998C169.4 2.8998 169.6 2.2998 169.6 1.7998C169.6 1.2998 169.4 0.799805 169 0.399805C168.8 0.499805 168.7 0.399805 168.6 0.299805ZM213.5 -0.00019531C212.4 -0.00019531 211.5 0.899805 211.5 1.9998V18.9998C211.5 20.0998 212.4 20.9998 213.5 20.9998C214.6 20.9998 215.5 20.0998 215.5 18.9998V1.9998C215.5 0.899805 214.6 -0.00019531 213.5 -0.00019531ZM181 5.9998C176.9 5.9998 173.5 9.2998 173.5 13.4998V18.9998C173.5 20.0998 174.4 20.9998 175.5 20.9998C176.6 20.9998 177.5 20.0998 177.5 18.9998V13.4998C177.5 11.5998 179.1 9.9998 181 9.9998C182.9 9.9998 184.5 11.5998 184.5 13.4998V18.9998C184.5 20.0998 185.4 20.9998 186.5 20.9998C187.6 20.9998 188.5 20.0998 188.5 18.9998V13.4998C188.5 9.39981 185.1 5.9998 181 5.9998ZM207.5 7.9998V18.9998C207.5 20.0998 206.6 20.9998 205.5 20.9998C204.7 20.9998 204.1 20.5998 203.7 19.9998C202.6 20.5998 201.3 20.9998 199.9 20.9998C195.8 20.9998 192.4 17.6998 192.4 13.4998C192.4 9.39981 195.8 5.9998 199.9 5.9998C201.3 5.9998 202.5 6.3998 203.7 6.9998C204.1 6.3998 204.7 5.9998 205.5 5.9998C206.6 5.9998 207.5 6.8998 207.5 7.9998ZM203.5 13.4998C203.5 11.5998 201.9 9.9998 200 9.9998C198.1 9.9998 196.5 11.5998 196.5 13.4998C196.5 15.3998 198.1 16.9998 200 16.9998C201.9 16.9998 203.5 15.3998 203.5 13.4998ZM76.5 5.9998C75.4 5.9998 74.5 6.8998 74.5 7.9998V18.9998C74.5 20.0998 75.4 20.9998 76.5 20.9998C77.6 20.9998 78.5 20.0998 78.5 18.9998V7.9998C78.5 6.8998 77.6 5.9998 76.5 5.9998ZM78.3 1.1998C78.2 1.0998 78.2 0.999805 78.1 0.799805C78 0.699805 77.9 0.599805 77.9 0.499805C77.9 0.399805 77.7 0.299805 77.6 0.299805C77.5 0.199805 77.4 0.0998047 77.3 0.0998047C77.2 0.0998047 77.1 -0.00019531 76.9 -0.00019531C76.2 -0.200195 75.6 0.0998047 75.1 0.599805C75 0.699805 74.9 0.799805 74.9 0.899805C74.9 0.999805 74.7 1.1998 74.7 1.1998C74.6 1.2998 74.6 1.3998 74.6 1.5998C74.6 1.7998 74.4 1.8998 74.4 1.9998C74.4 2.0998 74.4 2.1998 74.5 2.3998C74.6 2.5998 74.6 2.5998 74.6 2.7998C74.7 2.8998 74.7 2.9998 74.8 3.0998C74.9 3.1998 75 3.2998 75 3.3998C75.4 3.6998 75.9 3.9998 76.4 3.9998C76.5333 3.9998 76.6667 3.96647 76.8 3.8998C76.9333 3.83314 77.0667 3.7998 77.2 3.7998C77.3 3.7998 77.4 3.6998 77.5 3.5998C77.6 3.5998 77.7 3.3998 77.8 3.3998C77.9 3.2998 78 3.1998 78 3.0998C78 2.9998 78.2 2.8998 78.2 2.7998C78.3 2.6998 78.3 2.5998 78.3 2.3998C78.3 2.1998 78.4 2.1998 78.4 1.9998C78.4 1.7998 78.4 1.7998 78.3 1.5998C78.4 1.4998 78.4 1.2998 78.3 1.1998ZM68.5 3.9998C69.6 3.9998 70.5 3.0998 70.5 1.9998C70.5 0.899805 69.6 -0.00019531 68.5 -0.00019531C64.4 -0.00019531 61 3.2998 61 7.4998V18.9998C61 20.0998 61.9 20.9998 63 20.9998C64.1 20.9998 65 20.0998 65 18.9998V13.9998H68.5C69.6 13.9998 70.5 13.0998 70.5 11.9998C70.5 10.8998 69.6 9.9998 68.5 9.9998H65V7.4998C65 5.5998 66.6 3.9998 68.5 3.9998ZM55 3.9998C56.1 3.9998 57 3.0998 57 1.9998C57 0.899805 56.1 -0.00019531 55 -0.00019531C50.9 -0.00019531 47.5 3.2998 47.5 7.4998V18.9998C47.5 20.0998 48.4 20.9998 49.5 20.9998C50.6 20.9998 51.5 20.0998 51.5 18.9998V13.9998H55C56.1 13.9998 57 13.0998 57 11.9998C57 10.8998 56.1 9.9998 55 9.9998H51.5V7.4998C51.5 5.5998 53 3.9998 55 3.9998ZM43.5 7.9998V18.9998C43.5 20.0998 42.6 20.9998 41.5 20.9998C40.7 20.9998 40.1 20.5998 39.7 19.9998C38.6 20.5998 37.3 20.9998 35.9 20.9998C31.8 20.9998 28.4 17.6998 28.4 13.4998C28.5 9.39981 31.9 5.9998 36 5.9998C37.3 5.9998 38.7 6.3998 39.8 6.9998C40.1 6.3998 40.8 5.9998 41.6 5.9998C42.6 5.9998 43.5 6.8998 43.5 7.9998ZM39.5 13.4998C39.5 11.5998 38 9.9998 36 9.9998C34 9.9998 32.5 11.5998 32.5 13.4998C32.5 15.3998 34 16.9998 36 16.9998C38 16.9998 39.5 15.3998 39.5 13.4998ZM25.3 7.2998C24 6.3998 22.5 5.9998 21 5.9998C16.9 5.9998 13.5 9.2998 13.5 13.4998V18.9998C13.5 20.0998 14.4 20.9998 15.5 20.9998C16.6 20.9998 17.5 20.0998 17.5 18.9998V13.4998C17.5 11.5998 19 9.9998 21 9.9998C21.8 9.9998 22.4 10.1998 23 10.5998C23.9 11.1998 25.1 10.9998 25.8 10.0998C26.5 9.19981 26.2 7.9998 25.3 7.2998ZM7.5 9.9998C8.6 9.9998 9.5 9.0998 9.5 7.9998C9.5 6.8998 8.6 5.9998 7.5 5.9998H4V1.9998C4 0.899805 3.1 -0.00019531 2 -0.00019531C0.9 -0.00019531 0 0.899805 0 1.9998V13.4998C0 17.5998 3.3 20.9998 7.5 20.9998C8.6 20.9998 9.5 20.0998 9.5 18.9998C9.5 17.8998 8.6 16.9998 7.5 16.9998C5.6 16.9998 4 15.3998 4 13.4998V9.9998H7.5Z" fill="white"/>
</g>
<defs>
<clipPath id="clip0_6641_899">
<rect width="216" height="22" fill="white"/>
</clipPath>
</defs>
</svg>
