<svg width="160" height="23" viewBox="0 0 160 23" fill="none" xmlns="http://www.w3.org/2000/svg">
<g opacity="0.65" clip-path="url(#clip0_6669_263)">
<path d="M68.121 8.75H58.4548V13.5831H68.121V8.75Z" fill="white"/>
<path d="M23.5549 22.2316H28.8967V14.2952H37.291V9.30955H28.8967V5.34135H37.7998V0.253906H23.5549V22.2316Z" fill="white"/>
<path d="M53.6726 10.1744C57.8952 7.17282 55.3006 0.253906 49.9588 0.253906H39.7839V22.2316H49.9079C54.5375 22.2316 56.9286 18.6704 56.9286 15.1601C56.9286 13.2778 55.962 11.3445 53.6726 10.1744ZM45.0749 5.13785H49.1957C50.9254 5.13785 50.9763 8.19031 49.1448 8.19031H45.0749V5.13785ZM49.9079 17.1442H45.1257V13.176H49.9079C52.1464 13.1251 52.1464 17.1442 49.9079 17.1442Z" fill="white"/>
<path d="M88.318 0.559153V0.253906H82.2131L76.1082 8.80081V0.253906H70.7664V22.2316H76.1082V13.6847L82.671 22.2316H89.0303V21.9264L80.5342 11.1919L88.318 0.559153Z" fill="white"/>
<path d="M98.1367 0.253906H92.7949V22.2316H98.1367V0.253906Z" fill="white"/>
<path d="M108.261 0.253906H102.919V22.2316H117.52V17.0425H108.261V0.253906Z" fill="white"/>
<path d="M126.067 0.253906H120.725V22.2316H135.275V17.0425H126.067V0.253906Z" fill="white"/>
<path d="M147.027 0L138.226 22.2321H143.975L145.196 18.9762H152.674L153.895 22.2321H159.949L150.894 0H147.027ZM147.18 13.9905L147.383 13.4817L149.011 8.85215L150.69 13.6343L150.792 13.9905H147.18Z" fill="white"/>
<path d="M13.9905 9.51341L15.0589 8.44505C15.3641 8.1398 15.8729 8.1398 16.1781 8.44505L17.2465 9.51341C17.5517 9.81866 18.0605 9.81866 18.3657 9.51341C18.671 9.20816 18.671 8.69942 18.3657 8.39417L17.2973 7.32581C16.9921 7.02056 16.9921 6.51182 17.2973 6.20657L18.3657 5.13821C18.671 4.83296 18.671 4.32422 18.3657 4.01897C18.0605 3.71373 17.5517 3.71373 17.2465 4.01897L16.1781 5.08734C15.8729 5.39258 15.3641 5.39258 15.0589 5.08734L13.9905 4.01897C13.6853 3.71373 13.1765 3.71373 12.8713 4.01897C12.566 4.32422 12.566 4.83296 12.8713 5.13821L13.9396 6.20657C14.2449 6.51182 14.2449 7.02056 13.9396 7.32581L12.8713 8.39417C12.566 8.69942 12.566 9.20816 12.8713 9.51341C13.1765 9.81866 13.6853 9.81866 13.9905 9.51341Z" fill="white"/>
<path d="M4.83303 9.51341L5.9014 8.44505C6.20664 8.1398 6.71539 8.1398 7.02063 8.44505L8.089 9.51341C8.39424 9.81866 8.90299 9.81866 9.20823 9.51341C9.51348 9.20816 9.51348 8.69942 9.20823 8.39417L8.13987 7.32581C7.83462 7.02056 7.83462 6.51182 8.13987 6.20657L9.20823 5.13821C9.51348 4.83296 9.51348 4.32422 9.20823 4.01897C8.90299 3.71373 8.39424 3.71373 8.089 4.01897L7.02063 5.08734C6.71539 5.39258 6.20664 5.39258 5.9014 5.08734L4.83303 4.01897C4.52779 3.71373 4.01904 3.71373 3.7138 4.01897C3.40855 4.32422 3.40855 4.83296 3.7138 5.13821L4.78216 6.20657C5.08741 6.51182 5.08741 7.02056 4.78216 7.32581L3.7138 8.39417C3.40855 8.69942 3.40855 9.20816 3.7138 9.51341C4.01904 9.81866 4.52779 9.81866 4.83303 9.51341Z" fill="white"/>
<path d="M13.3292 18.925C13.787 18.925 14.1431 18.5689 14.1431 18.111V14.8042C14.1431 14.3463 14.4993 13.9902 14.9571 13.9902H16.8395C17.2974 13.9902 17.6535 14.3463 17.6535 14.8042V18.111C17.6535 18.5689 18.0096 18.925 18.4675 18.925C18.9253 18.925 19.2815 18.5689 19.2815 18.111V13.2271C19.2815 12.7692 18.9253 12.4131 18.4675 12.4131H3.71389C3.25602 12.4131 2.8999 12.7692 2.8999 13.2271C2.8999 13.6849 3.25602 14.0411 3.71389 14.0411H11.7012C12.159 14.0411 12.5152 14.3972 12.5152 14.8551V18.1619C12.5152 18.5689 12.8713 18.925 13.3292 18.925C13.2783 18.925 13.2783 18.925 13.3292 18.925Z" fill="white"/>
<path d="M0 1.0679V21.4685C0 21.9264 0.356121 22.2825 0.81399 22.2825H21.2146C21.6725 22.2825 22.0286 21.9264 22.0286 21.4685V1.0679C22.0286 0.610027 21.6725 0.253906 21.2146 0.253906H0.81399C0.356121 0.253906 0 0.610027 0 1.0679ZM19.5866 20.6545H2.3911C1.93323 20.6545 1.57711 20.2984 1.57711 19.8405V2.645C1.57711 2.18713 1.93323 1.83101 2.3911 1.83101H19.5866C20.0445 1.83101 20.4006 2.18713 20.4006 2.645V19.8405C20.4006 20.2984 20.0445 20.6545 19.5866 20.6545Z" fill="white"/>
</g>
<defs>
<clipPath id="clip0_6669_263">
<rect width="160" height="22.2321" fill="white"/>
</clipPath>
</defs>
</svg>
