<svg width="130" height="62" viewBox="0 0 130 62" fill="none" xmlns="http://www.w3.org/2000/svg">
<g opacity="0.65" clip-path="url(#clip0_6732_627)">
<path d="M80.7472 54.3208H78.4143V55.8694H80.7472C81.1495 55.8694 81.7528 55.8694 81.7528 55.1051C81.7528 54.3208 81.1293 54.3208 80.7472 54.3208Z" fill="white"/>
<path d="M64.8996 54.2402C63.532 54.2402 62.989 54.7229 62.989 55.7687C62.989 56.8145 63.532 57.2972 64.8996 57.2972C66.2672 57.2972 66.8102 56.8145 66.8102 55.7687C66.7901 54.7229 66.2672 54.2402 64.8996 54.2402Z" fill="white"/>
<path d="M58.2627 54.3208H55.9097V55.8694H58.2426C58.6448 55.8694 59.2482 55.8694 59.2482 55.1051C59.2683 54.3208 58.6448 54.3208 58.2627 54.3208Z" fill="white"/>
<path d="M90.0991 60.0929L85.2723 50.7008C85.1316 50.4193 84.85 50.2383 84.5282 50.2383H45.4719C45.1501 50.2383 44.8686 50.4193 44.7278 50.7008L39.9011 60.0929C39.6195 60.656 40.0217 61.3197 40.6452 61.3197H89.3549C89.9784 61.2995 90.3806 60.656 90.0991 60.0929ZM50.1981 57.3979C51.4651 57.3979 51.988 56.8348 52.0081 56.4527H50.0975V55.5879H53.3355V58.3231H52.3701L52.3098 57.5186C51.8271 58.0415 51.0629 58.4035 49.9769 58.4035C48.0864 58.4035 46.94 57.4583 46.94 55.7689C46.94 54.0796 48.0864 53.1343 50.1981 53.1343C52.2494 53.1343 53.2751 53.9388 53.3556 55.2058H52.0081C51.9277 54.8237 51.5858 54.2404 50.1981 54.2404C48.4886 54.2404 48.2473 55.1857 48.2473 55.789C48.2473 56.4326 48.4886 57.3979 50.1981 57.3979ZM60.4147 58.3432H58.8661L58.0415 56.9756H55.9097V58.3432H54.6025V53.2148H58.6248C59.7912 53.2148 60.5756 53.9589 60.5756 55.0851C60.5756 55.9097 60.1532 56.5331 59.4694 56.7946L60.4147 58.3432ZM64.8995 58.4035C62.647 58.4035 61.6817 57.4583 61.6817 55.7689C61.6817 54.0796 62.647 53.1343 64.8995 53.1343C67.152 53.1343 68.1173 54.0796 68.1173 55.7689C68.1173 57.4583 67.1319 58.4035 64.8995 58.4035ZM75.7999 55.7689C75.7999 57.5387 74.8345 58.4035 72.5821 58.4035C70.3296 58.4035 69.3642 57.5387 69.3642 55.7689V53.2148H70.6715V55.7689C70.6715 56.4929 70.8726 57.2974 72.5821 57.2974C74.2915 57.2974 74.4926 56.4728 74.4926 55.7689V53.2148H75.7999V55.7689ZM81.1093 56.9756H78.3942V58.3432H77.087V53.2148H81.1093C82.2757 53.2148 83.0601 53.9589 83.0601 55.0851C83.0601 56.2315 82.2757 56.9756 81.1093 56.9756Z" fill="white"/>
<path d="M129.718 26.8286C129.175 26.8286 127.607 30.529 123.645 33.1234C123.102 31.2329 122.318 29.6643 122.318 27.7135C122.318 24.194 126.561 20.9761 127.044 20.4935C127.044 20.0711 124.751 18.2008 124.188 18.2008C123.524 18.2008 118.537 22.9269 118.537 26.3258C118.537 26.5269 118.577 26.728 118.597 26.9291C117.31 28.1157 111.196 37.9099 110.17 36.8842C107.556 34.2698 122.74 5.57082 126.058 2.25244C126.601 1.70944 122.961 -0.603371 122.237 0.14075C121.091 1.2871 115.681 10.8802 111.437 20.3527C110.472 19.2063 109.145 18.3415 107.495 18.3415C103.493 18.3415 100.094 24.0934 98.1637 29.5436C95.8509 32.7614 92.4722 37.6485 91.7281 36.9044C89.9583 35.1346 95.7302 23.4901 97.4397 21.8007C97.9425 21.318 95.0867 19.0052 94.2219 19.689C93.9202 19.87 93.6185 20.232 93.3169 20.7147C92.3515 19.508 90.7627 18.3617 89.0734 18.3617C85.1114 18.3617 81.7126 24.0532 79.7216 29.4833C77.268 32.7011 73.2256 37.7088 69.8871 37.7088C69.4648 37.7088 68.4391 37.2261 68.4391 35.4764C68.4391 34.1491 68.6804 32.7413 69.1028 31.2933C69.6458 31.5346 70.2491 31.6553 71.0536 31.6553C76.5842 31.6553 79.9026 25.4208 79.9026 22.5649C79.9026 20.6141 78.0724 18.3818 76.1418 18.3818C71.7374 18.3818 67.4737 24.3951 65.5028 30.4084C63.2101 33.586 60.2537 37.6686 59.6906 36.9446C56.9957 34.2497 72.1597 5.67138 75.5786 2.27256C76.182 1.66921 72.3608 -0.522926 71.6971 0.160861C70.1486 1.70944 61.2392 18.0198 57.2773 29.3626C54.9645 32.5804 51.445 37.6887 50.6807 36.9446C48.9109 35.1748 54.6829 23.5303 56.3924 21.8409C56.8951 21.3583 54.0393 19.0454 53.1745 19.7292C52.8729 19.9102 52.5712 20.2722 52.2695 20.7549C51.3042 19.5482 49.7154 18.4019 48.026 18.4019C44.1043 18.4019 40.7055 24.013 38.7145 29.4028C37.548 30.9112 35.919 32.5603 33.7469 32.8419C33.7469 31.3938 33.6263 30.2877 33.3246 29.805C38.8552 17.4164 45.5926 4.74626 48.0059 2.31278C48.5489 1.76977 44.9088 -0.543037 44.1848 0.201084C42.3144 2.03122 35.3961 14.983 29.604 28.4576C28.6387 28.3972 27.6331 28.4777 26.6677 28.9C26.6677 28.9 23.7717 31.7961 24.9583 32.3592C24.9583 32.3592 25.7024 31.9167 27.613 31.7558C25.5214 34.6318 23.2689 37.5881 22.7661 36.9647C20.0712 34.2899 35.2553 5.7116 38.6541 2.31278C39.2575 1.70944 35.4363 -0.482703 34.7726 0.201084C33.224 1.74966 24.3147 18.06 20.3528 29.4028C18.0399 32.6206 14.5205 37.7289 13.7562 36.9848C11.9864 35.215 17.7584 23.5705 19.4679 21.8812C19.9706 21.3985 17.1148 19.0857 16.25 19.7695C15.9484 19.9505 15.6467 20.3125 15.345 20.7951C14.3797 19.5885 12.7909 18.4421 11.1015 18.4421C4.86699 18.4421 -0.0603027 32.7011 -0.0603027 37.6284C-0.0603027 39.5188 1.76983 42.073 3.03685 42.073C4.74632 42.073 7.60214 38.0105 10.0155 33.6262C9.6535 35.1547 9.4725 36.482 9.4725 37.6284C9.4725 39.5188 11.1216 42.073 12.3886 42.073C13.8769 42.073 16.612 38.3323 18.8645 34.5915C18.6031 35.7379 18.4422 36.8038 18.4422 37.6485C18.4422 39.7602 20.1516 42.0931 21.3583 42.0931C22.4443 42.0931 24.2141 40.082 25.9638 37.5278C23.1281 45.0897 21.117 52.0281 21.117 56.4124C21.117 58.3029 23.289 60.857 24.3348 60.857C28.8398 60.857 32.9023 44.6472 33.6062 35.6172C35.0542 35.4161 36.3614 34.5915 37.4474 33.5659C37.0452 35.1949 36.824 36.663 36.824 37.6887C36.824 39.5792 38.6541 42.1333 39.9211 42.1333C41.6306 42.1333 44.4864 38.0708 46.8998 33.6865C46.5378 35.215 46.3568 36.5424 46.3568 37.6887C46.3568 39.5792 48.0059 42.1333 49.2729 42.1333C50.7612 42.1333 53.4963 38.3926 55.7488 34.6519C55.4874 35.7982 55.3265 36.8641 55.3265 37.7088C55.3265 39.8205 57.0359 42.1534 58.2426 42.1534C59.6504 42.1534 62.2247 38.7546 64.4168 35.1748C64.3565 35.758 64.3163 36.3211 64.3163 36.8842C64.3163 40.2227 67.1721 42.1534 68.1978 42.1534C71.8379 42.1534 75.639 38.1714 78.3138 34.2899C78.0121 35.6575 77.8512 36.844 77.8512 37.749C77.8512 39.6395 79.6814 42.1937 80.9484 42.1937C82.6578 42.1937 85.5137 38.1312 87.927 33.7469C87.565 35.2753 87.384 36.6027 87.384 37.749C87.384 39.6395 89.0331 42.1937 90.3002 42.1937C91.7683 42.1937 94.4833 38.5334 96.7157 34.8128C96.4945 35.9591 96.3537 36.9848 96.3537 37.7691C96.3537 39.6596 98.1838 42.2138 99.3905 42.2138C101.1 42.2138 104.117 38.0306 106.55 33.4854C106.128 35.2552 105.886 36.7032 105.886 37.7893C105.886 39.901 107.596 42.2339 108.803 42.2339C111.357 42.2339 117.491 31.5145 118.637 28.1559C118.959 30.7905 119.985 32.9223 120.427 34.9737C118.899 35.6373 117.028 35.758 115.158 35.9993C114.917 36.1803 114.192 37.025 114.192 37.7088C114.192 38.9758 117.29 42.3747 119.783 42.3747C121.674 42.3747 124.148 40.1423 124.148 36.7234C124.148 36.4217 124.087 36.12 124.087 35.8787C128.451 32.2385 130.865 26.8286 129.718 26.8286ZM77.0468 21.318C77.7104 21.9817 74.0703 29.262 69.9474 29.262H69.8871C72.1396 24.4152 76.0814 20.3527 77.0468 21.318ZM4.54521 36.9848C4.48487 36.9848 4.42454 36.9245 4.3642 36.8641C4.30387 36.6831 4.24353 36.4418 4.24353 36.0195C4.24353 30.4888 9.8345 21.1571 12.2479 21.1571C13.0322 21.1571 13.6356 21.8812 14.2992 22.6052L13.0322 25.1392C10.6188 29.0408 6.23456 36.9848 4.54521 36.9848ZM25.28 55.6683C24.9784 55.3666 24.8577 54.8839 24.8577 54.0795C24.8577 50.6806 27.5929 43.0383 31.1526 34.6519C30.2073 42.8573 26.8085 57.1766 25.28 55.6683ZM41.4295 36.9848C41.3692 36.9848 41.3088 36.9245 41.2485 36.8641C41.1882 36.6831 41.1278 36.4418 41.1278 36.0195C41.1278 30.4888 46.7188 21.1571 49.1322 21.1571C49.9165 21.1571 50.5198 21.8812 51.1835 22.6052L49.9165 25.1593C47.5031 29.0408 43.139 36.9848 41.4295 36.9848ZM82.4567 36.9848C82.3964 36.9848 82.3361 36.9245 82.2757 36.8641C82.2154 36.6831 82.1551 36.4418 82.1551 36.0195C82.1551 30.4888 87.746 21.1571 90.1594 21.1571C90.9437 21.1571 91.5471 21.8812 92.2107 22.6052L90.9437 25.1593C88.5103 29.0408 84.1662 36.9848 82.4567 36.9848ZM100.959 36.9848C100.899 36.9848 100.658 36.9245 100.658 36.0195C100.658 30.4888 106.067 21.1571 108.662 21.1571C109.386 21.1571 109.989 21.7605 110.552 22.4242L109.406 25.28C106.912 29.2017 102.588 36.9848 100.959 36.9848ZM119.401 38.8552C118.858 38.8552 118.255 38.6138 117.632 38.0708C118.778 38.0708 119.743 37.8898 120.789 37.4675C120.749 38.1312 120.447 38.8552 119.401 38.8552Z" fill="white"/>
</g>
<defs>
<clipPath id="clip0_6732_627">
<rect width="130" height="61.2995" fill="white"/>
</clipPath>
</defs>
</svg>
