<svg width="120" height="53" viewBox="0 0 120 53" fill="none" xmlns="http://www.w3.org/2000/svg">
<g opacity="0.65" clip-path="url(#clip0_6734_635)">
<path d="M23.2337 20.9439C22.7757 20.5514 22.2057 20.2523 21.5141 20.0561C20.8225 19.8318 20.1496 19.7196 19.486 19.7196C18.7477 19.7196 18.0748 19.8598 17.458 20.1308C16.8505 20.3738 16.3085 20.7383 15.8505 21.2056C15.4206 21.6449 15.0748 22.1869 14.8225 22.8318C14.5701 23.4766 14.4393 24.1589 14.4393 24.9065C14.4393 25.6449 14.5795 26.3364 14.8599 26.9813C15.1402 27.6262 15.5234 28.1776 16.0094 28.6449C16.4954 29.0841 17.0561 29.4486 17.6916 29.7196C18.3552 29.9626 19.0561 30.0935 19.7944 30.0935C20.6636 30.0935 21.4486 29.9252 22.1589 29.5794C22.8692 29.2056 23.486 28.7196 23.9907 28.1028H21.701V22.8972H31.5141V31.1028C30.9253 32.1121 30.2243 33.0374 29.4113 33.8785C28.5982 34.6916 27.6823 35.3925 26.6636 35.9813C25.6729 36.5701 24.5888 37.028 23.4206 37.3458C22.2524 37.6635 21.0374 37.8224 19.7944 37.8224C17.9627 37.8224 16.2337 37.486 14.5982 36.8224C12.972 36.1589 11.5421 35.243 10.3178 34.0841C9.12152 32.9252 8.16825 31.5607 7.45797 29.9813C6.76638 28.4019 6.42993 26.7009 6.42993 24.8785C6.42993 23.1028 6.75704 21.4299 7.42059 19.8505C8.08414 18.271 8.99068 16.9065 10.1309 15.7477C11.2991 14.5607 12.6729 13.6449 14.2524 12.972C15.8599 12.2804 17.5701 11.9346 19.4113 11.9346C20.8412 11.9346 22.0748 12.0748 23.1122 12.3458C24.1589 12.6168 25.0374 12.9252 25.7477 13.271C26.5888 13.6635 27.2898 14.0934 27.8505 14.5607L23.2337 20.9439Z" fill="white"/>
<path d="M33.6357 12.5513H42.1124V30.7382H49.1404V37.2055H33.6357V12.5513Z" fill="white"/>
<path d="M48.7573 24.8971C48.7573 23.1214 49.1031 21.4485 49.7854 19.869C50.4956 18.2896 51.4489 16.9251 52.6452 15.7662C53.8695 14.5793 55.29 13.6634 56.9256 12.9905C58.5517 12.2989 60.29 11.9531 62.1218 11.9531C63.9536 11.9531 65.6826 12.2989 67.3181 12.9905C68.9442 13.6541 70.3555 14.5793 71.5611 15.7662C72.7854 16.9251 73.7386 18.2896 74.4209 19.869C75.1312 21.4485 75.4863 23.1214 75.4863 24.8971C75.4863 26.6728 75.1312 28.3457 74.4209 29.9251C73.7293 31.5045 72.776 32.8784 71.5611 34.0653C70.3648 35.2242 68.9536 36.1494 67.3181 36.841C65.6919 37.5045 63.9536 37.841 62.1218 37.841C60.29 37.841 58.5611 37.5045 56.9256 36.841C55.2994 36.1494 53.8695 35.2242 52.6452 34.0653C51.4489 32.8784 50.4956 31.5045 49.7854 29.9251C49.1031 28.3457 48.7573 26.6728 48.7573 24.8971ZM56.776 24.8971C56.776 25.6073 56.9162 26.2896 57.1966 26.9344C57.4769 27.5513 57.8601 28.0933 58.3461 28.5606C58.8321 29.0279 59.3928 29.4017 60.0284 29.6728C60.6919 29.9438 61.3928 30.084 62.1312 30.084C62.8695 30.084 63.5611 29.9438 64.1966 29.6728C64.8601 29.4017 65.4302 29.0279 65.9162 28.5606C66.4022 28.0933 66.7854 27.5513 67.0657 26.9344C67.3461 26.2896 67.4863 25.6167 67.4863 24.8971C67.4863 24.1774 67.3461 23.5139 67.0657 22.8971C66.7854 22.2522 66.4022 21.7008 65.9162 21.2335C65.4302 20.7662 64.8601 20.3924 64.1966 20.1214C63.5611 19.8503 62.8695 19.7101 62.1312 19.7101C61.3928 19.7101 60.6919 19.8503 60.0284 20.1214C59.3928 20.3924 58.8321 20.7662 58.3461 21.2335C57.8601 21.7008 57.4769 22.2522 57.1966 22.8971C56.9162 23.5139 56.776 24.1774 56.776 24.8971Z" fill="white"/>
<path d="M77.5981 12.5513H86.3832C88.0094 12.5513 89.514 12.7569 90.8879 13.1774C92.2897 13.598 93.4952 14.2148 94.5139 15.0279C95.5326 15.841 96.3177 16.8503 96.8784 18.0559C97.4672 19.2429 97.7569 20.6073 97.7569 22.1587C97.7569 23.3924 97.5794 24.4391 97.2242 25.2989C96.8691 26.1587 96.4766 26.8784 96.0373 27.4391C95.5326 28.084 94.9532 28.626 94.3177 29.0653L99.0934 37.1961H89.5514L85.729 30.9531V37.1961H77.5981V12.5513ZM85.729 24.6728H86.1495C87.1215 24.6728 87.9346 24.4672 88.5888 24.0466C89.271 23.626 89.6168 22.9251 89.6168 21.9438C89.6168 20.9625 89.271 20.2522 88.5888 19.841C87.9252 19.4204 87.1122 19.2148 86.1495 19.2148H85.729V24.6728Z" fill="white"/>
<path d="M103.953 26.5981L96.0466 12.5513H105.093L108.037 17.7569L110.944 12.542H119.991L112.084 26.5887V37.1962H103.953V26.5981Z" fill="white"/>
<path fill-rule="evenodd" clip-rule="evenodd" d="M0.149624 7.82244C9.11504e-05 7.60749 0.0561658 7.30842 0.299156 7.19627C1.31784 6.73833 1.9814 7.14954 2.36457 7.65421C2.55149 7.89721 2.90663 7.98132 3.187 7.86917C3.22439 7.85048 3.27111 7.84113 3.3085 7.82244C4.26177 7.53272 5.28981 8.08412 5.58887 9.05608C5.76644 9.63551 5.65429 10.2243 5.33653 10.6822C5.14027 10.9533 5.14962 11.3738 5.45803 11.5047C6.38326 11.8879 7.43934 11.9626 8.45803 11.6449C10.1029 11.1402 11.243 9.76636 11.5328 8.15889C11.5608 7.99066 11.3739 7.86917 11.2057 7.9159C10.3459 8.17758 9.42062 7.68225 9.14962 6.80375C8.87859 5.92524 9.3552 5.00001 10.215 4.73833C10.3365 4.70094 10.458 4.68225 10.5702 4.67291C10.6543 4.66356 10.701 4.56076 10.6449 4.49534C10.5047 4.32711 10.4019 4.13085 10.3365 3.92524C10.2711 3.71964 10.243 3.49534 10.2617 3.28038C10.2804 3.06543 10.3365 2.85048 10.4393 2.66356C10.5421 2.47664 10.673 2.29907 10.8412 2.16823C11.0094 2.02805 11.1963 1.92524 11.4019 1.86917C11.6075 1.80375 11.8225 1.78506 12.0374 1.80375C12.2524 1.82244 12.458 1.88786 12.6543 1.99066C12.8412 2.09347 13.0187 2.23365 13.1496 2.40188C13.2898 2.5701 13.3926 2.76636 13.458 2.97197C13.5234 3.17758 13.5515 3.40188 13.5328 3.61683C13.5234 3.6916 13.6262 3.75702 13.6916 3.71964C13.7945 3.66356 13.9066 3.60749 14.0281 3.57945C14.8879 3.31777 15.8131 3.81309 16.0842 4.6916C16.3552 5.5701 15.8786 6.49534 15.0187 6.75702C14.8505 6.80375 14.7664 7.0187 14.8879 7.1402C16.0468 8.29908 17.7758 8.80375 19.4206 8.29908C20.4393 7.99066 21.2711 7.33646 21.8225 6.50468C22.0094 6.23365 21.7758 5.87851 21.458 5.76636C20.9346 5.5701 20.4954 5.1402 20.3178 4.56076C20.0094 3.58879 20.5421 2.56076 21.4954 2.27104C21.5328 2.26169 21.5795 2.25235 21.6169 2.243C21.9159 2.17758 22.1683 1.89721 22.1776 1.59814C22.2057 0.971972 22.5234 0.261688 23.6262 0.0747723C23.8879 0.0280433 24.1122 0.242998 24.1029 0.514026L23.9907 11.5234C23.5982 11.3925 23.1776 11.271 22.729 11.1589C21.6075 10.8692 20.2804 10.729 18.7571 10.729C16.7944 10.729 14.944 11.0935 13.2244 11.8318C11.5328 12.5421 10.0561 13.5234 8.80382 14.7944C8.05616 15.5514 7.40196 16.3832 6.84121 17.3084L0.149624 7.82244Z" fill="white"/>
<path d="M23.6543 41.6543C24.673 41.6543 25.5515 41.8225 26.2992 42.159C27.0469 42.4861 27.6263 42.9627 28.0375 43.5889C28.4487 44.2057 28.645 44.9253 28.645 45.7571C28.645 46.5889 28.4394 47.3178 28.0375 47.9253C27.6263 48.5421 27.0562 49.0094 26.2992 49.3552C25.5515 49.6823 24.6637 49.8506 23.6543 49.8506H21.6917V52.7478H18.5142V41.6543H23.6543ZM23.4581 47.3833C24.1123 47.3833 24.6076 47.2431 24.9347 46.9721C25.2618 46.6823 25.43 46.2805 25.43 45.7664C25.43 45.2524 25.2618 44.8506 24.9347 44.5608C24.6076 44.2711 24.1123 44.1309 23.4581 44.1309H21.6917V47.3833H23.4581Z" fill="white"/>
<path d="M37.1592 50.5982H32.4115L31.533 52.757H28.29L33.2527 41.6636H36.3835L41.3555 52.757H38.0377L37.1592 50.5982ZM36.2246 48.2804L34.776 44.729L33.3274 48.2804H36.2246Z" fill="white"/>
<path d="M47.1588 49.8038H45.4205V52.7478H42.2429V41.6543H47.3831C48.4018 41.6543 49.2803 41.8225 50.028 42.159C50.7756 42.4861 51.3551 42.9627 51.7663 43.5889C52.1775 44.2057 52.3738 44.9253 52.3738 45.7571C52.3738 46.5608 52.1775 47.2618 51.7943 47.8692C51.4205 48.458 50.8784 48.9253 50.1775 49.2618L52.5981 52.7478H49.1962L47.1588 49.8038ZM49.1682 45.7664C49.1682 45.2524 48.9999 44.8506 48.6728 44.5608C48.3457 44.2711 47.8504 44.1309 47.1962 44.1309H45.4298V47.3833H47.1962C47.8504 47.3833 48.3457 47.2431 48.6728 46.9721C48.9999 46.6823 49.1682 46.2805 49.1682 45.7664Z" fill="white"/>
<path d="M56.3649 44.1496H52.9163V41.6636H62.9817V44.1496H59.5424V52.757H56.3649V44.1496Z" fill="white"/>
<path d="M74.8505 41.6543V52.7478H72.2337L67.2711 46.8319V52.7478H64.1589V41.6543H66.7758L71.7384 47.5702V41.6543H74.8505Z" fill="white"/>
<path d="M86.1215 50.3272V52.7571H77.1028V41.6543H85.9159V44.0842H80.2523V45.9534H85.243V48.2992H80.2523V50.3272H86.1215Z" fill="white"/>
<path d="M92.7945 49.8038H91.0655V52.7478H87.8879V41.6543H93.0281C94.0466 41.6543 94.9251 41.8225 95.6728 42.159C96.4205 42.4861 96.9999 42.9627 97.4018 43.5889C97.813 44.2057 98.0092 44.9253 98.0092 45.7571C98.0092 46.5608 97.813 47.2618 97.4298 47.8692C97.056 48.458 96.5139 48.9253 95.8036 49.2618L98.2242 52.7478H94.8223L92.7945 49.8038ZM94.8036 45.7664C94.8036 45.2524 94.6354 44.8506 94.3083 44.5608C93.9812 44.2711 93.4859 44.1309 92.8319 44.1309H91.0655V47.3833H92.8319C93.4859 47.3833 93.9812 47.2431 94.3083 46.9721C94.6354 46.6823 94.8036 46.2805 94.8036 45.7664Z" fill="white"/>
<path d="M103.71 52.9719C102.804 52.9719 101.916 52.8597 101.065 52.6354C100.206 52.4111 99.5139 52.1214 98.9812 51.7476L100.028 49.4298C100.533 49.7569 101.112 50.0186 101.776 50.2242C102.439 50.4205 103.093 50.5233 103.738 50.5233C104.963 50.5233 105.57 50.2242 105.57 49.6167C105.57 49.299 105.392 49.0653 105.037 48.9158C104.691 48.7569 104.14 48.598 103.364 48.4205C102.523 48.2429 101.813 48.0466 101.243 47.8504C100.673 47.6354 100.187 47.3083 99.7849 46.8504C99.3831 46.3924 99.1775 45.785 99.1775 45.0093C99.1775 44.3364 99.3644 43.7289 99.7382 43.1868C100.112 42.6354 100.673 42.2055 101.411 41.8878C102.159 41.57 103.075 41.4111 104.159 41.4111C104.897 41.4111 105.626 41.4952 106.346 41.6635C107.065 41.8223 107.691 42.056 108.243 42.3737L107.262 44.7009C106.196 44.1308 105.149 43.841 104.149 43.841C103.514 43.841 103.056 43.9345 102.766 44.1308C102.477 44.3083 102.336 44.5513 102.336 44.841C102.336 45.1401 102.505 45.3551 102.85 45.5046C103.196 45.6541 103.748 45.8037 104.505 45.9625C105.364 46.1401 106.065 46.3364 106.626 46.5513C107.196 46.7476 107.682 47.084 108.084 47.5326C108.505 47.9719 108.71 48.5887 108.71 49.3551C108.71 50.0186 108.523 50.6261 108.149 51.1588C107.776 51.7009 107.215 52.1308 106.467 52.4579C105.691 52.813 104.785 52.9719 103.71 52.9719Z" fill="white"/>
</g>
<defs>
<clipPath id="clip0_6734_635">
<rect width="120" height="52.9907" fill="white"/>
</clipPath>
</defs>
</svg>
