<svg width="90" height="90" viewBox="0 0 90 90" fill="none" xmlns="http://www.w3.org/2000/svg">
<g opacity="0.65" clip-path="url(#clip0_6702_314)">
<mask id="mask0_6702_314" style="mask-type:luminance" maskUnits="userSpaceOnUse" x="0" y="0" width="90" height="90">
<path d="M90 45C90 20.1472 69.8528 0 45 0C20.1472 0 0 20.1472 0 45C0 69.8528 20.1472 90 45 90C69.8528 90 90 69.8528 90 45Z" fill="white"/>
</mask>
<g mask="url(#mask0_6702_314)">
<path d="M90 45C90 20.1472 69.8528 0 45 0C20.1472 0 0 20.1472 0 45C0 69.8528 20.1472 90 45 90C69.8528 90 90 69.8528 90 45Z" fill="#C2EB2D"/>
<path d="M44.9995 90C69.8523 90 89.9995 69.8528 89.9995 45C89.9995 20.1472 69.8523 0 44.9995 0C20.1467 0 -0.000488281 20.1472 -0.000488281 45C-0.000488281 69.8528 20.1467 90 44.9995 90Z" fill="#050505"/>
<path d="M86.2934 47.0004L81.3489 46.8286L81.4027 45.2803L86.3467 45.452L86.2934 47.0004Z" fill="white"/>
<path d="M80.8253 50.9776L80.8493 50.84C81.3111 48.2003 82.8914 47.8489 83.8677 48.0197L84.051 48.0517C85.0002 48.2179 86.3743 48.9712 85.8835 51.7747L85.8343 52.0563C85.3577 54.7812 84.0885 55.0519 83.4227 54.9624L83.416 54.9612L83.7002 53.3368C83.8185 53.317 84.4318 53.2421 84.6977 51.7225C84.9585 50.2356 84.3802 49.7565 83.706 49.6385L83.6335 49.6259C82.9982 49.5147 82.2365 49.8946 82.0017 51.2373C81.7484 52.6849 82.2284 53.2212 82.366 53.2452L82.3791 53.2475L82.7137 51.3349L83.6368 51.4964L83.0368 54.9287L80.3054 54.4509L80.4658 53.5339C80.6462 53.5452 81.0421 53.5199 81.26 53.4703C81.0543 53.2183 80.5618 52.4841 80.8253 50.9776Z" fill="white"/>
<path d="M80.5097 59.7506L82.5872 59.5448L81.2012 58.0076L80.5097 59.7506ZM78.2482 59.9694L79.2604 59.8702L80.3664 57.0826L79.6901 56.335L80.2713 54.8701L83.9477 59.0186L83.2072 60.8853L77.6326 61.5207L78.2482 59.9694Z" fill="white"/>
<path d="M77.5714 61.8291L81.6859 64.576L80.4639 66.4066L76.9544 66.1184L78.5624 69.2547L77.3846 71.0189L73.27 68.2719L74.1192 66.9999L76.9674 68.9014L75.201 65.3796L75.6625 64.6883L79.5924 64.9694L76.7444 63.0679L77.5714 61.8291Z" fill="white"/>
<path d="M75.0447 73.4707L71.4094 70.1151L72.4603 68.9766L76.0956 72.3322L75.0447 73.4707Z" fill="white"/>
<path d="M73.9832 74.7522L72.6507 75.8539L68.2334 75.4682L70.2164 77.8665L69.0378 78.8411L65.8853 75.0283L67.064 74.0537L71.7409 74.4405L69.652 71.914L70.8307 70.9395L73.9832 74.7522Z" fill="white"/>
<path d="M62.2771 77.0216L62.4006 76.9565C64.7706 75.7057 66.0158 76.7402 66.4782 77.6165L66.5651 77.7811C67.0151 78.6338 67.2604 80.1811 64.7434 81.5095L64.4906 81.643C62.0442 82.9341 61.0531 82.0963 60.7161 81.5147L60.713 81.5089L62.1714 80.7391C62.2594 80.8205 62.6945 81.26 64.0588 80.54C65.3937 79.8355 65.4189 79.0853 65.0992 78.4796L65.0651 78.415C64.764 77.8445 63.9974 77.4746 62.7918 78.1109C61.4922 78.7968 61.362 79.5046 61.4271 79.6281L61.4333 79.6399L63.1506 78.7336L63.5881 79.5628L60.5067 81.1891L59.2124 78.7369L60.0356 78.3024C60.1371 78.4518 60.3995 78.7495 60.5722 78.8914C60.6455 78.5745 60.9245 77.7355 62.2771 77.0216Z" fill="white"/>
<path d="M50.9504 82.671L53.0791 82.2986L52.795 80.6742L54.3212 80.4072L55.1736 85.2804L51.5187 85.9196C49.7632 86.2271 49.1243 85.6229 48.9686 84.7321L48.9571 84.6671C48.8046 83.7954 49.2081 82.9758 50.9504 82.671ZM53.4538 84.4404L53.2705 83.3929L51.1679 83.7604C50.6898 83.8437 50.4915 84.0612 50.5499 84.3946L50.5533 84.4146C50.6117 84.7487 50.86 84.8946 51.3512 84.8087L53.4538 84.4404Z" fill="white"/>
<path d="M47.5436 86.4416L42.3304 86.4208L42.3347 85.2975L46.0186 85.3116L46.0214 84.58L42.4241 84.5666L42.4284 83.4358L46.0258 83.45L46.0289 82.6385L42.2786 82.624L42.2831 81.4736L47.5627 81.494L47.5436 86.4416Z" fill="white"/>
<path d="M41.6638 82.7208L41.0428 82.6048C40.7069 83.063 40.465 84.1403 40.0731 86.2387L34.8178 85.257L35.5063 81.5707L34.7219 81.4242L35.0943 79.4307L36.5519 79.7029L36.3993 80.52L40.4258 81.272L40.5784 80.4549L42.0361 80.7272L41.6638 82.7208ZM39.6701 82.3485L37.0293 81.8552L36.5605 84.3653L38.9463 84.8112C39.1319 83.817 39.373 82.7801 39.6701 82.3485Z" fill="white"/>
<path d="M30.0215 80.4947L30.2118 82.5738L31.7593 81.1993L30.0215 80.4947ZM29.8197 78.2317L29.9113 79.2446L32.6905 80.3714L33.4432 79.7007L34.9036 80.2929L30.7277 83.9383L28.8667 83.1837L28.2729 77.6045L29.8197 78.2317Z" fill="white"/>
<path d="M24.4296 75.1616L25.3691 78.5372L26.6293 76.5726L27.9334 77.4091L25.2623 81.5734L23.9582 80.7369L25.0711 79.0017L21.8257 79.369L20.1689 78.3063L23.7851 77.9399L22.728 74.0703L24.4296 75.1616Z" fill="white"/>
<path d="M22.4694 73.9217L19.0613 77.5078L17.9382 76.4405L20.5218 73.722L18.3095 71.6194L15.7258 74.3379L14.6028 73.2706L17.1864 70.5521L16.608 70.0024L18.0051 68.5322L19.0799 69.5538L18.5074 70.1563L22.4694 73.9217Z" fill="white"/>
<path d="M14.3036 64.7665L11.6287 66.6385L16.2062 67.485L17.0946 68.7543L13.0413 71.591L12.1529 70.3217L14.8387 68.442L10.2504 67.6031L9.36206 66.3337L13.4153 63.4971L14.3036 64.7665Z" fill="white"/>
<path d="M9.58681 59.4672L10.0005 60.3967L12.3506 61.3595L13.1565 63.1698L10.6712 62.0997C11.1331 63.3499 10.775 64.0333 10.0703 64.3471L9.9974 64.3795C9.28665 64.6959 8.3609 64.5621 7.69029 63.0555L6.04077 59.3497L10.5605 57.3379L11.1906 58.7533L9.58681 59.4672ZM8.5844 59.9134L7.69749 60.3082L8.67906 62.5134C8.86298 62.9265 9.13373 62.9952 9.37065 62.8897L9.37673 62.8871C9.62581 62.7761 9.74723 62.5256 9.56606 62.1186L8.5844 59.9134Z" fill="white"/>
<path d="M6.73571 52.7263L6.39209 50.6196L7.5209 50.4355L7.86451 52.5422L6.73571 52.7263Z" fill="white"/>
<path d="M3.65597 42.9785L8.59955 43.1694L8.5398 44.7176L3.59619 44.5268L3.65597 42.9785Z" fill="white"/>
<path d="M9.13035 39.0672L9.10577 39.2046C8.63394 41.8425 7.05224 42.1878 6.07694 42.0133L5.89365 41.9806C4.94454 41.8108 3.57383 41.0522 4.07495 38.2507L4.1253 37.9692C4.61236 35.2462 5.8826 34.9803 6.5484 35.0724L6.55495 35.0736L6.26458 36.6969C6.14628 36.7162 5.5321 36.7887 5.26046 38.3074C4.99469 39.7932 5.5706 40.2746 6.2448 40.3952L6.3168 40.408C6.95173 40.5216 7.71492 40.1447 7.95495 38.8028C8.2137 37.3562 7.73576 36.8182 7.5983 36.7936L7.58521 36.7912L7.24333 38.7026L6.32039 38.5375L6.9339 35.1076L9.66344 35.5958L9.49952 36.5122C9.31927 36.5002 8.92327 36.524 8.7051 36.5727C8.90985 36.8256 9.3996 37.5617 9.13035 39.0672Z" fill="white"/>
<path d="M9.48277 30.2632L7.40446 30.4613L8.78477 32.0037L9.48277 30.2632ZM11.7452 30.053L10.7325 30.1483L9.6161 32.9317L10.2896 33.6819L9.70293 35.1446L6.04199 30.9823L6.78957 29.1185L12.3665 28.5039L11.7452 30.053Z" fill="white"/>
<path d="M12.4432 28.1404L8.34888 25.3633L9.58429 23.5418L13.0915 23.8556L11.5065 20.7076L12.6973 18.9521L16.7916 21.7291L15.9331 22.9949L13.099 21.0726L14.8395 24.6073L14.373 25.2952L10.4451 24.9854L13.2793 26.9076L12.4432 28.1404Z" fill="white"/>
<path d="M14.9749 16.5811L18.598 19.9499L17.5429 21.0845L13.9199 17.7156L14.9749 16.5811Z" fill="white"/>
<path d="M15.9441 15.3765L17.2805 14.2797L21.6963 14.6815L19.7221 12.2759L20.9043 11.3057L24.0428 15.1299L22.8606 16.1002L18.1852 15.6964L20.2648 18.2305L19.0826 19.2007L15.9441 15.3765Z" fill="white"/>
<path d="M27.7673 13.0568L27.6435 13.1215C25.269 14.3635 24.0276 13.3244 23.5684 12.4464L23.4821 12.2815C23.0352 11.4271 22.7957 9.87895 25.3176 8.55986L25.5709 8.42736C28.0221 7.14524 29.0101 7.98675 29.3449 8.56953L29.348 8.57545L27.8868 9.33978C27.799 9.25811 27.3656 8.81686 25.9986 9.53186C24.6611 10.2315 24.6332 10.9815 24.9506 11.5884L24.9845 11.6532C25.2834 12.2248 26.0487 12.5974 27.2566 11.9656C28.5588 11.2845 28.6916 10.5772 28.6269 10.4534L28.6207 10.4417L26.9002 11.3416L26.4656 10.5108L29.5532 8.89586L30.8384 11.3529L30.0134 11.7844C29.9125 11.6345 29.6513 11.3359 29.4791 11.1934C29.4046 11.51 29.1225 12.3479 27.7673 13.0568Z" fill="white"/>
<path d="M36.8337 7.86981L34.7279 8.35539L35.0985 9.96231L33.5887 10.3105L32.4771 5.48967L36.0926 4.65596C37.8292 4.25554 38.4995 4.82433 38.7026 5.70555L38.7175 5.77035C38.9163 6.63212 38.5573 7.47237 36.8337 7.86981ZM34.2393 6.23659L34.4784 7.27331L36.5583 6.79371C37.0313 6.68463 37.2177 6.45739 37.1416 6.12694L37.137 6.1075C37.0609 5.77704 36.8052 5.64492 36.3192 5.75698L34.2393 6.23659Z" fill="white"/>
<path d="M39.7219 3.92505L44.9276 3.64355L44.9883 4.7657L41.3098 4.9646L41.3493 5.69499L44.9414 5.50075L45.0024 6.62952L41.4103 6.82376L41.4541 7.63383L45.1989 7.43133L45.2611 8.58L39.989 8.86509L39.7219 3.92505Z" fill="white"/>
<path d="M46.062 7.26828L46.6884 7.3508C46.9991 6.8753 47.1829 5.78615 47.4617 3.66992L52.7622 4.36828L52.2723 8.0865L53.0634 8.19073L52.7985 10.2015L51.3283 10.0078L51.4369 9.18367L47.3759 8.64867L47.2673 9.47275L45.7971 9.27901L46.062 7.26828ZM48.0728 7.5332L50.7362 7.88411L51.0697 5.35256L48.6635 5.03552C48.5315 6.0376 48.3463 7.08633 48.0728 7.5332Z" fill="white"/>
<path d="M57.8924 8.85044L57.5854 6.78537L56.1176 8.24477L57.8924 8.85044ZM58.2211 11.0986L58.0727 10.0924L55.2345 9.12377L54.5208 9.83569L53.0293 9.32669L56.9935 5.45215L58.894 6.10078L59.8007 11.6377L58.2211 11.0986Z" fill="white"/>
<path d="M63.7302 13.8316L62.6061 10.513L61.4562 12.5441L60.1079 11.7808L62.5452 7.47559L63.8936 8.23891L62.878 10.0327L66.0982 9.48713L67.811 10.4568L64.2205 11.022L65.4893 14.8275L63.7302 13.8316Z" fill="white"/>
<path d="M65.7451 14.9257L68.9528 11.1592L70.1323 12.1637L67.7007 15.0189L70.0245 16.9978L72.456 14.1426L73.6356 15.1471L71.204 18.0024L71.8115 18.5198L70.4965 20.0638L69.3676 19.1024L69.9065 18.4696L65.7451 14.9257Z" fill="white"/>
<path d="M74.4393 23.6276L77.0078 21.6119L72.3908 21.0172L71.4343 19.7984L75.3263 16.7441L76.2828 17.963L73.7038 19.9868L78.3312 20.5733L79.2877 21.7921L75.3958 24.8464L74.4393 23.6276Z" fill="white"/>
<path d="M79.4449 28.6186L78.9801 27.7136L76.58 26.8832L75.6746 25.1206L78.2155 26.0505C77.6847 24.8281 78.0042 24.1258 78.6904 23.7733L78.7613 23.7368C79.4534 23.3813 80.3851 23.4634 81.1386 24.9303L82.9919 28.5384L78.5912 30.7988L77.8833 29.4207L79.4449 28.6186ZM80.4208 28.1173L81.2844 27.6737L80.1815 25.5266C79.9749 25.1243 79.7007 25.0708 79.4701 25.1893L79.4641 25.1923C79.2216 25.3169 79.1144 25.5738 79.318 25.9702L80.4208 28.1173Z" fill="white"/>
<path d="M82.8253 35.9482L83.2811 38.0336L82.1638 38.2778L81.708 36.1925L82.8253 35.9482Z" fill="white"/>
<path d="M5.18285 42.4338L4.7666 42.415L4.65046 44.9958L5.06671 45.0145L5.18285 42.4338Z" fill="#050505"/>
<path d="M85.2822 44.7687L84.866 44.75L84.7498 47.3307L85.1661 47.3495L85.2822 44.7687Z" fill="#050505"/>
<path fill-rule="evenodd" clip-rule="evenodd" d="M37.4797 49.8874H51.9562C63.8047 49.8874 67.4127 44.9431 67.4127 39.0189V38.5734C67.4127 32.5155 63.8938 27.7939 51.9562 27.7939H27.1011V53.2919H27.0708V60.1676H37.4901V68.1658L49.1159 53.2919H37.4797V49.8874ZM37.4797 42.4487V35.3218H51.7781C55.1188 35.3218 56.5887 36.5689 56.5887 38.8407V38.9743C56.5887 41.246 55.0297 42.4487 51.7781 42.4487H37.4797Z" fill="#979797"/>
</g>
</g>
<defs>
<clipPath id="clip0_6702_314">
<rect width="90" height="90" fill="white"/>
</clipPath>
</defs>
</svg>
