<svg width="200" height="35" viewBox="0 0 200 35" fill="none" xmlns="http://www.w3.org/2000/svg">
<g opacity="0.65" clip-path="url(#clip0_6735_676)">
<mask id="mask0_6735_676" style="mask-type:luminance" maskUnits="userSpaceOnUse" x="0" y="0" width="200" height="35">
<path d="M200 0H0V34.7972H200V0Z" fill="white"/>
</mask>
<g mask="url(#mask0_6735_676)">
<path d="M34.7972 30.7628C34.7972 32.9901 32.9901 34.7552 30.8048 34.7552C28.5774 34.7552 26.8124 32.9481 26.8124 30.7628C26.8124 28.5774 28.6195 26.7703 30.8048 26.7703C32.9901 26.7703 34.7972 28.5774 34.7972 30.7628ZM24.2488 24.2488C23.4503 30.1744 18.3232 34.7552 12.1874 34.7552C5.50536 34.7552 0 29.2919 0 22.5678V0.462282C0 0.210128 0.210128 0 0.462282 0H22.5678C29.2498 0 34.7552 5.46333 34.7552 12.1874C34.7552 18.3232 30.1744 23.4083 24.2488 24.2488ZM28.0311 12.1874C28.0311 8.90944 25.3835 6.7241 22.5678 6.7241H6.93423C6.80815 6.7241 6.7241 6.80815 6.7241 6.97626V22.6098C6.7241 25.4255 8.90944 28.0731 12.1874 28.0731C14.9611 28.0731 17.6087 26.0139 17.6087 22.6098V18.071C17.6087 17.8189 17.8189 17.6087 18.071 17.6087L22.6098 17.5667C25.9718 17.5667 28.0311 14.9611 28.0311 12.1874Z" fill="#999999"/>
<path d="M48.1194 28.4094V4.875C48.4556 4.875 48.9179 4.875 49.5483 4.875C50.1786 4.875 50.809 4.875 51.5235 4.875C52.2379 4.875 52.9103 4.875 53.6247 4.875C54.3392 4.875 54.8855 4.875 55.3058 4.875C57.1129 4.875 58.5838 5.08513 59.8025 5.50538C61.0213 5.92564 61.9878 6.514 62.7443 7.22844C63.5008 7.94287 64.0051 8.78338 64.3413 9.74997C64.6775 10.6745 64.8456 11.6832 64.8456 12.6918C64.8456 13.7004 64.6355 14.751 64.2572 15.7176C63.879 16.6842 63.2906 17.5247 62.5342 18.2392C61.7777 18.9536 60.8532 19.5419 59.8025 19.9622C58.7098 20.3825 57.4911 20.5926 56.1463 20.5926C55.8941 20.5926 55.5159 20.5926 54.9696 20.5926C54.4232 20.5926 53.9609 20.5506 53.5407 20.5085V28.4934H48.1194V28.4094ZM55.8521 9.87605C55.4739 9.87605 55.1377 9.87605 54.8435 9.87605C54.5493 9.87605 54.087 9.91808 53.4987 9.91808V15.2974C53.8769 15.3394 54.2972 15.3814 54.7174 15.4234C55.1377 15.4655 55.5579 15.4655 55.9362 15.4655C56.3144 15.4655 56.6506 15.4234 57.0288 15.3394C57.407 15.2553 57.7433 15.0872 58.0374 14.8771C58.3316 14.667 58.5838 14.3728 58.7939 13.9946C59.004 13.6163 59.0881 13.154 59.0881 12.5657C59.0881 11.5151 58.7939 10.8006 58.1635 10.4224C57.5331 10.0442 56.8187 9.87605 55.8521 9.87605Z" fill="white"/>
<path d="M68.0396 4.87507H68.5018C68.838 4.87507 69.3003 4.87507 69.8887 4.87507C70.477 4.87507 71.1495 4.83304 71.8639 4.83304C72.5783 4.83304 73.2507 4.83304 73.8811 4.79102C74.5535 4.79102 75.0578 4.79102 75.4361 4.79102C77.7895 4.79102 79.8067 5.12722 81.4878 5.71558C83.1688 6.34596 84.5136 7.18648 85.6063 8.23712C86.6569 9.28776 87.4554 10.5485 87.9597 11.9354C88.464 13.3642 88.7162 14.8351 88.7162 16.3901C88.7162 18.0711 88.422 19.6261 87.8757 21.0549C87.3293 22.5258 86.4468 23.7866 85.3541 24.8793C84.2194 25.9719 82.8326 26.8125 81.1516 27.4849C79.4705 28.1152 77.4953 28.4514 75.268 28.4514C74.9318 28.4514 74.5535 28.4514 74.0072 28.4514C73.5029 28.4514 72.9145 28.4514 72.3262 28.4514C71.7378 28.4514 71.1074 28.4514 70.477 28.4514C69.8467 28.4514 69.2163 28.4514 68.6699 28.4514H68.0816V4.87507H68.0396ZM75.394 9.83409C75.0999 9.83409 74.8057 9.83409 74.4275 9.83409C74.0912 9.83409 73.755 9.87612 73.4188 9.91814V23.3663C73.7971 23.4084 74.0912 23.4504 74.3854 23.4504H75.394C77.7054 23.4504 79.5966 22.862 80.9414 21.6433C82.2862 20.4246 83.0007 18.7015 83.0007 16.4741C83.0007 15.3815 82.8326 14.4569 82.4123 13.6164C81.9921 12.7759 81.4878 12.1035 80.8153 11.5151C80.1429 10.9268 79.3445 10.5485 78.4199 10.2543C77.4953 9.96017 76.4867 9.83409 75.394 9.83409Z" fill="white"/>
<path d="M93.7173 28.4094V4.875C94.0535 4.875 94.4737 4.875 95.0201 4.875C95.5664 4.875 96.1127 4.875 96.7011 4.875C97.2895 4.875 97.8778 4.875 98.4242 4.875C98.9705 4.875 99.4748 4.875 99.853 4.875C101.534 4.875 102.921 5.08513 104.056 5.50538C105.19 5.92564 106.073 6.47197 106.745 7.14438C107.418 7.81679 107.88 8.61528 108.174 9.49782C108.468 10.3804 108.594 11.2629 108.594 12.1875C108.594 13.1541 108.426 14.0786 108.09 14.9612C107.754 15.8437 107.208 16.6422 106.535 17.3146C105.863 17.987 104.938 18.5333 103.887 18.9536C102.837 19.3738 101.576 19.584 100.147 19.584C99.6849 19.584 99.0966 19.584 98.4662 19.5419C97.7938 19.4999 97.2054 19.4999 96.6171 19.4579V28.4934H93.7173V28.4094ZM100.147 7.52261C99.6849 7.52261 99.0966 7.52261 98.4242 7.52261C97.7517 7.52261 97.1214 7.56464 96.575 7.56464V16.6422C97.1634 16.6842 97.7517 16.7262 98.2981 16.7683C98.8444 16.8103 99.4328 16.8103 100.021 16.8103C101.786 16.8103 103.131 16.39 104.098 15.5495C105.064 14.709 105.569 13.5323 105.569 12.0614C105.569 10.5905 105.148 9.53985 104.266 8.69933C103.425 7.90085 102.038 7.52261 100.147 7.52261Z" fill="#999999"/>
<path d="M110.485 14.3307C111.158 13.9104 111.914 13.5742 112.797 13.3221C113.679 13.0699 114.562 12.9438 115.528 12.9438C117.672 12.9438 119.185 13.4902 120.067 14.5408C120.95 15.5915 121.37 17.1464 121.37 19.1216V28.4093H118.806V26.4761C118.344 27.0645 117.756 27.5688 116.999 27.989C116.243 28.4093 115.234 28.6614 113.973 28.6614C112.587 28.6614 111.452 28.2412 110.611 27.4427C109.771 26.6442 109.351 25.4675 109.351 23.9966C109.351 23.2401 109.477 22.5677 109.771 21.9373C110.065 21.307 110.443 20.8447 110.948 20.4244C111.452 20.0042 112.04 19.71 112.755 19.4998C113.469 19.2897 114.226 19.1636 115.024 19.1636C115.612 19.1636 116.243 19.2477 116.957 19.3738C117.672 19.4998 118.26 19.752 118.806 20.1302C118.806 19.4578 118.764 18.7854 118.68 18.1971C118.596 17.6087 118.428 17.1044 118.218 16.6841C118.008 16.2639 117.63 15.9277 117.167 15.7175C116.705 15.4654 116.117 15.3813 115.36 15.3813C114.436 15.3813 113.637 15.4654 113.007 15.7175C112.376 15.9277 111.788 16.1798 111.158 16.516L110.485 14.3307ZM114.898 26.224C115.907 26.224 116.663 26.0138 117.293 25.5936C117.924 25.1733 118.386 24.711 118.806 24.2908V22.3576C117.882 21.6852 116.747 21.349 115.402 21.349C114.982 21.349 114.604 21.391 114.226 21.5171C113.847 21.6011 113.469 21.7692 113.175 21.9794C112.881 22.1895 112.629 22.4416 112.46 22.7358C112.292 23.03 112.208 23.4082 112.208 23.8285C112.208 24.5429 112.46 25.1313 112.923 25.5515C113.343 26.0138 114.057 26.224 114.898 26.224Z" fill="#999999"/>
<path d="M124.69 13.28H127.38V15.0451C127.758 14.4567 128.262 13.9945 128.851 13.5742C129.439 13.196 130.238 12.9858 131.204 12.9858C131.835 12.9858 132.297 13.0279 132.675 13.1539C133.011 13.238 133.305 13.4061 133.558 13.5742L132.633 16.0957C132.255 15.8856 131.919 15.7175 131.666 15.6335C131.414 15.5494 131.036 15.5074 130.574 15.5074C129.691 15.5074 129.019 15.7175 128.557 16.1798C128.094 16.6 127.716 17.1044 127.422 17.6927V28.4092H124.732V13.28H124.69Z" fill="#999999"/>
<path d="M134.608 9.07764H137.298V13.2802H142.845V15.8017H137.298V22.3998C137.298 23.6185 137.508 24.5431 137.928 25.1735C138.348 25.8038 139.021 26.14 139.987 26.14C140.492 26.14 140.954 26.056 141.374 25.8879C141.795 25.7198 142.131 25.5097 142.383 25.2995L143.223 27.4008C142.803 27.737 142.299 28.0312 141.626 28.2834C140.954 28.5355 140.198 28.6616 139.357 28.6616C137.676 28.6616 136.415 28.1573 135.701 27.1066C134.986 26.098 134.608 24.5851 134.608 22.6519V9.07764Z" fill="#999999"/>
<path d="M145.619 13.28H148.309V15.1291C148.813 14.5408 149.527 14.0365 150.41 13.6162C151.292 13.196 152.259 12.9858 153.268 12.9858C155.243 12.9858 156.798 13.4901 157.89 14.5408C158.983 15.5914 159.571 17.2725 159.571 19.6679V28.4092H156.882V20.1722C156.882 18.5752 156.546 17.3985 155.789 16.6421C155.075 15.8856 154.024 15.5074 152.595 15.5074C151.755 15.5074 150.956 15.6755 150.2 16.0537C149.443 16.4319 148.813 16.8942 148.351 17.4406V28.3672H145.661V13.28H145.619Z" fill="#999999"/>
<path d="M175.709 26.7703C174.953 27.4427 174.112 27.947 173.062 28.2832C172.053 28.6194 171.044 28.7875 170.036 28.7875C168.817 28.7875 167.682 28.6194 166.674 28.2412C165.665 27.8629 164.825 27.3586 164.11 26.6442C163.396 25.9718 162.849 25.1313 162.471 24.1227C162.093 23.1561 161.883 22.0634 161.883 20.8867C161.883 19.794 162.051 18.7434 162.387 17.7768C162.723 16.8102 163.228 15.9697 163.9 15.2553C164.572 14.5408 165.371 13.9945 166.338 13.5742C167.304 13.154 168.397 12.9438 169.658 12.9438C170.624 12.9438 171.549 13.112 172.389 13.4482C173.23 13.7844 173.986 14.2466 174.617 14.877C175.247 15.4654 175.751 16.2218 176.13 17.0624C176.508 17.9029 176.676 18.8695 176.676 19.8781C176.676 20.5925 176.634 21.1809 176.508 21.6852H164.867C164.993 23.1141 165.497 24.2487 166.464 25.0472C167.43 25.8457 168.649 26.224 170.12 26.224C171.086 26.224 172.011 26.0558 172.809 25.7617C173.608 25.4675 174.28 25.0893 174.743 24.627L175.709 26.7703ZM169.573 15.4654C168.187 15.4654 167.052 15.8436 166.253 16.6001C165.413 17.3565 164.909 18.3231 164.783 19.4998H173.944C173.86 18.2391 173.44 17.2725 172.683 16.5581C171.927 15.8436 170.918 15.4654 169.573 15.4654Z" fill="#999999"/>
<path d="M179.239 13.28H181.929V15.0451C182.307 14.4567 182.811 13.9945 183.4 13.5742C183.988 13.196 184.787 12.9858 185.753 12.9858C186.384 12.9858 186.846 13.0279 187.224 13.1539C187.56 13.238 187.855 13.4061 188.107 13.5742L187.182 16.0957C186.804 15.8856 186.468 15.7175 186.216 15.6335C185.963 15.5494 185.585 15.5074 185.123 15.5074C184.24 15.5074 183.568 15.7175 183.106 16.1798C182.643 16.6 182.265 17.1044 181.971 17.6927V28.4092H179.281V13.28H179.239Z" fill="#999999"/>
<path d="M197.142 24.3328C197.142 23.8285 196.932 23.4082 196.554 23.114C196.134 22.8198 195.629 22.5677 195.041 22.3576C194.453 22.1474 193.78 21.9373 193.066 21.7272C192.351 21.517 191.721 21.2229 191.091 20.8867C190.502 20.5084 189.998 20.0461 189.578 19.4998C189.157 18.9115 188.989 18.197 188.989 17.2725C188.989 15.9276 189.452 14.877 190.418 14.1205C191.385 13.3641 192.604 12.9858 194.116 12.9858C195.377 12.9858 196.428 13.1539 197.31 13.5322C198.193 13.9104 198.865 14.3307 199.328 14.7509L198.067 16.8102C197.605 16.3899 197.058 16.0537 196.428 15.7595C195.755 15.4654 195.083 15.3393 194.285 15.3393C193.486 15.3393 192.94 15.5074 192.519 15.8856C192.099 16.2638 191.889 16.6841 191.889 17.2304C191.889 17.7347 192.099 18.197 192.477 18.4912C192.898 18.7854 193.402 19.0375 193.99 19.2897C194.579 19.4998 195.251 19.752 195.966 19.9621C196.68 20.1722 197.31 20.4664 197.941 20.8026C198.571 21.1388 199.033 21.6011 199.454 22.1474C199.874 22.6938 200.042 23.4082 200.042 24.2907C200.042 25.0892 199.874 25.8037 199.538 26.35C199.202 26.9384 198.781 27.4006 198.235 27.7789C197.689 28.1571 197.058 28.4092 196.386 28.6194C195.671 28.7875 194.957 28.8715 194.201 28.8715C193.612 28.8715 192.982 28.7875 192.393 28.6614C191.805 28.4933 191.259 28.3252 190.754 28.1151C190.25 27.9049 189.83 27.6528 189.452 27.3586C189.073 27.0644 188.821 26.8123 188.611 26.5181L190.124 24.5849C190.334 24.8371 190.628 25.0892 190.965 25.2994C191.301 25.5515 191.679 25.7196 192.057 25.9297C192.477 26.0978 192.856 26.2659 193.276 26.35C193.696 26.434 194.074 26.5181 194.453 26.5181C195.167 26.5181 195.797 26.35 196.344 26.0138C196.89 25.5515 197.142 25.0052 197.142 24.3328Z" fill="#999999"/>
</g>
</g>
<defs>
<clipPath id="clip0_6735_676">
<rect width="200" height="34.7972" fill="white"/>
</clipPath>
</defs>
</svg>
