<svg width="160" height="28" viewBox="0 0 160 28" fill="none" xmlns="http://www.w3.org/2000/svg">
<g opacity="0.65" clip-path="url(#clip0_6734_657)">
<path d="M6.89901 16.651V5.10938H0V22.5125H22.746V16.651H6.89901ZM48.0856 22.5385V17.1697H31.1752V15.9766H47.5928V11.6193H31.1752V10.4782H48.0856V5.10938H24.3022V22.5125H48.0856V22.5385ZM56.7742 22.5385V12.3456L69.5348 22.5385H77.1859V5.10938H70.2869V15.017L57.7079 5.10938H49.8752V22.5125H56.7742V22.5385ZM86.1598 22.5385V18.9593L90.2577 16.1322L97.1308 22.5125H106.234L95.4968 12.6049L105.612 5.10938H96.249L88.0791 10.8931L86.1339 12.6827V5.10938H79.2349V22.5125H86.1598V22.5385ZM131.315 22.5385V17.1697H114.404V15.9766H130.822V11.6193H114.404V10.4782H131.315V5.10938H107.505V22.5125H131.315V22.5385ZM133.104 22.5385H140.003V19.2186H151.13C155.435 19.2186 158.885 17.3253 158.885 11.775C158.885 6.5618 155.435 5.10938 151.13 5.10938H133.104V22.5385ZM150.274 10.9969C151.156 10.9969 151.752 11.1784 151.752 12.164C151.752 13.0458 151.156 13.3311 150.274 13.3311H140.003V10.9709H150.274V10.9969Z" fill="white"/>
<path d="M1.40063 20.9303C1.40063 22.6162 1.89342 23.9648 2.87899 25.0023C4.04612 26.1694 5.57635 26.6363 7.13252 26.6363C8.81837 26.6363 10.6339 26.1175 12.1123 25.4951C14.9912 24.3539 17.3254 22.694 17.4032 22.6162L16.2361 20.9303C16.2102 20.9303 13.9797 22.5124 11.3342 23.6017C10.0633 24.1205 8.53307 24.5614 7.15846 24.5614C6.09507 24.5614 5.1095 24.2761 4.38329 23.5499C3.78676 22.9274 3.47552 22.0974 3.47552 20.9822C3.47552 14.8613 12.3197 4.30526 14.5503 2.20443L13.1238 0.726074C12.2419 1.55603 9.36303 4.74617 6.66567 8.68847C3.16429 13.746 1.40063 17.818 1.40063 20.9303Z" fill="#BFC0C0"/>
<path d="M25.1321 10.7894C25.1321 12.2159 25.8842 13.357 27.2848 14.0833C27.8294 14.3686 28.4519 14.576 29.1262 14.7057C28.2185 15.9507 27.3626 17.5068 27.0773 19.2964C26.9995 19.7373 26.9735 20.1523 26.9735 20.6192C26.9735 22.7719 27.9072 24.5874 29.645 25.7805C30.9158 26.6363 32.5239 27.1032 34.2357 27.1032C36.518 27.1032 39.0857 26.3511 41.5237 24.8468C44.1173 23.2906 47.1519 19.2446 47.3075 19.063L45.6476 17.8181C45.6216 17.844 42.7427 21.7344 40.4603 23.0831C38.3595 24.354 36.129 24.9764 34.2357 24.9764C32.9129 24.9764 31.7458 24.6652 30.8121 24.0427C29.645 23.2906 29.0484 22.0457 29.0484 20.5932C29.0484 18.5183 30.1637 16.5472 31.5642 14.9651C34.4691 14.991 37.5814 14.2129 38.9042 12.9939C39.5266 12.4493 39.6563 11.8528 39.6563 11.4118C39.6563 11.1006 39.5785 10.8672 39.5266 10.6856C39.3451 10.2447 38.7745 9.25914 37.2702 9.25914C35.5843 9.25914 33.1204 10.5819 31.0196 12.553C30.9158 12.6568 30.8121 12.7605 30.7083 12.8902C30.1637 12.8124 29.5931 12.7605 29.0744 12.579C26.9995 11.9824 27.181 10.8931 27.207 10.4781C27.4404 8.79229 30.5268 4.59064 36.6218 2.56762C37.6333 2.23045 38.4892 2.07483 39.2154 2.07483C40.8494 2.07483 41.8868 2.80104 42.3277 3.631C42.5093 3.94223 42.613 4.2794 42.613 4.59064C42.613 4.92781 42.4834 5.23904 42.2759 5.42059L43.5467 7.05457C44.2729 6.45804 44.6879 5.52434 44.6879 4.5647C44.6879 3.9163 44.5064 3.24196 44.1692 2.61949C43.4171 1.193 41.7571 0.0258789 39.2154 0.0258789C38.2817 0.0258789 37.2183 0.15556 35.9993 0.570538C29.0744 2.87885 25.4952 7.57329 25.158 10.1669C25.1321 10.3744 25.1321 10.5819 25.1321 10.7894ZM34.1579 12.6568C35.2212 11.9046 36.3106 11.4118 37.0368 11.334H37.2702C37.3739 11.334 37.4777 11.334 37.5555 11.36C37.1924 11.8009 35.8437 12.3455 34.1579 12.6568Z" fill="#BFC0C0"/>
<path d="M52.8318 19.8151C52.8318 22.9275 53.2208 25.7026 53.8952 27.4144L55.7885 26.6882C55.192 25.158 54.8807 22.6422 54.8807 19.8411C54.8807 14.8873 55.8923 8.94789 58.1746 5.62806C59.2899 3.99409 60.5608 3.216 61.9872 3.216C63.2581 3.216 64.2437 3.73473 64.9699 4.79811C66.0333 6.38021 66.6298 9.18131 66.6298 12.8642C66.6298 14.1092 66.552 15.4579 66.4223 16.9103C65.9814 21.6825 64.9699 25.9101 64.6587 26.6882H64.6846L64.6068 26.8957L66.5779 27.4922C66.6039 27.4663 67.8229 23.4202 70.6499 19.1927C74.4106 13.6164 79.0532 10.3744 84.4998 9.54442L84.1886 7.46953C78.2492 8.40323 72.9323 12.0602 68.9381 18.0774L68.2897 19.1148L68.4972 17.1178C68.6269 15.5875 68.7047 14.1351 68.7047 12.8383C68.7047 8.68853 68.0563 5.60213 66.7076 3.63098C65.5664 1.99701 63.9325 1.14111 62.0132 1.14111C59.9124 1.14111 57.9671 2.2823 56.4888 4.46094C53.9211 8.11793 52.8318 14.4723 52.8318 19.8151Z" fill="#BFC0C0"/>
<path d="M80.3501 25.9363L82.3472 26.5328C82.3472 26.455 83.1512 23.8614 84.9667 20.6972L84.9408 21.5531C84.9408 23.2908 85.1742 25.0804 85.7708 26.8441L87.7419 26.1957C87.2232 24.6654 87.0157 23.1093 87.0157 21.6309C87.4047 22.3571 87.8197 23.0574 88.3384 23.6799C89.9205 25.5732 91.9695 26.6106 94.1481 26.6106C94.2778 26.6106 94.4594 26.5847 94.6409 26.5847C99.4391 26.2735 100.995 21.2159 101.073 21.0084L99.1019 20.4119C99.1019 20.4378 97.7792 24.4839 94.0962 24.4839C92.151 24.4839 90.7764 23.3427 89.9724 22.3312C88.8312 20.9566 87.8716 18.6223 87.8716 16.729V16.3918C90.6986 12.8904 94.7447 9.64842 100.269 8.81846L99.9578 6.76951C96.223 7.31416 92.7994 8.94814 89.713 11.5418L90.3355 10.4006C92.9551 5.73206 96.223 2.54192 96.8455 2.23068L95.9377 0.363281C94.9781 0.856068 93.3182 2.72347 92.7994 3.29406C91.7361 4.539 90.0761 6.63982 88.5459 9.33718C87.6382 10.9712 86.7045 12.8645 86.056 14.9653C85.9782 15.095 85.9523 15.2506 85.9264 15.3803L85.9004 15.5878C85.4855 16.1065 85.0964 16.6252 84.7333 17.1699C81.6728 21.6568 80.4279 25.7807 80.3501 25.9363Z" fill="#BFC0C0"/>
<path d="M107.998 10.7894C107.998 12.2159 108.75 13.357 110.151 14.0833C110.695 14.3686 111.318 14.576 111.992 14.7057C111.084 15.9507 110.229 17.5068 109.943 19.2964C109.865 19.7373 109.84 20.1523 109.84 20.6192C109.84 22.7719 110.773 24.5874 112.511 25.7805C113.782 26.6363 115.39 27.1032 117.102 27.1032C119.384 27.1032 121.952 26.3511 124.39 24.8468C126.983 23.2906 130.018 19.2446 130.173 19.063L128.514 17.8181C128.488 17.844 125.609 21.7344 123.326 23.0831C121.225 24.354 118.995 24.9764 117.102 24.9764C115.779 24.9764 114.612 24.6652 113.678 24.0427C112.511 23.2906 111.914 22.0457 111.914 20.5932C111.914 18.5183 113.03 16.5472 114.43 14.9651C117.335 14.991 120.447 14.2129 121.77 12.9939C122.393 12.4493 122.522 11.8528 122.522 11.4118C122.522 11.1006 122.444 10.8672 122.393 10.6856C122.211 10.2447 121.64 9.25914 120.136 9.25914C118.45 9.25914 115.986 10.5819 113.886 12.553C113.782 12.6568 113.678 12.7605 113.574 12.8902C113.03 12.8124 112.459 12.7605 111.94 12.579C109.865 11.9824 110.047 10.8931 110.073 10.4781C110.306 8.79229 113.393 4.59064 119.488 2.56762C120.499 2.23045 121.355 2.07483 122.081 2.07483C123.715 2.07483 124.753 2.80104 125.194 3.631C125.375 3.94223 125.479 4.2794 125.479 4.59064C125.479 4.92781 125.349 5.23904 125.142 5.42059L126.413 7.05457C127.139 6.45804 127.554 5.52434 127.554 4.5647C127.554 3.9163 127.372 3.24196 127.035 2.61949C126.283 1.193 124.623 0.0258789 122.081 0.0258789C121.148 0.0258789 120.084 0.15556 118.865 0.570538C111.94 2.87885 108.387 7.59923 108.024 10.1928C107.998 10.3744 107.998 10.5819 107.998 10.7894ZM117.024 12.6568C118.087 11.9046 119.177 11.4118 119.903 11.334H120.136C120.24 11.334 120.344 11.334 120.421 11.36C120.058 11.8009 118.71 12.3455 117.024 12.6568Z" fill="#BFC0C0"/>
<path d="M134.816 26.5327L136.787 27.1292C136.787 27.1033 138.369 22.0198 142.052 16.677C146.124 10.7636 151.078 6.92501 156.758 5.21322C157.666 6.2766 157.718 7.36592 157.718 7.80684C157.718 9.46675 156.758 11.1267 155.15 12.0344C151.208 14.3168 147.68 15.1727 147.654 15.1727L148.147 17.1698C148.329 17.1438 151.986 16.262 156.213 13.824C158.418 12.5531 159.818 10.193 159.818 7.80684C159.818 7.46967 159.792 7.10656 159.715 6.76939C159.585 6.01724 159.326 5.31697 158.911 4.6945L160.026 4.48701L159.715 2.43806C158.911 2.5418 158.133 2.72335 157.354 2.93084C156.084 1.91933 154.346 1.19312 152.271 0.830017C150.741 0.54472 149.262 0.415039 147.784 0.415039C143.297 0.415039 139.044 1.65997 135.257 4.02016L136.372 5.78382C139.796 3.60518 143.66 2.48993 147.758 2.48993C149.107 2.48993 150.533 2.61961 151.908 2.87897C153.075 3.08646 154.009 3.39769 154.735 3.73486C149.236 5.80975 144.334 9.82985 140.34 15.5617C136.476 21.138 134.894 26.2993 134.816 26.5327Z" fill="#BFC0C0"/>
<path d="M25.1062 15.5356L28.9188 14.6538L29.3338 14.7316C30.0859 14.8613 30.8381 14.9391 31.6162 14.9391L31.279 15.5356V22.5384H25.1062V15.5356Z" fill="white"/>
<path d="M120.759 17.9218L126.646 17.5068L128.851 17.6884H131.107L130.355 17.8959V22.5125H120.759V17.9218Z" fill="white"/>
<path d="M50.0828 15.5357L54.7253 5.10938H57.682L58.4861 5.75778L56.2556 12.1899V22.5125H50.0828V15.5357Z" fill="white"/>
<path d="M29.593 11.6191H31.5123H37.1145L34.1318 12.6566C33.0685 12.8381 32.0051 12.9159 30.9158 12.89H30.6564L29.593 11.6191Z" fill="white"/>
<path d="M39.2153 5.10938H41.1346H46.7368L44.0395 8.37733L41.9127 6.79522L40.2009 6.63961L39.2153 5.10938Z" fill="white"/>
<path d="M114.404 10.1151L112.537 7.41775L113.574 12.8384L112.537 14.0055L111.525 15.3283L107.531 17.1179V12.0863V9.41483V5.0835H109.891H117.335L113.782 6.04313L114.404 10.1151Z" fill="white"/>
<path d="M113.834 19.5297L117.05 21.7342L115.442 22.5123L112.226 22.0973V18.8553L113.574 16.3655L114.378 14.9908L114.69 14.6537C115.39 13.9015 116.168 13.2272 117.05 12.6307L119.151 11.6191H122.73L125.012 12.6047L120.032 15.2502L114.404 15.4836L113.834 19.5297Z" fill="white"/>
<path d="M140.937 5.0835H151.234L151.804 5.13537C152.919 5.23911 154.061 5.42067 155.15 5.7319L155.124 8.45519L147.11 10.971H144.698H141.093L140.937 10.0373V5.0835Z" fill="white"/>
<path d="M83.0734 12.0603L86.1339 7.00277V12.2159L91.6064 8.37738L96.3268 5.0835H102.707L100.243 9.07766L94.7187 12.4753L91.5027 16.9104L90.2837 16.0545L86.1339 18.9593V22.5126H79.6758L81.621 14.8095L83.0734 12.0603Z" fill="white"/>
</g>
<defs>
<clipPath id="clip0_6734_657">
<rect width="160" height="27.4923" fill="white"/>
</clipPath>
</defs>
</svg>
