<svg width="180" height="40" viewBox="0 0 180 40" fill="none" xmlns="http://www.w3.org/2000/svg">
<g clip-path="url(#clip0_6667_151)">
<path d="M10.4008 37.5376H9.74024C6.7822 37.5376 4.71231 35.4751 4.71231 32.5097V21.9547C1.92309 21.8153 0 19.7967 0 16.9415V16.7359C0 13.7779 2.06255 11.708 5.02793 11.708H15.0985C18.0565 11.708 20.1264 13.7706 20.1264 16.7359V16.9415C20.1264 19.7894 18.2107 21.8079 15.4361 21.9547V32.5097C15.4288 35.4677 13.3589 37.5376 10.4008 37.5376Z" fill="black"/>
<path d="M31.2171 37.5376H30.4244C28.9784 37.5376 26.9526 37.0312 25.5433 34.6383C25.5359 34.631 25.5359 34.6236 25.5286 34.6163L25.3451 34.3007C24.6845 36.2751 22.9155 37.5376 20.5961 37.5376H19.8988C16.9407 37.5376 14.8708 35.4751 14.8708 32.5097V16.7359C14.8708 13.7779 16.9334 11.708 19.8988 11.708H24.6772C28.5967 11.708 31.3346 12.442 33.2944 14.0275C35.3422 15.679 36.3845 18.1819 36.3845 21.4556C36.3845 24.2448 35.4964 26.5643 33.8302 28.2598L35.1881 30.4765C36.5387 32.6785 36.157 34.3374 35.5918 35.343C35.0413 36.3412 33.8229 37.5376 31.2171 37.5376Z" fill="black"/>
<path d="M50.2207 37.5376H49.4794C47.1599 37.5376 45.3543 36.3192 44.4881 34.1759H40.686C39.8346 36.2825 37.9849 37.5376 35.6874 37.5376H34.9754C33.2579 37.5376 31.7752 36.811 30.9091 35.5411C30.0503 34.2713 29.9182 32.6345 30.5494 31.0417L36.8618 15.1652C37.7353 12.9705 39.585 11.708 41.9338 11.708H43.1963C45.5451 11.708 47.3875 12.9632 48.2683 15.1578L54.6101 31.0344C55.2487 32.6271 55.1165 34.2713 54.2578 35.5411C53.399 36.811 51.9236 37.5376 50.2207 37.5376Z" fill="black"/>
<path d="M55.1016 37.5376H54.441C51.483 37.5376 49.4131 35.4751 49.4131 32.5097V16.7359C49.4131 13.7779 51.483 11.708 54.441 11.708H62.8747C65.8328 11.708 67.9027 13.7706 67.9027 16.7359V16.9048C67.9027 18.8279 67.0292 20.3766 65.6052 21.2207C66.7283 22.1015 67.4182 23.4814 67.4182 25.1109V25.1403C67.4182 28.0176 65.3043 30.1095 62.3903 30.1095H60.1296V32.5097C60.1296 35.4677 58.0597 37.5376 55.1016 37.5376Z" fill="black"/>
<path d="M68.4019 37.5376H67.7413C64.7833 37.5376 62.7134 35.4751 62.7134 32.5097V16.7359C62.7134 13.7779 64.7833 11.708 67.7413 11.708H76.175C79.1331 11.708 81.203 13.7706 81.203 16.7359V16.9048C81.203 18.8279 80.3295 20.3766 78.9055 21.2207C80.0286 22.1015 80.7185 23.4814 80.7185 25.1109V25.1403C80.7185 28.0176 78.6046 30.1095 75.6906 30.1095H73.4298V32.5097C73.4298 35.4677 71.36 37.5376 68.4019 37.5376Z" fill="black"/>
<path d="M81.7093 37.5376H81.0414C78.0833 37.5376 76.0134 35.4677 76.0134 32.5097V16.7359C76.0134 13.7779 78.0833 11.708 81.0414 11.708H81.9956C84.0728 11.708 85.7096 12.6035 86.8547 14.3724L88.4548 16.8093V16.7359C88.4548 13.7779 90.5247 11.708 93.4827 11.708H94.1433C97.1014 11.708 99.1713 13.7706 99.1713 16.7359V32.517C99.1713 35.4751 97.1014 37.545 94.1433 37.545H93.2258C91.8092 37.545 89.8201 37.0826 88.3741 34.8952L86.7372 32.3996V32.517C86.7372 35.4677 84.6673 37.5376 81.7093 37.5376Z" fill="black"/>
<path d="M109.455 37.5376H100.221C97.263 37.5376 95.1931 35.4751 95.1931 32.5097V16.7359C95.1931 13.7779 97.263 11.708 100.221 11.708H109.455C112.413 11.708 114.483 13.7706 114.483 16.7359V16.9415C114.483 18.6884 113.763 20.127 112.56 21.0078C113.462 21.874 113.998 23.1071 113.998 24.5311V24.5604C113.998 26.0651 113.433 27.3276 112.464 28.1938C113.719 29.0672 114.475 30.5352 114.475 32.3262V32.5244C114.475 35.4677 112.413 37.5376 109.455 37.5376Z" fill="black"/>
<path d="M119.672 37.5381H118.85C116.413 37.5381 114.505 36.1581 113.741 33.846L108.523 18.0062C107.994 16.4061 108.192 14.85 109.081 13.6315C109.969 12.4058 111.393 11.7305 113.081 11.7305H113.947C116.421 11.7305 118.329 13.1544 119.041 15.5473L119.386 16.707L119.694 15.6207C120.377 13.1838 122.285 11.7305 124.81 11.7305H125.089C127.57 11.7305 129.523 13.2205 130.205 15.628L130.528 16.7731L130.903 15.54C131.622 13.1544 133.523 11.7305 135.997 11.7305H136.87C138.573 11.7305 139.997 12.4058 140.885 13.6315C141.766 14.8573 141.964 16.4134 141.435 18.0135L136.195 33.846C135.431 36.1581 133.523 37.5381 131.086 37.5381H130.257C127.739 37.5381 125.831 36.0847 125.141 33.6405L124.964 33.0166L124.788 33.6405C124.106 36.0774 122.19 37.5381 119.672 37.5381Z" fill="black"/>
<path d="M146.273 37.7652C141.913 37.7652 137.853 35.7467 135.945 32.6272C134.837 30.8215 135.138 29.2728 135.417 28.5168C135.659 27.8561 136.268 26.7478 137.751 26.0065C136.363 24.5091 135.644 22.5787 135.644 20.3253C135.644 15.1946 139.923 11.4658 145.825 11.4658C150.06 11.4658 153.803 13.2641 155.594 16.1635C156.82 18.1526 156.453 19.7748 156.123 20.5675C155.895 21.118 155.389 21.9768 154.339 22.6227C156.057 24.1494 156.96 26.2413 156.96 28.759C156.96 31.4675 155.771 33.8676 153.613 35.5192C151.704 36.9945 149.164 37.7652 146.273 37.7652Z" fill="black"/>
<path d="M7.96402 32.51V18.7181H5.028C3.88295 18.7181 3.25171 18.0868 3.25171 16.9418V16.7363C3.25171 15.5912 3.88295 14.96 5.028 14.96H15.0985C16.2436 14.96 16.8748 15.5912 16.8748 16.7363V16.9418C16.8748 18.0868 16.2436 18.7181 15.0985 18.7181H12.1845V32.51C12.1845 33.6551 11.5533 34.2863 10.4083 34.2863H9.74765C8.6026 34.2936 7.96402 33.6624 7.96402 32.51Z" fill="#A6A6A6"/>
<path d="M32.4357 32.165C33.2798 33.5376 32.9054 34.2863 31.2172 34.2863H30.4245C29.4262 34.2863 28.839 33.8312 28.3399 32.9871L25.514 28.0913C25.2204 28.106 24.9194 28.1133 24.6038 28.1133H22.3724V32.5027C22.3724 33.6477 21.7412 34.279 20.5962 34.279H19.8989C18.7538 34.279 18.1226 33.6477 18.1226 32.5027V16.7363C18.1226 15.5912 18.7538 14.96 19.8989 14.96H24.6772C30.9456 14.96 33.133 17.0519 33.133 21.4559C33.133 24.2451 31.9879 26.2857 29.4483 27.3279L32.4357 32.165ZM28.8978 21.7348C28.8978 19.3346 27.5619 18.5125 24.5818 18.5125H22.3504V24.9351H24.5818C27.5619 24.9351 28.8978 24.1497 28.8978 21.7348Z" fill="#A6A6A6"/>
<path d="M50.2206 34.2931H49.4793C48.459 34.2931 47.8058 33.816 47.4534 32.8472L46.7561 30.9387H38.4032L37.7205 32.8545C37.3755 33.8234 36.7076 34.3005 35.6873 34.3005H34.9753C33.6688 34.3005 33.089 33.4637 33.5734 32.2526L39.8858 16.3761C40.2675 15.4145 40.9281 14.9668 41.9411 14.9668H43.2035C44.2165 14.9668 44.8771 15.4145 45.2588 16.3761L51.6006 32.2453C52.0777 33.449 51.5051 34.2931 50.2206 34.2931ZM42.565 19.5543L39.5409 27.8192H45.6111L42.565 19.5543Z" fill="#A6A6A6"/>
<path d="M52.6648 32.51V16.7363C52.6648 15.5912 53.296 14.96 54.4411 14.96H62.8748C64.0198 14.96 64.6511 15.5912 64.6511 16.7363V16.9051C64.6511 18.0501 64.0198 18.6814 62.8748 18.6814H56.878V23.4157H62.383C63.5281 23.4157 64.1593 24.0396 64.1593 25.1112V25.1406C64.1593 26.2416 63.5281 26.8655 62.383 26.8655H56.878V32.5174C56.878 33.6624 56.2467 34.2936 55.1017 34.2936H54.4411C53.296 34.2863 52.6648 33.6551 52.6648 32.51Z" fill="#A6A6A6"/>
<path d="M65.9651 32.51V16.7363C65.9651 15.5912 66.5963 14.96 67.7414 14.96H76.1751C77.3201 14.96 77.9514 15.5912 77.9514 16.7363V16.9051C77.9514 18.0501 77.3201 18.6814 76.1751 18.6814H70.1783V23.4157H75.6833C76.8284 23.4157 77.4596 24.0396 77.4596 25.1112V25.1406C77.4596 26.2416 76.8284 26.8655 75.6833 26.8655H70.1783V32.5174C70.1783 33.6624 69.547 34.2936 68.402 34.2936H67.7414C66.5963 34.2863 65.9651 33.6551 65.9651 32.51Z" fill="#A6A6A6"/>
<path d="M81.0414 34.2936C79.8964 34.2936 79.2651 33.6624 79.2651 32.5174V16.7363C79.2651 15.5912 79.8964 14.96 81.0414 14.96H81.9956C82.9645 14.96 83.5958 15.3049 84.1389 16.149L91.7065 27.6656V16.7363C91.7065 15.5912 92.3378 14.96 93.4828 14.96H94.1434C95.2885 14.96 95.9197 15.5912 95.9197 16.7363V32.5174C95.9197 33.6624 95.2885 34.2936 94.1434 34.2936H93.2259C92.257 34.2936 91.6038 33.8899 91.0826 33.1046L83.493 21.5366V32.5174C83.493 33.6624 82.8618 34.2936 81.7167 34.2936H81.0414Z" fill="#A6A6A6"/>
<path d="M98.4375 32.51V16.7363C98.4375 15.5912 99.0687 14.96 100.214 14.96H109.448C110.593 14.96 111.224 15.5912 111.224 16.7363V16.9418C111.224 18.0868 110.593 18.7181 109.448 18.7181H102.651V22.8872H108.97C110.116 22.8872 110.747 23.4744 110.747 24.524V24.5534C110.747 25.6104 110.116 26.1829 108.97 26.1829H102.651V30.5355H109.448C110.593 30.5355 111.224 31.1668 111.224 32.3118V32.51C111.224 33.6551 110.593 34.2863 109.448 34.2863H100.214C99.0687 34.2863 98.4375 33.6551 98.4375 32.51Z" fill="#A6A6A6"/>
<path d="M118.85 34.2936C117.815 34.2936 117.147 33.8018 116.824 32.8329L111.606 16.9931C111.202 15.7747 111.804 14.9746 113.081 14.9746H113.947C114.997 14.9746 115.635 15.4664 115.936 16.472L119.496 28.3702L122.821 16.494C123.107 15.4737 123.761 14.9746 124.81 14.9746H125.089C126.139 14.9746 126.792 15.4958 127.078 16.5013L130.418 28.3702L134.007 16.472C134.316 15.4664 134.94 14.9746 135.989 14.9746H136.863C138.14 14.9746 138.749 15.7673 138.338 16.9931L133.097 32.8256C132.767 33.8165 132.099 34.2936 131.071 34.2936H130.242C129.192 34.2936 128.539 33.7798 128.253 32.7669L124.942 20.9861L121.654 32.7669C121.368 33.8018 120.715 34.2936 119.665 34.2936H118.85Z" fill="#A6A6A6"/>
<path d="M138.712 30.9315C138.081 29.8965 138.433 29.1332 139.615 28.7441L139.975 28.6267C140.914 28.3184 141.443 28.6194 142.206 29.4268C143.263 30.5424 144.628 31.181 146.243 31.181C148.284 31.181 149.502 30.3222 149.502 28.8836C149.502 25.1255 138.896 27.5844 138.896 20.3251C138.896 16.978 141.744 14.71 145.832 14.71C148.878 14.71 151.645 15.9211 152.842 17.8662C153.546 19.0039 153.231 19.8113 151.998 20.1049L151.55 20.2077C150.39 20.4866 149.957 20.0021 149.157 19.2975C148.24 18.4901 147.307 18.0717 146.016 18.0717C144.166 18.0717 143.021 18.8938 143.021 20.2223C143.021 24.3181 153.73 21.4701 153.73 28.7515C153.73 32.2307 150.676 34.5061 146.28 34.5061C142.984 34.5208 140.026 33.0748 138.712 30.9315Z" fill="#A6A6A6"/>
<path d="M170.465 27.6063C170.788 28.1201 171.185 28.7073 171.809 29.0816C171.809 29.0816 171.816 29.0816 171.816 29.089C171.992 29.1917 172.176 29.2358 172.344 29.2505C172.748 29.2872 173.13 29.1404 173.365 29.0449C173.372 29.0449 173.379 29.0376 173.387 29.0376C174.165 28.6926 174.847 28.0834 175.427 27.2099C175.537 27.1512 175.618 27.0484 175.655 26.9237C176.396 26.7989 177.064 26.4833 177.563 26.0135C177.644 26.0208 177.747 26.0208 177.849 25.9915C178.282 25.8887 178.745 25.7493 179.288 25.5437C179.494 25.4703 179.64 25.3382 179.736 25.2354C179.765 25.2134 179.787 25.1914 179.809 25.162C179.978 24.9492 180.037 24.6482 179.963 24.384C179.897 24.1491 179.736 23.9583 179.516 23.8629C179.501 23.8555 179.486 23.8482 179.472 23.8482C179.061 23.7234 178.649 23.7968 178.341 23.8849C178.334 23.8335 178.319 23.7748 178.304 23.7234C178.297 23.5252 178.172 23.3491 177.974 23.283C177.96 23.2757 177.923 23.261 177.893 23.2463C177.857 23.2316 177.805 23.2023 177.747 23.1802C177.805 22.7912 177.629 22.3875 177.262 22.16C176.91 21.8957 176.514 22.0058 176.293 22.0719C176.279 22.0792 176.257 22.0792 176.242 22.0866C176.044 22.1379 175.904 22.3068 175.89 22.5123C175.89 22.5196 175.89 22.5196 175.89 22.527C175.86 22.5196 175.838 22.5123 175.809 22.5123C175.787 22.3435 175.75 22.1746 175.706 21.9911C175.691 21.9398 175.669 21.8884 175.64 21.8443C175.515 21.6021 175.346 21.4186 175.192 21.2571L175.163 21.2278C175.112 21.1764 175.053 21.1324 174.979 21.1103C174.781 21.0002 174.554 20.9342 174.334 20.9268C174.003 20.9195 173.71 21.0443 173.511 21.2792C173.489 21.3085 173.467 21.3379 173.453 21.3672C173.335 21.6021 173.328 21.859 173.445 22.0866C173.526 22.2407 173.636 22.3581 173.732 22.4462C173.761 22.4829 173.812 22.527 173.834 22.5563C173.842 22.5783 173.842 22.593 173.849 22.6151C173.93 22.894 174.003 23.1582 173.915 23.3344C173.908 23.3417 173.908 23.3564 173.9 23.3711C173.886 23.4078 173.871 23.4445 173.856 23.4738C173.754 23.7454 173.622 24.0831 173.607 24.4427C173.585 24.4574 173.563 24.4794 173.541 24.5014C173.291 24.7583 173.049 25.0299 172.821 25.3015C172.763 25.1474 172.689 25.0006 172.623 24.8611C172.579 24.7583 172.528 24.6703 172.491 24.5748C172.491 24.5675 172.484 24.5602 172.484 24.5602C172.454 24.4941 172.418 24.428 172.388 24.3546C172.278 24.1051 172.161 23.8555 171.977 23.6133C171.919 23.5399 171.845 23.4812 171.757 23.4518C171.977 22.7398 172.19 22.0205 172.388 21.3012C172.447 21.2425 172.491 21.1617 172.506 21.0736C172.557 20.8461 172.572 20.6259 172.594 20.4204C172.601 20.3837 172.594 20.3396 172.587 20.3029C172.601 20.3029 172.616 20.3029 172.631 20.2956C173.181 20.2222 173.651 19.9066 173.886 19.4441C173.9 19.4074 173.915 19.3781 173.922 19.3414C174.04 18.8569 174.018 18.3064 173.849 17.7486C173.739 17.3596 173.673 16.8164 173.93 16.42C173.93 16.4127 173.937 16.4127 173.937 16.4127C174.216 15.965 174.796 15.7594 175.354 15.5613L175.413 15.5392C175.765 15.4218 176.088 15.2016 176.337 14.9227C176.594 14.6144 176.748 14.2547 176.778 13.8804C176.829 13.5207 176.778 13.1464 176.624 12.7794C176.492 12.4638 176.279 12.1628 176.014 11.9059C175.669 11.5683 175.134 11.4288 174.568 11.5316C174.671 11.304 174.752 11.0545 174.818 10.7902C174.825 10.7682 174.825 10.7389 174.833 10.7168C174.921 9.72593 174.745 8.7864 174.532 7.74411C174.532 7.73677 174.524 7.72943 174.524 7.72209C173.989 5.6522 172.631 3.68507 170.693 2.1877C169.526 1.27753 168.124 0.616926 166.641 0.279283C165.158 -0.0583588 163.617 -0.0730389 162.186 0.249923C161.672 0.315984 161.21 0.484805 160.762 0.653626C160.578 0.719686 160.387 0.793087 160.204 0.851807C159.859 0.954568 159.565 1.13073 159.308 1.29221C159.184 1.36561 159.074 1.43901 158.956 1.49773C158.956 1.49773 158.956 1.49773 158.949 1.49773C157.716 2.16568 156.813 3.22264 155.947 4.24291L155.925 4.26493C155.917 4.27961 155.903 4.29429 155.895 4.30163C155.477 4.91085 155.007 5.6522 154.706 6.4963C154.222 7.76613 153.914 8.99192 153.803 10.1443C153.803 10.1516 153.803 10.1663 153.803 10.1737C153.796 10.3498 153.789 10.5407 153.774 10.7242C153.737 11.3774 153.701 12.0601 153.855 12.75C153.906 12.9996 153.994 13.2345 154.119 13.4693C154.002 13.462 153.869 13.4767 153.73 13.5281C153.686 13.5428 153.649 13.5648 153.62 13.5868C153.253 13.8584 152.952 14.2327 152.768 14.6731C152.578 15.1135 152.512 15.5906 152.578 16.0457V16.053L152.585 16.1118C152.644 16.5155 152.732 17.066 153.209 17.4036C153.899 17.9321 154.772 17.9101 155.477 17.8881H155.55H155.558C155.763 17.8807 155.976 18.0422 156.035 18.2624C156.064 18.3945 156.086 18.5413 156.116 18.6881C156.182 19.0845 156.255 19.5322 156.519 19.9359C156.541 19.9726 156.563 20.002 156.6 20.024C156.828 20.2295 157.136 20.3543 157.473 20.391C157.459 20.5085 157.481 20.6332 157.554 20.7287C157.767 21.0443 157.965 21.3966 158.156 21.7416C158.031 21.7783 157.929 21.8664 157.87 21.9838C157.657 22.4169 157.466 22.8646 157.283 23.2903L157.231 23.4078C157.231 23.4151 157.224 23.4225 157.224 23.4298C157.18 23.5546 157.128 23.6867 157.077 23.8115C156.85 24.406 156.607 25.0226 156.512 25.6905C156.49 25.7346 156.475 25.786 156.468 25.8373C156.461 25.874 156.461 25.9034 156.453 25.9401C156.394 26.4025 156.328 26.9237 156.483 27.4375C156.497 27.4888 156.527 27.5402 156.556 27.5843C157.18 28.4137 157.862 28.8688 158.574 28.9275C158.618 28.9275 158.663 28.9348 158.714 28.9348C158.765 28.9348 158.809 28.9275 158.853 28.9128C159.8 28.6339 160.512 27.9219 161.077 27.342C161.077 27.342 161.077 27.342 161.085 27.3347C161.121 27.298 161.158 27.254 161.195 27.2173C161.239 27.2907 161.276 27.3494 161.32 27.4081C161.327 27.4154 166.12 39.4164 167.471 39.2696C168.821 39.1228 169.819 30.7919 170.465 27.6063Z" fill="#262626"/>
<path d="M162.068 27.8413C162.391 29.0964 166.392 37.8458 167.28 38.5578C168.337 38.5945 170.018 27.3936 170.018 27.3936C170.018 27.3936 168.043 27.6211 166.318 27.7312C164.593 27.8413 163.118 28.0542 162.068 27.8413Z" fill="#808080"/>
<path d="M162.076 18.5703C162.369 18.1739 162.744 17.7555 163.257 17.6821C163.646 17.616 163.999 17.8803 164.212 18.1739C164.219 18.3794 164.234 18.5849 164.182 18.7905C164.102 19.04 163.911 19.2382 163.735 19.429C163.764 19.4584 163.823 19.5098 163.852 19.5318C163.793 19.5465 163.683 19.5685 163.632 19.5758C163.602 19.5832 163.551 19.5905 163.522 19.5979C163.096 19.796 162.714 20.0823 162.252 20.2071C161.709 20.3539 161.136 20.464 160.571 20.4273C160.321 20.4199 160.138 20.2438 160.021 20.0383C160.116 19.9282 160.219 19.8181 160.329 19.708C160.637 19.5465 160.989 19.5098 161.305 19.3777C161.65 19.2088 161.848 18.8639 162.076 18.5703ZM163.001 18.0051C162.854 18.1005 162.714 18.1959 162.575 18.2913C162.399 18.4748 162.193 18.6583 162.112 18.9079C162.215 18.8272 162.289 18.7171 162.369 18.6216C162.575 18.3794 162.817 18.1666 163.118 18.0565C163.228 18.0491 163.353 18.0638 163.441 17.9684C163.294 17.9684 163.147 17.9757 163.001 18.0051ZM161.936 18.9593C161.878 19.0767 161.914 19.1208 162.039 19.0987C162.098 18.974 162.068 18.9299 161.936 18.9593ZM160.365 19.9135C160.285 20.0016 160.314 20.1777 160.432 20.2218C160.593 20.2144 160.505 19.8768 160.365 19.9135Z" fill="#262626"/>
<path d="M166.986 20.9416C167.346 20.3911 167.933 19.98 168.594 19.9213C169.225 19.9066 169.864 20.2736 170.113 20.8609C170.172 20.9783 170.172 21.1545 170.047 21.2279C169.739 21.2499 169.665 20.8682 169.453 20.714C169.181 20.5159 168.836 20.3911 168.491 20.4498C167.962 20.5746 167.566 21.037 167.419 21.5508C167.39 21.7417 167.228 22.0279 166.994 21.8885C166.737 21.6316 166.994 21.2499 166.986 20.9416Z" fill="#262626"/>
<path d="M161.063 21.5357C161.664 20.5815 163.206 20.4274 163.955 21.2861C164.175 21.4696 164.402 21.866 164.035 22.0201C163.8 21.8146 163.617 21.5504 163.338 21.3962C162.736 21.0659 161.965 21.2715 161.518 21.7559C161.532 21.7779 161.569 21.822 161.584 21.8366C161.613 21.8733 161.679 21.9541 161.709 21.9981C161.672 22.0568 161.598 22.1669 161.562 22.2257C161.305 22.1082 161.033 22.0275 160.776 21.9247C160.74 21.8366 160.703 21.7412 160.674 21.6458C160.813 21.6018 160.938 21.5651 161.063 21.5357Z" fill="#262626"/>
<path d="M162.259 0.903313C165.048 0.272068 168.094 0.984053 170.348 2.73832C172.051 4.05953 173.438 5.87987 173.989 7.98646C174.179 8.91131 174.363 9.86551 174.275 10.8124C174.121 11.3922 173.878 11.9648 173.453 12.3978C173.093 12.7061 172.741 13.0438 172.3 13.2493C172.161 13.3374 171.955 13.3814 171.911 13.5649C172.462 13.4181 173.005 13.2273 173.489 12.919C173.856 12.6914 174.143 12.3464 174.532 12.1483C174.891 12.0675 175.317 12.1116 175.596 12.3758C176.007 12.7795 176.308 13.3594 176.213 13.9466C176.176 14.5338 175.721 15.0256 175.178 15.2017C174.546 15.4293 173.827 15.6568 173.46 16.266C173.13 16.7725 173.166 17.4184 173.321 17.9836C173.445 18.4167 173.504 18.8791 173.387 19.3195C173.049 19.9801 172.036 20.1416 171.53 19.5837C171.155 19.2314 171.185 18.6956 171.038 18.2405C170.95 17.8148 170.722 17.4184 170.392 17.1468C169.651 16.7064 168.689 16.7064 167.911 17.0588C167.654 16.6477 167.17 16.266 166.656 16.4275C166.311 16.5156 166.171 16.8753 166.083 17.1835C165.959 17.5432 165.87 17.9396 166.039 18.2992C165.658 18.6736 165.371 19.136 164.946 19.459C164.667 19.6718 164.292 19.6718 163.977 19.5544C164.204 19.2901 164.505 19.0112 164.483 18.6295C164.505 18.3946 164.351 18.2111 164.219 18.0497L164.226 18.1598C164.006 17.8588 163.661 17.6019 163.272 17.668C162.758 17.7487 162.384 18.1598 162.09 18.5561C162.046 18.5488 161.973 18.5194 161.929 18.5121C161.033 17.8074 159.668 18.1524 159.03 19.0332C158.736 19.3856 158.479 19.8553 157.995 19.9581C157.642 20.0315 157.231 19.9948 156.952 19.7452C156.659 19.2975 156.666 18.7323 156.541 18.2258C156.431 17.8001 156.027 17.4771 155.58 17.4918C154.897 17.5065 154.126 17.5505 153.554 17.1101C153.224 16.8753 153.172 16.4495 153.121 16.0825C153.018 15.3265 153.356 14.5338 153.972 14.086C154.288 13.9613 154.567 14.2328 154.824 14.3796C155.418 14.7687 156.086 15.0109 156.761 15.2091C156.519 14.9375 156.174 14.8127 155.881 14.6072C155.205 14.1815 154.567 13.5722 154.398 12.7575C154.214 11.9574 154.332 11.128 154.354 10.3133C154.471 9.10949 154.802 7.93508 155.227 6.80471C155.499 6.05603 155.91 5.3734 156.35 4.72748C157.195 3.73657 158.061 2.70896 159.22 2.08506C159.609 1.87954 159.954 1.60062 160.38 1.4685C160.997 1.27031 161.599 0.984053 162.259 0.903313ZM171.75 6.18081C171.948 6.91481 172.234 7.61946 172.403 8.36814C172.777 9.72605 172.719 11.2161 172.117 12.4932C172.836 12.2584 173.423 11.6638 173.636 10.9372C173.878 10.1298 173.849 9.24895 173.651 8.4342C173.423 7.67818 173.056 6.97353 172.645 6.30559C172.41 5.90923 172.065 5.60094 171.757 5.2633C171.676 5.5569 171.662 5.87987 171.75 6.18081ZM175.427 14.1741C175.266 14.4457 175.009 14.6512 174.862 14.9375C175.317 14.9375 175.721 14.5998 175.882 14.1888C176.022 13.7484 175.86 13.2933 175.633 12.919C175.464 13.3227 175.611 13.7778 175.427 14.1741ZM162.7 15.1136C161.621 15.3412 160.512 15.3265 159.419 15.4513C158.985 15.4072 158.538 15.3926 158.105 15.3338L158.178 15.4586C158.868 15.6788 159.602 15.7449 160.321 15.7449C161.819 15.833 163.309 15.532 164.725 15.0696C165.782 14.7026 166.854 14.3576 167.94 14.1007C168.234 14.0347 168.542 14.0053 168.821 13.8658C168.351 13.7631 167.86 13.7557 167.382 13.7704C165.768 14.0347 164.3 14.82 162.7 15.1136ZM172.748 18.769C172.491 19.0993 172.087 19.2314 171.691 19.2828C171.926 19.547 172.3 19.6792 172.653 19.6204C172.983 19.5911 173.21 19.2681 173.269 18.9598C173.328 18.5341 173.262 18.101 173.122 17.6973C173.02 18.0643 173.034 18.4827 172.748 18.769ZM159.11 18.1965C158.64 18.424 158.347 18.8791 157.914 19.158C157.686 19.3122 157.4 19.3048 157.136 19.3415C157.371 19.6571 157.796 19.7526 158.156 19.6425C158.545 19.459 158.692 19.0186 158.993 18.7323C159.323 18.4167 159.719 18.1304 160.182 18.0497C160.321 18.013 160.49 18.0203 160.564 17.8808C160.057 17.8441 159.558 17.9689 159.11 18.1965Z" fill="#A6A6A6"/>
<path d="M166.303 17.169C166.333 17.1616 166.384 17.1543 166.414 17.1543C166.436 17.2791 166.472 17.3965 166.494 17.5213C166.546 17.6167 166.597 17.7121 166.641 17.8149C166.803 18.0204 167.037 18.1452 167.199 18.3434C167.199 18.3581 167.192 18.3948 167.184 18.4094C167.148 18.3874 167.074 18.3507 167.045 18.336C166.81 18.248 166.722 17.9911 166.56 17.8149C166.458 17.6094 166.377 17.3892 166.303 17.169Z" fill="#A6A6A6"/>
<path d="M163 18.0055C163.147 17.9834 163.294 17.9688 163.441 17.9688C163.36 18.0642 163.228 18.0422 163.118 18.0568C162.817 18.1669 162.575 18.3798 162.369 18.622C162.296 18.7248 162.215 18.8275 162.112 18.9083C162.193 18.6587 162.399 18.4752 162.575 18.2917C162.714 18.1963 162.861 18.0935 163 18.0055Z" fill="#A6A6A6"/>
<path d="M177.732 23.8779C177.893 24.1569 177.732 24.4798 177.49 24.6413C177.578 24.3917 177.666 24.1422 177.732 23.8779Z" fill="white"/>
<path d="M171.75 6.1802C171.662 5.87926 171.676 5.56364 171.757 5.2627C172.065 5.60034 172.418 5.90128 172.645 6.30498C173.056 6.97293 173.423 7.67757 173.651 8.4336C173.849 9.24834 173.871 10.1291 173.636 10.9366C173.423 11.6632 172.836 12.2578 172.117 12.4926C172.719 11.2155 172.777 9.7181 172.403 8.36754C172.234 7.61885 171.948 6.90687 171.75 6.1802Z" fill="#717171"/>
<path d="M175.427 14.1741C175.611 13.7777 175.464 13.3153 175.633 12.9189C175.853 13.3006 176.022 13.7557 175.882 14.1888C175.721 14.5998 175.317 14.9301 174.862 14.9375C175.009 14.6512 175.266 14.4457 175.427 14.1741Z" fill="#717171"/>
<path d="M172.748 18.7689C173.034 18.4827 173.02 18.0643 173.115 17.6973C173.255 18.101 173.321 18.534 173.262 18.9598C173.203 19.268 172.976 19.591 172.645 19.6204C172.293 19.6791 171.919 19.547 171.684 19.2827C172.088 19.224 172.499 19.0992 172.748 18.7689Z" fill="#717171"/>
<path d="M166.039 18.3061C165.87 17.9465 165.958 17.5501 166.083 17.1904C166.105 17.4767 166.171 17.7703 166.318 18.0199L166.281 18.0566C166.201 18.1446 166.12 18.2254 166.039 18.3061Z" fill="#717171"/>
<path d="M164.204 18.0566C164.336 18.2255 164.498 18.409 164.468 18.6365C164.49 19.0182 164.189 19.2898 163.962 19.5614C163.933 19.554 163.881 19.532 163.852 19.5247C163.822 19.4953 163.764 19.4439 163.734 19.4219C163.911 19.231 164.101 19.0402 164.182 18.7833C164.234 18.5851 164.219 18.3723 164.211 18.1667L164.204 18.0566Z" fill="#717171"/>
<path d="M159.11 18.196C159.558 17.9684 160.064 17.8437 160.564 17.8804C160.49 18.0198 160.314 18.0125 160.182 18.0492C159.719 18.1299 159.33 18.4162 158.993 18.7318C158.692 19.0181 158.545 19.4585 158.156 19.642C157.796 19.7521 157.363 19.6567 157.136 19.341C157.4 19.3043 157.686 19.3117 157.914 19.1575C158.347 18.8786 158.64 18.4235 159.11 18.196Z" fill="#717171"/>
<path d="M162.699 15.1131C164.3 14.8269 165.768 14.0341 167.382 13.7772C167.867 13.7626 168.351 13.7699 168.821 13.8727C168.549 14.0121 168.234 14.0415 167.94 14.1075C166.847 14.3644 165.782 14.7021 164.725 15.0764C163.309 15.5388 161.811 15.8398 160.321 15.7517C160.013 15.671 159.712 15.5755 159.418 15.4508C160.505 15.326 161.613 15.348 162.699 15.1131Z" fill="#262626"/>
<path d="M158.105 15.334C158.538 15.3927 158.986 15.4 159.419 15.4514C159.712 15.5689 160.013 15.6716 160.321 15.7524C159.602 15.7524 158.868 15.6863 158.178 15.4661L158.105 15.334Z" fill="#262626"/>
<path d="M167.28 24.8389C167.346 24.9123 167.382 24.949 167.449 25.0224C167.302 25.2279 166.773 26.1307 166.032 26.9895C164.828 28.3988 163.213 29.9769 162.876 30.2191C162.773 30.1457 162.773 29.9622 162.67 29.8962C163.037 29.6539 164.63 28.1272 165.848 26.7399C166.553 25.9399 167.104 25.0224 167.28 24.8389Z" fill="#5E5E5E"/>
<path d="M168.073 17.2935C168.601 17.1614 169.181 17.088 169.702 17.3155C170.054 17.4696 170.407 17.6972 170.561 18.0569C170.708 18.534 170.708 19.0551 170.972 19.4955C171.236 19.9139 171.618 20.2589 172.066 20.4791C172.051 20.6772 172.029 20.8754 171.985 21.0663L171.948 20.9855L171.904 20.8754C171.544 21.7195 171.361 22.6224 171.06 23.4811C170.715 24.4574 170.421 25.4483 170.098 26.4245C170.003 26.3878 169.908 26.3438 169.812 26.3071C169.834 26.1603 169.849 26.0135 169.871 25.8667C169.871 25.7345 170.025 25.4336 169.79 25.463C169.592 25.6024 169.519 25.8667 169.379 26.0648C169.291 26.0061 169.203 25.9474 169.115 25.896C169.416 25.3455 169.695 24.7877 169.893 24.1931C169.768 24.1491 169.643 24.1124 169.519 24.0684C170.003 24.0023 170.524 23.4885 170.297 22.982C170.282 22.6737 170.275 22.3581 170.26 22.0498C170.326 22.0498 170.473 22.0572 170.539 22.0572C170.576 21.6168 170.627 21.1764 170.62 20.736C170.612 20.2222 170.187 19.7671 169.673 19.7084C169.181 19.657 168.674 19.679 168.19 19.5616C167.654 19.4588 167.03 19.2606 166.546 19.6203C165.973 20.0313 165.254 20.2882 164.542 20.1634C164.16 20.1341 163.764 19.9286 163.39 20.0974C162.546 20.4497 161.635 20.6112 160.718 20.6185C160.395 20.6259 159.918 20.4057 160.021 20.0093C160.138 20.2222 160.314 20.391 160.571 20.3983C161.136 20.4424 161.709 20.3249 162.252 20.1781C162.714 20.0607 163.096 19.7671 163.522 19.5689C163.551 19.5616 163.603 19.5542 163.632 19.5469C164.109 19.9726 164.858 20.0533 165.386 19.6863C165.907 19.3414 166.157 18.7468 166.465 18.2257C167.067 18.7835 167.823 19.1432 168.63 19.29C169.063 19.356 169.555 19.5175 169.959 19.2606C170.135 19.1579 170.15 18.9303 170.069 18.7615C169.9 18.5707 169.636 18.5119 169.416 18.4165C168.851 18.2404 168.366 17.822 168.073 17.2935Z" fill="#5E5E5E"/>
<path d="M160.16 18.6738C160.703 18.3876 161.327 18.483 161.914 18.5197C161.958 18.527 162.032 18.5564 162.076 18.5637C161.855 18.8573 161.65 19.2023 161.312 19.3711C160.997 19.5033 160.644 19.54 160.336 19.7014C159.91 19.5767 159.617 19.929 159.338 20.1785C159.051 20.4501 158.648 20.4868 158.273 20.4795C158.508 20.34 158.802 20.2519 158.956 20.0024C159.264 19.4959 159.624 18.9674 160.16 18.6738Z" fill="#5E5E5E"/>
<path d="M175.178 22.1963C175.236 22.4238 175.273 22.6587 175.295 22.9009C175.258 22.945 175.192 23.0331 175.156 23.0771C175.185 23.3413 175.523 23.0991 175.677 23.0771C175.427 23.3487 175.104 23.6276 175.097 24.024C175.119 24.3396 175.398 24.5451 175.677 24.6479C175.596 25.0589 175.86 25.6535 176.352 25.558C176.748 25.4479 177.115 25.2497 177.475 25.0516C177.541 25.1396 177.563 25.2938 177.688 25.3305C177.967 25.3892 178.224 25.2277 178.459 25.1029C178.76 25.0809 179.061 25.0442 179.347 24.9488C179.259 25.0442 179.171 25.147 179.046 25.1837C178.591 25.3525 178.128 25.514 177.659 25.6168C177.548 25.6461 177.446 25.5874 177.336 25.5654C176.712 26.27 175.765 26.5783 174.84 26.5783C174.935 26.6737 175.031 26.7691 175.119 26.8646L175.06 26.8719C175.031 26.8792 174.972 26.8866 174.935 26.8939C174.576 27.327 174.231 27.7967 173.746 28.1124C173.299 28.406 172.785 28.7436 172.227 28.6115C171.823 28.5234 171.603 28.1344 171.486 27.7674C171.889 27.9729 172.322 28.2151 172.792 28.1197C173.401 28.0316 173.827 27.5105 174.113 27.004C174.319 26.615 174.106 26.204 173.974 25.8296C174.275 26.0425 174.532 26.3287 174.891 26.4535C174.737 26.1379 174.576 25.837 174.422 25.5213C174.803 25.5727 174.877 25.9764 175.097 26.226C175.082 26.0645 175.053 25.903 175.031 25.7489C175.141 25.7415 175.251 25.7269 175.361 25.7122C175.266 25.7929 175.17 25.8737 175.082 25.9544C175.178 26.0425 175.266 26.1306 175.368 26.2113C175.721 26.3801 176.125 26.3141 176.455 26.1306C176.712 25.9984 176.925 25.8003 177.108 25.5801C176.822 25.6388 176.543 25.7415 176.242 25.7415C175.978 25.6608 175.75 25.4846 175.508 25.3599C175.479 25.1763 175.493 24.9782 175.376 24.824C175.207 24.5891 174.987 24.3469 175.009 24.0313C175.06 23.4221 175.141 22.8129 175.178 22.1963Z" fill="#5E5E5E"/>
<path d="M160.042 22.2039C160.27 22.0644 160.534 22.0791 160.776 22.1598C160.167 22.057 159.719 22.5488 159.367 22.9746C159.169 22.703 158.993 22.4094 158.868 22.0938C158.985 22.1892 159.11 22.2846 159.25 22.358C159.521 22.5121 159.793 22.3066 160.042 22.2039Z" fill="#5E5E5E"/>
<path d="M158.648 23.6649C158.758 23.6062 158.868 23.5475 158.971 23.4814C158.839 23.7237 158.714 23.9659 158.574 24.2008C158.538 24.0026 158.552 23.7971 158.574 23.5989L158.604 23.6282L158.648 23.6649Z" fill="#5E5E5E"/>
<path d="M163.668 24.9639C163.654 25.5437 162.949 25.6392 162.509 25.7566C162.369 25.9621 162.222 26.1603 162.098 26.3732C161.958 26.6374 161.841 26.9237 161.723 27.2026C161.642 27.0705 161.554 26.9383 161.474 26.7989C161.782 26.3732 162.112 25.9695 162.391 25.5217C162.854 25.507 163.455 25.463 163.668 24.9639Z" fill="#5E5E5E"/>
<path d="M168.924 26.2266C169.012 26.2706 169.1 26.322 169.188 26.366C168.902 26.9385 168.594 27.5625 168.197 28.0689C168.102 28.0249 167.933 27.8928 167.867 27.8414C168.307 27.3643 168.608 26.7844 168.924 26.2266Z" fill="#5E5E5E"/>
<path d="M159.184 27.4007C160.021 27.0484 160.718 26.4538 161.422 25.9033C161.349 26.0721 161.261 26.2336 161.151 26.3731C160.652 27.0117 160.057 27.5842 159.367 28.0026C159.03 28.1861 158.611 28.3255 158.237 28.1714C157.826 28.0246 157.451 27.7677 157.187 27.4227C157.841 27.6136 158.553 27.6796 159.184 27.4007Z" fill="#5E5E5E"/>
<path d="M169.636 26.6152C169.746 26.674 169.849 26.7253 169.959 26.7841C169.93 26.8795 169.174 31.3496 168.777 33.2066C168.102 36.3775 167.28 38.5502 167.28 38.5502L168.777 31.2762C168.777 31.2762 169.445 27.0189 169.636 26.6152Z" fill="#5E5E5E"/>
<path d="M166.039 18.3062C166.12 18.2255 166.201 18.1374 166.282 18.0566C166.348 18.0787 166.472 18.1227 166.538 18.1374C166.524 18.1667 166.494 18.2255 166.472 18.2548C166.171 18.776 165.915 19.3705 165.393 19.7155C164.865 20.0825 164.109 20.0018 163.639 19.576C163.698 19.5614 163.808 19.5393 163.859 19.532C163.889 19.5393 163.94 19.5614 163.969 19.5687C164.285 19.6788 164.667 19.6788 164.938 19.4733C165.371 19.143 165.658 18.6805 166.039 18.3062Z" fill="#262626"/>
<path d="M174.333 25.3525C174.708 25.4626 175.075 25.5801 175.457 25.6461L175.368 25.7195C175.258 25.7342 175.148 25.7416 175.038 25.7562C175.06 25.9177 175.082 26.0719 175.104 26.2333C174.884 25.9838 174.811 25.5801 174.429 25.5287C174.4 25.4847 174.356 25.3966 174.333 25.3525Z" fill="#262626"/>
<path d="M161.936 18.9599C162.061 18.9306 162.098 18.9746 162.039 19.0994C161.914 19.1214 161.878 19.0774 161.936 18.9599Z" fill="#5E5E5E"/>
<path d="M166.539 19.6422C167.023 19.2752 167.647 19.4807 168.183 19.5834C168.667 19.7009 169.174 19.6789 169.665 19.7302C170.172 19.7816 170.605 20.2367 170.612 20.7578C170.612 21.1983 170.561 21.6387 170.532 22.0791C170.465 22.0791 170.319 22.0717 170.253 22.0717C170.275 22.38 170.275 22.6956 170.289 23.0039C170.128 23.4957 169.695 23.7819 169.262 24.0095C169.328 24.0315 169.453 24.0682 169.511 24.0902C169.636 24.1269 169.761 24.171 169.886 24.215C169.68 24.8096 169.408 25.3674 169.108 25.9179C168.66 25.661 168.256 25.338 167.86 25.0077C167.94 24.8609 168.029 24.7141 168.095 24.56C167.911 24.3838 167.786 24.7141 167.647 24.7949C167.419 24.6554 167.236 24.4426 166.964 24.3912C167.001 24.6774 167.104 24.6481 167.28 24.8536C166.906 25.4114 166.428 25.9766 166.039 26.5271C165.643 26.2776 165.555 26.006 165.085 25.8885C165.166 26.2849 165.599 26.4611 165.849 26.7547C165.364 27.2465 164.99 27.9217 164.403 28.3034C163.962 27.9951 163.463 27.5401 163.133 27.1217C163.309 26.8134 163.595 26.5491 163.61 26.1748C163.294 26.2555 163.052 26.5051 162.854 26.7473C162.714 26.6225 162.575 26.4904 162.406 26.4097C162.369 26.6592 162.612 26.8354 162.597 27.0703C162.457 27.2758 162.245 27.4226 162.076 27.5914C162.01 27.6575 161.914 27.5621 161.892 27.496C162.076 27.3125 162.296 27.1584 162.443 26.9382C162.355 26.74 162.223 26.5565 162.098 26.3803C162.223 26.1675 162.369 25.9693 162.509 25.7638C162.949 25.6537 163.654 25.5509 163.669 24.971C163.382 24.949 163.096 25.0444 162.81 25.0591C162.935 24.5673 163.235 24.0021 162.949 23.5177C162.832 23.2902 162.568 23.2535 162.347 23.1947C162.171 23.0553 162.061 22.8424 161.863 22.725C161.679 22.6149 161.459 22.6149 161.254 22.5929C161.122 22.424 160.975 22.2626 160.784 22.1598C160.542 22.0864 160.277 22.0644 160.05 22.2038C159.8 22.3066 159.529 22.5121 159.25 22.358L159.404 22.3653C158.978 21.7708 158.589 21.1542 158.215 20.5303L158.186 20.4863H158.266C158.641 20.5009 159.044 20.4569 159.331 20.1853C159.61 19.9358 159.903 19.5834 160.329 19.7082C160.226 19.811 160.116 19.9211 160.021 20.0385C159.918 20.4349 160.388 20.6551 160.718 20.6477C161.628 20.6404 162.546 20.4716 163.39 20.1266C163.764 19.9578 164.16 20.1633 164.542 20.1927C165.254 20.3101 165.966 20.0532 166.539 19.6422ZM166.986 20.9413C166.994 21.2496 166.737 21.6313 167.001 21.8809C167.228 22.0203 167.39 21.7414 167.427 21.5432C167.647 21.2423 167.867 20.9193 168.227 20.7799C168.608 20.5597 169.049 20.6918 169.46 20.7065C169.673 20.8606 169.746 21.2423 170.054 21.2203C170.179 21.1469 170.179 20.9707 170.12 20.8533C169.871 20.2661 169.232 19.8991 168.601 19.9137C167.933 19.9798 167.353 20.3908 166.986 20.9413ZM161.063 21.5359C160.931 21.5726 160.806 21.6093 160.681 21.646C160.711 21.7414 160.747 21.8295 160.784 21.9249C161.048 22.0277 161.312 22.1084 161.569 22.2259C161.606 22.1671 161.679 22.057 161.716 21.9983C161.687 21.9616 161.621 21.8809 161.591 21.8368C161.812 21.7121 162.01 21.5212 162.267 21.4625C162.619 21.3744 162.986 21.4258 163.346 21.3891C163.625 21.5432 163.808 21.8075 164.043 22.013C164.41 21.8515 164.182 21.4552 163.962 21.279C163.213 20.4202 161.665 20.5743 161.063 21.5359ZM162.7 22.1231C163.155 22.3286 163.661 22.5488 163.911 23.0112C164.109 23.3709 163.977 23.7966 163.94 24.1783L164.028 24.1049C164.021 24.171 164.014 24.3104 164.014 24.3765C164.351 24.4132 164.417 24.0168 164.542 23.7893C164.637 23.826 164.733 23.87 164.828 23.9067C164.777 23.9067 164.681 23.9141 164.63 23.9214C165.115 24.2297 165.731 24.4205 166.304 24.2517C166.619 24.1123 166.972 23.9434 167.096 23.5984C167.184 23.6792 167.28 23.6865 167.383 23.6205C167.441 23.4443 167.243 23.3709 167.155 23.2535C166.979 23.092 166.942 22.8498 166.906 22.6296C166.854 22.6296 166.759 22.6296 166.707 22.6296C166.7 22.8131 166.7 22.9966 166.759 23.1801C166.583 23.4663 166.326 23.7379 165.981 23.8113C165.716 23.826 165.452 23.7746 165.195 23.7452C164.938 23.6351 164.696 23.5104 164.469 23.3562C164.476 23.2975 164.491 23.1801 164.498 23.1213C164.403 22.9452 164.344 22.703 164.102 22.6809L164.131 22.8424C163.94 22.4167 163.478 22.1892 163.052 22.0791C162.927 22.013 162.81 22.0644 162.7 22.1231Z" fill="#808080"/>
<path d="M171.053 23.4807C171.361 22.6219 171.537 21.7191 171.897 20.875L171.941 20.9851C171.442 22.8421 170.84 24.6625 170.282 26.5048C170.231 26.4828 170.135 26.4461 170.091 26.4241C170.414 25.4479 170.708 24.4569 171.053 23.4807Z" fill="#808080"/>
<path d="M174.73 21.6387H174.744C174.906 21.8075 175.075 21.9837 175.17 22.1965C175.133 22.8057 175.053 23.415 175.016 24.0315C174.994 24.3472 175.214 24.582 175.383 24.8243C175.5 24.9784 175.486 25.1839 175.515 25.3601C175.757 25.4849 175.985 25.661 176.249 25.7418C176.543 25.7418 176.829 25.639 177.115 25.5803C176.924 25.7931 176.719 25.9987 176.462 26.1308C176.095 26.1014 175.735 26.1455 175.376 26.2115C175.28 26.1308 175.185 26.0427 175.089 25.9546C175.185 25.8739 175.273 25.7931 175.368 25.7124L175.456 25.639C175.075 25.5729 174.708 25.4555 174.333 25.3454C174.355 25.3894 174.399 25.4775 174.421 25.5216C174.576 25.8298 174.737 26.1381 174.891 26.4537C174.532 26.329 174.275 26.0427 173.974 25.8298C174.106 26.2042 174.319 26.6152 174.113 27.0042C173.834 27.5107 173.409 28.0319 172.792 28.1199C172.322 28.2154 171.889 27.9731 171.485 27.7676C171.603 28.1346 171.823 28.5236 172.227 28.6117C172.785 28.7438 173.298 28.3989 173.746 28.1126C174.231 27.797 174.568 27.3345 174.935 26.8941C174.965 26.8868 175.023 26.8795 175.06 26.8721C174.59 27.6061 173.966 28.2814 173.159 28.6337C172.807 28.7732 172.381 28.9127 172.021 28.7071C171.449 28.3548 171.074 27.775 170.729 27.2098C170.649 27.0923 170.59 26.9455 170.641 26.7987C170.759 26.2776 170.964 25.7785 171.126 25.2647C171.302 24.8389 171.346 24.3692 171.574 23.9581C171.779 24.215 171.889 24.516 172.029 24.8096C172.175 25.1472 172.366 25.4628 172.454 25.8225C172.322 26.2923 171.816 26.6372 171.852 27.151C171.97 27.1657 172.065 27.1143 172.161 27.0483C172.887 26.5932 173.343 25.8225 173.981 25.2573C174.01 25.2426 174.062 25.2059 174.091 25.1913C174.099 25.1325 174.106 25.0151 174.113 24.9564C174.179 25.0371 174.253 25.1179 174.326 25.1913C174.289 24.7215 174.26 24.2371 174.429 23.7893C174.502 23.5838 174.642 23.4076 174.693 23.1948C174.708 22.9085 174.649 22.6002 174.444 22.3874C174.289 22.2039 174.069 21.9543 174.194 21.7047C174.363 21.668 174.546 21.6607 174.73 21.6387Z" fill="#808080"/>
<path d="M176.301 22.6516C176.499 22.6002 176.734 22.5122 176.917 22.659C177.145 22.7911 177.277 23.0773 177.159 23.3342C176.844 23.8994 176.235 24.2297 175.633 24.3985C175.545 24.3178 175.457 24.2371 175.361 24.1637C175.324 23.7967 175.545 23.5031 175.824 23.2902C176.036 23.1214 176.279 22.9452 176.301 22.6516Z" fill="#808080"/>
<path d="M177.181 23.745C177.358 23.6055 177.651 23.6789 177.747 23.8331C177.798 23.9211 178.084 24.1854 177.497 24.6478L177.49 24.6772C177.211 24.8753 176.924 25.0735 176.638 25.2644C176.447 25.191 176.154 25.1616 176.11 24.912C176.051 24.6478 176.323 24.4937 176.491 24.3395C176.734 24.1634 176.946 23.9358 177.181 23.745Z" fill="#808080"/>
<path d="M158.479 22.4756C158.574 22.6004 158.67 22.7251 158.765 22.8499C158.207 23.1729 158.215 23.8629 158.178 24.4207C158.244 24.5895 158.244 24.773 158.156 24.9345C158.046 25.3382 157.723 25.6024 157.51 25.9401C157.429 26.1383 157.525 26.3218 157.657 26.4686C157.716 26.542 157.774 26.6154 157.84 26.6888C157.914 26.5713 157.994 26.4612 158.031 26.3291C158.273 25.3969 158.721 24.5308 159.22 23.7087C159.338 23.5326 159.448 23.3344 159.617 23.1949C159.954 23.0114 160.248 22.6958 160.659 22.7325L160.6 22.8866C160.512 22.9453 160.417 22.9967 160.329 23.0554C160.769 23.1949 161.283 23.0701 161.679 23.3417C161.892 23.65 161.782 24.1271 162.127 24.362C162.156 24.1785 162.178 24.0023 162.215 23.8262L162.259 23.6427C162.413 23.8629 162.553 24.1124 162.589 24.3913C162.142 25.3749 161.496 26.263 160.74 27.0338C160.16 27.621 159.536 28.2302 158.728 28.4724C157.98 28.4651 157.378 27.8852 156.96 27.32C156.82 26.8723 156.901 26.3878 156.96 25.9327L156.982 25.896C157.327 25.3015 157.503 24.6336 157.789 24.0097C158.024 23.5032 158.178 22.96 158.479 22.4756ZM159.184 27.4008C158.545 27.6797 157.833 27.6136 157.187 27.4228C157.451 27.7678 157.826 28.032 158.237 28.1715C158.611 28.3183 159.029 28.1861 159.367 28.0026C160.064 27.5843 160.652 27.0117 161.151 26.3731C161.268 26.2337 161.356 26.0722 161.422 25.9034C160.718 26.4539 160.02 27.0484 159.184 27.4008Z" fill="#808080"/>
<path d="M178.261 24.4721C178.576 24.3693 178.928 24.2886 179.251 24.3913C179.464 24.4794 179.472 24.7804 179.339 24.9492C179.053 25.0446 178.752 25.0813 178.451 25.1033C178.216 25.2354 177.96 25.3969 177.681 25.3309C177.563 25.2942 177.541 25.1474 177.468 25.0519C177.725 24.8464 177.938 24.5675 178.261 24.4721Z" fill="#808080"/>
<path d="M158.611 23.6281C158.662 23.3859 158.853 23.1069 159.132 23.2611C159.088 23.3418 159.037 23.4079 158.978 23.4739C158.875 23.54 158.765 23.5987 158.655 23.6574L158.611 23.6281Z" fill="#808080"/>
<path d="M167.896 25.4336C168.205 25.7345 168.557 25.9914 168.917 26.2263C168.601 26.7915 168.3 27.364 167.86 27.8411C167.515 27.6283 167.17 27.4154 166.839 27.1732L166.847 27.1585C167.192 26.5786 167.603 26.0428 167.896 25.4336Z" fill="#808080"/>
<path d="M169.761 26.2919C169.57 26.2039 169.79 25.9837 169.864 25.8662C169.849 25.9983 169.827 26.1305 169.812 26.2626C169.812 26.2919 169.783 26.3066 169.761 26.2919Z" fill="#808080"/>
<path d="M168.528 28.216C168.858 27.7022 169.188 27.1663 169.504 26.5645L169.636 26.6158C169.445 27.0195 169.519 27.4526 169.306 27.8416C169.203 27.893 168.638 28.1719 168.528 28.216Z" fill="#808080"/>
<path d="M169.959 26.7842C170.032 26.8062 170.113 26.8282 170.186 26.8576C170.069 27.0998 170.106 27.4668 169.812 27.5769C169.827 27.3127 169.885 27.0484 169.959 26.7842Z" fill="#808080"/>
<path d="M166.612 27.4375C166.928 27.7238 167.302 27.9293 167.647 28.1788C167.074 28.2889 166.487 28.4064 165.9 28.2889C166.135 28.0027 166.377 27.7238 166.612 27.4375Z" fill="#808080"/>
<path d="M168.498 20.4423C168.836 20.3836 169.181 20.5084 169.46 20.7066C169.049 20.6919 168.608 20.5598 168.227 20.78C167.867 20.9194 167.647 21.2424 167.427 21.5433C167.573 21.0369 167.97 20.5744 168.498 20.4423Z" fill="#999999"/>
<path d="M160.365 19.9139C160.505 19.8772 160.593 20.2149 160.431 20.2222C160.314 20.1782 160.285 20.002 160.365 19.9139Z" fill="#5E5E5E"/>
<path d="M173.827 21.6682C174.047 21.3966 174.466 21.4627 174.73 21.6389C174.546 21.6535 174.355 21.6682 174.179 21.7196C174.047 21.9692 174.275 22.2187 174.429 22.4022C174.634 22.6151 174.693 22.9234 174.678 23.2096C174.627 23.4225 174.495 23.5986 174.414 23.8042C174.245 24.2519 174.275 24.7437 174.311 25.2061C174.238 25.1254 174.172 25.052 174.099 24.9712C173.908 24.5308 174.128 24.0464 174.282 23.6207C174.451 23.2537 174.311 22.8426 174.216 22.4756C174.113 22.1894 173.651 22.0279 173.827 21.6682Z" fill="#999999"/>
<path d="M162.699 22.1228C162.81 22.0641 162.927 22.0127 163.059 22.0641C163.492 22.1742 163.947 22.4017 164.138 22.8274C164.241 23.2532 164.248 23.7156 164.035 24.1119L163.947 24.1853C163.984 23.8037 164.116 23.3779 163.918 23.0183C163.661 22.5559 163.155 22.3283 162.699 22.1228Z" fill="#999999"/>
<path d="M157.686 23.6573C157.885 23.1875 158.075 22.7178 158.303 22.2627C158.362 22.3361 158.42 22.4022 158.479 22.4756C158.185 22.96 158.031 23.5032 157.789 24.017C157.503 24.6409 157.327 25.3088 156.982 25.9034C157.084 25.118 157.415 24.3986 157.686 23.6573Z" fill="#999999"/>
<path d="M160.608 22.8935C161.011 22.8935 161.481 22.8054 161.819 23.077C162.068 23.2605 161.943 23.6642 162.222 23.833C162.193 24.0092 162.164 24.1927 162.134 24.3689C161.797 24.1413 161.899 23.6642 161.687 23.3486C161.29 23.0697 160.776 23.1945 160.336 23.0623C160.424 23.0036 160.519 22.9522 160.608 22.8935Z" fill="#999999"/>
<path d="M172.469 26.5049C172.902 25.9544 173.335 25.4039 173.827 24.8975C173.871 25.0222 173.923 25.147 173.967 25.2718C173.328 25.837 172.873 26.6077 172.146 27.0628C172.22 26.8573 172.337 26.6738 172.469 26.5049Z" fill="#999999"/>
<path d="M167.706 25.2432C167.772 25.3092 167.838 25.3679 167.896 25.434C167.603 26.0359 167.192 26.5791 166.854 27.1589C166.759 27.0929 166.671 27.0268 166.575 26.9681C166.972 26.3956 167.339 25.823 167.706 25.2432Z" fill="#999999"/>
<path d="M162.09 26.373C162.215 26.5492 162.347 26.7327 162.435 26.9309C162.289 27.1511 162.068 27.3052 161.885 27.4887C161.826 27.3933 161.767 27.2979 161.716 27.1951C161.841 26.9236 161.951 26.6373 162.09 26.373Z" fill="#999999"/>
<path d="M163.067 30.4983C163.382 30.1754 166.054 27.5623 166.326 27.1953C166.384 27.2394 166.546 27.3788 166.605 27.4302C166.37 27.7165 163.691 30.7919 163.456 31.0855C163.316 31.0709 163.206 30.5057 163.067 30.4983Z" fill="#999999"/>
<path d="M157.958 20.5376C158.024 20.5376 158.156 20.5303 158.215 20.5303C158.589 21.1542 158.978 21.7781 159.404 22.3653L159.25 22.3579C159.11 22.2845 158.985 22.1965 158.868 22.0937C158.567 21.5726 158.295 21.0294 157.958 20.5376Z" fill="#999999"/>
<path d="M161.518 21.7566C161.966 21.2721 162.736 21.0593 163.338 21.3969C162.978 21.4263 162.611 21.3822 162.259 21.4703C162.002 21.5364 161.804 21.7199 161.584 21.8446C161.569 21.8226 161.54 21.7786 161.518 21.7566Z" fill="#999999"/>
<path d="M159.617 23.202C159.837 22.9084 160.101 22.5781 160.475 22.4827C160.652 22.3946 160.96 22.7249 160.659 22.7396C160.248 22.7029 159.954 23.0185 159.617 23.202Z" fill="#999999"/>
<path d="M167.001 23.5254C167.023 23.5401 167.074 23.5841 167.096 23.5988C166.979 23.9438 166.619 24.1199 166.303 24.2521C165.731 24.4282 165.122 24.2374 164.63 23.9218C164.681 23.9218 164.777 23.9144 164.828 23.9071C165.239 24.0832 165.687 24.2447 166.135 24.142C166.502 24.0759 166.766 23.797 167.001 23.5254Z" fill="#999999"/>
<path d="M162.266 23.6501C162.252 23.496 162.531 23.5547 162.611 23.6134C162.78 23.8483 162.663 24.1419 162.589 24.3915C162.56 24.1199 162.421 23.8777 162.266 23.6501Z" fill="#999999"/>
<path d="M166.707 22.6299C166.759 22.6299 166.854 22.6299 166.905 22.6299C166.949 22.8501 166.986 23.0923 167.155 23.2538C167.243 23.3712 167.441 23.4446 167.382 23.6208C167.28 23.6868 167.184 23.6795 167.096 23.5988C167.074 23.5841 167.023 23.54 167.001 23.5254C166.766 23.797 166.502 24.0759 166.142 24.1493C165.694 24.2447 165.239 24.0906 164.835 23.9144C164.74 23.8777 164.645 23.8337 164.549 23.797C164.417 24.0245 164.358 24.4209 164.021 24.3842C164.028 24.3181 164.035 24.1786 164.035 24.1126C164.248 23.7162 164.241 23.2538 164.138 22.8281L164.109 22.6666C164.351 22.6886 164.402 22.9308 164.505 23.107C164.498 23.1657 164.483 23.2831 164.476 23.3419C164.703 23.496 164.946 23.6281 165.202 23.7309C165.467 23.7676 165.724 23.8116 165.988 23.797C166.333 23.7236 166.59 23.452 166.766 23.1657C166.707 23.0042 166.7 22.8134 166.707 22.6299Z" fill="#262626"/>
<path d="M169.261 24.0027C169.695 23.7751 170.128 23.4889 170.289 22.9971C170.517 23.5035 169.995 24.0173 169.511 24.0834C169.452 24.0614 169.328 24.0173 169.261 24.0027Z" fill="#262626"/>
<path d="M175.912 24.5752C176.102 24.5018 176.293 24.4211 176.484 24.3477C176.323 24.5018 176.051 24.6486 176.102 24.9202C176.147 25.1697 176.433 25.1991 176.631 25.2725C176.447 25.3092 176.227 25.4633 176.058 25.3092C175.838 25.1257 175.831 24.8174 175.912 24.5752Z" fill="#5E5E5E"/>
<path d="M175.368 26.212C175.728 26.1386 176.088 26.1019 176.455 26.1312C176.124 26.3147 175.721 26.3881 175.368 26.212Z" fill="#999999"/>
<path d="M157.657 26.4757C157.525 26.3289 157.437 26.1454 157.51 25.9473L157.547 26.072C157.635 26.028 157.723 25.9913 157.811 25.9473C157.767 26.1234 157.708 26.2996 157.657 26.4757Z" fill="#5E5E5E"/>
<path d="M162.846 27.3271C163.088 27.518 163.272 27.7749 163.5 27.9878C163.331 27.9878 162.134 28.0685 162.134 28.0685L162.846 27.3271Z" fill="#808080"/>
<path d="M165.636 27.4449C164.696 28.4651 163.72 29.434 162.707 30.3809C162.545 30.5277 162.788 30.7699 162.949 30.6231C163.962 29.6762 164.938 28.7073 165.878 27.6871C166.025 27.5256 165.79 27.2834 165.636 27.4449Z" fill="#262626"/>
<path d="M168.909 26.909C167.647 29.0597 166.12 31.1956 164.087 32.671C163.911 32.7958 164.079 33.0967 164.256 32.9646C166.333 31.4525 167.911 29.2799 169.203 27.0779C169.313 26.887 169.019 26.7182 168.909 26.909Z" fill="#262626"/>
<path d="M162.788 27.2169C163.823 28.2959 164.953 29.2795 166.252 30.0282C167.25 30.6007 168.322 31.0117 169.379 31.4595C169.577 31.5402 169.753 31.254 169.548 31.1659C168.557 30.7475 167.544 30.3585 166.597 29.8373C165.247 29.0887 164.094 28.0904 163.03 26.9821C162.876 26.8206 162.634 27.0628 162.788 27.2169Z" fill="#262626"/>
<path d="M165.827 26.7551C167.045 27.7827 168.396 28.6562 169.834 29.3388C170.032 29.4342 170.201 29.1406 170.003 29.0452C168.594 28.3773 167.258 27.5258 166.069 26.5202C165.9 26.3808 165.658 26.6157 165.827 26.7551Z" fill="#262626"/>
<path d="M162.523 29.9842C163.155 31.0338 164.226 31.7605 165.18 32.4871C166.362 33.3826 167.588 34.1827 168.939 34.8066C169.137 34.8947 169.306 34.6084 169.107 34.513C167.933 33.9625 166.839 33.2872 165.79 32.5238C164.755 31.7605 163.485 30.9384 162.81 29.808C162.707 29.6245 162.413 29.8007 162.523 29.9842Z" fill="#262626"/>
<path d="M164.241 33.8303C165.342 35.0854 166.656 36.0543 168.094 36.8984C168.285 37.0085 168.454 36.7149 168.263 36.6048C166.854 35.7754 165.562 34.8285 164.476 33.5954C164.336 33.4266 164.094 33.6688 164.241 33.8303Z" fill="#262626"/>
<path d="M169.46 30.9093C168.403 32.6416 166.869 34.0509 165.1 35.0418C164.909 35.1519 165.078 35.4455 165.269 35.3354C167.082 34.3151 168.667 32.8691 169.746 31.0855C169.871 30.8947 169.577 30.7185 169.46 30.9093Z" fill="#262626"/>
<path d="M168.814 34.7847C168.006 35.5848 167.089 36.2307 166.069 36.7372C165.87 36.8326 166.047 37.1262 166.237 37.0308C167.28 36.517 168.219 35.849 169.049 35.0269C169.21 34.8728 168.968 34.6306 168.814 34.7847Z" fill="#262626"/>
<path d="M162.12 27.9878C162.274 27.8336 162.435 27.6868 162.589 27.54C162.619 27.7162 162.766 29.72 162.766 29.72C162.766 29.72 162.164 28.2373 162.12 27.9878Z" fill="#999999"/>
</g>
<defs>
<clipPath id="clip0_6667_151">
<rect width="180" height="39.2693" fill="white"/>
</clipPath>
</defs>
</svg>
