<svg width="120" height="47" viewBox="0 0 120 47" fill="none" xmlns="http://www.w3.org/2000/svg">
<g opacity="0.65" clip-path="url(#clip0_6745_694)">
<path fill-rule="evenodd" clip-rule="evenodd" d="M21.8221 10.8118C21.8221 16.7638 16.9381 21.5938 10.9141 21.5938C10.6861 21.5938 10.4581 21.5878 10.2301 21.5758V13.9318C10.4521 13.9798 10.6801 14.0098 10.9141 14.0098C12.6061 14.0098 13.9801 12.6358 13.9801 10.9438C13.9801 9.25179 12.6061 7.87779 10.9141 7.87779C9.2221 7.87779 7.8481 9.25179 7.8481 10.9438V21.1618V21.5938V28.6678H0.00610352V10.8118C0.00610352 4.85979 4.8901 0.0297852 10.9141 0.0297852C16.9381 0.0297852 21.8221 4.85979 21.8221 10.8118Z" fill="white"/>
<path fill-rule="evenodd" clip-rule="evenodd" d="M119.994 10.8118C119.994 16.7638 115.11 21.5938 109.086 21.5938C108.858 21.5938 108.63 21.5878 108.402 21.5758V13.9318C108.624 13.9798 108.846 14.0098 109.086 14.0098C110.778 14.0098 112.152 12.6358 112.152 10.9438C112.152 9.25179 110.778 7.87779 109.086 7.87779C107.394 7.87779 106.02 9.25179 106.02 10.9438V21.1618V21.5938V28.6678H98.1782V10.8118C98.1782 4.85979 103.062 0.0297852 109.086 0.0297852C115.11 0.0297852 119.994 4.85979 119.994 10.8118Z" fill="white"/>
<path d="M32.0462 3.94779C32.0462 4.97979 31.6262 6.00578 30.9062 6.71979C30.1802 7.46979 29.1962 7.86579 28.1282 7.86579C27.1022 7.86579 26.1122 7.46979 25.3502 6.71979C24.6242 5.96979 24.2102 4.97979 24.2102 3.94779C24.2102 2.91579 24.6302 1.88979 25.3502 1.17579C26.0702 0.425785 27.0602 0.0297852 28.1282 0.0297852C29.1542 0.0297852 30.1442 0.425785 30.9062 1.17579C31.6262 1.88979 32.0462 2.92179 32.0462 3.94779Z" fill="white"/>
<path d="M32.0461 9.91797H24.2041V28.668H32.0461V9.91797Z" fill="white"/>
<path d="M71.5922 18.0958V10.2598H58.6382V18.1018H71.5922V18.0958Z" fill="white"/>
<path fill-rule="evenodd" clip-rule="evenodd" d="M56.2502 28.6678V10.8298C56.2502 4.86579 51.3482 0.0297852 45.3782 0.0297852C39.3302 0.0297852 34.4282 4.86579 34.4282 10.8298V28.6618H42.2702V21.2458V11.1058V11.0698C42.2702 11.0518 42.2702 11.0278 42.2702 11.0098C42.2702 10.9858 42.2702 10.9678 42.2702 10.9438C42.2702 9.25179 43.6442 7.87779 45.3362 7.87779C47.0282 7.87779 48.4022 9.25179 48.4022 10.9438C48.4022 10.9678 48.4022 10.9858 48.4022 11.0098C48.4022 11.0278 48.4022 11.0518 48.4022 11.0698V28.6678H56.2502Z" fill="white"/>
<path fill-rule="evenodd" clip-rule="evenodd" d="M95.7961 0.371582V17.8616C95.7961 23.8256 90.8941 28.6616 84.9241 28.6616C78.8761 28.6616 73.9741 23.8256 73.9741 17.8616V0.371582H81.8161V7.45158V17.5916V17.6336C81.8161 17.6516 81.8161 17.6756 81.8161 17.6936C81.8161 17.7176 81.8161 17.7356 81.8161 17.7596C81.8161 19.4516 83.1901 20.8256 84.8821 20.8256C86.5741 20.8256 87.9481 19.4516 87.9481 17.7596C87.9481 17.7356 87.9481 17.7176 87.9481 17.6936C87.9481 17.6756 87.9481 17.6516 87.9481 17.6336V0.371582H95.7961Z" fill="white"/>
<path fill-rule="evenodd" clip-rule="evenodd" d="M113.1 32.3638H60.1141H6.9001H0.00610352V39.2638C0.00610352 43.0738 3.0961 46.1638 6.9061 46.1638H6.9181H113.094H113.106C116.916 46.1638 120.006 43.0738 120.006 39.2638V32.3638H113.1ZM96.0541 41.4418C96.4201 42.8278 97.3921 43.5178 98.9761 43.5178C99.4201 43.5178 99.8161 43.4638 100.17 43.3498C100.53 43.2298 100.83 43.0618 101.082 42.8518C101.34 42.6298 101.538 42.3658 101.67 42.0598C101.808 41.7538 101.874 41.4058 101.874 41.0218C101.874 40.3198 101.688 39.7678 101.322 39.3538C100.962 38.9458 100.386 38.6278 99.5941 38.4058C99.2341 38.3098 98.9401 38.2198 98.7121 38.1358C98.4841 38.0518 98.2981 37.9618 98.1601 37.8658C98.0341 37.7638 97.9381 37.6558 97.8781 37.5478C97.8241 37.4398 97.8001 37.3018 97.8001 37.1518V37.1158C97.8001 36.8698 97.8961 36.6718 98.0941 36.5278C98.2921 36.3718 98.5621 36.2998 98.9161 36.2998C99.6241 36.2998 100.062 36.5998 100.224 37.1938L101.58 36.6298C101.196 35.4958 100.326 34.9258 98.9761 34.9258C98.5561 34.9258 98.1841 34.9798 97.8481 35.0938C97.5121 35.2078 97.2361 35.3638 97.0021 35.5678C96.7741 35.7718 96.5941 36.0178 96.4621 36.3118C96.3421 36.5938 96.2821 36.9058 96.2821 37.2478C96.2821 37.9318 96.4741 38.4718 96.8581 38.8738C97.2421 39.2638 97.8421 39.5638 98.6641 39.7678C99.0001 39.8518 99.2701 39.9358 99.4861 40.0258C99.7081 40.1098 99.8821 40.2058 99.9961 40.3078C100.122 40.4098 100.212 40.5238 100.266 40.6558C100.314 40.7818 100.344 40.9258 100.344 41.0758C100.344 41.4118 100.23 41.6758 99.9961 41.8678C99.7681 42.0538 99.4501 42.1498 99.0481 42.1498C98.6101 42.1498 98.2681 42.0598 98.0101 41.8798C97.7641 41.6938 97.5661 41.3758 97.4221 40.9318L96.0541 41.4418ZM30.3421 41.5678H33.7141L34.4341 43.3618H36.0481L32.3701 34.9438H31.6801L28.0441 43.3618H29.6341L30.3421 41.5678ZM32.0341 37.3438L33.1861 40.2658H30.8641L32.0341 37.3438ZM23.8201 37.7878V37.7518C23.8201 36.9058 23.5621 36.2518 23.0401 35.7898C22.5301 35.3218 21.7741 35.0878 20.7841 35.0878H18.2341V43.3618H19.8121V40.5298H20.7721C21.7561 40.5238 22.5061 40.2718 23.0281 39.7858C23.5561 39.2938 23.8201 38.6278 23.8201 37.7878ZM21.9001 38.8138C21.6361 39.0418 21.2521 39.1618 20.7481 39.1618H19.8121V36.4738H20.7481C21.2581 36.4738 21.6421 36.5878 21.9001 36.8218C22.1641 37.0438 22.2961 37.3738 22.2961 37.8058C22.2961 38.2378 22.1641 38.5738 21.9001 38.8138ZM43.1401 40.0978H42.4981V43.3678H40.9201V35.0878H43.5061C44.3881 35.0878 45.0721 35.3038 45.5701 35.7298C46.0741 36.1558 46.3261 36.7558 46.3261 37.5238C46.3261 38.0938 46.1821 38.5858 45.8881 38.9998C45.6001 39.4018 45.1981 39.7018 44.6821 39.8938L46.5901 43.3678H44.8501L43.1401 40.0978ZM42.5041 38.8678H43.3381C43.7821 38.8678 44.1301 38.7658 44.3881 38.5618C44.6461 38.3458 44.7721 38.0458 44.7721 37.6498C44.7721 37.2598 44.6461 36.9538 44.3881 36.7378C44.1421 36.5218 43.7941 36.4198 43.3501 36.4198H42.5041V38.8678ZM55.0801 36.5578H57.6301V35.0818H50.9821V36.5578H53.5201V43.3618H55.0801V36.5578ZM69.5041 35.0878V43.4278H68.8141L64.1761 38.1238V43.3618H62.6641V35.0098H63.3661L68.0041 40.3018V35.0878H69.5041ZM80.2861 43.3618V41.9938H77.0041V39.8158H79.8481V38.4298H77.0041V36.4558H80.1541V35.0878H75.4261V43.3618H80.2861ZM87.9361 40.0978H87.2941V43.3678H85.7161V35.0878H88.3021C89.1841 35.0878 89.8681 35.3038 90.3661 35.7298C90.8701 36.1558 91.1221 36.7558 91.1221 37.5238C91.1221 38.0938 90.9781 38.5858 90.6841 38.9998C90.3961 39.4018 89.9941 39.7018 89.4781 39.8938L91.3861 43.3678H89.6461L87.9361 40.0978ZM87.2941 38.8678H88.1281C88.5721 38.8678 88.9201 38.7658 89.1781 38.5618C89.4361 38.3458 89.5621 38.0458 89.5621 37.6498C89.5621 37.2598 89.4361 36.9538 89.1781 36.7378C88.9321 36.5218 88.5841 36.4198 88.1401 36.4198H87.2941V38.8678Z" fill="white"/>
</g>
<defs>
<clipPath id="clip0_6745_694">
<rect width="120" height="46.2" fill="white"/>
</clipPath>
</defs>
</svg>
