<svg width="200" height="44" viewBox="0 0 200 44" fill="none" xmlns="http://www.w3.org/2000/svg">
<g opacity="0.65" clip-path="url(#clip0_6732_576)">
<path d="M18.6953 25.7608L17.8384 1.59147L7.39769 0L14.3407 23.6097L0 32.9311L6.47079 40.836L14.4456 28.7163L36.114 40.4512L39.0346 31.6894L18.6953 25.7608Z" fill="#7F8180"/>
<path d="M45.8377 7.87012H39.9265V29.2762H43.3368V21.4063H46.1C48.461 21.4063 50.1574 20.9341 51.4515 19.8848C52.9381 18.6606 53.795 16.7194 53.795 14.5683C53.8125 10.2486 50.9793 7.87012 45.8377 7.87012ZM50.3672 14.6382C50.3672 16.2122 49.4753 17.5064 48.0412 18.031C47.4117 18.2759 46.7296 18.3808 45.6278 18.3808H43.3543V10.9131H45.2955C46.4673 10.9131 47.2543 11.0181 48.0412 11.2979C49.4928 11.7876 50.3672 13.0468 50.3672 14.6382Z" fill="white"/>
<path d="M59.6012 14.8306C59.3563 15.023 59.1465 15.2154 58.9716 15.4427V14.2185H55.8062V29.2762H58.9716V21.6337C58.9716 20.0947 59.164 19.3427 59.7411 18.5032C60.3707 17.5588 61.35 17.0517 62.4868 17.0517C62.6442 17.0517 62.8541 17.0517 63.0814 17.0866L63.5361 17.1391V13.8862H62.5743C61.455 13.8862 60.3707 14.236 59.6012 14.8306Z" fill="white"/>
<path d="M71.3361 13.8862C66.8066 13.8862 63.6411 17.1216 63.6411 21.7386C63.6411 26.3731 66.7716 29.626 71.2487 29.626C75.5684 29.626 78.9437 26.1982 78.9437 21.8086C78.9437 17.2091 75.7432 13.8862 71.3361 13.8862ZM75.7083 21.7736C75.7083 24.6417 73.8895 26.6354 71.3011 26.6354C68.6429 26.6354 66.859 24.6767 66.859 21.7736C66.859 18.8005 68.6079 16.8768 71.3186 16.8768C73.9944 16.8768 75.7083 18.8005 75.7083 21.7736Z" fill="white"/>
<path d="M89.3319 13.8862C87.2683 13.8862 85.8167 14.4983 84.5575 15.9849V14.236H81.3921V35.9569H84.5575V27.7897C84.9947 28.2444 85.4145 28.5417 86.0266 28.839C87.0759 29.3637 88.1602 29.626 89.3319 29.626C93.5117 29.626 96.4498 26.3381 96.4498 21.6512C96.4498 17.0867 93.5292 13.8862 89.3319 13.8862ZM93.127 21.7386C93.127 24.7467 91.4131 26.7579 88.8422 26.7579C86.2364 26.7579 84.5575 24.8866 84.5575 21.9835C84.5575 18.888 86.3239 16.8068 88.9297 16.8068C90.0839 16.8068 91.2382 17.314 91.9902 18.1535C92.7597 18.9929 93.127 20.1646 93.127 21.7386Z" fill="white"/>
<path d="M105.299 13.8862C100.909 13.8862 97.7266 17.2091 97.7266 21.8086C97.7266 26.3381 100.944 29.626 105.387 29.626C108.29 29.626 110.843 28.0695 112.085 25.5686L112.295 25.1664L109.461 24.1171L109.287 24.4319C108.517 25.7785 106.996 26.6529 105.387 26.6529C103.97 26.6529 102.728 26.0233 101.889 24.8691C101.434 24.257 101.224 23.7848 101.102 22.9279H112.872L112.907 22.5606C112.942 22.2108 112.942 21.7911 112.942 21.5987C112.942 17.1916 109.654 13.8862 105.299 13.8862ZM101.154 20.3745C101.312 19.57 101.487 19.1153 101.801 18.6082C102.553 17.4889 103.865 16.8068 105.282 16.8068C106.698 16.8068 108.045 17.4714 108.867 18.5732C109.252 19.1328 109.444 19.6225 109.549 20.3745H101.154Z" fill="white"/>
<path d="M118.188 7.87012H115.023V29.2937H118.188V7.87012Z" fill="white"/>
<path d="M124.939 7.87012H121.773V29.2937H124.939V7.87012Z" fill="white"/>
<path d="M134.977 13.8862C130.587 13.8862 127.405 17.2091 127.405 21.8086C127.405 26.3381 130.622 29.626 135.065 29.626C137.968 29.626 140.521 28.0695 141.763 25.5686L141.973 25.1664L139.139 24.1171L138.965 24.4319C138.195 25.7785 136.674 26.6529 135.065 26.6529C133.648 26.6529 132.406 26.0233 131.567 24.8691C131.112 24.257 130.902 23.7848 130.78 22.9279H142.55L142.585 22.5606C142.62 22.2108 142.62 21.7911 142.62 21.5987C142.602 17.1916 139.332 13.8862 134.977 13.8862ZM130.832 20.3745C130.99 19.57 131.165 19.1153 131.479 18.6082C132.231 17.4889 133.543 16.8068 134.96 16.8068C136.376 16.8068 137.723 17.4714 138.545 18.5732C138.93 19.1328 139.122 19.6225 139.227 20.3745H130.832Z" fill="white"/>
<path d="M151.644 13.8862C150.525 13.8862 149.44 14.236 148.671 14.8306C148.426 15.023 148.216 15.2154 148.041 15.4427V14.2185H144.876V29.2762H148.041V21.6337C148.041 20.0947 148.234 19.3427 148.811 18.5032C149.44 17.5588 150.42 17.0517 151.556 17.0517C151.714 17.0517 151.924 17.0517 152.151 17.0866L152.606 17.1391V13.8862H151.644Z" fill="white"/>
<path d="M160.073 7.87003L152.011 29.2761H155.579L157.468 24.5192H166.125L167.821 29.2761H171.598L163.729 7.85254H160.073V7.87003ZM165.023 21.4762H158.552L161.84 12.7319L165.023 21.4762Z" fill="#7F8180"/>
<path d="M183.351 15.74C182.057 14.4808 180.535 13.8862 178.664 13.8862C174.607 13.8862 171.546 17.2965 171.546 21.826C171.546 26.3381 174.537 29.626 178.664 29.626C180.588 29.626 182.039 29.0139 183.351 27.5973V29.2937H186.516V7.87012H183.351V15.74ZM183.351 21.8086C183.351 24.6767 181.532 26.7753 179.014 26.7753C176.565 26.7753 174.851 24.7641 174.851 21.8785C174.851 18.853 176.583 16.8243 179.171 16.8243C181.655 16.8068 183.351 18.818 183.351 21.8086Z" fill="#7F8180"/>
<path d="M198.741 22.0009C197.989 21.2489 196.974 20.7592 195.103 20.252C192.48 19.5175 192.217 19.1152 192.217 18.2408C192.217 17.244 193.039 16.6144 194.369 16.6144C195.785 16.6144 196.677 17.2789 196.677 18.3632V18.9229H199.86L199.843 18.4857C199.703 15.5825 197.691 13.8687 194.456 13.8687C191.221 13.8687 189.035 15.705 189.035 18.4157C189.035 20.7592 190.504 22.2107 193.826 23.1027C196.31 23.7322 196.765 24.2919 196.765 25.1663C196.765 26.1981 195.89 26.8627 194.526 26.8627C192.952 26.8627 192.078 26.1632 191.938 24.7641L191.903 24.3968H188.772L188.807 24.8515C189.07 27.9295 191.098 29.6084 194.526 29.6084C197.796 29.6084 200 27.7721 200 25.0614C200 23.9246 199.545 22.8053 198.741 22.0009Z" fill="#7F8180"/>
<path d="M107.258 41.7806C106.576 41.7806 105.999 41.5358 105.526 41.0286C105.054 40.5215 104.827 39.9094 104.827 39.1923C104.827 38.4753 105.054 37.8632 105.526 37.356C105.999 36.8488 106.576 36.604 107.258 36.604C107.625 36.604 107.957 36.6914 108.272 36.8488C108.587 37.0062 108.832 37.2161 109.007 37.4784V36.7089H109.864V41.6932H109.007V40.9237C108.832 41.1685 108.587 41.3784 108.272 41.5533C107.957 41.7107 107.625 41.7806 107.258 41.7806ZM107.38 40.9936C107.87 40.9936 108.272 40.8188 108.587 40.469C108.902 40.1192 109.059 39.6995 109.059 39.1923C109.059 38.6852 108.902 38.2479 108.587 37.9157C108.272 37.5659 107.87 37.391 107.38 37.391C106.891 37.391 106.471 37.5659 106.156 37.9157C105.841 38.2654 105.684 38.6852 105.684 39.1923C105.684 39.6995 105.841 40.1367 106.156 40.469C106.488 40.8188 106.891 40.9936 107.38 40.9936Z" fill="white"/>
<path d="M113.519 41.7802C112.837 41.7802 112.26 41.5353 111.787 41.0282C111.315 40.521 111.088 39.9089 111.088 39.1919C111.088 38.4748 111.315 37.8627 111.787 37.3556C112.26 36.8484 112.837 36.6036 113.519 36.6036C113.886 36.6036 114.218 36.691 114.533 36.8484C114.848 37.0058 115.093 37.2157 115.268 37.478V34.2251H116.125V41.6927H115.268V40.9232C115.093 41.1681 114.848 41.378 114.533 41.5528C114.218 41.7102 113.886 41.7802 113.519 41.7802ZM113.659 40.9932C114.148 40.9932 114.551 40.8183 114.865 40.4685C115.18 40.1188 115.338 39.699 115.338 39.1919C115.338 38.6847 115.18 38.2475 114.865 37.9152C114.551 37.5654 114.148 37.3905 113.659 37.3905C113.169 37.3905 112.749 37.5654 112.435 37.9152C112.12 38.265 111.962 38.6847 111.962 39.1919C111.962 39.699 112.12 40.1363 112.435 40.4685C112.749 40.8183 113.152 40.9932 113.659 40.9932Z" fill="white"/>
<path d="M119.29 41.6928L116.999 36.7085H117.943L119.64 40.486L121.354 36.7085H122.298L120.007 41.6928H119.29Z" fill="white"/>
<path d="M125.184 41.7806C124.467 41.7806 123.855 41.5358 123.382 41.0461C122.91 40.5564 122.665 39.9443 122.665 39.1923C122.665 38.4403 122.893 37.8282 123.365 37.3385C123.82 36.8488 124.432 36.604 125.201 36.604C125.971 36.604 126.565 36.8838 127.002 37.426C127.44 37.9681 127.632 38.6327 127.58 39.4197H123.54C123.557 39.8744 123.715 40.2416 124.029 40.5564C124.344 40.8537 124.729 41.0111 125.184 41.0111C125.866 41.0111 126.338 40.7313 126.618 40.1717H127.492C127.37 40.6439 127.09 41.0286 126.688 41.3259C126.285 41.6407 125.778 41.7806 125.184 41.7806ZM126.146 37.7233C125.866 37.4959 125.551 37.3735 125.166 37.3735C124.781 37.3735 124.432 37.4959 124.134 37.7233C123.837 37.9506 123.645 38.3004 123.575 38.7551H126.67C126.6 38.3004 126.425 37.9506 126.146 37.7233Z" fill="white"/>
<path d="M128.821 41.6931V36.7263H129.678V37.6882C129.766 37.3909 129.958 37.146 130.22 36.9536C130.483 36.7613 130.78 36.6738 131.077 36.6738C131.217 36.6738 131.357 36.6913 131.462 36.7088V37.6007C131.34 37.5483 131.182 37.5133 130.99 37.5133C130.64 37.5133 130.343 37.6707 130.08 37.968C129.818 38.2653 129.678 38.685 129.678 39.2272V41.6931H128.821Z" fill="white"/>
<path d="M134.383 41.728C133.928 41.728 133.561 41.6056 133.281 41.3432C133.001 41.0809 132.861 40.7136 132.861 40.2065V37.4957H131.812V36.7087H132.861V35.3271H133.718V36.7087H135.152V37.4957H133.718V40.1015C133.718 40.4163 133.788 40.6262 133.91 40.7661C134.05 40.8885 134.26 40.9585 134.54 40.9585C134.785 40.9585 134.995 40.9235 135.152 40.8536V41.6231C134.907 41.693 134.662 41.728 134.383 41.728Z" fill="white"/>
<path d="M137.111 35.2047C137.006 35.3271 136.849 35.3796 136.691 35.3796C136.516 35.3796 136.376 35.3271 136.254 35.2047C136.132 35.0823 136.079 34.9424 136.079 34.7675C136.079 34.6101 136.132 34.4527 136.254 34.3477C136.376 34.2253 136.516 34.1729 136.691 34.1729C136.866 34.1729 137.006 34.2253 137.111 34.3477C137.216 34.4702 137.286 34.6101 137.286 34.7675C137.286 34.9424 137.216 35.0823 137.111 35.2047ZM136.254 36.7087H137.111V41.693H136.254V36.7087Z" fill="white"/>
<path d="M140.329 41.7805C139.769 41.7805 139.314 41.6406 138.93 41.3782C138.562 41.0984 138.353 40.7311 138.3 40.2415H139.174C139.227 40.5213 139.367 40.7311 139.577 40.8536C139.787 40.9935 140.049 41.0459 140.329 41.0459C140.609 41.0459 140.836 40.9935 141.028 40.871C141.203 40.7661 141.291 40.5912 141.291 40.3814C141.291 40.189 141.221 40.0141 141.098 39.8917C140.976 39.7693 140.766 39.6643 140.469 39.5769L139.752 39.3845C138.895 39.1572 138.475 38.6675 138.475 37.9155C138.475 37.5132 138.632 37.1809 138.965 36.9361C139.279 36.6913 139.699 36.5688 140.206 36.5688C140.713 36.5688 141.133 36.7088 141.465 36.9711C141.798 37.2334 141.973 37.5832 142.025 37.9854H141.168C141.098 37.7581 140.976 37.6007 140.818 37.4608C140.644 37.3383 140.451 37.2684 140.224 37.2684C139.979 37.2684 139.769 37.3209 139.612 37.4433C139.454 37.5482 139.367 37.7056 139.367 37.898C139.367 38.0729 139.419 38.2303 139.542 38.3352C139.664 38.4401 139.857 38.5451 140.119 38.615L140.906 38.8249C141.763 39.0347 142.183 39.5244 142.183 40.2939C142.183 40.7661 142.008 41.1334 141.675 41.3782C141.308 41.658 140.871 41.7805 140.329 41.7805Z" fill="white"/>
<path d="M144.229 35.2047C144.124 35.3271 143.967 35.3796 143.809 35.3796C143.634 35.3796 143.494 35.3271 143.372 35.2047C143.249 35.0823 143.197 34.9424 143.197 34.7675C143.197 34.6101 143.249 34.4527 143.372 34.3477C143.494 34.2253 143.634 34.1729 143.809 34.1729C143.984 34.1729 144.124 34.2253 144.229 34.3477C144.334 34.4702 144.404 34.6101 144.404 34.7675C144.404 34.9424 144.351 35.0823 144.229 35.2047ZM143.372 36.7087H144.229V41.693H143.372V36.7087Z" fill="white"/>
<path d="M145.838 41.6929V36.7261H146.695V37.4956C147.027 36.9185 147.552 36.6387 148.269 36.6387C148.828 36.6387 149.283 36.8136 149.633 37.1808C149.982 37.5481 150.157 38.0378 150.157 38.6499V41.6929H149.318V38.7548C149.318 38.3351 149.213 38.0028 149.003 37.7579C148.793 37.5131 148.513 37.3907 148.146 37.3907C147.726 37.3907 147.394 37.5481 147.114 37.8804C146.834 38.2126 146.695 38.6499 146.695 39.2095V41.6929H145.838Z" fill="white"/>
<path d="M153.883 43.8616C153.218 43.8616 152.676 43.7042 152.239 43.3719C151.801 43.0571 151.539 42.6374 151.469 42.1302H152.309C152.536 42.7773 153.061 43.0921 153.9 43.0921C154.372 43.0921 154.757 42.9347 155.037 42.6374C155.317 42.3401 155.474 41.9204 155.474 41.3607V40.7661C155.299 41.0284 155.054 41.2383 154.739 41.3957C154.442 41.5531 154.092 41.6406 153.743 41.6406C153.043 41.6406 152.466 41.3957 151.994 40.906C151.522 40.4163 151.294 39.8217 151.294 39.1047C151.294 38.3877 151.522 37.7931 151.994 37.3034C152.466 36.8137 153.043 36.5688 153.725 36.5688C154.092 36.5688 154.425 36.6563 154.722 36.8137C155.019 36.9711 155.264 37.1809 155.456 37.4433V36.6738H156.313V41.3432C156.313 42.1302 156.086 42.7598 155.614 43.1795C155.177 43.6517 154.6 43.8616 153.883 43.8616ZM152.658 40.3814C152.973 40.7137 153.375 40.871 153.865 40.871C154.355 40.871 154.774 40.7137 155.072 40.3814C155.387 40.0491 155.544 39.6294 155.544 39.1397C155.544 38.6325 155.387 38.2128 155.072 37.898C154.757 37.5657 154.355 37.4083 153.865 37.4083C153.375 37.4083 152.973 37.5657 152.658 37.898C152.344 38.2303 152.186 38.65 152.186 39.1397C152.186 39.6468 152.344 40.0666 152.658 40.3814Z" fill="white"/>
<path d="M161.193 43.7569H160.336V36.7089H161.193V37.4784C161.368 37.2336 161.613 37.0237 161.927 36.8488C162.242 36.6914 162.574 36.604 162.942 36.604C163.624 36.604 164.218 36.8488 164.673 37.356C165.145 37.8632 165.373 38.4753 165.373 39.1923C165.373 39.9094 165.145 40.5215 164.673 41.0286C164.201 41.5358 163.624 41.7806 162.942 41.7806C162.574 41.7806 162.242 41.6932 161.927 41.5358C161.613 41.3784 161.368 41.1685 161.193 40.9062V43.7569ZM161.613 40.4865C161.927 40.8363 162.33 41.0111 162.819 41.0111C163.309 41.0111 163.711 40.8363 164.026 40.4865C164.341 40.1367 164.498 39.717 164.498 39.2098C164.498 38.7026 164.341 38.2654 164.026 37.9331C163.711 37.5834 163.309 37.4085 162.819 37.4085C162.33 37.4085 161.927 37.5834 161.613 37.9331C161.298 38.2829 161.14 38.7026 161.14 39.2098C161.123 39.717 161.28 40.1367 161.613 40.4865Z" fill="white"/>
<path d="M167.471 34.2251H166.614V41.6927H167.471V34.2251Z" fill="white"/>
<path d="M171.144 41.7806C170.462 41.7806 169.867 41.5358 169.412 41.0286C168.94 40.5215 168.713 39.9094 168.713 39.1923C168.713 38.4753 168.94 37.8632 169.412 37.356C169.885 36.8488 170.462 36.604 171.144 36.604C171.511 36.604 171.843 36.6914 172.158 36.8488C172.473 37.0062 172.718 37.2161 172.893 37.4784V36.7089H173.75V41.6932H172.893V40.9237C172.718 41.1685 172.473 41.3784 172.158 41.5533C171.843 41.7107 171.511 41.7806 171.144 41.7806ZM171.266 40.9936C171.756 40.9936 172.158 40.8188 172.473 40.469C172.788 40.1192 172.945 39.6995 172.945 39.1923C172.945 38.6852 172.788 38.2479 172.473 37.9157C172.158 37.5659 171.756 37.391 171.266 37.391C170.777 37.391 170.357 37.5659 170.042 37.9157C169.727 38.2654 169.57 38.6852 169.57 39.1923C169.57 39.6995 169.727 40.1367 170.042 40.469C170.374 40.8188 170.777 40.9936 171.266 40.9936Z" fill="white"/>
<path d="M177.282 41.728C176.828 41.728 176.46 41.6056 176.18 41.3432C175.901 41.0809 175.761 40.7136 175.761 40.2065V37.4957H174.711V36.7087H175.761V35.3271H176.618V36.7087H178.052V37.4957H176.618V40.1015C176.618 40.4163 176.688 40.6262 176.81 40.7661C176.95 40.8885 177.16 40.9585 177.44 40.9585C177.684 40.9585 177.894 40.9235 178.052 40.8536V41.6231C177.824 41.693 177.562 41.728 177.282 41.728Z" fill="white"/>
<path d="M179.573 41.693V37.4957H178.524V36.7087H179.573V35.7119C179.573 35.2222 179.713 34.8374 179.993 34.5751C180.273 34.3128 180.64 34.1729 181.095 34.1729C181.375 34.1729 181.619 34.2078 181.864 34.2953V35.0473C181.707 34.9773 181.514 34.9424 181.252 34.9424C180.972 34.9424 180.762 35.0123 180.623 35.1347C180.483 35.2571 180.43 35.4845 180.43 35.7993V36.7087H181.864V37.4957H180.43V41.693H179.573Z" fill="white"/>
<path d="M184.872 41.7806C184.12 41.7806 183.508 41.5358 183.001 41.0286C182.511 40.5215 182.267 39.9094 182.267 39.1923C182.267 38.4753 182.511 37.8632 183.001 37.356C183.491 36.8488 184.12 36.604 184.872 36.604C185.607 36.604 186.237 36.8488 186.726 37.356C187.216 37.8632 187.461 38.4753 187.461 39.1923C187.461 39.9094 187.216 40.5215 186.726 41.0286C186.237 41.5358 185.624 41.7806 184.872 41.7806ZM183.631 40.469C183.946 40.8188 184.365 40.9936 184.872 40.9936C185.38 40.9936 185.799 40.8188 186.114 40.469C186.429 40.1192 186.586 39.6995 186.586 39.1923C186.586 38.6852 186.429 38.2654 186.114 37.9157C185.799 37.5659 185.38 37.391 184.872 37.391C184.365 37.391 183.946 37.5659 183.631 37.9157C183.316 38.2654 183.141 38.6852 183.141 39.1923C183.141 39.6995 183.316 40.1192 183.631 40.469Z" fill="white"/>
<path d="M188.702 41.6931V36.7263H189.559V37.6882C189.647 37.3909 189.839 37.146 190.101 36.9536C190.364 36.7613 190.661 36.6738 190.958 36.6738C191.098 36.6738 191.238 36.6913 191.343 36.7088V37.6007C191.221 37.5483 191.063 37.5133 190.871 37.5133C190.521 37.5133 190.224 37.6707 189.962 37.968C189.699 38.2653 189.559 38.685 189.559 39.2272V41.6931H188.702Z" fill="white"/>
<path d="M198.741 41.6929V38.7723C198.741 38.3526 198.653 38.0378 198.496 37.7754C198.321 37.5306 198.076 37.4082 197.761 37.4082C197.359 37.4082 197.044 37.5656 196.8 37.8804C196.555 38.1952 196.415 38.6149 196.415 39.157V41.6929H195.558V38.7723C195.558 38.3526 195.47 38.0203 195.313 37.7754C195.138 37.5306 194.911 37.4082 194.596 37.4082C194.194 37.4082 193.861 37.5656 193.599 37.8979C193.354 38.2301 193.214 38.6674 193.214 39.227V41.6929H192.357V36.7261H193.214V37.4956C193.529 36.9185 194.036 36.6387 194.718 36.6387C195.47 36.6387 195.978 36.9884 196.257 37.7055C196.397 37.3732 196.607 37.1284 196.887 36.936C197.184 36.7436 197.517 36.6387 197.884 36.6387C198.426 36.6387 198.846 36.8136 199.161 37.1808C199.475 37.5481 199.633 38.0378 199.633 38.6499V41.6929H198.741Z" fill="white"/>
<path d="M12.6094 22.7354L7.3978 5.85885L1.11938 4.89697L11.2978 23.5923L12.6094 22.7354Z" fill="white"/>
<path d="M10.4409 37.5655L14.9705 40.8883L15.8974 31.2346L14.953 30.71L10.4409 37.5655Z" fill="white"/>
<path d="M33.6484 28.5242L34.4703 24.5893L20.1296 23.3301L20.1646 24.6067L33.6484 28.5242Z" fill="white"/>
</g>
<defs>
<clipPath id="clip0_6732_576">
<rect width="200" height="43.8615" fill="white"/>
</clipPath>
</defs>
</svg>
