<svg width="190" height="61" viewBox="0 0 190 61" fill="none" xmlns="http://www.w3.org/2000/svg">
<g opacity="0.65" clip-path="url(#clip0_6702_306)">
<path fill-rule="evenodd" clip-rule="evenodd" d="M151.006 17.405V14.8613L155.246 17.405V39.4505H151.006V17.405ZM85.9824 36.7241L83.9314 33.5033C82.5639 34.7302 81.3154 35.4664 79.5022 35.4664C76.4996 35.4664 74.4188 32.9512 74.4188 28.6874V28.3807C74.4188 24.209 76.5294 21.663 79.4723 21.663C81.1372 21.663 82.4749 22.3992 83.8125 23.5648L85.8337 19.9759C84.2583 18.5036 82.445 17.522 79.3833 17.522C73.9134 17.522 69.9597 21.9084 69.9597 28.442V28.7181C69.9597 35.2824 73.9134 39.6073 79.1749 39.6073C82.2963 39.6073 84.2284 38.5338 85.9824 36.7241ZM123.658 17.522V21.8292H118.894V17.522H123.658ZM123.658 23.4681V39.6073H118.894V23.4681H123.658ZM100.273 39.6077V29.1074C100.273 24.7691 98.1275 22.2855 93.5912 22.2855C91.2007 22.2855 89.6681 22.7257 88.0743 23.4487L88.902 27.064C90.2198 26.5296 91.354 26.1838 92.8863 26.1838C94.9705 26.1838 96.0432 27.2212 96.0432 29.1389V29.6105C95.0317 29.2017 93.9896 28.9503 92.5797 28.9503C89.2082 28.9503 86.8483 30.6164 86.8483 34.326V34.5461C86.8483 37.7841 89.0243 39.6077 91.7524 39.6077C93.6833 39.6077 95.0971 38.8217 96.0776 37.5326V39.6077H100.273ZM96.0738 33.823C96.0738 35.3635 94.8784 36.4009 93.1623 36.4009C91.9363 36.4009 91.0474 35.7093 91.0474 34.326V34.106C91.0474 32.597 92.059 31.8425 93.6528 31.8425C94.5722 31.8425 95.461 32.0626 96.0738 32.3769V33.823ZM149.208 39.6077V29.1074C149.208 24.7691 146.993 22.2855 142.311 22.2855C139.843 22.2855 138.261 22.7257 136.616 23.4487L137.47 27.064C138.831 26.5296 140.001 26.1838 141.583 26.1838C143.734 26.1838 144.842 27.2212 144.842 29.1389V29.6105C143.798 29.2017 142.722 28.9503 141.267 28.9503C137.787 28.9503 135.35 30.6164 135.35 34.326V34.5461C135.35 37.7841 137.597 39.6077 140.413 39.6077C142.406 39.6077 143.865 38.8217 144.877 37.5326V39.6077H149.208ZM144.874 33.823C144.874 35.3635 143.64 36.4009 141.868 36.4009C140.602 36.4009 139.685 35.7093 139.685 34.326V34.106C139.685 32.597 140.729 31.8425 142.374 31.8425C143.323 31.8425 144.241 32.0626 144.874 32.3769V33.823ZM161.821 21.8292V17.522H157.058V21.8292H161.821ZM161.821 39.6073V23.4681H157.058V39.6073H161.821ZM171.244 29.2581C173.561 30.4463 175.656 31.6031 175.656 34.4171C175.656 37.8565 173.054 39.6077 169.689 39.6077C167.689 39.6077 165.436 38.9822 163.531 37.6064L164.991 34.3234C166.642 35.449 168.292 36.043 169.689 36.043C170.895 36.043 171.53 35.5428 171.53 34.7298C171.53 33.9422 170.657 33.5514 169.306 32.9464C169.048 32.831 168.773 32.7077 168.483 32.5724C166.292 31.5718 164.071 30.3212 164.071 27.3508C164.071 24.1303 166.61 22.2855 169.879 22.2855C171.688 22.2855 173.593 22.8171 175.18 23.7864L173.879 27.1632C172.45 26.3503 171.022 25.85 169.879 25.85C168.8 25.85 168.229 26.319 168.229 27.0381C168.229 27.7437 169.071 28.1654 170.404 28.8324C170.666 28.9635 170.947 29.1041 171.244 29.2581ZM180.286 18.677L178.166 17.4052V19.9487V23.3582H176.515V26.76H178.166V35.1622C178.166 38.5143 179.898 39.4505 182.405 39.4505C183.72 39.4505 184.791 39.1485 185.617 38.6653V35.2226C185.066 35.5246 184.424 35.6757 183.751 35.6757C182.833 35.6757 182.405 35.2226 182.405 34.2865V26.76H184.949V23.3582H182.405V19.9489L180.286 18.677ZM134.484 35.2888V38.8052C133.619 39.2992 132.499 39.6073 131.123 39.6073C128.498 39.6073 126.685 38.6512 126.685 35.2271V26.6446H124.956V23.1698H126.685V19.6872H126.689V17.522L128.854 18.6046L131.02 19.6872H131.123V23.1698H133.831V26.6446H131.123V34.3325C131.123 35.2888 131.571 35.7515 132.531 35.7515C133.235 35.7515 133.908 35.5973 134.484 35.2888ZM117.443 31.1905V30.7039C117.443 25.1383 114.403 22.4924 111.084 22.4924C108.882 22.4924 107.382 23.6786 106.421 25.0471V22.4924H102.181V42.8422H102.181L106.42 45.386V43.3415L106.421 37.0297C107.382 38.2158 108.851 39.402 111.084 39.402C114.434 39.402 117.443 36.756 117.443 31.1905ZM113.204 31.1296C113.204 33.9276 111.611 35.6307 109.781 35.6307C107.982 35.6307 106.39 33.8972 106.39 31.1296V30.7647C106.39 27.9971 107.982 26.2636 109.781 26.2636C111.611 26.2636 113.204 27.9971 113.204 30.7647V31.1296Z" fill="white"/>
<path d="M30.0101 60.0201C46.5842 60.0201 60.0201 46.5842 60.0201 30.0101C60.0201 13.436 46.5842 0 30.0101 0C13.436 0 0 13.436 0 30.0101C0 46.5842 13.436 60.0201 30.0101 60.0201Z" fill="#333333"/>
<path d="M38.4579 10.2021H21.5627L22.8224 20.4974H37.1828L38.4579 10.2021Z" fill="white"/>
<path d="M36.9096 22.6982H23.1023L23.6798 27.3152C23.9477 27.473 24.1246 27.6212 24.4046 27.7594C26.1408 28.616 28.0526 29.0633 29.9911 29.0663C31.9296 29.0693 33.8428 28.6281 35.5817 27.7768C35.8704 27.6355 36.0508 27.4835 36.3268 27.3213L36.9096 22.6982Z" fill="white"/>
<path d="M40.0307 26.4717C38.8521 28.0008 37.3342 29.2391 35.5953 30.0903C33.8563 30.9416 31.9432 31.3828 30.0047 31.3798C28.0661 31.3768 26.1544 30.9296 24.4182 30.0729C22.682 29.2162 21.168 27.9732 19.994 26.4404L17.9678 27.9725C19.3789 29.8149 21.1987 31.309 23.2856 32.3387C25.3726 33.3685 27.6705 33.9061 30.0007 33.9097C32.3308 33.9134 34.6304 33.3829 36.7206 32.3597C38.8108 31.3365 40.6355 29.848 42.0523 28.0101L40.0307 26.4717Z" fill="white"/>
<path fill-rule="evenodd" clip-rule="evenodd" d="M28.8943 39.4486C28.5716 41.2152 27.0156 42.5548 25.1447 42.5548C23.0398 42.5548 21.3335 40.8593 21.3335 38.7681C21.3335 36.6768 23.0398 34.9814 25.1447 34.9814C26.8618 34.9814 28.3136 36.1097 28.7903 37.6608C28.9423 37.5783 29.1017 37.5109 29.266 37.4593C29.5212 37.3792 29.7883 37.3373 30.0587 37.3361C30.329 37.3349 30.5965 37.3745 30.8524 37.4523C31.0235 37.5044 31.1895 37.5735 31.3476 37.6591C31.8248 36.1089 33.2762 34.9814 34.9927 34.9814C37.0975 34.9814 38.804 36.6768 38.804 38.7681C38.804 40.8593 37.0975 42.5548 34.9927 42.5548C33.1173 42.5548 31.5583 41.2087 31.2407 39.436C31.1356 39.217 30.9701 39.0315 30.7633 38.9016C30.5544 38.7701 30.312 38.7009 30.0648 38.702C29.8176 38.7032 29.5758 38.7743 29.368 38.9077C29.1617 39.04 28.9975 39.2277 28.8943 39.4486ZM25.1447 40.5871C26.1557 40.5871 26.9753 39.7724 26.9753 38.7681C26.9753 37.7635 26.1557 36.9491 25.1447 36.9491C24.1336 36.9491 23.314 37.7635 23.314 38.7681C23.314 39.7724 24.1336 40.5871 25.1447 40.5871ZM34.9927 40.5871C36.0038 40.5871 36.8234 39.7724 36.8234 38.7681C36.8234 37.7635 36.0038 36.9491 34.9927 36.9491C33.9816 36.9491 33.162 37.7635 33.162 38.7681C33.162 39.7724 33.9816 40.5871 34.9927 40.5871Z" fill="white"/>
<path d="M25.5474 48.5512C27.0728 48.5512 29.4176 47.5588 30.1291 46.5323C30.8407 47.5588 33.1855 48.5512 34.7108 48.5512C36.2745 48.5512 37.2839 48.235 38.3466 47.4146C39.0294 46.8886 39.8533 45.6821 39.8533 44.5019C39.6946 44.6113 39.5493 44.716 39.4117 44.8147C38.6479 45.3644 38.1305 45.7371 36.9151 45.7371C35.2854 45.7371 34.2453 44.7791 33.3789 43.9813C32.7604 43.4116 32.2305 42.9238 31.6379 42.9238C31.0818 42.9238 30.7514 43.2641 30.4446 43.5802C30.3394 43.6888 30.2369 43.7943 30.1291 43.8822C30.0213 43.7943 29.9189 43.6888 29.8136 43.5802C29.5069 43.2641 29.1764 42.9238 28.6203 42.9238C28.0277 42.9238 27.4978 43.4116 26.8794 43.9813C26.013 44.7791 24.9728 45.7371 23.3431 45.7371C22.1278 45.7371 21.6102 45.3648 20.8464 44.8147C20.7091 44.716 20.5638 44.6113 20.405 44.5019C20.405 45.6821 21.229 46.8886 21.9115 47.4146C22.9744 48.235 23.9838 48.5512 25.5474 48.5512Z" fill="white"/>
</g>
<defs>
<clipPath id="clip0_6702_306">
<rect width="190" height="60.0201" fill="white"/>
</clipPath>
</defs>
</svg>
