<svg width="120" height="57" viewBox="0 0 120 57" fill="none" xmlns="http://www.w3.org/2000/svg">
<g opacity="0.65" clip-path="url(#clip0_6798_707)">
<path d="M100.498 49.9775H98.6509V51.227H100.498C100.824 51.227 101.313 51.227 101.313 50.6294C101.313 49.9775 100.824 49.9775 100.498 49.9775Z" fill="white"/>
<path d="M94.0335 49.8687C92.947 49.8687 92.5125 50.2489 92.5125 51.0638C92.5125 51.8786 92.947 52.3132 94.0335 52.3132C95.12 52.3132 95.5545 51.9329 95.5545 51.0638C95.5545 50.3032 95.1743 49.8687 94.0335 49.8687Z" fill="white"/>
<path d="M114.133 45.8486H62.7976C62.363 45.8486 61.9285 46.1202 61.7655 46.5005L57.7456 54.3774C57.3653 55.1379 57.9085 56.1157 58.7777 56.1157H110.167C110.602 56.1157 111.037 55.8441 111.2 55.4638L115.165 47.587C115.545 46.7721 115.002 45.8486 114.133 45.8486ZM70.3486 53.1279H68.9361L66.1657 50.0858V53.1279H65.1335V49.0537H66.5459L69.3164 52.1501V49.0537H70.3486V53.1279ZM75.7265 49.9229H72.4672V50.7377H75.7265V51.4982H72.4672V52.3131H75.7265V53.1279H71.435V49.0537H75.7265V49.9229ZM81.6478 49.9772H79.6378V53.1823H78.6057V49.9772H76.5957V49.108H81.5935V49.9772H81.6478ZM89.416 53.1279H87.9493L86.7542 50.0315L85.5591 53.1279H84.0923L82.4626 49.0537H83.6034L84.7985 52.2588L86.1023 49.0537H87.406L88.7098 52.2588L89.9049 49.0537H91.0457L89.416 53.1279ZM94.0335 53.2366C92.2408 53.2366 91.4803 52.4761 91.4803 51.118C91.4803 49.7599 92.2408 48.9994 94.0335 48.9994C95.8261 48.9994 96.5867 49.7599 96.5867 51.118C96.641 52.4761 95.8261 53.2366 94.0335 53.2366ZM102.236 53.1279H100.987L100.335 52.0415H98.651V53.1279H97.6188V49.0537H100.824C101.747 49.0537 102.399 49.6513 102.399 50.5748C102.399 51.2266 102.073 51.7155 101.53 51.9328L102.236 53.1279ZM108.864 53.1279H107.397L105.604 51.4439L104.355 52.3674V53.1279H103.323V49.0537H104.355V51.1723L107.288 49.0537H108.864L106.365 50.8464L108.864 53.1279Z" fill="white"/>
<path d="M119.728 24.7714C119.239 24.7714 117.773 28.1937 114.133 30.584C113.644 28.8456 112.884 27.3789 112.884 25.5862C112.884 22.3268 116.795 19.3934 117.23 18.9045C117.23 18.5242 115.111 16.7859 114.622 16.7859C114.024 16.7859 109.407 21.1317 109.407 24.2825C109.407 24.4998 109.461 24.6627 109.461 24.8257C108.266 25.9122 102.617 34.9841 101.693 34.0063C99.3029 31.6161 113.264 5.10636 116.36 2.00994C116.849 1.52103 113.481 -0.597574 112.829 0.0543047C111.743 1.14077 106.799 9.94113 102.888 18.6872C102.019 17.6007 100.77 16.8402 99.2485 16.8402C95.5546 16.8402 92.4038 22.1639 90.6111 27.1616C88.4925 30.1494 85.3418 34.6582 84.6899 33.952C83.0602 32.3223 88.3839 21.5663 89.9593 19.9909C90.3939 19.5563 87.7863 17.4377 86.9715 18.0353C86.6999 18.1983 86.4283 18.5242 86.1566 19.0131C85.2875 17.8723 83.8207 16.8402 82.2454 16.8402C78.6057 16.8402 75.455 22.1095 73.608 27.1073C71.3264 30.095 67.6324 34.7125 64.536 34.7125C64.1557 34.7125 63.1779 34.2779 63.1779 32.6482C63.1779 31.3988 63.3952 30.1494 63.7755 28.7913C64.2644 29.0086 64.8619 29.1172 65.5681 29.1172C70.6745 29.1172 73.7166 23.359 73.7166 20.6971C73.7166 18.9045 72.0326 16.8402 70.2399 16.8402C66.1657 16.8402 62.2544 22.3811 60.4074 27.9221C58.2888 30.8556 55.5727 34.6039 55.0294 33.952C52.5306 31.4531 66.546 5.10636 69.6967 1.95562C70.2399 1.41239 66.7089 -0.597574 66.1114 -1.85296e-05C64.699 1.41239 56.4418 16.5142 52.8022 26.9443C50.6836 29.9321 47.4242 34.6582 46.718 33.952C45.0883 32.3223 50.412 21.5663 51.9873 19.9909C52.4219 19.5563 49.8144 17.4377 48.9995 18.0353C48.7279 18.1983 48.4563 18.5242 48.1847 19.0131C47.3155 17.8723 45.8488 16.8402 44.2734 16.8402C40.6338 16.8402 37.5373 22.0009 35.6904 26.9986C34.6039 28.411 33.1372 29.9321 31.1272 30.1494C31.1272 28.7913 31.0186 27.8135 30.7469 27.3246C35.9076 16.0797 42.1005 4.34584 44.3278 2.11859C44.871 1.62968 41.5029 -0.543251 40.7967 0.162951C39.0584 1.84697 32.7026 13.7981 27.3246 26.2381C26.4554 26.1838 25.4776 26.2924 24.6084 26.6184C24.6084 26.6184 21.9466 29.2802 23.033 29.8234C23.033 29.8234 23.7393 29.3888 25.4776 29.2802C23.522 31.942 21.4577 34.6582 21.0231 34.115C18.5785 31.6161 32.5939 5.21501 35.7447 2.06426C36.2879 1.52103 32.7569 -0.488928 32.1594 0.108628C30.7469 1.52103 22.4898 16.6229 18.8502 27.0529C16.7316 30.0407 13.4722 34.7668 12.766 34.0606C11.1363 32.4309 16.4599 21.6749 18.0353 20.0996C18.4699 19.665 15.8624 17.5464 15.0475 18.1439C14.7759 18.3069 14.5043 18.6328 14.2327 19.1218C13.3635 17.981 11.8968 16.9488 10.3214 16.9488C4.50883 16.9488 0 30.095 0 34.6582C0 36.3965 1.68402 38.7324 2.87913 38.7324C4.4545 38.7324 7.06202 34.9841 9.3436 30.9642C9.01766 32.3766 8.85469 33.5717 8.85469 34.6582C8.85469 36.3965 10.3757 38.7324 11.5165 38.7324C12.8746 38.7324 15.4278 35.3101 17.4921 31.8334C17.2748 32.9199 17.1118 33.8977 17.1118 34.6582C17.1118 36.6138 18.6872 38.7324 19.7737 38.7324C20.8058 38.7324 22.3812 36.8854 24.0109 34.5495C21.4034 41.5029 19.5564 47.9131 19.5564 51.9873C19.5564 53.7256 21.5663 56.0615 22.5441 56.0615C26.6727 56.0615 30.421 41.1227 31.1272 32.7569C32.4853 32.5939 33.6804 31.8334 34.6582 30.8556C34.278 32.3766 34.0607 33.7347 34.0607 34.6582C34.0607 36.3965 35.7447 38.7324 36.9398 38.7324C38.5152 38.7324 41.1227 34.9841 43.4043 30.9642C43.0783 32.3766 42.9153 33.5717 42.9153 34.6582C42.9153 36.3965 44.4364 38.7324 45.5772 38.7324C46.9353 38.7324 49.4885 35.3101 51.5527 31.8334C51.3354 32.9199 51.1725 33.8977 51.1725 34.6582C51.1725 36.6138 52.7479 38.7324 53.8343 38.7324C55.1381 38.7324 57.5283 35.5817 59.5383 32.268C59.4839 32.8112 59.4296 33.3544 59.4296 33.8433C59.4296 36.9398 62.0371 38.7324 63.0149 38.7324C66.383 38.7324 69.8597 35.0385 72.3585 31.4531C72.0869 32.7026 71.924 33.789 71.924 34.6582C71.924 36.3965 73.608 38.7324 74.8031 38.7324C76.3785 38.7324 78.986 34.9841 81.2675 30.9642C80.9416 32.3766 80.7786 33.5717 80.7786 34.6582C80.7786 36.3965 82.2997 38.7324 83.4405 38.7324C84.7986 38.7324 87.2974 35.3644 89.3617 31.942C89.1444 33.0285 89.0358 33.952 89.0358 34.6582C89.0358 36.3965 90.7198 38.7324 91.8606 38.7324C93.436 38.7324 96.2064 34.8755 98.488 30.6926C98.1077 32.3223 97.8904 33.6804 97.8904 34.6582C97.8904 36.6138 99.4658 38.7324 100.552 38.7324C102.888 38.7324 108.592 28.8456 109.624 25.7492C109.95 28.1937 110.874 30.1494 111.254 32.0507C109.842 32.6482 108.103 32.7569 106.365 33.0285C106.148 33.1915 105.496 34.0063 105.496 34.6039C105.496 35.799 108.375 38.8954 110.656 38.8954C112.395 38.8954 114.676 36.8311 114.676 33.6804C114.676 33.4088 114.622 33.1371 114.622 32.9199C118.533 29.7691 120.761 24.7714 119.728 24.7714ZM71.1091 19.665C71.7067 20.2625 68.3386 26.9986 64.536 26.9986H64.4817C66.6003 22.5441 70.2399 18.7958 71.1091 19.665ZM4.18289 34.115C4.12857 34.115 4.07424 34.0606 4.01992 34.0063C3.9656 33.8433 3.91127 33.6261 3.91127 33.2458C3.91127 28.1394 9.07198 19.502 11.2992 19.502C12.0054 19.502 12.603 20.1539 13.2005 20.8601L12.0054 23.196C9.77818 26.7813 5.75826 34.115 4.18289 34.115ZM23.359 51.3897C23.0874 51.1181 22.9787 50.6835 22.9787 49.923C22.9787 46.7723 25.4776 39.7103 28.7913 31.9964C27.8678 39.5473 24.7714 52.7478 23.359 51.3897ZM38.2436 34.115C38.1892 34.115 38.1349 34.0606 38.0806 34.0063C38.0263 33.8433 37.9719 33.6261 37.9719 33.2458C37.9719 28.1394 43.1326 19.502 45.3599 19.502C46.0661 19.502 46.6637 20.1539 47.2612 20.8601L46.0661 23.196C43.8388 26.7813 39.8189 34.115 38.2436 34.115ZM76.1068 34.115C76.0525 34.115 75.9982 34.0606 75.9439 34.0063C75.8895 33.8433 75.8352 33.6261 75.8352 33.2458C75.8352 28.1394 80.9959 19.502 83.2232 19.502C83.9294 19.502 84.5269 20.1539 85.1245 20.8601L83.9294 23.196C81.7021 26.7813 77.6822 34.115 76.1068 34.115ZM93.1643 34.115C93.11 34.115 92.8927 34.0606 92.8927 33.2458C92.8927 28.1394 97.8905 19.502 100.281 19.502C100.933 19.502 101.53 20.0452 102.019 20.6971L100.933 23.3046C98.651 26.9443 94.6854 34.115 93.1643 34.115ZM110.222 35.8533C109.733 35.8533 109.135 35.636 108.592 35.1471C109.679 35.1471 110.548 34.9841 111.526 34.6039C111.417 35.2014 111.145 35.8533 110.222 35.8533Z" fill="white"/>
</g>
<defs>
<clipPath id="clip0_6798_707">
<rect width="120" height="56.0616" fill="white"/>
</clipPath>
</defs>
</svg>
