<svg width="150" height="57" viewBox="0 0 150 57" fill="none" xmlns="http://www.w3.org/2000/svg">
<g opacity="0.65" clip-path="url(#clip0_6806_829)">
<path d="M38.5101 14.3308C37.2475 11.4268 35.5429 8.90152 33.3333 6.81818C31.1237 4.67172 28.5985 3.0303 25.6313 1.83081C22.7273 0.568182 19.6338 0 16.2879 0H0V47.4116V56.1237L8.64899 47.4116H16.2879C19.6338 47.4116 22.7273 46.7803 25.6313 45.5808C28.5354 44.3813 31.1237 42.6768 33.3333 40.5303C35.5429 38.3838 37.2475 35.9217 38.5101 33.0177C39.7727 30.1768 40.404 27.0202 40.404 23.6742C40.404 20.3283 39.7727 17.2348 38.5101 14.3308ZM27.8409 29.6717C28.2828 30.2399 28.1566 31.1237 27.5252 31.5657L22.7273 34.9748C22.1591 35.4167 21.2752 35.2904 20.8965 34.6591L15.9722 27.6515L10.7323 31.4394L10.3535 12.2475L28.1566 18.9394L22.9167 22.7273L27.8409 29.6717Z" fill="white"/>
<path d="M49.3687 35.4796V15.4038H57.3232C59.0277 15.4038 60.5429 15.6563 61.8055 16.2245C63.1313 16.7296 64.2045 17.4871 65.0252 18.371C65.9091 19.2548 66.5404 20.3281 66.9823 21.5275C67.4242 22.727 67.6767 24.0528 67.6767 25.4417C67.6767 26.9568 67.4242 28.3457 66.9192 29.6084C66.4141 30.871 65.7197 31.8811 64.8358 32.7649C63.952 33.6488 62.8156 34.3432 61.553 34.7851C60.2904 35.2902 58.8383 35.4796 57.2601 35.4796H49.3687ZM61.9318 25.4417C61.9318 24.6841 61.8055 23.9265 61.6161 23.2952C61.4267 22.6639 61.1111 22.0957 60.6692 21.6538C60.2904 21.2119 59.7853 20.8331 59.2171 20.5806C58.649 20.3281 58.0176 20.2018 57.2601 20.2018H54.9873V30.6816H57.2601C58.0176 30.6816 58.649 30.5553 59.2171 30.3028C59.7853 30.0503 60.2904 29.6715 60.6692 29.2296C61.0479 28.7876 61.3636 28.2195 61.553 27.525C61.8687 26.8937 61.9318 26.1993 61.9318 25.4417Z" fill="white"/>
<path d="M74.5581 35.4796V15.4038H80.2399V35.4796H74.5581Z" fill="white"/>
<path d="M93.4973 15.4038H98.674L105.808 35.4796H100.063L98.8003 31.5654H93.3079L92.1084 35.4796H86.3003L93.4973 15.4038ZM97.9165 27.9038L96.0856 21.6538L94.1917 27.9038H97.9165Z" fill="white"/>
<path d="M121.78 21.7804C121.212 21.4647 120.581 21.1491 120.013 20.8965C119.508 20.644 118.876 20.4546 118.245 20.2652C117.614 20.0758 116.983 19.9496 116.351 19.9496C115.846 19.9496 115.467 20.0127 115.152 20.2021C114.836 20.3284 114.71 20.5809 114.71 20.9597C114.71 21.2122 114.836 21.4647 114.962 21.591C115.089 21.7173 115.404 21.9066 115.72 22.0329C116.036 22.1592 116.414 22.2854 116.919 22.4117C117.424 22.538 117.929 22.7274 118.498 22.9167C119.445 23.2324 120.328 23.4849 121.086 23.8637C121.844 24.1794 122.475 24.6213 123.043 25.0632C123.548 25.5051 123.99 26.0733 124.306 26.7678C124.621 27.3991 124.748 28.2198 124.748 29.1667C124.748 30.3662 124.495 31.3763 124.053 32.197C123.611 33.0178 122.98 33.7122 122.286 34.1541C121.528 34.6592 120.707 34.9748 119.76 35.2274C118.813 35.4799 117.866 35.543 116.919 35.543C116.162 35.543 115.404 35.4799 114.584 35.3536C113.763 35.2274 113.005 35.1011 112.185 34.8486C111.427 34.6592 110.606 34.4066 109.912 34.091C109.154 33.7753 108.523 33.5228 107.892 33.144L110.354 28.2829C111.048 28.7248 111.743 29.1036 112.5 29.3561C113.132 29.6718 113.826 29.9243 114.584 30.1137C115.341 30.3662 116.162 30.4294 116.983 30.4294C117.614 30.4294 118.056 30.3662 118.308 30.1768C118.561 30.0506 118.687 29.7981 118.687 29.5455C118.687 29.2299 118.561 29.0405 118.308 28.8511C118.056 28.6617 117.74 28.4723 117.298 28.346C116.856 28.2198 116.351 28.0304 115.846 27.9041C115.278 27.7779 114.71 27.5885 114.078 27.3359C113.132 27.0203 112.374 26.7046 111.743 26.3258C111.048 26.0102 110.543 25.5683 110.101 25.1263C109.659 24.6844 109.344 24.1794 109.154 23.6112C108.965 23.043 108.839 22.4117 108.839 21.6541C108.839 20.5178 109.028 19.5708 109.47 18.6869C109.912 17.8662 110.417 17.1087 111.174 16.5405C111.869 15.9723 112.69 15.5304 113.637 15.2779C114.584 14.9622 115.53 14.8359 116.541 14.8359C117.298 14.8359 118.056 14.8991 118.75 15.0253C119.445 15.1516 120.139 15.341 120.834 15.5935C121.528 15.7829 122.159 16.0354 122.727 16.288C123.296 16.5405 123.864 16.793 124.306 16.9824L121.78 21.7804Z" fill="white"/>
<path d="M134.154 35.4796V15.4038H143.055C144.065 15.4038 145.012 15.5932 145.833 16.0351C146.717 16.4139 147.411 16.9821 148.043 17.6134C148.674 18.2447 149.116 19.0023 149.495 19.823C149.81 20.6437 150 21.5275 150 22.3483C150 23.2321 149.81 24.1159 149.495 24.9366C149.179 25.7573 148.737 26.5149 148.106 27.1462C147.538 27.7775 146.78 28.3457 145.959 28.7245C145.139 29.1033 144.192 29.2927 143.182 29.2927H139.772V35.4796H134.154ZM139.836 24.5579H142.866C143.182 24.5579 143.56 24.4316 143.813 24.1159C144.129 23.8003 144.255 23.2321 144.255 22.4114C144.255 21.5907 144.065 21.0225 143.75 20.7068C143.434 20.3912 143.055 20.2649 142.677 20.2649H139.836V24.5579Z" fill="white"/>
</g>
<defs>
<clipPath id="clip0_6806_829">
<rect width="150" height="56.1237" fill="white"/>
</clipPath>
</defs>
</svg>
