<svg width="174" height="25" viewBox="0 0 174 25" fill="none" xmlns="http://www.w3.org/2000/svg">
<g opacity="0.65" clip-path="url(#clip0_6641_910)">
<path d="M10.1926 24.9996C7.25453 24.9996 4.82427 24.0312 2.90181 22.0943C0.979362 20.1574 0 17.7543 0 14.9207C0 12.0871 0.979362 9.68398 2.90181 7.74711C4.82427 5.81023 7.25453 4.8418 10.1926 4.8418C11.97 4.8418 13.6385 5.27221 15.162 6.09718C16.6854 6.95801 17.8824 8.06992 18.753 9.50464L13.8924 12.2665C13.566 11.6567 13.0944 11.1546 12.4053 10.7959C11.7523 10.4372 10.9906 10.2579 10.1926 10.2579C8.85053 10.2579 7.72608 10.6883 6.85553 11.585C5.98499 12.4458 5.58599 13.5577 5.58599 14.9566C5.58599 16.3554 6.02126 17.4673 6.85553 18.3282C7.72608 19.2249 8.85053 19.6553 10.1926 19.6553C11.0269 19.6553 11.7886 19.4759 12.4415 19.1173C13.0944 18.7586 13.6023 18.2564 13.8924 17.6108L18.753 20.3726C17.8824 21.8074 16.7217 22.9551 15.162 23.816C13.6385 24.5692 11.97 24.9996 10.1926 24.9996Z" fill="white"/>
<path d="M36.5266 22.0943C34.5316 24.0312 32.1013 24.9996 29.1995 24.9996C26.2977 24.9996 23.8674 24.0312 21.8362 22.0943C19.8412 20.1216 18.8618 17.7543 18.8618 14.9207C18.8618 12.0871 19.8412 9.68398 21.8362 7.74711C23.8312 5.81023 26.2614 4.8418 29.1995 4.8418C32.1376 4.8418 34.5679 5.81023 36.5266 7.74711C38.5216 9.68398 39.5372 12.0513 39.5372 14.9207C39.5372 17.7901 38.5216 20.1216 36.5266 22.0943ZM25.7899 18.2564C26.6967 19.1531 27.8574 19.5835 29.1995 19.5835C30.5416 19.5835 31.7023 19.1531 32.6092 18.2564C33.516 17.3597 33.9875 16.2478 33.9875 14.8848C33.9875 13.5219 33.516 12.4458 32.6092 11.5491C31.7023 10.6524 30.5779 10.1861 29.1995 10.1861C27.8212 10.1861 26.6967 10.6524 25.7899 11.5491C24.8831 12.4458 24.4478 13.5577 24.4478 14.8848C24.4478 16.212 24.8831 17.3597 25.7899 18.2564Z" fill="white"/>
<path d="M52.1964 14.096V5.27246H57.7461V24.5336H53.2845L47.1545 15.7101V24.5336H41.6047V5.27246H46.0663L52.1964 14.096Z" fill="white"/>
<path d="M71.6022 24.5336H65.3633L59.1606 5.27246H65.2907L68.4827 17.5035L71.6747 5.27246H77.8048L71.6022 24.5336Z" fill="white"/>
<path d="M84.7692 17.3241V19.4762H92.0237V24.5336H79.2195V5.27246H91.8786V10.294H84.7692V12.3743H91.1895V17.3241H84.7692Z" fill="white"/>
<path d="M110.233 24.5336H104.284L101.201 18.4719H99.8224V24.5336H94.2727V5.27246H102.071C104.175 5.27246 105.953 5.88222 107.367 7.1376C108.746 8.35711 109.471 10.007 109.471 12.0515C109.471 13.1993 109.217 14.2036 108.673 15.1362C108.129 16.0687 107.403 16.7861 106.46 17.36L110.233 24.5336ZM101.926 10.3298H99.8224V13.9166H101.926C102.507 13.9525 102.978 13.7732 103.341 13.4862C103.667 13.1634 103.849 12.733 103.849 12.1591C103.849 11.5852 103.667 11.1548 103.341 10.832C102.978 10.4733 102.507 10.3298 101.926 10.3298Z" fill="white"/>
<path d="M118.358 24.9996C116.254 24.9996 114.513 24.5692 113.098 23.7084C111.684 22.8475 110.74 21.6639 110.233 20.1574L114.984 17.4315C115.637 19.0814 116.798 19.8705 118.503 19.8705C119.772 19.8705 120.389 19.5477 120.389 18.8662C120.389 18.4716 120.171 18.1847 119.736 17.9695C119.518 17.8619 119.265 17.7901 119.047 17.7184C118.974 17.6825 118.648 17.6108 118.031 17.4315L116.943 17.1445C113.062 15.9967 111.139 13.9164 111.139 10.9394C111.139 9.18183 111.792 7.71124 113.062 6.56346C114.368 5.41568 116.073 4.8418 118.14 4.8418C119.809 4.8418 121.296 5.23634 122.602 6.02544C123.907 6.81454 124.851 7.92645 125.467 9.3253L120.861 11.9795C120.316 10.6165 119.446 9.93505 118.176 9.93505C117.705 9.93505 117.342 10.0427 117.088 10.222C116.834 10.4013 116.689 10.6524 116.689 10.9394C116.689 11.3339 116.907 11.6567 117.342 11.8719C117.741 12.0871 118.612 12.3741 119.881 12.7328C121.622 13.2349 123.001 13.8447 124.016 14.562C125.322 15.4587 125.975 16.8576 125.975 18.7586C125.975 20.6596 125.286 22.2019 123.944 23.3138C122.565 24.4616 120.715 24.9996 118.358 24.9996Z" fill="white"/>
<path d="M127.499 12.8407V24.5337H133.048V9.64844L127.499 12.8407Z" fill="white"/>
<path d="M152.781 22.0943C150.786 24.0312 148.355 24.9996 145.453 24.9996C142.552 24.9996 140.121 24.0312 138.09 22.0943C136.095 20.1216 135.116 17.7543 135.116 14.9207C135.116 12.0871 136.095 9.68398 138.09 7.74711C140.085 5.81023 142.515 4.8418 145.453 4.8418C148.392 4.8418 150.822 5.81023 152.781 7.74711C154.776 9.68398 155.791 12.0513 155.791 14.9207C155.791 17.7901 154.812 20.1216 152.781 22.0943ZM142.044 18.2564C142.951 19.1531 144.111 19.5835 145.453 19.5835C146.796 19.5835 147.956 19.1531 148.863 18.2564C149.77 17.3597 150.241 16.2478 150.241 14.8848C150.241 13.5219 149.77 12.4458 148.863 11.5491C147.956 10.6524 146.832 10.1861 145.453 10.1861C144.075 10.1861 142.951 10.6524 142.044 11.5491C141.137 12.4458 140.702 13.5577 140.702 14.8848C140.702 16.2478 141.173 17.3597 142.044 18.2564Z" fill="white"/>
<path d="M168.45 14.096V5.27246H174V24.5336H169.538L163.408 15.7101V24.5336H157.859V5.27246H162.32L168.45 14.096Z" fill="white"/>
<path d="M128.732 2.94118L127.281 2.15208V5.16499V5.52367V8.57245L132.577 5.59541L134.027 6.42037V3.37159V3.01291V0L128.732 2.94118Z" fill="white"/>
</g>
<defs>
<clipPath id="clip0_6641_910">
<rect width="174" height="25" fill="white"/>
</clipPath>
</defs>
</svg>
