<svg width="150" height="40" viewBox="0 0 150 40" fill="none" xmlns="http://www.w3.org/2000/svg">
<g opacity="0.65" clip-path="url(#clip0_6644_105)">
<mask id="mask0_6644_105" style="mask-type:luminance" maskUnits="userSpaceOnUse" x="0" y="0" width="150" height="40">
<path d="M147.837 0H2.16346C0.968614 0 0 0.968614 0 2.16346V37.1394C0 38.3342 0.968614 39.3028 2.16346 39.3028H147.837C149.031 39.3028 150 38.3342 150 37.1394V2.16346C150 0.968614 149.031 0 147.837 0Z" fill="white"/>
</mask>
<g mask="url(#mask0_6644_105)">
<mask id="mask1_6644_105" style="mask-type:luminance" maskUnits="userSpaceOnUse" x="5" y="5" width="30" height="30">
<path d="M34.3045 5.40332H5.69702V34.1053H34.3045V5.40332Z" fill="white"/>
</mask>
<g mask="url(#mask1_6644_105)">
<path fill-rule="evenodd" clip-rule="evenodd" d="M7.09885 32.7028L9.06259 30.7386C9.83693 29.9639 11.0926 29.9639 11.867 30.7384L13.8305 32.7026C14.6048 33.4772 15.8606 33.4772 16.6348 32.7026L18.5984 30.7386C19.3728 29.9639 20.6284 29.9639 21.4028 30.7384L23.3664 32.7026C24.1406 33.4772 25.3964 33.4772 26.1707 32.7026L28.1342 30.7384C28.9086 29.9639 30.1643 29.9639 30.9387 30.7384L32.9023 32.7028C33.6766 33.4773 34.9321 33.4775 35.7065 32.7031L39.0738 29.3358H34.3044V13.4757C34.3044 9.01747 30.6903 5.40332 26.232 5.40332H13.7693C9.31102 5.40332 5.69687 9.01747 5.69687 13.4757V19.7543V29.3358H0.92749L4.29467 32.7031C5.06905 33.4775 6.32459 33.4773 7.09885 32.7028ZM24.4998 20.5659C27.2032 20.5659 29.3947 18.3744 29.3947 15.6709C29.3947 12.9676 27.2032 10.7761 24.4998 10.7761C22.4607 10.7761 20.7128 12.023 19.9768 13.7958C19.241 12.023 17.4931 10.7761 15.4541 10.7761C12.7506 10.7761 10.5592 12.9676 10.5592 15.6709C10.5592 18.3744 12.7506 20.5659 15.4541 20.5659C17.4931 20.5659 19.241 19.319 19.9768 17.5461C20.7128 19.319 22.4607 20.5659 24.4998 20.5659ZM19.9767 27.4962C22.9619 27.4962 25.382 26.693 25.382 25.7023C25.382 24.7116 22.9619 23.9084 19.9767 23.9084C16.9915 23.9084 14.5715 24.7116 14.5715 25.7023C14.5715 26.693 16.9915 27.4962 19.9767 27.4962Z" fill="white"/>
<path d="M28.6203 15.6705C28.6203 16.8179 27.6901 17.7481 26.5426 17.7481C25.3951 17.7481 24.4648 16.8179 24.4648 15.6705C24.4648 14.5229 25.3951 13.5928 26.5426 13.5928C27.6901 13.5928 28.6203 14.5229 28.6203 15.6705Z" fill="white"/>
<path d="M19.5746 15.6705C19.5746 16.8179 18.6443 17.7481 17.4969 17.7481C16.3494 17.7481 15.4192 16.8179 15.4192 15.6705C15.4192 14.5229 16.3494 13.5928 17.4969 13.5928C18.6443 13.5928 19.5746 14.5229 19.5746 15.6705Z" fill="white"/>
</g>
<path fill-rule="evenodd" clip-rule="evenodd" d="M147.836 1.4423H2.16346C1.76517 1.4423 1.4423 1.76518 1.4423 2.16346V37.1394C1.4423 37.5377 1.76518 37.8606 2.16346 37.8606H147.836C148.235 37.8606 148.558 37.5377 148.558 37.1394V2.16346C148.558 1.76517 148.235 1.4423 147.836 1.4423ZM2.16346 0C0.968615 0 0 0.968613 0 2.16346V37.1394C0 38.3342 0.968615 39.3028 2.16346 39.3028H147.836C149.031 39.3028 150 38.3342 150 37.1394V2.16346C150 0.968614 149.031 0 147.836 0H2.16346Z" fill="white"/>
<path d="M116.842 34.4662H112.164C112.029 34.4662 111.961 34.3984 111.961 34.2628L112.042 5.64611C112.042 5.53764 112.096 5.4834 112.205 5.4834H125.547C125.682 5.4834 125.75 5.53764 125.75 5.64611V10.3444C125.75 10.4528 125.696 10.5071 125.588 10.5071H117.045V16.9748H125.588C125.696 16.9748 125.75 17.0426 125.75 17.1782L125.791 21.8968C125.791 22.0053 125.723 22.0595 125.588 22.0595H117.045V34.2628C117.045 34.3984 116.978 34.4662 116.842 34.4662Z" fill="white"/>
<path d="M99.3095 34.4662H94.6315C94.496 34.4662 94.4282 34.3984 94.4282 34.2628L94.5095 5.64611C94.5095 5.53764 94.5638 5.4834 94.6723 5.4834H108.015C108.15 5.4834 108.218 5.53764 108.218 5.64611V10.3444C108.218 10.4528 108.164 10.5071 108.055 10.5071H99.513V16.9748H108.055C108.164 16.9748 108.218 17.0426 108.218 17.1782L108.259 21.8968C108.259 22.0053 108.191 22.0595 108.055 22.0595H99.513V34.2628C99.513 34.3984 99.4451 34.4662 99.3095 34.4662Z" fill="white"/>
<path d="M75.249 34.2628L80.4152 5.64611C80.4423 5.53764 80.5101 5.4834 80.6185 5.4834H86.6591C86.7676 5.4834 86.8354 5.53764 86.8626 5.64611L91.8251 34.2628C91.8388 34.3984 91.7845 34.4662 91.6625 34.4662H87.0456C86.91 34.4662 86.8354 34.3984 86.8218 34.2628L86.3744 31.212H80.6999L80.2525 34.2628C80.2388 34.3984 80.1711 34.4662 80.049 34.4662H75.4118C75.3033 34.4662 75.249 34.3984 75.249 34.2628ZM83.4049 15.063L81.5338 26.7578H85.5405L83.832 15.063L83.5879 13.5173L83.4049 15.063Z" fill="white"/>
<path d="M62.2931 34.4662H57.5746C57.4661 34.4662 57.4119 34.3984 57.4119 34.2628L57.4931 5.64611C57.4931 5.53764 57.5475 5.4834 57.6558 5.4834H66.0762C67.5812 5.4834 68.9642 5.84949 70.2253 6.5817C71.4863 7.31389 72.4897 8.29693 73.2354 9.53082C73.9948 10.7647 74.3743 12.1613 74.3743 13.7206C74.3743 14.7376 74.2184 15.6595 73.9066 16.4867C73.5947 17.3138 73.2286 18.0121 72.8083 18.5816C72.4015 19.151 72.0286 19.5713 71.6897 19.8426C73.1947 21.5104 73.9472 23.4696 73.9472 25.7205L73.988 34.2628C73.988 34.3984 73.9201 34.4662 73.7845 34.4662H69.0659C68.9574 34.4662 68.9032 34.4255 68.9032 34.3441V25.7205C68.9032 24.7172 68.5507 23.8493 67.8456 23.1172C67.1406 22.3849 66.2727 22.0189 65.2423 22.0189H62.4965L62.4558 34.2628C62.4558 34.3984 62.4016 34.4662 62.2931 34.4662ZM66.0762 10.4664H62.4965V17.0156H66.0762C66.9303 17.0156 67.6897 16.6968 68.3541 16.0595C69.0321 15.4223 69.371 14.6426 69.371 13.7206C69.371 12.8393 69.0456 12.0799 68.3947 11.4427C67.7439 10.7918 66.9711 10.4664 66.0762 10.4664Z" fill="white"/>
<path d="M49.6223 34.4662H44.924C44.802 34.4662 44.741 34.3984 44.741 34.2628V10.5071H39.3308C39.1952 10.5071 39.1274 10.4393 39.1274 10.3037L39.1681 5.64611C39.1681 5.53764 39.2224 5.4834 39.3308 5.4834H55.1544C55.3036 5.4834 55.3781 5.53764 55.3781 5.64611V10.3037C55.3781 10.4393 55.3239 10.5071 55.2154 10.5071H49.7443L49.785 34.2628C49.785 34.3984 49.7308 34.4662 49.6223 34.4662Z" fill="white"/>
<path fill-rule="evenodd" clip-rule="evenodd" d="M127.861 5.04786V34.2545H145.384V5.04785L127.861 5.04786ZM129.76 25.1V28.6942C129.76 29.4712 129.948 30.1763 130.328 30.8096C130.713 31.443 131.225 31.9489 131.865 32.3276C132.505 32.6997 133.213 32.8858 133.99 32.8858C134.552 32.8858 135.087 32.7782 135.596 32.5627C136.106 32.3471 136.553 32.0469 136.938 31.6617C137.245 32.0208 137.647 32.3309 138.143 32.5921C138.639 32.8532 139.174 32.9838 139.749 32.9838C140.454 32.9838 141.107 32.8108 141.708 32.4648C142.315 32.1187 142.802 31.6453 143.166 31.0447C143.532 30.4309 143.716 29.7486 143.716 28.9978V25.1391C143.716 25.0869 143.69 25.0608 143.637 25.0608L129.857 25.0217C129.792 25.0217 129.76 25.0478 129.76 25.1ZM141.335 27.4701V28.9978C141.335 29.4221 141.175 29.7878 140.856 30.0947C140.542 30.4016 140.174 30.555 139.749 30.555C139.363 30.555 139.005 30.4113 138.671 30.1241C138.345 29.8368 138.182 29.4613 138.182 28.9978V27.4701H141.335ZM135.752 27.4701V28.6942C135.752 29.1773 135.58 29.592 135.234 29.938C134.888 30.284 134.473 30.457 133.99 30.457C133.507 30.457 133.089 30.284 132.736 29.938C132.384 29.592 132.208 29.1773 132.208 28.6942V27.4505L135.752 27.4701ZM129.564 19.4882C129.564 18.783 129.746 18.1302 130.112 17.5294C130.478 16.9288 130.967 16.4489 131.581 16.0898C132.201 15.7373 132.877 15.5609 133.608 15.5609L143.637 15.6001C143.69 15.6001 143.716 15.6262 143.716 15.6784V17.931C143.716 17.9832 143.69 18.0093 143.637 18.0093H133.608C133.158 18.0093 132.772 18.1529 132.453 18.4402C132.139 18.7276 131.983 19.0768 131.983 19.4882C131.983 19.9191 132.139 20.2782 132.453 20.5655C132.772 20.8527 133.158 20.9964 133.608 20.9964H143.637C143.69 20.9964 143.716 21.0225 143.716 21.0747V23.3272C143.716 23.3795 143.69 23.4056 143.637 23.4056L133.608 23.4448C132.871 23.4448 132.191 23.2685 131.571 22.9159C130.957 22.5569 130.468 22.0802 130.102 21.4861C129.743 20.892 129.564 20.226 129.564 19.4882ZM129.76 6.35506V8.62716C129.76 8.6794 129.792 8.70551 129.857 8.70551H135.752V11.7121H129.857C129.792 11.7121 129.76 11.7448 129.76 11.8101V14.0625C129.76 14.1279 129.792 14.1606 129.857 14.1606L143.637 14.1214C143.69 14.1214 143.716 14.0888 143.716 14.0234V11.7905C143.716 11.7383 143.69 11.7121 143.637 11.7121H138.182V8.70551L143.637 8.7251C143.69 8.7251 143.716 8.69246 143.716 8.62716V6.39423C143.716 6.32895 143.69 6.2963 143.637 6.2963L129.857 6.27671C129.792 6.27671 129.76 6.30283 129.76 6.35506Z" fill="white"/>
</g>
</g>
<defs>
<clipPath id="clip0_6644_105">
<rect width="150" height="39.4089" fill="white"/>
</clipPath>
</defs>
</svg>
