<?xml version="1.0" encoding="utf-8"?><svg viewBox="0 0 30 30" xmlns="http://www.w3.org/2000/svg" xmlns:xlink="http://www.w3.org/1999/xlink"><style>:root>svg{display:none}:root>svg:target{display:block}</style><svg viewBox="0 0 30 30" id="insta" xmlns="http://www.w3.org/2000/svg"><path d="M18.536 7.878c-.922-.043-1.2-.05-3.536-.05-2.336 0-2.613.008-3.535.05-2.374.108-3.479 1.232-3.587 3.587-.042.922-.052 1.199-.052 3.535 0 2.336.01 2.613.052 3.536.108 2.349 1.208 3.479 3.587 3.588.921.041 1.199.051 3.535.051 2.337 0 2.614-.009 3.536-.051 2.374-.108 3.478-1.235 3.588-3.588.041-.922.05-1.2.05-3.536 0-2.336-.009-2.613-.05-3.535-.11-2.354-1.216-3.479-3.588-3.587ZM15 19.494a4.494 4.494 0 1 1 0-8.988 4.494 4.494 0 0 1 0 8.988Zm4.671-8.114a1.05 1.05 0 1 1 0-2.1 1.05 1.05 0 0 1 0 2.1ZM17.916 15a2.916 2.916 0 1 1-5.832 0 2.916 2.916 0 0 1 5.832 0ZM15 0C6.716 0 0 6.716 0 15c0 8.284 6.716 15 15 15 8.284 0 15-6.716 15-15 0-8.284-6.716-15-15-15Zm8.698 18.608c-.144 3.18-1.916 4.943-5.09 5.09-.933.042-1.232.052-3.608.052-2.376 0-2.674-.01-3.607-.052-3.18-.147-4.944-1.912-5.09-5.09-.043-.933-.053-1.232-.053-3.608 0-2.376.01-2.674.053-3.607.146-3.18 1.91-4.944 5.09-5.09.933-.043 1.23-.053 3.607-.053 2.376 0 2.675.01 3.609.054 3.181.146 4.946 1.915 5.088 5.088.043.934.053 1.232.053 3.608 0 2.376-.01 2.675-.052 3.608Z"/></svg><svg viewBox="0 0 30 30" id="skype" xmlns="http://www.w3.org/2000/svg"><g clip-path="url(#ba)"><path d="M19.685 17.06c0 2.216-1.767 3.669-4.404 3.669-2.319 0-4.651-1.056-4.639-2.874.003-.549.41-1.051.954-1.051 1.367 0 1.354 2.037 3.528 2.037 1.526 0 2.047-.836 2.047-1.417 0-2.105-6.593-.815-6.593-4.771 0-2.142 1.75-3.62 4.505-3.457 2.626.155 4.164 1.315 4.313 2.398.074.707-.395 1.258-1.21 1.258-1.187 0-1.308-1.59-3.355-1.59-.922 0-1.701.386-1.701 1.222 0 1.746 6.555.732 6.555 4.576ZM30 15c0 8.284-6.716 15-15 15-8.284 0-15-6.716-15-15C0 6.716 6.716 0 15 0c8.284 0 15 6.716 15 15Zm-6.989 1.434c.99-5.663-3.948-10.509-9.517-9.464-4.245-2.596-9.116 2.353-6.513 6.584-1.013 5.649 3.924 10.559 9.539 9.486 4.251 2.578 9.109-2.377 6.491-6.606Z"/></g><defs><clipPath id="ba"><path d="M0 0h30v30H0z"/></clipPath></defs></svg><svg viewBox="0 0 30 30" id="viber" xmlns="http://www.w3.org/2000/svg"><g clip-path="url(#ca)"><path fill-rule="evenodd" clip-rule="evenodd" d="M15 0C6.718 0 0 6.715 0 15c0 8.284 6.718 15 15 15 8.284 0 15-6.716 15-15 0-8.285-6.716-15-15-15Zm6.775 8.822c-.459-.422-2.313-1.767-6.44-1.786 0 0-4.868-.293-7.24 1.884-1.32 1.321-1.785 3.252-1.834 5.65-.048 2.398-.112 6.887 4.216 8.106l.004.002-.002 1.857s-.026.753.469.906c.598.187.95-.386 1.522-1.002.314-.338.747-.835 1.075-1.215 2.96.247 5.237-.32 5.496-.405.598-.194 3.982-.628 4.532-5.118.567-4.63-.276-7.559-1.798-8.879Zm.501 8.544c-.465 3.75-3.207 3.988-3.713 4.149-.215.07-2.217.567-4.732.402 0 0-1.873 2.262-2.458 2.85-.092.092-.2.13-.272.112-.1-.025-.127-.144-.126-.319l.015-3.087c-3.661-1.018-3.447-4.842-3.406-6.843.041-2.001.417-3.641 1.534-4.745 2.007-1.817 6.14-1.546 6.14-1.546 3.493.016 5.166 1.067 5.553 1.42 1.289 1.102 1.945 3.741 1.465 7.607Zm-6.59.227s.328.028.504-.19l.345-.434c.165-.215.567-.353.96-.134.52.294 1.192.755 1.652 1.185.254.214.313.529.14.861l-.002.008a3.59 3.59 0 0 1-.716.882l-.006.005c-.34.283-.728.447-1.144.311l-.008-.01c-.747-.212-2.54-1.127-3.682-2.038-1.87-1.475-3.199-3.908-3.566-5.212l-.012-.007c-.135-.418.03-.808.312-1.144l.005-.006a3.57 3.57 0 0 1 .882-.717l.006-.002c.333-.172.648-.114.863.14.282.292.812.993 1.184 1.653.218.392.082.793-.133.96l-.434.343c-.219.178-.19.505-.19.505s.641 2.428 3.04 3.04Zm3.774-2.013a.235.235 0 0 0 .232-.235c-.012-1.536-.482-2.769-1.397-3.663-.914-.89-2.065-1.346-3.419-1.356h-.002a.234.234 0 0 0-.234.231c0 .13.104.236.232.236 1.23.008 2.272.42 3.097 1.225.822.802 1.246 1.923 1.256 3.33a.235.235 0 0 0 .235.232Zm-1.227-.48h-.006a.233.233 0 0 1-.228-.239c.018-.797-.21-1.444-.697-1.974-.485-.53-1.15-.82-2.033-.885a.233.233 0 1 1 .034-.465c.994.073 1.783.422 2.343 1.034.564.617.84 1.39.819 2.302a.232.232 0 0 1-.232.227Zm-1.198-.401a.233.233 0 0 1-.234-.222c-.038-.792-.412-1.18-1.173-1.22a.234.234 0 1 1 .025-.466c1.004.053 1.563.629 1.614 1.663a.233.233 0 0 1-.22.245h-.012Z"/></g><defs><clipPath id="ca"><path d="M0 0h30v30H0z"/></clipPath></defs></svg><svg viewBox="0 0 30 30" id="whatsapp" xmlns="http://www.w3.org/2000/svg"><path d="M15.039 7.715a7.217 7.217 0 0 0-7.21 7.207c-.002 1.623.475 2.838 1.273 4.11l-.727 2.66 2.727-.717c1.223.725 2.39 1.16 3.932 1.161 3.972 0 7.208-3.233 7.21-7.207a7.205 7.205 0 0 0-7.205-7.214Zm4.24 10.305c-.18.506-1.046.968-1.463 1.03a2.964 2.964 0 0 1-1.365-.086c-.315-.1-.719-.234-1.235-.456-2.173-.94-3.592-3.128-3.701-3.272-.109-.145-.885-1.175-.885-2.241s.56-1.591.759-1.807a.797.797 0 0 1 .577-.272l.415.008c.133.006.312-.05.488.372.18.434.614 1.5.667 1.609.054.109.09.235.018.38-.073.145-.109.235-.216.361l-.325.38c-.11.108-.222.225-.095.443.126.217.56.926 1.205 1.501.827.739 1.526.967 1.742 1.075.216.107.342.09.47-.054.126-.145.541-.632.686-.85.145-.216.289-.181.488-.108.198.072 1.264.596 1.48.704.216.11.361.163.415.253.056.09.056.524-.125 1.03ZM15 0C6.716 0 0 6.716 0 15c0 8.284 6.716 15 15 15 8.284 0 15-6.716 15-15 0-8.284-6.716-15-15-15Zm.036 23.6a8.68 8.68 0 0 1-4.147-1.055L6.293 23.75l1.23-4.494a8.653 8.653 0 0 1-1.158-4.335c.001-4.781 3.891-8.671 8.671-8.671a8.614 8.614 0 0 1 6.134 2.543 8.616 8.616 0 0 1 2.537 6.135c0 4.78-3.89 8.672-8.67 8.672Z"/></svg></svg>