<?xml version="1.0" encoding="utf-8"?>
<!-- Generator: Adobe Illustrator 28.2.0, SVG Export Plug-In . SVG Version: 6.00 Build 0)  -->
<svg version="1.1" id="ios7_x5F_arrows_1_" xmlns="http://www.w3.org/2000/svg" xmlns:xlink="http://www.w3.org/1999/xlink" x="0px"
	 y="0px" viewBox="0 0 128.1 128.1" style="enable-background:new 0 0 128.1 128.1;" xml:space="preserve">
<style type="text/css">
	.st0{display:none;}
	.st1{display:inline;}
</style>
<g id="_x34_2_1_" class="st0">
	<g id="icon" class="st1">
		<g>
			<polygon points="107.8,22.5 104.1,26.2 118.1,40.2 68,40.2 62.8,40.2 62.8,74.2 36.8,74.2 36.8,100.4 21.1,100.4 0.3,100.4 
				0.3,105.6 26.3,105.6 42,105.6 42,79.4 68,79.4 68,45.5 118.1,45.5 104.1,59.5 107.8,63.1 128,42.8 			"/>
		</g>
	</g>
</g>
<g id="_x34_1_1_" class="st0">
	<g id="icon_1_" class="st1">
		<g>
			<path d="M109.6,51l-4.4,3l12.5,11.3H77.9h-10V14.6L81.4,28l3.5-3.5L65.4,5L45.9,24.5l3.5,3.6l13.5-13.5v50.7h-10H9.2l13.7-12.1
				l-4.3-2.9L0.3,66.6l18.2,16.3l4-3.7l-10.4-8.9h38.3h12.5v52.7h5V70.4h12.6h37.1l-12.1,10.5l4.1,3.8L128,67.9L109.6,51z M7.7,66.6
				L7.7,66.6L7.7,66.6L7.7,66.6z"/>
		</g>
	</g>
</g>
<g id="_x34_0_1_" class="st0">
	<g id="icon_2_" class="st1">
		<g>
			<path d="M64.2,121.6l-18.5-18.5l16.6-0.4l0.1-4.5L42,98.8l0,0l-4.5,0.1l-0.1,4.5l0,0l-0.5,20.4l4.5-0.1l0.4-18l22.4,22.4l25-25.1
				L86,99.8L64.2,121.6z M108.4,83.8L128,64.1L105,41l-3.2,3.2l19.9,19.9l-16.4,16.5l-0.4-17.3l-4.5-0.1l0.5,20.4l0,0l0.1,4.5
				l4.5,0.1l0,0l20.4,0.5l-0.1-4.5L108.4,83.8z M85.3,21.2L64.2,0L41.8,22.4l3.2,3.2l-0.5,0.5L64.2,6.4l18.1,18.2H65v4.5h20.3h4.5
				v-4.5V4.2h-4.5V21.2z M32.1,40.5L32,36L7.2,35.1V40l16.7,0.4L0.3,64.1l24,24l3.2-3.2L6.7,64.1l21-21L28.1,61l4.5,0.1L32.1,40.5
				L32.1,40.5z"/>
		</g>
	</g>
</g>
<g id="_x33_9_1_" class="st0">
	<g id="icon_3_" class="st1">
		<g>
			<polygon points="95.4,20.8 37.8,20.8 54.3,4.2 50.1,0 31.2,19 31.2,19 27,23.3 30,26.3 30,26.8 30.5,26.8 50.1,46.5 54.3,42.3 
				38.9,26.8 95.4,26.8 95.4,128.1 101.3,128.1 101.3,20.8 			"/>
		</g>
	</g>
</g>
<g id="_x33_8_1_" class="st0">
	<g id="icon_4_" class="st1">
		<g>
			<polygon points="78.3,0 74.1,4.2 90.1,20.3 32.7,20.3 26.8,20.3 26.8,128.1 32.7,128.1 32.7,26.3 90.1,26.3 74.1,42.3 78.3,46.5 
				101.6,23.3 			"/>
		</g>
	</g>
</g>
<g id="_x33_7_1_" class="st0">
	<g id="icon_5_" class="st1">
		<g>
			<polygon points="88.3,48.5 84.1,52.6 100,68.6 43,68.6 43,11.4 58.9,27.3 63.1,23.1 40,0 16.9,23.1 21.1,27.4 37.1,11.4 
				37.1,128.1 43,128.1 43,74.6 100,74.6 84.1,90.4 88.3,94.6 111.4,71.6 			"/>
		</g>
	</g>
</g>
<g id="_x33_6_1_" class="st0">
	<g id="icon_6_" class="st1">
		<g>
			<path d="M91.7,88.9L126.5,54l-4.5-4.5L93.8,77.8V54.6c0-25.9-20.9-46.8-46.7-46.8S0.4,28.8,0.4,54.6v65.6h6.2V54.6
				C6.5,32.2,24.7,14,47,14c22.4,0,40.5,18.2,40.5,40.6v22.9L59.1,49.2l-4.5,4.5l31.6,31.6l0,0l4.5,4.5l0,0l0,0L91.7,88.9z"/>
		</g>
	</g>
</g>
<g id="_x33_5_1_" class="st0">
	<g id="icon_7_" class="st1">
		<g>
			<path d="M122.1,24L99.7,0L77.4,24l5.1,5.3l14.2-16.1c0,5,0,13.8,0,29.2c0,13.7-16,22.7-33,32.4c-17.1-9.8-33-18.5-33-32.5
				c0-15,0-23.7,0-28.8l13.8,15.8l5-5.3L27.4,0L5.2,24l3.9,5.7l15-16.3c0,5.1,0,13.8,0,28.9c0,17,16.9,27.1,35,37.5
				c0.6,0.3,1.2,0.7,1.9,1.1v47.1h6.6V79.8c0.8-0.4,1.6-0.9,2.3-1.3l0,0l0,0c17.2-9.8,33.5-19.8,33.5-35.9c0-15,0-23.7,0-28.8
				l14.7,16L122.1,24z"/>
		</g>
	</g>
</g>
<g id="_x33_4_1_" class="st0">
	<g id="icon_8_" class="st1">
		<g>
			<path d="M33.9,53.3l-3.8-3.8L0,79.8l0,0l0,0l30.1,30.2l3.8-3.8L10.1,82.4h63.2v-5.2H10.1L33.9,53.3z M128,48.2L97.9,18.1
				l-3.8,3.8l23.8,23.8h-63v5.2h63L94.2,74.9l3.8,3.8l30.1-30.1v-0.3H128z"/>
		</g>
	</g>
</g>
<g id="_x33_3_1_" class="st0">
	<g id="icon_9_" class="st1">
		<g>
			<path d="M110.6,25.6l-4.1,2.8l11.8,10.7H73.6L61.8,51L50,39.1H8.7l12.9-11.5l-4.1-2.7L0.3,40.3l17.2,15.4l3.8-3.5l-9.9-8.4h36.2
				l11.8,11.9v47.4h4.7V55.8l12-11.9h42.1l-11.4,9.9l3.9,3.6l17.4-15.9L110.6,25.6z M7.3,40.3L7.3,40.3L7.3,40.3L7.3,40.3z"/>
		</g>
	</g>
</g>
<g id="_x33_2_1_" class="st0">
	<g id="_x32__36_" class="st1">
		<g>
			<path d="M91.6,40.3l35.1-35.2L121.6,0L87,34.8L85.9,5.1l-7.7-2.6l1.9,45l44.1,1.2l-2.6-7.7L91.6,40.3z M3.6,77.4l2.6,7.7
				l29.2,1.5L1.6,120.4l5.1,5.1L41,91.1l1,29.7l7.6,2.6L48,79.6L3.6,77.4z"/>
		</g>
	</g>
	<g id="_x31__36_" class="st1">
		<g>
			<path d="M92.1,88.2l29.5-1.2l2.6-7.7l-44.8,1.9l-1.1,44.2l7.7-2.6l0.7-30.1l35.1,35.2l5.1-5.1L92.1,88.2z M40.5,36.5L6.7,2.6
				L1.6,7.7L35.9,42L6.2,43l-2.6,7.6L47.2,49l2.4-44.4L42,7.2L40.5,36.5z"/>
		</g>
	</g>
</g>
<g id="_x33_1_1_" class="st0">
	<g id="icon_10_" class="st1">
		<g>
			<path d="M102.7,80.6l12.9,11.3c-4.5,0-11.9,0-24.3,0c-11.8,0-19.6-13.7-28.1-28.2c8.5-14.6,16.3-28.3,28.1-28.3
				c12.9,0,20.5,0,24.9,0l-13.6,11.8l4.6,4.3l20.7-18.9l-20.8-19l-4.9,3.4l14.1,12.8c-4.4,0-11.9,0-25,0c-14,0-22.6,14.1-31.2,28.8
				c-8.7-14.8-18.7-28.8-34.6-28.8c-11.4,0-17.9,0-21.5,0v5.7c3.6,0,10,0,21.1,0c14.5,0,23.5,13.7,32,28.3
				c-8.5,14.5-17.5,28.2-32,28.2c-11.1,0-17.6,0-21.1,0v5.7c3.6,0,10.1,0,21.5,0c15.9,0,25.9-14,34.6-28.7
				c8.5,14.7,17.1,28.7,31.1,28.7c13.9,0,21.6,0,25.8,0l-14.8,13.5l4.9,3.4l20.8-19.1l-20.7-19.1L102.7,80.6z"/>
		</g>
	</g>
</g>
<g id="_x33_0_1_" class="st0">
	<g id="icon_11_" class="st1">
		<g>
			<path d="M106.8,97.2c0,5.2-4.2,9.5-9.5,9.5H31c-5.2,0-9.5-4.2-9.5-9.5V63.5l11.7,11.7l3.5-3.5L19.4,54.3l0,0l0,0l-2.5,2.6l0,0
				l0,0L1.7,72.1l3.5,3.5l11.6-11.6v33.2c0,7.9,6.4,14.2,14.2,14.2h66.3c7.8,0,14.2-6.4,14.2-14.2V80.6h-4.7
				C106.8,80.6,106.8,97.2,106.8,97.2z M126.8,54.3l-3.5-3.5l-11.8,11.8V30.8c0-7.9-6.4-14.2-14.2-14.2H31
				c-7.8,0-14.2,6.4-14.2,14.2V45h4.7V30.8c0-5.2,4.2-9.5,9.5-9.5h66.3c5.2,0,9.5,4.2,9.5,9.5v31.8L95,50.8l-3.6,3.6l14.2,14.2l0,0
				l3.5,3.5l0,0l0,0l3.6-3.6l0,0L126.8,54.3z"/>
		</g>
	</g>
</g>
<g id="_x32_9_1_" class="st0">
	<g id="icon_12_" class="st1">
		<g>
			<path d="M121.8,90.6L86,54.8l-4.5,4.5l28.1,28.2H50.1c-22.4,0-40.5-18.2-40.5-40.6S27.8,6.2,50.1,6.2V0C24.3,0,3.4,21,3.4,46.8
				s20.9,46.8,46.7,46.8h60l-28.8,28.9l4.5,4.5l36.1-36.2l-0.1-0.1V90.6z"/>
		</g>
	</g>
</g>
<g id="_x32_8_1_" class="st0">
	<g id="icon_13_" class="st1">
		<g>
			<path d="M78.2,0v6.2c22.4,0,40.5,18.2,40.5,40.6s-18.1,40.6-40.5,40.6H18l27.9-28l-4.5-4.5L5.6,90.9l0,0l0,0l36,36.2l4.5-4.5
				L17.3,93.6h60.9c25.8,0,46.7-21,46.7-46.8S104,0,78.2,0z"/>
		</g>
	</g>
</g>
<g id="_x32_7_1_" class="st0">
	<g id="_x33__28_" class="st1">
		<g>
			<polygon points="126.1,15.2 121.1,13.9 111.7,49.1 76.5,39.6 75.2,44.8 115.3,55.5 115.3,55.5 115.4,55.5 			"/>
		</g>
	</g>
	<g id="_x32__27_" class="st1">
		<g>
			<polygon points="54.7,80.2 18.9,68.4 18.9,68.4 13.9,66.9 0.9,106.9 5.9,108.6 17.2,73.6 53.1,85.2 			"/>
		</g>
	</g>
	<g id="_x31__27_" class="st1">
		<g>
			<path d="M65.3,18.3c21.8,0,40.1,15.3,44.7,35.7h5.2c-4.7-23.3-25.3-40.8-49.9-40.8c-23.7,0-43.7,16.3-49.3,38.3h5.3
				C26.8,32.3,44.4,18.3,65.3,18.3z M65.3,110.2c-22.7,0-41.6-16.6-45.2-38.3h-5.2c3.7,24.6,24.8,43.4,50.4,43.4
				c22.8,0,42.1-15,48.6-35.7h-5.4C102.3,97.4,85.3,110.2,65.3,110.2z"/>
		</g>
	</g>
</g>
<g id="_x32_6_1_" class="st0">
	<g id="icon_78_" class="st1">
		<g>
			<path d="M120.5,115.1L74.8,69.4l-5.3,5.3l45.7,45.8H86.7v7.5h33.8h7.5v-7.5V86.6h-7.5C120.5,86.6,120.5,115.1,120.5,115.1z
				 M45.4,7.5V0H7.8H0.3v7.5v33.9h7.5V12.9l45.7,45.8l5.3-5.3L13.1,7.5H45.4z M53.5,69.4L7.8,115.1V86.6H0.3v33.9v7.5h7.5h37.6v-7.5
				H13.1l45.7-45.8L53.5,69.4z M120.5,0H86.7l-0.1,7.6h28.6L69.5,53.5l5.3,5.3L120.5,13v28.6h7.5v-34V0H120.5z"/>
		</g>
	</g>
</g>
<g id="_x32_5_1_" class="st0">
	<g id="icon_14_" class="st1">
		<g>
			<path d="M120.5,82.9v32.3L74.8,69.4l-5.3,5.3l45.7,45.8H86.7v7.5h33.8h7.5v-7.5V82.9H120.5z M41.6,7.5V0H7.8H0.3v7.5v33.9
				l7.5,0.1V12.9l45.7,45.8l5.3-5.3L13.1,7.5H41.6z"/>
		</g>
	</g>
</g>
<g id="_x32_4_1_" class="st0">
	<g id="icon_15_" class="st1">
		<g>
			<path d="M53.5,69.4L7.8,115.1V86.6H0.3v33.9v7.5h7.5h37.6v-7.5H13.1l45.7-45.8L53.5,69.4z M120.5,0H86.7l-0.1,7.6h28.6L69.5,53.5
				l5.3,5.3L120.5,13v28.6h7.5v-34V0H120.5z"/>
		</g>
	</g>
</g>
<g id="_x32_3_1_" class="st0">
	<g id="icon_16_" class="st1">
		<g>
			<path d="M107.4,43.3l-3.8,3.8l14.3,14.3H72.1v5.3h45.7l-14.3,14.3l3.8,3.8L128,64.1L107.4,43.3z M56.2,66.8v-5.3H10.5l16.1-16.2
				l-3.8-3.8L0.3,64.1L21,84.8l3.8-3.8L10.5,66.8H56.2z M66.8,117.9V72.1h-5.3v45.8l-14.3-14.3l-3.8,3.8l20.8,20.7l22.5-22.6
				l-3.8-3.8L66.8,117.9z M61.5,10.2V56h5.3V10.2l14.3,14.3l3.8-3.8L64.2,0L43.5,20.8l3.7,3.8L61.5,10.2z"/>
		</g>
	</g>
</g>
<g id="_x32_2_1_" class="st0">
	<g id="icon_17_" class="st1">
		<g>
			<path d="M70.8,7.1C45.1,7.1,23.3,24,16.1,47.2L7.3,14.5L1.6,16l12.1,44.8h0.1l0,0l45.1-12l-1.5-5.6l-37,9.8
				c5-23,25.7-40.3,50.3-40.3c28.5,0,51.5,22.9,51.5,51.2s-23.1,51.2-51.5,51.2c-17.6,0-33.1-8.8-42.4-22.1
				c-0.3-0.4-0.9-1.3-0.9-1.3l-5.6,1.8c0,0,0.5,0.8,0.8,1.3C32.8,110.6,50.5,121,70.8,121c31.6,0,57.3-25.5,57.3-56.9
				C128,32.6,102.4,7.1,70.8,7.1z"/>
		</g>
	</g>
</g>
<g id="_x32_1_1_" class="st0">
	<g id="icon_18_" class="st1">
		<g>
			<path d="M69.3,47.8l45.1,12.1l1.5-6.7l10.6-39.6l-5.6-1.5l-9,33.8c-7.6-22.8-29-39.2-54.3-39.2C25.9,6.6,0.3,32.3,0.3,64.1
				s25.6,57.4,57.3,57.4c20.2,0,38-10.5,48.1-26.3c0.3-0.4,0.8-1.3,0.8-1.3l-5.6-1.8c0,0-0.6,0.9-0.9,1.3
				c-9.3,13.5-24.8,22.3-42.4,22.3C29.1,115.6,6,92.6,6,64.1s23.1-51.6,51.5-51.6c23.9,0,44,16.3,49.8,38.4l-36.5-9.8L69.3,47.8z"/>
		</g>
	</g>
</g>
<g id="_x32_0_1_" class="st0">
	<g id="icon_19_" class="st1">
		<g>
			<path d="M64.2,0C28.9,0,0.3,28.8,0.3,64.1s28.6,64,63.9,64s63.9-28.7,63.9-64C128,28.8,99.4,0,64.2,0z M64.2,122.8
				c-32.4,0-58.6-26.3-58.6-58.7S31.8,5.3,64.2,5.3s58.6,26.3,58.6,58.7C122.7,96.4,96.5,122.8,64.2,122.8z M82.8,40l-5.3-2.7
				L50.9,61.6V37.3h-5.3v53.3h5.3V66.4l26.6,24.2l5.3-3.6l-26.6-23L82.8,40z"/>
		</g>
	</g>
</g>
<g id="_x31_9_1_" class="st0">
	<g id="icon_20_" class="st1">
		<g>
			<path d="M64.2,0C28.9,0,0.3,28.8,0.3,64.1s28.6,64,63.9,64s63.9-28.7,63.9-64C128,28.8,99.4,0,64.2,0z M64.2,122.8
				c-32.4,0-58.6-26.3-58.6-58.7S31.8,5.3,64.2,5.3s58.6,26.3,58.6,58.7C122.7,96.4,96.5,122.8,64.2,122.8z M77.5,61.6L50.9,37.3
				L45.5,41l26.6,23l-26.6,24l5.3,2.7l26.6-24.2v24.2h5.3V37.3h-5.3L77.5,61.6L77.5,61.6z"/>
		</g>
	</g>
</g>
<g id="_x31_8_1_" class="st0">
	<g id="icon_21_" class="st1">
		<g>
			<path d="M88.1,37.3L58.8,64.1l29.3,26.7l5.3-2.7l-26.6-24l26.6-23L88.1,37.3z M64.2,0C28.9,0,0.3,28.8,0.3,64.1s28.6,64,63.9,64
				s63.9-28.7,63.9-64C128,28.8,99.4,0,64.2,0z M64.2,122.8c-32.4,0-58.6-26.3-58.6-58.7S31.8,5.3,64.2,5.3
				c32.3,0,58.6,26.3,58.6,58.7C122.7,96.4,96.5,122.8,64.2,122.8z M66.8,41l-5.3-3.6L32.2,64.1l29.3,26.7l5.3-2.7l-26.6-24L66.8,41
				z"/>
		</g>
	</g>
</g>
<g id="_x31_7_1_" class="st0">
	<g id="icon_22_" class="st1">
		<g>
			<path d="M42.9,37.3L37.5,41l26.6,23l-26.6,24l5.3,2.7l29.3-26.7L42.9,37.3z M64.2,0C28.9,0,0.3,28.8,0.3,64.1s28.6,64,63.9,64
				s63.9-28.7,63.9-64C128,28.8,99.4,0,64.2,0z M64.2,122.8c-32.4,0-58.6-26.3-58.6-58.7S31.8,5.3,64.2,5.3
				c32.3,0,58.6,26.3,58.6,58.7C122.7,96.4,96.5,122.8,64.2,122.8z M64.2,41l26.6,23l-26.6,24l5.3,2.7l29.3-26.7L69.5,37.3L64.2,41z
				"/>
		</g>
	</g>
</g>
<g id="_x31_6_1_" class="st0">
	<g id="icon_23_" class="st1">
		<g>
			<path d="M64.2,0C28.9,0,0.3,28.8,0.3,64.1s28.6,64,63.9,64s63.9-28.7,63.9-64C128,28.8,99.4,0,64.2,0z M64.2,122.8
				c-32.4,0-58.6-26.3-58.6-58.7S31.8,5.3,64.2,5.3c32.3,0,58.6,26.3,58.6,58.7C122.7,96.4,96.5,122.8,64.2,122.8z M72.1,37.3
				L42.9,64.1l29.2,26.7l5.3-2.7l-24.5-24l24.6-23L72.1,37.3z"/>
		</g>
	</g>
</g>
<g id="_x31_5_1_" class="st0">
	<g id="icon_24_" class="st1">
		<g>
			<path d="M64.2,0C28.9,0,0.3,28.8,0.3,64.1s28.6,64,63.9,64s63.9-28.7,63.9-64C128,28.8,99.4,0,64.2,0z M64.2,122.8
				c-32.4,0-58.6-26.3-58.6-58.7S31.8,5.3,64.2,5.3c32.3,0,58.6,26.3,58.6,58.7C122.7,96.4,96.5,122.8,64.2,122.8z M50.8,41l26.6,23
				l-26.5,24l5.3,2.7l29.3-26.7L56.2,37.3L50.8,41z"/>
		</g>
	</g>
</g>
<g id="_x31_4_1_" class="st0">
	<g id="icon_25_" class="st1">
		<g>
			<path d="M64.2,87.9L64.2,87.9L95,57.2l-3.9-3.8L66.8,77.8V21.3h-5.3v56.4L37.2,53.5l-3.8,3.8L64.2,87.9L64.2,87.9z M64.2,0
				C28.9,0,0.3,28.8,0.3,64.1s28.6,64,63.9,64s63.9-28.7,63.9-64C128,28.8,99.4,0,64.2,0z M64.2,122.8c-32.4,0-58.6-26.3-58.6-58.7
				S31.8,5.3,64.2,5.3s58.6,26.3,58.6,58.7C122.7,96.4,96.5,122.8,64.2,122.8z M29.6,98.8h69.2v-5.3H29.6V98.8z"/>
		</g>
	</g>
</g>
<g id="_x31_3_1_" class="st0">
	<g id="icon_26_" class="st1">
		<g>
			<path d="M66.8,45.3L66.8,45.3l-2.6-2.6l0,0l0,0l-2.6,2.6l0,0l0,0L33.4,73.6l3.8,3.8L61.5,53v56.3h5.3V53L91,77.4l3.8-3.8
				L66.8,45.3L66.8,45.3z M64.2,0C28.9,0,0.3,28.8,0.3,64.1s28.6,64,63.9,64s63.9-28.7,63.9-64C128,28.8,99.4,0,64.2,0z M64.2,122.8
				c-32.4,0-58.6-26.3-58.6-58.7S31.8,5.3,64.2,5.3s58.6,26.3,58.6,58.7C122.7,96.4,96.5,122.8,64.2,122.8z M29.6,37.3h69.2V32H29.6
				V37.3z"/>
		</g>
	</g>
</g>
<g id="_x31_2_1_" class="st0">
	<g id="icon_27_" class="st1">
		<g>
			<path d="M61.8,9.3v60.7h4.8V9.3l22,22.1l3.5-3.5L64.3,0l-0.1,0.1L64.1,0L36.3,27.9l3.5,3.5L61.8,9.3z M83.4,38.6v4.8h33.8v79.7
				H11.1V43.5h33.8v-4.8H6.3v89.3H122V38.6H83.4z"/>
		</g>
	</g>
</g>
<g id="_x31_1_1_" class="st0">
	<g id="icon_28_" class="st1">
		<g>
			<path d="M87.7,113.4H4.8V14.6h82.9V46h4.5V10.1H0.3v107.8h91.9V82.1h-4.5V113.4z M125.5,61.2l-21-23.1l-3.2,3.2l19.5,20.4H63.2
				v4.5H121l-19.8,22.4l3.2,3.2l21.2-25.1l2.4-2.9L125.5,61.2z"/>
		</g>
	</g>
</g>
<g id="_x31_0_1_" class="st0">
	<g id="icon_29_" class="st1">
		<g>
			<path d="M61.9,66.2v-4.4H8.8l20.1-20.1l-3.2-3.2L0.3,64.1l0,0l0,0l25.4,25.5l3.2-3.2L8.8,66.2H61.9z M37.7,11v35.3h4.4V15.4h81.5
				v97.1H42.1V81.8h-4.4v35.3H128V11H37.7z"/>
		</g>
	</g>
</g>
<g id="_x39__1_" class="st0">
	<g id="icon_30_" class="st1">
		<g>
			<path d="M7.4,0v87.7h37.9v-4.7H12.1V4.7h104.1v78.3H83.1v4.7H121V0H7.4z M66.5,118.9V57h-4.7v62L40.2,97.2l-3.4,3.4l27.3,27.4
				l0.1-0.1l0.1,0.1l27.3-27.4l-3.5-3.4L66.5,118.9z"/>
		</g>
	</g>
</g>
<g id="_x38__1_" class="st0">
	<g id="icon_31_" class="st1">
		<g>
			<path d="M90.5,33.8l-46,46.1V45h-5.4v43.5h0.5h5H83v-5.4H48.9l45.4-45.5L90.5,33.8z M109.3,18.8c-24.9-25-65.4-25-90.3,0
				s-24.9,65.5,0,90.5s65.4,25,90.3,0C134.3,84.4,134.3,43.8,109.3,18.8z M105.6,105.6c-22.9,22.9-59.9,22.9-82.8,0s-22.9-60.1,0-83
				s59.9-22.9,82.8,0C128.4,45.5,128.4,82.6,105.6,105.6z"/>
		</g>
	</g>
</g>
<g id="_x37__1_" class="st0">
	<g id="icon_32_" class="st1">
		<g>
			<path d="M83.2,79.4L37.8,33.8l-3.7,3.8l45.4,45.5H45.2v5.4h38h5.4v-5.4V45h-5.4V79.4z M109.3,18.8c-24.9-25-65.4-25-90.3,0
				s-24.9,65.5,0,90.5s65.4,25,90.3,0C134.3,84.4,134.3,43.8,109.3,18.8z M105.6,105.6c-22.9,22.9-59.9,22.9-82.8,0s-22.9-60.1,0-83
				s59.9-22.9,82.8,0C128.4,45.5,128.4,82.6,105.6,105.6z"/>
		</g>
	</g>
</g>
<g id="_x36__1_" class="st0">
	<g id="icon_33_" class="st1">
		<g>
			<path d="M109.3,18.8c-24.9-25-65.4-25-90.3,0s-24.9,65.5,0,90.5s65.4,25,90.3,0C134.3,84.4,134.3,43.8,109.3,18.8z M105.6,105.6
				c-22.9,22.9-59.9,22.9-82.8,0s-22.9-60.1,0-83s59.9-22.9,82.8,0C128.4,45.5,128.4,82.6,105.6,105.6z M83.1,45v-5.4h-38h-5.4V45
				v38.1h5.4V48.8l45.4,45.5l3.8-3.8L48.9,45H83.1z"/>
		</g>
	</g>
</g>
<g id="_x35__1_" class="st0">
	<g id="icon_34_" class="st1">
		<g>
			<path d="M109.3,18.8c-24.9-25-65.4-25-90.3,0s-24.9,65.5,0,90.5s65.4,25,90.3,0C134.3,84.4,134.3,43.8,109.3,18.8z M105.6,105.6
				c-22.9,22.9-59.9,22.9-82.8,0s-22.9-60.1,0-83s59.9-22.9,82.8,0C128.4,45.5,128.4,82.6,105.6,105.6z M45.2,39.5V45h34.2
				L34.1,90.4l3.8,3.8l45.4-45.5v34.3h5.4V45v-5.4h-5.4H45.2z"/>
		</g>
	</g>
</g>
<g>
	<path d="M63.9,28.8L63.9,28.8L33.2,59.5l3.8,3.8l24.5-24.5v65.2h5.3V39.5l24,24l3.8-3.8L63.9,28.8L63.9,28.8z"/>
</g>
<g id="_x33__1_" class="st0">
	<g id="icon_36_" class="st1">
		<g>
			<path d="M68.5,33.5l-3.8,3.8L89.3,62H24.2v5.3h64.3l-23.8,24l3.8,3.8l30.7-30.8l-0.1-0.1l0.1-0.1L68.5,33.5z M64.2,0
				C28.9,0,0.3,28.8,0.3,64.1s28.6,64,63.9,64s63.9-28.7,63.9-64C128,28.8,99.4,0,64.2,0z M64.2,122.8c-32.4,0-58.6-26.3-58.6-58.7
				S31.8,5.3,64.2,5.3c32.3,0,58.6,26.3,58.6,58.7C122.7,96.4,96.5,122.8,64.2,122.8z"/>
		</g>
	</g>
</g>
<g id="_x32__1_" class="st0">
	<g id="icon_37_" class="st1">
		<g>
			<path d="M64.1,37l-3.8-3.8L29.6,64.1l0,0l0,0l30.7,30.8l3.8-3.8L39.9,66.8h64.2v-5.3H39.9L64.1,37z M64.2,0
				C28.9,0,0.3,28.8,0.3,64.1s28.6,64,63.9,64s63.9-28.7,63.9-64C128,28.8,99.4,0,64.2,0z M64.2,122.8c-32.4,0-58.6-26.3-58.6-58.7
				S31.8,5.3,64.2,5.3s58.6,26.3,58.6,58.7C122.7,96.4,96.5,122.8,64.2,122.8z"/>
		</g>
	</g>
</g>
<g id="_x31__1_" class="st0">
	<g id="icon_38_" class="st1">
		<g>
			<path d="M64.2,0C28.9,0,0.3,28.8,0.3,64.1s28.6,64,63.9,64s63.9-28.7,63.9-64C128,28.8,99.4,0,64.2,0z M64.2,122.8
				c-32.4,0-58.6-26.3-58.6-58.7S31.8,5.3,64.2,5.3s58.6,26.3,58.6,58.7C122.7,96.4,96.5,122.8,64.2,122.8z M66.8,88.6V24h-5.3v64.5
				L37.2,64.2l-3.8,3.8l30.7,30.8l0.1-0.1l0.1,0.1L95,68.1l-3.9-3.8L66.8,88.6z"/>
		</g>
	</g>
</g>
</svg>
